<svg xmlns="http://www.w3.org/2000/svg" width="320" height="200" viewBox="0 0 320 200">
  <g id="Group_34" data-name="Group 34" transform="translate(-301 -246)">
    <rect id="Rectangle_1" data-name="Rectangle 1" width="320" height="200" transform="translate(301 246)" fill="#fff"/>
    <g id="_1" data-name="1" transform="translate(365.972 266.846)">
      <path id="Path_1" data-name="Path 1" d="M321.941,554.877s71-59.254,111.889,0" transform="translate(-285.962 -432.666)" fill="#f2f2f2"/>
      <ellipse id="Ellipse_1" data-name="Ellipse 1" cx="32.883" cy="5.125" rx="32.883" ry="5.125" transform="translate(119.601 147.461)" fill="#f2f2f2"/>
      <ellipse id="Ellipse_2" data-name="Ellipse 2" cx="32.883" cy="5.125" rx="32.883" ry="5.125" transform="translate(124.939 145.539)" fill="none" stroke="#3f3d56" stroke-miterlimit="10" stroke-width="1"/>
      <path id="Path_2" data-name="Path 2" d="M950,513.133a3.316,3.316,0,1,0,.442-6.359l.083,1.707-.807-1.463a3.3,3.3,0,0,0-1.7,1.868,3.255,3.255,0,0,0-.191.9A3.315,3.315,0,0,0,950,513.133Z" transform="translate(-778.196 -415.489)" fill="#57b894"/>
      <path id="Path_3" data-name="Path 3" d="M974.457,522.431c-.285-1.451.95-2.738,2.17-3.575s2.646-1.658,3.062-3.077c.6-2.04-1.184-3.908-2.571-5.519a19.964,19.964,0,0,1-2.633-3.912,5.387,5.387,0,0,1-.63-1.779,6.138,6.138,0,0,1,.474-2.666q1.462-4.31,3.127-8.548" transform="translate(-798.656 -404.992)" fill="none" stroke="#3f3d56" stroke-miterlimit="10" stroke-width="1"/>
      <path id="Path_4" data-name="Path 4" d="M950.642,511.075a3.316,3.316,0,1,0,.442-6.359l.083,1.707-.807-1.463a3.3,3.3,0,0,0-1.7,1.868,3.25,3.25,0,0,0-.191.9A3.315,3.315,0,0,0,950.642,511.075Z" transform="translate(-778.699 -413.87)" fill="none" stroke="#3f3d56" stroke-miterlimit="10" stroke-width="1"/>
      <path id="Path_5" data-name="Path 5" d="M974.127,482.549a3.312,3.312,0,0,1,2.387-2.1l.273,1.622.506-1.7a3.315,3.315,0,1,1-3.166,2.184Z" transform="translate(-798.731 -394.776)" fill="#57b894"/>
      <path id="Path_6" data-name="Path 6" d="M974.98,479.805a3.312,3.312,0,0,1,2.387-2.1l.273,1.622.506-1.7a3.315,3.315,0,1,1-3.166,2.184Z" transform="translate(-799.401 -392.618)" fill="none" stroke="#3f3d56" stroke-miterlimit="10" stroke-width="1"/>
      <path id="Path_7" data-name="Path 7" d="M978.444,548.984a3.315,3.315,0,0,0,2.935-5.9l-.389,1.309-.276-1.642-.008,0a3.316,3.316,0,1,0-2.261,6.234Z" transform="translate(-800.563 -443.684)" fill="#57b894"/>
      <path id="Path_8" data-name="Path 8" d="M979.182,546.205a3.315,3.315,0,0,0,2.935-5.9l-.389,1.31-.276-1.642-.008,0a3.316,3.316,0,1,0-2.261,6.234Z" transform="translate(-801.144 -441.498)" fill="none" stroke="#3f3d56" stroke-miterlimit="10" stroke-width="1"/>
      <path id="Path_9" data-name="Path 9" d="M970.141,584.148a3.314,3.314,0,1,0,.639-2.6l1.477,2.224-2.019-1.18A3.285,3.285,0,0,0,970.141,584.148Z" transform="translate(-795.712 -473.341)" fill="#57b894"/>
      <path id="Path_10" data-name="Path 10" d="M970.78,582.09a3.314,3.314,0,1,0,.639-2.6l1.477,2.224-2.019-1.18A3.287,3.287,0,0,0,970.78,582.09Z" transform="translate(-796.215 -471.722)" fill="none" stroke="#3f3d56" stroke-miterlimit="10" stroke-width="1"/>
      <path id="Path_11" data-name="Path 11" d="M955.2,629.019a28.869,28.869,0,0,0,3.808-1.775c.882-.628,4.5-1.378,4.72-.371s4.4,5.009,1.094,5.035-7.676.542-8.556.006S955.2,629.019,955.2,629.019Z" transform="translate(-784 -509.614)" fill="#656380"/>
      <path id="Path_12" data-name="Path 12" d="M964.876,641.259c-3.3.027-7.676.542-8.556.006-.67-.408-.937-1.873-1.027-2.549l-.1,0s.185,2.36,1.065,2.9,5.252.021,8.556-.006c.954-.008,1.283-.347,1.265-.849C965.95,641.064,965.587,641.254,964.876,641.259Z" transform="translate(-783.998 -519.315)" opacity="0.2"/>
      <rect id="Rectangle_2" data-name="Rectangle 2" width="12.812" height="33.738" rx="6.406" transform="translate(33.951 88.581)" fill="#28c6dc"/>
      <rect id="Rectangle_3" data-name="Rectangle 3" width="12.812" height="54.023" rx="6.406" transform="translate(58.293 68.295)" fill="#28c6dc"/>
      <rect id="Rectangle_4" data-name="Rectangle 4" width="12.812" height="68.116" rx="6.406" transform="translate(82.636 54.202)" fill="#28c6dc"/>
      <rect id="Rectangle_5" data-name="Rectangle 5" width="12.812" height="81.568" rx="6.406" transform="translate(106.978 40.75)" fill="#28c6dc"/>
      <rect id="Rectangle_6" data-name="Rectangle 6" width="12.812" height="105.056" rx="6.406" transform="translate(131.32 17.262)" fill="#28c6dc"/>
      <rect id="Rectangle_7" data-name="Rectangle 7" width="12.812" height="33.738" rx="6.406" transform="translate(35.659 86.872)" fill="none" stroke="#3f3d56" stroke-miterlimit="10" stroke-width="1"/>
      <rect id="Rectangle_8" data-name="Rectangle 8" width="12.812" height="54.023" rx="6.406" transform="translate(60.002 66.587)" fill="none" stroke="#3f3d56" stroke-miterlimit="10" stroke-width="1"/>
      <rect id="Rectangle_9" data-name="Rectangle 9" width="12.812" height="68.116" rx="6.406" transform="translate(84.344 52.494)" fill="none" stroke="#3f3d56" stroke-miterlimit="10" stroke-width="1"/>
      <rect id="Rectangle_10" data-name="Rectangle 10" width="12.812" height="81.568" rx="6.406" transform="translate(108.686 39.042)" fill="none" stroke="#3f3d56" stroke-miterlimit="10" stroke-width="1"/>
      <rect id="Rectangle_11" data-name="Rectangle 11" width="12.812" height="105.056" rx="6.406" transform="translate(133.028 15.554)" fill="none" stroke="#3f3d56" stroke-miterlimit="10" stroke-width="1"/>
      <line id="Line_1" data-name="Line 1" x1="184" transform="translate(0.028 122.154)" fill="none" stroke="#3f3d56" stroke-miterlimit="10" stroke-width="1"/>
      <path id="Path_13" data-name="Path 13" d="M951.313,556.951s2.01,7.234-.536,8.306-1.742-8.038-1.742-8.038Z" transform="translate(-779.059 -455.009)" fill="#a0616a"/>
      <path id="Path_14" data-name="Path 14" d="M852.739,773.808a6.408,6.408,0,0,0-2.545.268,1.617,1.617,0,0,1-1.34.134s-2.947-.268-1.876,1.206,2.143,2.01,2.143,2.679,4.421.67,4.555,0,.268-4.153,0-4.287A2.114,2.114,0,0,0,852.739,773.808Z" transform="translate(-698.704 -625.514)" fill="#575a89"/>
      <path id="Path_15" data-name="Path 15" d="M894.009,773.809a6.408,6.408,0,0,1,2.545.268,1.617,1.617,0,0,0,1.34.134s2.947-.268,1.875,1.206-2.143,2.009-2.143,2.679-4.421.67-4.555,0-.268-4.153,0-4.287A2.115,2.115,0,0,1,894.009,773.809Z" transform="translate(-735.018 -625.514)" fill="#575a89"/>
      <path id="Path_16" data-name="Path 16" d="M847.008,544.349s-.938,21.167-.4,22.238,2.411,19.157,2.143,20.229-1.608,5.493,0,6.162,5.091,0,5.091,0,.938-5.359.536-8.172-.536-14.6-.536-14.6l2.679-12.325.938,11.655s.268,15.942-1.608,19.157.67,4.555.67,4.555,5.091.67,5.627.536-.4-5.359,0-7.636,1.34-15,2.143-18.085,5.359-20.229,2.009-23.712S847.008,544.349,847.008,544.349Z" transform="translate(-698.465 -443.88)" fill="#3f3d56"/>
      <circle id="Ellipse_3" data-name="Ellipse 3" cx="4.689" cy="4.689" r="4.689" transform="translate(153.633 48.356)" fill="#a0616a"/>
      <path id="Path_17" data-name="Path 17" d="M878.584,336.512s.8,6.43.4,6.564,7.1,0,7.1,0-1.474-3.885,0-6.966Z" transform="translate(-723.745 -281.323)" fill="#a0616a"/>
      <path id="Path_18" data-name="Path 18" d="M878.584,357.2a5.2,5.2,0,0,1,7.125,0l.25.958-2.016-.021h-5.359Z" transform="translate(-723.745 -296.784)" fill="#f2f2f2"/>
      <path id="Path_19" data-name="Path 19" d="M858.505,401.878c-.309.062-1.068.188-2.056.338-3.292.5-9.124,1.25-9.331.734-.268-.67-1.206-3.081-1.875-2.009s-.268,2.009-3.081,2.143a23.133,23.133,0,0,1-6.237-.632c-.723-.208-1.174-.45-1.131-.707.134-.8,1.608-16.076,1.608-17.55s.536-8.574.536-8.574l-3.85-7.576-.3-.6s.4-1.474,1.608-1.742,6.966-3.617,6.966-3.617a4.078,4.078,0,0,1,3.483-1.742c2.277.134,2.813-.8,5.894,1.742,0,0,3.751,1.608,5.091,2.411s2.813.8,2.947,2.143a4.1,4.1,0,0,1-.37,1.443,79.6,79.6,0,0,1-3.6,7.311l-.05.088s-.07,2.409,0,5.229v.007a33.891,33.891,0,0,0,.8,7.491C856.63,391.7,859.845,401.61,858.505,401.878Z" transform="translate(-687.725 -300.338)" fill="#575a89"/>
      <path id="Path_20" data-name="Path 20" d="M878.113,296.778a3.2,3.2,0,0,0-.53-1.184,6.4,6.4,0,0,0-.955-2.756,2.891,2.891,0,0,0-.856-.988,2.526,2.526,0,0,0-1.346-.336c-.085,0-.239.025-.378.031-.089-.027-.178-.052-.268-.075-.052-.116-.156-.455-.185-.432l-.391.31c-.165-.029-.331-.051-.5-.069l-.182-.519a3.555,3.555,0,0,0-.258.485q-.249-.012-.5-.009l-.332-.319a.468.468,0,0,1-.366.359q-.229.024-.457.061h-.037a4.094,4.094,0,0,0-2.381.392,2.347,2.347,0,0,0-.758.86c-.084.057-.168.113-.249.174a2.722,2.722,0,0,0-.7.7,2.945,2.945,0,0,0-.31.752,7.209,7.209,0,0,0-.357,2.463,3.655,3.655,0,0,0,.9,2.281c.351.377.8.655,1.148,1.031.723.775.859,1.856,1.477,2.676a4.678,4.678,0,0,0,2.9,1.6,4.839,4.839,0,0,0,3.6-.9,2.229,2.229,0,0,0,.614-.643,6.557,6.557,0,0,0,.345-2.135C877.056,299.246,878.334,298.123,878.113,296.778Z" transform="translate(-713.705 -245.658)" fill="#3f3d56"/>
      <path id="Path_21" data-name="Path 21" d="M830.854,558.833s2.01,7.234-.536,8.306-1.742-8.038-1.742-8.038Z" transform="translate(-684.321 -456.489)" fill="#a0616a"/>
      <path id="Path_22" data-name="Path 22" d="M837.783,412.647s-.879,13.043-.744,16.186c-.723-.208-1.173-.45-1.131-.707.134-.8,1.608-16.076,1.608-17.55s.536-8.574.536-8.574l-3.85-7.576c.062-.375.1-.6.1-.6l1.943,4.086,2.746.737Z" transform="translate(-688.84 -326.718)" opacity="0.1"/>
      <path id="Path_23" data-name="Path 23" d="M824.609,390.065l-.938.8s-1.206,7.1-1.072,8.842-2.813,28.133-.536,28.133,4.823-.4,4.421-1.34.669-16.818.669-16.818l1.206-13.994Z" transform="translate(-678.613 -323.758)" fill="#575a89"/>
      <path id="Path_24" data-name="Path 24" d="M939.508,390.027a79.584,79.584,0,0,1-3.6,7.311c.011-1.713.017-2.926.017-2.926l2.813-5.761.6-.469S939.406,388.892,939.508,390.027Z" transform="translate(-768.829 -322.277)" opacity="0.1"/>
      <path id="Path_25" data-name="Path 25" d="M939.033,477.147c-.309.062-1.068.188-2.056.338-.513-3.794-1.885-14.7-1.8-15.732.043-.506.079-3.009.107-5.762a33.887,33.887,0,0,0,.8,7.491C937.157,466.966,940.372,476.879,939.033,477.147Z" transform="translate(-768.252 -375.607)" opacity="0.1"/>
      <path id="Path_26" data-name="Path 26" d="M937.192,385.673l2.009.536s1.34,14.87,1.474,17.416,1.742,18.219,1.474,18.889-4.421,1.608-4.555.938-2.081-15.784-1.979-17-.567-13.81-.567-13.81Z" transform="translate(-768.153 -320.303)" fill="#575a89"/>
      <path id="Path_27" data-name="Path 27" d="M196.5,82.605,220.842,62.32,245.4,48.44,269.74,34.988,294.083,11.5" transform="translate(-154.542 -8.651)" fill="none" stroke="#3f3d56" stroke-miterlimit="10" stroke-width="1"/>
      <circle id="Ellipse_4" data-name="Ellipse 4" cx="2.349" cy="2.349" r="2.349" transform="translate(38.969 72.673)" fill="#f2f2f2"/>
      <circle id="Ellipse_5" data-name="Ellipse 5" cx="2.349" cy="2.349" r="2.349" transform="translate(63.311 52.387)" fill="#f2f2f2"/>
      <circle id="Ellipse_6" data-name="Ellipse 6" cx="2.349" cy="2.349" r="2.349" transform="translate(87.867 38.508)" fill="#f2f2f2"/>
      <circle id="Ellipse_7" data-name="Ellipse 7" cx="2.349" cy="2.349" r="2.349" transform="translate(112.209 25.056)" fill="#f2f2f2"/>
      <circle id="Ellipse_8" data-name="Ellipse 8" cx="2.349" cy="2.349" r="2.349" transform="translate(136.551 1.568)" fill="#f2f2f2"/>
      <circle id="Ellipse_9" data-name="Ellipse 9" cx="2.349" cy="2.349" r="2.349" transform="translate(39.61 71.605)" fill="none" stroke="#3f3d56" stroke-miterlimit="10" stroke-width="1"/>
      <circle id="Ellipse_10" data-name="Ellipse 10" cx="2.349" cy="2.349" r="2.349" transform="translate(63.952 51.32)" fill="none" stroke="#3f3d56" stroke-miterlimit="10" stroke-width="1"/>
      <circle id="Ellipse_11" data-name="Ellipse 11" cx="2.349" cy="2.349" r="2.349" transform="translate(88.508 37.44)" fill="none" stroke="#3f3d56" stroke-miterlimit="10" stroke-width="1"/>
      <circle id="Ellipse_12" data-name="Ellipse 12" cx="2.349" cy="2.349" r="2.349" transform="translate(112.85 23.988)" fill="none" stroke="#3f3d56" stroke-miterlimit="10" stroke-width="1"/>
      <circle id="Ellipse_13" data-name="Ellipse 13" cx="2.349" cy="2.349" r="2.349" transform="translate(137.192 0.5)" fill="none" stroke="#3f3d56" stroke-miterlimit="10" stroke-width="1"/>
    </g>
  </g>
</svg>
