<svg id="Layer_1" data-name="Layer 1" xmlns="http://www.w3.org/2000/svg" xmlns:xlink="http://www.w3.org/1999/xlink" viewBox="0 0 750 297.41"><defs><style>.cls-1,.cls-11{fill:#fff;}.cls-2,.cls-25{fill:#feeccb;}.cls-2{opacity:0.6;}.cls-10,.cls-11,.cls-12,.cls-2,.cls-29,.cls-4,.cls-48,.cls-5,.cls-52,.cls-53{isolation:isolate;}.cls-3,.cls-4,.cls-5{fill:#f6ddb1;}.cls-10,.cls-4,.cls-7{opacity:0.5;}.cls-18,.cls-5{opacity:0.25;}.cls-6{fill:#ffc661;}.cls-12,.cls-29,.cls-8{opacity:0.7;}.cls-12,.cls-9{fill:#fce7c0;}.cls-10{fill:#f1ae3c;}.cls-11{opacity:0.8;}.cls-13{fill:#fff8eb;}.cls-14,.cls-16,.cls-17,.cls-20,.cls-21,.cls-22,.cls-24,.cls-26,.cls-27,.cls-28,.cls-30,.cls-32,.cls-34,.cls-43{fill:none;}.cls-14,.cls-16,.cls-17,.cls-43{stroke:#fff;}.cls-14,.cls-16,.cls-17,.cls-21,.cls-22,.cls-26,.cls-27,.cls-30,.cls-34,.cls-43{stroke-linecap:round;}.cls-14,.cls-16,.cls-17,.cls-22,.cls-27{stroke-linejoin:round;}.cls-14{stroke-width:1.68px;}.cls-15{fill:#f48a6f;}.cls-16{stroke-width:1.98px;}.cls-17{stroke-width:2.02px;}.cls-19,.cls-29{fill:#deb86a;}.cls-20,.cls-21,.cls-22,.cls-28,.cls-30{stroke:#deb86a;}.cls-20,.cls-21,.cls-24,.cls-26,.cls-28,.cls-30,.cls-32,.cls-34,.cls-43{stroke-miterlimit:10;}.cls-20,.cls-24{stroke-width:1.3px;}.cls-21,.cls-26{stroke-width:5.41px;}.cls-22,.cls-27{stroke-width:3.91px;}.cls-23,.cls-53{fill:#f87c41;}.cls-24{stroke:#fce7c0;}.cls-26{stroke:#d84952;}.cls-27{stroke:#f48a6f;}.cls-28,.cls-32{stroke-width:1.08px;}.cls-30,.cls-34{stroke-width:3.25px;}.cls-31{fill:#ec8064;}.cls-32,.cls-34{stroke:#d1444b;}.cls-33{opacity:0.3;}.cls-35{fill:#d84952;}.cls-36{fill:#fccbbd;}.cls-37{fill:#e7aa2a;}.cls-38{fill:#ffbd48;}.cls-39{fill:#f5ae9e;}.cls-40{fill:#d85159;}.cls-41{fill:#f87943;}.cls-42{fill:#faa57d;}.cls-43{stroke-width:0.25px;}.cls-44{fill:#db8689;}.cls-45{fill:#d77a7e;}.cls-46{fill:#f88049;}.cls-47{fill:#edd0d1;}.cls-48{opacity:0.45;fill:url(#linear-gradient);}.cls-49{fill:#f9d89d;}.cls-50{fill:#f5c46e;}.cls-51{fill:#f67846;}.cls-52{opacity:0.47;fill:url(#linear-gradient-2);}.cls-53{font-size:43.1px;font-family:Roboto-Bold, Roboto;font-weight:700;}</style><linearGradient id="linear-gradient" x1="369.93" y1="82.48" x2="369.93" y2="52.56" gradientTransform="matrix(1, -0.04, -0.04, -1, 0.55, 326.8)" gradientUnits="userSpaceOnUse"><stop offset="0.37" stop-color="#f2d1af"/><stop offset="0.99" stop-color="#de9126"/></linearGradient><linearGradient id="linear-gradient-2" x1="369.94" y1="236.66" x2="371.61" y2="236.66" gradientTransform="matrix(1, 0, 0, -1, 0, 298)" gradientUnits="userSpaceOnUse"><stop offset="0" stop-color="#f6733d"/><stop offset="1" stop-color="#f6733d" stop-opacity="0"/></linearGradient></defs><title>Artboard 1</title><g id="BACKGROUND"><rect class="cls-1" y="-92" width="750" height="500"/></g><g id="OBJECTS"><path class="cls-2" d="M204.78,284.46S178.62,249,217.27,216.67c15.53-13,75.94-22.14,25.15-94.59-29.86-42.61,13.51-104.66,82.75-65.26C384.09,90.35,425.07,19,477.24,14.21c39.68-3.61,63.55,45.33,39.61,83.37C490,140.27,541.2,133.1,552.33,147.23c19.61,24.89-44,54.42-14.83,86,29.72,32.19,9.34,51.21,9.34,51.21Z"/><path class="cls-3" d="M500.48,285.47H194.94a1.1,1.1,0,0,1-1.1-1.1h0a1.09,1.09,0,0,1,1.09-1.09H500.48a1.09,1.09,0,0,1,1.09,1.09h0a1.09,1.09,0,0,1-1.08,1.1Z"/><path class="cls-3" d="M550.13,285.47h-46a1.09,1.09,0,0,1-1.09-1.09h0a1.09,1.09,0,0,1,1.09-1.09h46a1.09,1.09,0,0,1,1.09,1.09h0a1.09,1.09,0,0,1-1.08,1.1Z"/><path class="cls-4" d="M376.29,291.29h-131a1.09,1.09,0,0,1-1.09-1.09h0a1.09,1.09,0,0,1,1.09-1.09h131a1.09,1.09,0,0,1,1.09,1.09h0a1.09,1.09,0,0,1-1.08,1.1Z"/><path class="cls-4" d="M469.13,291.29H381.52a1.09,1.09,0,0,1-1.09-1.09h0a1.09,1.09,0,0,1,1.09-1.09h87.61a1.09,1.09,0,0,1,1.09,1.09h0a1.09,1.09,0,0,1-1.08,1.1Z"/><path class="cls-5" d="M453.64,297.41h-157a1.09,1.09,0,0,1-1.09-1.09h0a1.09,1.09,0,0,1,1.09-1.09h157a1.09,1.09,0,0,1,1.09,1.09h0A1.09,1.09,0,0,1,453.64,297.41Z"/><path class="cls-5" d="M495,297.41H459.4a1.09,1.09,0,0,1-1.1-1.08h0a1.09,1.09,0,0,1,1.09-1.09H495a1.09,1.09,0,0,1,1.09,1.09h0A1.09,1.09,0,0,1,495,297.41Z"/><path class="cls-6" d="M501.82,104V95.69h-3.54a27.7,27.7,0,0,0-5.16-12.45l2.51-2.51-5.87-5.86-2.5,2.5a27.79,27.79,0,0,0-12.45-5.15V68.67h-8.29v3.54a28,28,0,0,0-12.45,5.16l-2.51-2.5-5.86,5.86,2.5,2.51A27.87,27.87,0,0,0,443,95.69h-3.5V104h3.55a27.79,27.79,0,0,0,5.15,12.45l-2.5,2.5,5.86,5.87,2.51-2.51a27.7,27.7,0,0,0,12.45,5.16V131h8.29v-3.54a27.7,27.7,0,0,0,12.45-5.16l2.5,2.51,5.87-5.87-2.51-2.5A27.77,27.77,0,0,0,498.28,104Zm-10.27-6.23A21,21,0,1,1,468.6,78.92a21.23,21.23,0,0,1,4.78.08,21,21,0,0,1,18.17,18.75Z"/><circle class="cls-6" cx="470.66" cy="99.83" r="14.54"/><path class="cls-1" d="M520.6,76.79V73.4h-1.45a11.28,11.28,0,0,0-2.1-5.08l1-1-2.4-2.4-1,1a11.34,11.34,0,0,0-5.09-2.11V62.36h-3.39v1.45a11.34,11.34,0,0,0-5.09,2.11l-1-1-2.4,2.4,1,1a11.25,11.25,0,0,0-2.11,5.08h-1.45v3.39h1.45a11.29,11.29,0,0,0,2.11,5.09l-1,1,2.4,2.39,1-1a11.34,11.34,0,0,0,5.09,2.11v1.45h3.39V86.39a11.45,11.45,0,0,0,5.09-2.11l1,1,2.4-2.39-1-1a11.32,11.32,0,0,0,2.1-5.09Zm-4.2-2.54A8.58,8.58,0,1,1,507,66.56a8.2,8.2,0,0,1,2,0,8.59,8.59,0,0,1,7.4,7.66Z"/><path class="cls-1" d="M513.81,75.1a6,6,0,1,1-6-5.94h0a5.94,5.94,0,0,1,5.94,5.94Z"/><g class="cls-7"><path class="cls-1" d="M268,234.11a16.64,16.64,0,0,0-13.32-6.63,16.86,16.86,0,0,0-16.65,16,16.68,16.68,0,0,0,30.38,10.16l-13.7-9.5Z"/><path class="cls-1" d="M271.86,234.11l-13.29,10.06,13.7,9.5A16.63,16.63,0,0,0,271.86,234.11Z"/></g><g class="cls-8"><path class="cls-9" d="M262.64,112.54a23,23,0,1,1,23-23A23,23,0,0,1,262.64,112.54Zm0-42.5a19.48,19.48,0,1,0,19.47,19.49h0A19.5,19.5,0,0,0,262.64,70Z"/><path class="cls-9" d="M276.71,89.52h0a1.19,1.19,0,0,1,1.17-1.17h2a1.19,1.19,0,0,1,1.17,1.17h0a1.18,1.18,0,0,1-1.17,1.16h-2A1.18,1.18,0,0,1,276.71,89.52Z"/><path class="cls-9" d="M244.23,89.52h0a1.19,1.19,0,0,1,1.17-1.17h2a1.18,1.18,0,0,1,1.16,1.17h0a1.16,1.16,0,0,1-1.16,1.16h-2A1.18,1.18,0,0,1,244.23,89.52Z"/><path class="cls-9" d="M262.64,103.59h0a1.18,1.18,0,0,1,1.16,1.17v2a1.16,1.16,0,0,1-1.16,1.16h0a1.18,1.18,0,0,1-1.17-1.16v-2A1.19,1.19,0,0,1,262.64,103.59Z"/><path class="cls-9" d="M262.64,71.11h0a1.16,1.16,0,0,1,1.16,1.16h0v2a1.16,1.16,0,0,1-1.15,1.17h0a1.17,1.17,0,0,1-1.17-1.17h0v-2a1.17,1.17,0,0,1,1.17-1.17Z"/><path class="cls-9" d="M252.68,99.47h0a1.16,1.16,0,0,1,0,1.64h0l-1.41,1.41a1.16,1.16,0,0,1-1.64,0h0a1.18,1.18,0,0,1,0-1.65L251,99.47a1.17,1.17,0,0,1,1.64,0Z"/><path class="cls-9" d="M275.65,76.5h0a1.16,1.16,0,0,1,0,1.64h0l-1.41,1.41a1.16,1.16,0,0,1-1.64,0h0a1.18,1.18,0,0,1,0-1.65L274,76.5A1.18,1.18,0,0,1,275.65,76.5Z"/><path class="cls-9" d="M252.68,79.56h0a1.15,1.15,0,0,1-1.63,0h0l-1.42-1.41a1.18,1.18,0,0,1,0-1.65h0a1.18,1.18,0,0,1,1.65,0l1.41,1.41a1.16,1.16,0,0,1,0,1.64Z"/><path class="cls-9" d="M275.65,102.53h0a1.16,1.16,0,0,1-1.64,0h0l-1.41-1.41a1.18,1.18,0,0,1,0-1.65h0a1.18,1.18,0,0,1,1.65,0l1.41,1.41a1.16,1.16,0,0,1,0,1.64Z"/><path class="cls-9" d="M264.54,89.52a1.91,1.91,0,1,1-1.91-1.91h0a1.9,1.9,0,0,1,1.9,1.9Z"/><path class="cls-9" d="M262.64,87.13h0a.36.36,0,0,1-.37-.35V77a.38.38,0,0,1,.37-.37h0A.37.37,0,0,1,263,77v9.74a.38.38,0,0,1-.35.39Z"/><path class="cls-9" d="M265.26,89.52h0a.38.38,0,0,1,.37-.37h6.44a.38.38,0,0,1,.37.37h0a.39.39,0,0,1-.37.37h-6.43A.38.38,0,0,1,265.26,89.52Z"/></g><path class="cls-10" d="M511,155h-2.77v-2.77a.81.81,0,0,0-1.62,0V155h-2.78a.81.81,0,0,0,0,1.62h2.78v2.77a.81.81,0,0,0,1.62,0v-2.77H511a.81.81,0,0,0,0-1.62Z"/><path class="cls-1" d="M259.52,215.86h-2.77v-2.77a.82.82,0,0,0-.91-.72.81.81,0,0,0-.72.72v2.77h-2.77a.81.81,0,1,0,0,1.62h2.77v2.77a.82.82,0,0,0,.91.72.81.81,0,0,0,.72-.72v-2.77h2.77a.81.81,0,0,0,0-1.62Z"/><path class="cls-1" d="M217.33,272.46h-1.81v-1.82a.54.54,0,0,0-1.07,0v1.82h-1.81a.53.53,0,1,0,0,1.06h1.81v1.82a.54.54,0,0,0,1.07,0v-1.82h1.81a.53.53,0,1,0,0-1.06Z"/><path class="cls-10" d="M280.74,32.17H278V29.4a.81.81,0,0,0-1.62,0h0v2.77h-2.77a.81.81,0,0,0,0,1.62h2.77v2.77a.81.81,0,0,0,1.62,0h0V33.79h2.78a.81.81,0,1,0,0-1.62h0Z"/><path class="cls-11" d="M322.82,226.66H320v-2.77a.81.81,0,0,0-1.62,0v2.77h-2.77a.81.81,0,0,0,0,1.62h2.77v2.77a.81.81,0,0,0,1.62,0h0v-2.77h2.78a.81.81,0,0,0,0-1.62Z"/><path class="cls-6" d="M419.6,31.29h-2.77V28.51a.81.81,0,1,0-1.62,0h0v2.78h-2.78a.81.81,0,0,0,0,1.62h2.78v2.77a.81.81,0,1,0,1.62,0h0V32.91h2.77a.81.81,0,1,0,0-1.62Z"/><path class="cls-2" d="M339.62,43.24h-1.57V41.67a.47.47,0,0,0-.46-.46.45.45,0,0,0-.46.44v1.59h-1.57a.45.45,0,0,0-.46.44v0a.47.47,0,0,0,.46.46h1.57v1.57a.47.47,0,0,0,.46.46.48.48,0,0,0,.46-.46V44.16h1.57a.48.48,0,0,0,.46-.46A.47.47,0,0,0,339.62,43.24Z"/><path class="cls-11" d="M338.21,266.7a5.57,5.57,0,0,0-2.81.79,9.23,9.23,0,0,0-17.63-2.6,6.59,6.59,0,1,0-3.45,12.72,6.36,6.36,0,0,0,1.68.23h22.18a5.57,5.57,0,1,0,0-11.14Z"/><path class="cls-11" d="M414.21,253a5.47,5.47,0,0,0-2.81.79,9.24,9.24,0,0,0-17.63-2.61,6.85,6.85,0,0,0-1.74-.26,6.61,6.61,0,0,0-.51,13.21h22.69a5.57,5.57,0,0,0,.47-11.13Z"/><path class="cls-12" d="M244.63,162.15a4,4,0,0,0-2.09.59,6.85,6.85,0,0,0-13.08-1.94,5.09,5.09,0,0,0-1.29-.19,4.9,4.9,0,1,0,0,9.8h16.46a4.13,4.13,0,0,0,0-8.26Z"/><path class="cls-13" d="M473.51,45.94A16.35,16.35,0,0,1,471.34,50a16.68,16.68,0,1,1-7.78-25.45l-5.72,15.66,16.4-3A16.64,16.64,0,0,1,473.51,45.94Z"/><path class="cls-13" d="M476.66,35A16.63,16.63,0,0,0,466,22.31L460.27,38Z"/><path class="cls-1" d="M473.51,45.94A16.35,16.35,0,0,1,471.34,50l-13.5-9.79,16.4-3A16.64,16.64,0,0,1,473.51,45.94Z"/><path class="cls-1" d="M463.56,24.55l-5.72,15.66-16.16,4.13a16.68,16.68,0,0,1,21.88-19.79Z"/><path class="cls-1" d="M498.22,34.41a4.17,4.17,0,0,0-3.09,1.37l-3.32-2.34a2.82,2.82,0,1,0-2.58,1.67h0a2.76,2.76,0,0,0,1.94-.79l3.33,2.34a4.06,4.06,0,0,0,.45,4.57L493.26,43a2.79,2.79,0,1,0,.78.74l1.7-1.78a4.13,4.13,0,0,0,2.48.83,4.2,4.2,0,0,0,0-8.39Z"/><path class="cls-6" d="M249.86,189a5.33,5.33,0,1,1-5.37-5.29,5.33,5.33,0,0,1,5.37,5.29Z"/><polyline class="cls-14" points="242.19 189.26 244.31 191.28 247.08 187.47"/><path class="cls-15" d="M530.46,116.67a6.26,6.26,0,1,1-6.32-6.2h0A6.27,6.27,0,0,1,530.46,116.67Z"/><polyline class="cls-16" points="521.45 117.04 523.93 119.41 527.19 114.94"/><path class="cls-2" d="M551.24,224a6.39,6.39,0,1,1-6.45-6.33h0A6.38,6.38,0,0,1,551.24,224Z"/><polyline class="cls-17" points="542.05 224.35 544.58 226.76 547.9 222.2"/><g class="cls-18"><path class="cls-19" d="M458.69,77V206.84A10.21,10.21,0,0,1,448.5,217H289.88a10.2,10.2,0,0,1-10.19-10.2V77a10.19,10.19,0,0,1,10.18-10.2H448.5A10.19,10.19,0,0,1,458.69,77Z"/><path class="cls-19" d="M458.69,77V95.15h-179V77a10.19,10.19,0,0,1,10.18-10.2H448.5A10.19,10.19,0,0,1,458.69,77Z"/><rect class="cls-19" x="286.79" y="103.19" width="20.4" height="20.4" rx="2.32"/><rect class="cls-19" x="315.85" y="103.19" width="20.4" height="20.4" rx="2.32"/><rect class="cls-19" x="344.91" y="103.19" width="20.4" height="20.4" rx="2.32"/><rect class="cls-19" x="373.98" y="103.19" width="20.4" height="20.4" rx="2.32"/><rect class="cls-20" x="403.04" y="103.19" width="20.4" height="20.4" rx="2.32"/><rect class="cls-19" x="432.11" y="103.19" width="20.4" height="20.4" rx="2.32"/><rect class="cls-19" x="286.79" y="130.56" width="20.4" height="20.4" rx="2.32"/><rect class="cls-19" x="315.85" y="130.56" width="20.4" height="20.4" rx="2.32"/><rect class="cls-20" x="344.91" y="130.56" width="20.4" height="20.4" rx="2.32"/><rect class="cls-19" x="373.98" y="130.56" width="20.4" height="20.4" rx="2.32"/><rect class="cls-19" x="403.04" y="130.56" width="20.4" height="20.4" rx="2.32"/><rect class="cls-19" x="432.11" y="130.56" width="20.4" height="20.4" rx="2.32"/><rect class="cls-19" x="286.79" y="157.93" width="20.4" height="20.4" rx="2.32"/><rect class="cls-19" x="315.85" y="157.93" width="20.4" height="20.4" rx="2.32"/><rect class="cls-19" x="344.91" y="157.93" width="20.4" height="20.4" rx="2.32"/><rect class="cls-19" x="373.98" y="157.93" width="20.4" height="20.4" rx="2.32"/><rect class="cls-19" x="403.04" y="157.93" width="20.4" height="20.4" rx="2.32"/><rect class="cls-19" x="432.11" y="157.93" width="20.4" height="20.4" rx="2.32"/><rect class="cls-20" x="286.79" y="185.31" width="20.4" height="20.4" rx="2.32"/><rect class="cls-19" x="315.85" y="185.31" width="20.4" height="20.4" rx="2.32"/><rect class="cls-19" x="344.91" y="185.31" width="20.4" height="20.4" rx="2.32"/><rect class="cls-19" x="373.98" y="185.31" width="20.4" height="20.4" rx="2.32"/><rect class="cls-19" x="403.04" y="185.31" width="20.4" height="20.4" rx="2.32"/><rect class="cls-19" x="432.11" y="185.31" width="20.4" height="20.4" rx="2.32"/><path class="cls-19" d="M294.17,82.62a3.71,3.71,0,1,1-3.71-3.71h0A3.72,3.72,0,0,1,294.17,82.62Z"/><circle class="cls-19" cx="322.06" cy="82.62" r="3.71"/><circle class="cls-19" cx="353.65" cy="82.62" r="3.71"/><path class="cls-19" d="M389,82.62a3.71,3.71,0,1,1-3.71-3.71h0A3.72,3.72,0,0,1,389,82.62Z"/><path class="cls-19" d="M420.54,82.62a3.71,3.71,0,1,1-3.71-3.71h0A3.72,3.72,0,0,1,420.54,82.62Z"/><path class="cls-19" d="M452.13,82.62a3.71,3.71,0,1,1-3.71-3.71h0A3.72,3.72,0,0,1,452.13,82.62Z"/><line class="cls-21" x1="290.46" y1="82.62" x2="290.46" y2="65.2"/><line class="cls-21" x1="322.06" y1="82.62" x2="322.06" y2="65.2"/><line class="cls-21" x1="353.65" y1="82.62" x2="353.65" y2="65.2"/><line class="cls-21" x1="416.83" y1="82.62" x2="416.83" y2="65.2"/><line class="cls-21" x1="448.42" y1="82.62" x2="448.42" y2="65.2"/><path class="cls-19" d="M361,162.66a16.09,16.09,0,0,1-1.8.52,17.25,17.25,0,0,1,.68,4.57h3.29A7.94,7.94,0,0,0,361,162.66Zm-2.71-1.9a14.69,14.69,0,0,1,.68,1.7c.48-.11.95-.24,1.42-.39a7.84,7.84,0,0,0-2.14-1.31Zm-1-.36a7.42,7.42,0,0,0-1.75-.27v2.75a16.25,16.25,0,0,0,2.7-.26,16.38,16.38,0,0,0-1-2.22Zm1.17,2.94a16.8,16.8,0,0,1-2.92.29v4.12h3.6a16.09,16.09,0,0,0-.73-4.41Zm-3.3-3.22Zm-2.12.28a16,16,0,0,0-1,2.21,15.26,15.26,0,0,0,2.7.27v-2.75a7.67,7.67,0,0,0-1.79.27Zm-3.11,1.66c.47.16.94.28,1.42.4a16.73,16.73,0,0,1,.68-1.7,7.87,7.87,0,0,0-2.15,1.3Zm1.94,1.28a16.09,16.09,0,0,0-.68,4.41h3.6v-4.12a17.38,17.38,0,0,1-3-.29Zm-2.55-.7a8,8,0,0,0-2.17,5.11h3.29a18.18,18.18,0,0,1,.68-4.58,17,17,0,0,1-1.85-.53Zm6.22,5.87v4.12a17.73,17.73,0,0,1,2.91.3,15.75,15.75,0,0,0,.69-4.42Zm4.35,0a16.8,16.8,0,0,1-.69,4.57c.61.15,1.21.32,1.81.53a8,8,0,0,0,2.17-5.1Zm-8.53,5.3a14.46,14.46,0,0,0-1.43.4,7.77,7.77,0,0,0,2.12,1.32,10.13,10.13,0,0,1-.74-1.72Zm7.61,0a17.14,17.14,0,0,1-.69,1.72,7.77,7.77,0,0,0,2.12-1.32,10.34,10.34,0,0,0-1.48-.41Zm-3.43-.41v2.76a8.53,8.53,0,0,0,1.73-.27,15,15,0,0,0,1-2.22,14.7,14.7,0,0,0-2.73-.28Zm-3.43.28a16.26,16.26,0,0,0,1,2.21,8.33,8.33,0,0,0,1.72.27V173.4a15.12,15.12,0,0,0-2.77.27Zm-1.67-5.16H347.1a8,8,0,0,0,2.17,5.12,16.52,16.52,0,0,1,1.82-.54,17,17,0,0,1-.7-4.59Zm.75,0a16.51,16.51,0,0,0,.69,4.42,17.73,17.73,0,0,1,2.91-.3v-4.12Z"/><polyline class="cls-22" points="291 114.81 295.92 118.92 303.01 109.07"/><polyline class="cls-22" points="407.81 114.81 412.73 118.92 419.81 109.07"/><polyline class="cls-22" points="320.05 195.7 324.97 199.81 332.05 189.96"/></g><path class="cls-1" d="M453.49,71.79V201.64a10.2,10.2,0,0,1-10.2,10.19H284.68a10.2,10.2,0,0,1-10.2-10.19V71.79a10.2,10.2,0,0,1,10.2-10.2H443.29A10.2,10.2,0,0,1,453.49,71.79Z"/><path class="cls-23" d="M453.49,71.79V90h-179V71.79a10.2,10.2,0,0,1,10.2-10.2h158.6A10.2,10.2,0,0,1,453.49,71.79Z"/><rect class="cls-9" x="281.58" y="97.98" width="20.4" height="20.4" rx="2.32"/><rect class="cls-9" x="310.64" y="97.98" width="20.4" height="20.4" rx="2.32"/><rect class="cls-9" x="339.71" y="97.98" width="20.4" height="20.4" rx="2.32"/><rect class="cls-9" x="368.77" y="97.98" width="20.4" height="20.4" rx="2.32"/><rect class="cls-24" x="397.84" y="97.98" width="20.4" height="20.4" rx="2.32"/><rect class="cls-9" x="426.9" y="97.98" width="20.4" height="20.4" rx="2.32"/><rect class="cls-9" x="281.58" y="125.35" width="20.4" height="20.4" rx="2.32"/><rect class="cls-9" x="310.64" y="125.35" width="20.4" height="20.4" rx="2.32"/><rect class="cls-24" x="339.71" y="125.35" width="20.4" height="20.4" rx="2.32"/><rect class="cls-9" x="368.77" y="125.35" width="20.4" height="20.4" rx="2.32"/><rect class="cls-9" x="397.84" y="125.35" width="20.4" height="20.4" rx="2.32"/><rect class="cls-9" x="426.9" y="125.35" width="20.4" height="20.4" rx="2.32"/><rect class="cls-9" x="281.58" y="152.73" width="20.4" height="20.4" rx="2.32"/><rect class="cls-9" x="310.64" y="152.73" width="20.4" height="20.4" rx="2.32"/><rect class="cls-9" x="339.71" y="152.73" width="20.4" height="20.4" rx="2.32"/><rect class="cls-9" x="368.77" y="152.73" width="20.4" height="20.4" rx="2.32"/><rect class="cls-9" x="397.84" y="152.73" width="20.4" height="20.4" rx="2.32"/><rect class="cls-9" x="426.9" y="152.73" width="20.4" height="20.4" rx="2.32"/><rect class="cls-24" x="281.58" y="180.1" width="20.4" height="20.4" rx="2.32"/><rect class="cls-9" x="310.64" y="180.1" width="20.4" height="20.4" rx="2.32"/><rect class="cls-9" x="339.71" y="180.1" width="20.4" height="20.4" rx="2.32"/><rect class="cls-9" x="368.77" y="180.1" width="20.4" height="20.4" rx="2.32"/><rect class="cls-9" x="397.84" y="180.1" width="20.4" height="20.4" rx="2.32"/><rect class="cls-9" x="426.9" y="180.1" width="20.4" height="20.4" rx="2.32"/><path class="cls-25" d="M289,77.41a3.71,3.71,0,1,1-3.71-3.71h0A3.71,3.71,0,0,1,289,77.41Z"/><circle class="cls-25" cx="316.85" cy="77.41" r="3.71"/><circle class="cls-25" cx="348.44" cy="77.41" r="3.71"/><path class="cls-25" d="M383.74,77.41A3.71,3.71,0,1,1,380,73.7a3.71,3.71,0,0,1,3.74,3.71Z"/><path class="cls-25" d="M415.33,77.41a3.71,3.71,0,1,1-3.71-3.71h0A3.71,3.71,0,0,1,415.33,77.41Z"/><path class="cls-25" d="M446.92,77.41a3.71,3.71,0,1,1-3.71-3.71h0A3.71,3.71,0,0,1,446.92,77.41Z"/><line class="cls-26" x1="285.26" y1="77.41" x2="285.26" y2="59.99"/><line class="cls-26" x1="316.85" y1="77.41" x2="316.85" y2="59.99"/><line class="cls-26" x1="348.44" y1="77.41" x2="348.44" y2="59.99"/><line class="cls-26" x1="411.62" y1="77.41" x2="411.62" y2="59.99"/><line class="cls-26" x1="443.21" y1="77.41" x2="443.21" y2="59.99"/><path class="cls-1" d="M355.76,157.45c-.6.21-1.2.38-1.81.53a17.68,17.68,0,0,1,.69,4.57h3.28A8,8,0,0,0,355.76,157.45Zm-2.72-1.9a15.6,15.6,0,0,1,.68,1.71,13.25,13.25,0,0,0,1.42-.4,7.61,7.61,0,0,0-2.14-1.31Zm-1-.36a7.42,7.42,0,0,0-1.76-.27v2.75a16.25,16.25,0,0,0,2.7-.26,18.26,18.26,0,0,0-1-2.22Zm1.16,2.95a16.79,16.79,0,0,1-2.92.28v4.13h3.6A15.72,15.72,0,0,0,353.2,158.14Zm-3.29-3.23Zm-2.13.28a16,16,0,0,0-.95,2.21,17.4,17.4,0,0,0,2.7.27v-2.75A7.42,7.42,0,0,0,347.78,155.19Zm-3.11,1.66a14.28,14.28,0,0,0,1.42.4,16.73,16.73,0,0,1,.68-1.7A8,8,0,0,0,344.67,156.85Zm1.94,1.28a16.56,16.56,0,0,0-.68,4.42h3.6v-4.13a16.8,16.8,0,0,1-2.92-.29Zm-2.54-.7a7.92,7.92,0,0,0-2.17,5.12h3.28a17.41,17.41,0,0,1,.69-4.59,12.78,12.78,0,0,1-1.8-.53Zm6.21,5.87v4.13a16.8,16.8,0,0,1,2.92.29,16.11,16.11,0,0,0,.68-4.42Zm4.36,0a17.35,17.35,0,0,1-.7,4.58c.61.14,1.21.32,1.81.52a8,8,0,0,0,2.17-5.1Zm-8.53,5.3c-.48.12-1,.24-1.44.4a7.77,7.77,0,0,0,2.12,1.32C346.54,169.76,346.31,169.19,346.11,168.6Zm7.6,0a17.14,17.14,0,0,1-.69,1.72,7.8,7.8,0,0,0,2.12-1.33C354.67,168.84,354.19,168.71,353.71,168.6Zm-3.43-.42v2.76a8.53,8.53,0,0,0,1.73-.27,15,15,0,0,0,.95-2.22,15,15,0,0,0-2.68-.27Zm-3.43.28a16.26,16.26,0,0,0,1,2.21,8.33,8.33,0,0,0,1.72.27v-2.76A16.62,16.62,0,0,0,346.85,168.46Zm-1.67-5.16H341.9a7.92,7.92,0,0,0,2.17,5.12,18.82,18.82,0,0,1,1.81-.54A17,17,0,0,1,345.18,163.3Zm.75,0a16.12,16.12,0,0,0,.69,4.42,17.72,17.72,0,0,1,2.91-.29V163.3Z"/><polyline class="cls-27" points="285.8 109.6 290.71 113.71 297.8 103.86"/><polyline class="cls-27" points="402.6 109.6 407.52 113.71 414.61 103.86"/><polyline class="cls-27" points="314.84 190.49 319.76 194.6 326.85 184.75"/><g class="cls-18"><rect class="cls-19" x="409.75" y="124.63" width="13.11" height="9.71" transform="translate(-5.88 238.29) rotate(-31.73)"/><path class="cls-19" d="M408.18,128.82h0a16.45,16.45,0,0,1,11.15-6.89h0Z"/><rect class="cls-19" x="503.5" y="123.76" width="9.73" height="13.13" transform="translate(128.8 492.75) rotate(-58.06)"/><path class="cls-19" d="M514.48,128.82h0a16.45,16.45,0,0,0-11.15-6.89h0Z"/><rect class="cls-19" x="451.08" y="114.64" width="20.51" height="6.7"/><path class="cls-19" d="M475.29,101.05v13.59H447.37V101.05A39.06,39.06,0,0,1,475.29,101.05Z"/><line class="cls-28" x1="448.95" y1="114.64" x2="448.95" y2="101.05"/><line class="cls-28" x1="451.18" y1="114.64" x2="451.18" y2="101.05"/><line class="cls-28" x1="453.41" y1="114.64" x2="453.41" y2="101.05"/><line class="cls-28" x1="455.64" y1="114.64" x2="455.64" y2="101.05"/><line class="cls-28" x1="457.87" y1="114.64" x2="457.87" y2="101.05"/><line class="cls-28" x1="460.09" y1="114.64" x2="460.09" y2="101.05"/><line class="cls-28" x1="462.32" y1="114.64" x2="462.32" y2="101.05"/><line class="cls-28" x1="464.55" y1="114.64" x2="464.55" y2="101.05"/><line class="cls-28" x1="466.78" y1="114.64" x2="466.78" y2="101.05"/><line class="cls-28" x1="469.01" y1="114.64" x2="469.01" y2="101.05"/><line class="cls-28" x1="471.24" y1="114.64" x2="471.24" y2="101.05"/><line class="cls-28" x1="473.47" y1="114.64" x2="473.47" y2="101.05"/><path class="cls-19" d="M475.29,101.05H447.37A39.06,39.06,0,0,1,475.29,101.05Z"/><circle class="cls-19" cx="461.33" cy="199.74" r="80.82" transform="translate(-6.12 384.71) rotate(-45)"/><circle class="cls-29" cx="461.33" cy="199.74" r="72.81" transform="translate(-6.12 384.71) rotate(-45)"/><circle class="cls-19" cx="461.33" cy="199.74" r="70.26" transform="translate(-6.12 384.71) rotate(-45)"/><line class="cls-21" x1="527.23" y1="199.74" x2="520.31" y2="199.74"/><line class="cls-21" x1="461.33" y1="265.64" x2="461.33" y2="258.72"/><line class="cls-21" x1="395.43" y1="199.74" x2="402.35" y2="199.74"/><line class="cls-21" x1="461.33" y1="133.84" x2="461.33" y2="140.76"/><line class="cls-30" x1="518.4" y1="232.69" x2="512.41" y2="229.23"/><line class="cls-30" x1="428.38" y1="256.81" x2="431.84" y2="250.82"/><line class="cls-30" x1="404.26" y1="166.79" x2="410.25" y2="170.25"/><line class="cls-30" x1="494.28" y1="142.67" x2="490.82" y2="148.66"/><line class="cls-30" x1="494.27" y1="256.81" x2="490.81" y2="250.82"/><line class="cls-30" x1="404.26" y1="232.68" x2="410.25" y2="229.22"/><line class="cls-30" x1="428.39" y1="142.67" x2="431.85" y2="148.66"/><line class="cls-30" x1="518.4" y1="166.8" x2="512.41" y2="170.26"/><path class="cls-19" d="M478.48,225.45a2.18,2.18,0,0,1-1.77-.9l-17.83-24.47,17.55-47.54a2.18,2.18,0,0,1,4.1,1.47v0L463.78,199.4,480.24,222a2.19,2.19,0,0,1-1.76,3.47Z"/><circle class="cls-19" cx="461.33" cy="199.74" r="5.46"/></g><rect class="cls-31" x="404.55" y="119.42" width="13.11" height="9.71" transform="translate(-3.92 234.78) rotate(-31.73)"/><path class="cls-31" d="M403,123.62h0a16.41,16.41,0,0,1,11.15-6.89h0Z"/><rect class="cls-31" x="498.28" y="118.53" width="9.73" height="13.13" transform="translate(130.78 485.86) rotate(-58.06)"/><path class="cls-31" d="M509.27,123.62h0a16.41,16.41,0,0,0-11.15-6.89h0Z"/><rect class="cls-31" x="445.87" y="109.43" width="20.51" height="6.7"/><path class="cls-15" d="M470.08,95.84v13.59H442.16V95.84A39.06,39.06,0,0,1,470.08,95.84Z"/><line class="cls-32" x1="443.74" y1="109.43" x2="443.74" y2="95.84"/><line class="cls-32" x1="445.97" y1="109.43" x2="445.97" y2="95.84"/><line class="cls-32" x1="448.2" y1="109.43" x2="448.2" y2="95.84"/><line class="cls-32" x1="450.43" y1="109.43" x2="450.43" y2="95.84"/><line class="cls-32" x1="452.66" y1="109.43" x2="452.66" y2="95.84"/><line class="cls-32" x1="454.89" y1="109.43" x2="454.89" y2="95.84"/><line class="cls-32" x1="457.12" y1="109.43" x2="457.12" y2="95.84"/><line class="cls-32" x1="459.34" y1="109.43" x2="459.34" y2="95.84"/><line class="cls-32" x1="461.57" y1="109.43" x2="461.57" y2="95.84"/><line class="cls-32" x1="463.8" y1="109.43" x2="463.8" y2="95.84"/><line class="cls-32" x1="466.03" y1="109.43" x2="466.03" y2="95.84"/><line class="cls-32" x1="468.26" y1="109.43" x2="468.26" y2="95.84"/><path class="cls-31" d="M470.08,95.84H442.16A39.06,39.06,0,0,1,470.08,95.84Z"/><circle class="cls-23" cx="456.12" cy="194.53" r="80.82"/><circle class="cls-12" cx="456.12" cy="194.53" r="72.81"/><circle class="cls-1" cx="456.12" cy="194.53" r="70.26"/><line class="cls-26" x1="522.02" y1="194.53" x2="515.1" y2="194.53"/><line class="cls-26" x1="456.12" y1="260.43" x2="456.12" y2="253.51"/><line class="cls-26" x1="390.23" y1="194.53" x2="397.14" y2="194.53"/><line class="cls-26" x1="456.12" y1="128.64" x2="456.12" y2="135.55"/><g class="cls-33"><line class="cls-34" x1="513.19" y1="227.48" x2="507.2" y2="224.02"/><line class="cls-34" x1="423.17" y1="251.6" x2="426.63" y2="245.61"/><line class="cls-34" x1="399.06" y1="161.58" x2="405.05" y2="165.04"/><line class="cls-34" x1="489.07" y1="137.47" x2="485.61" y2="143.46"/><line class="cls-34" x1="489.06" y1="251.61" x2="485.6" y2="245.61"/><line class="cls-34" x1="399.05" y1="227.47" x2="405.04" y2="224.01"/><line class="cls-34" x1="423.19" y1="137.46" x2="426.64" y2="143.45"/><line class="cls-34" x1="513.2" y1="161.6" x2="507.2" y2="165.05"/></g><path class="cls-23" d="M473.27,220.24a2.18,2.18,0,0,1-1.77-.9l-17.83-24.47,17.55-47.54a2.18,2.18,0,0,1,4.1,1.51l-16.74,45.35L475,216.77a2.23,2.23,0,0,1-1.73,3.47Z"/><circle class="cls-35" cx="456.12" cy="194.53" r="5.46"/><polyline class="cls-36" points="521.36 277 523.32 280.4 525.83 279.92 524.11 275.93"/><path class="cls-37" d="M525.83,279.67a2.88,2.88,0,0,1-1.78.47,2.93,2.93,0,0,0-.83-.13c-.2.05-.55.61-.69.77a6.31,6.31,0,0,1-1.33.89c-.35.17-1.68.63-1.92,1.15a.32.32,0,0,0,.15.43.37.37,0,0,0,.15,0h2.28a5.82,5.82,0,0,0,1.43-.21,33.08,33.08,0,0,0,3.35-1.15A2.78,2.78,0,0,0,525.83,279.67Z"/><path class="cls-38" d="M503.65,243.87c-9.64-6.2-8.45,3.06-8.45,3.06l27.2,32.19a3.29,3.29,0,0,0,2.64-1.68S514.54,250.93,503.65,243.87Z"/><path class="cls-38" d="M506.83,216.26a11.22,11.22,0,0,1,.84,5.4c-.25,2.74-.88,5.05-1.11,7.54s-3.12,17.32-3.12,17.32-7.81,2.38-8.38,0c-1.14-4.7-2.75-30.15-2.75-30.15A37.15,37.15,0,0,0,506.83,216.26Z"/><path class="cls-37" d="M509.79,215.54s2.31,6.24-5.43,13.4c-2,1.87-3.84,2.58-6.31,4.86-1.84,1.7-13.1,12.85-13.1,12.85s-7-5.53-6.08-7.75c1.77-4.51,14.25-27.07,14.25-27.07S503.05,212.94,509.79,215.54Z"/><polyline class="cls-36" points="469.5 277.03 468.54 280.89 471.1 281.01 473.17 277.36"/><path class="cls-37" d="M487,241.53c-.67-13-8.15-2.63-8.15-2.63L469,278.41a4.66,4.66,0,0,0,3.09,1.24S487.69,254.49,487,241.53Z"/><path class="cls-36" d="M512.41,172.71c-3.21,1.58-8.59.21-8.59.21l1.8-5.74.78-2.45s.55-.47,1.36-1.13c2.5-2,7.49-5.7,6.19-2.1C512.23,166.25,512.41,172.71,512.41,172.71Z"/><path class="cls-39" d="M509.43,164.36a9.12,9.12,0,0,1-3.81,2.82l.78-2.45s.55-.47,1.36-1.13H508Z"/><path class="cls-36" d="M502.55,153.65s-2.08,10.43-.43,12.18,9.37-1.47,9.37-1.47,6-5.64,5.61-10.73c-.36-4.3-9.39-7.9-13.27-3.45A7.78,7.78,0,0,0,502.55,153.65Z"/><path class="cls-40" d="M501.73,146.64s-1.7,5.36,2.32,7.3c2.67,1.29,5.72,1.58,5.72,2.89s.56.37,1.15.13c1.25-.52,1.87,1.21,1.1,2.83-.59,1.23-.52,3.18,1.35,3.64a53,53,0,0,0,3.18-4.65c.84-1.5,3-6.78-.51-7.93a4.5,4.5,0,0,0-2.55-2.92c-3.37-1.54-6.53-1.08-8.95-1C503.43,147,502.22,144.68,501.73,146.64Z"/><path class="cls-36" d="M495.07,182c-1.26-.51-3.08-1.34-5-2.25-1.5-.71-3.06-1.48-4.44-2.16-2.56-1.27-4.55-2.29-4.55-2.29s1.66-5.11,2.73-5.33c.64-.13,5.41.75,9.17,1.47.8.15,1.56.31,2.21.45,1.45.27,2.43.47,2.43.47Z"/><path class="cls-36" d="M481.09,175.26c-2.39-1.21-3.39-2.77-6-7.75-.94-1.78-3-6-3.84-7.68l.89-2.4c.49.3,7.31,6.89,8.21,7.94,1.42,1.66,3.47,4.56,3.47,4.56C484.85,171.73,483.49,176.48,481.09,175.26Z"/><path class="cls-41" d="M503.87,173.47c-3.92-1.3-12.75-2.89-12.75-2.89s-2.41,5.43-2.51,9.39c2.85,1.79,10,4,10,4"/><path class="cls-23" d="M514.29,197.41q-.15.34-.33.69c-.57,1.13-1.12,2.27-1.61,3.42-4,9.14-2.56,14-2.56,14-6.5.85-17.37-2.41-17.37-2.41v-1.65a177.72,177.72,0,0,1,.67-20.64c.08-.67.16-1.33.25-2a27.12,27.12,0,0,1,2-7.82c3.7-7.48,8.5-8.13,8.5-8.13a32.51,32.51,0,0,0,8.59-.21C520.16,177.16,518.13,189.35,514.29,197.41Z"/><path class="cls-36" d="M480.78,187.49s-.33-5.36.58-6c.55-.35,5.31-1.29,9.07-2,.8-.16,1.57-.29,2.23-.41l2.43-.44,1.14,9.91C491.85,188.58,480.78,187.49,480.78,187.49Z"/><path class="cls-36" d="M481.37,181.53a30.27,30.27,0,0,0-4.45-3.18c-1.21-.65-5.84-2.45-9.09-3.91a28.12,28.12,0,0,1-3.34-1.78l-1,1.55s4.64,4.58,8.87,8.26,5.74,4.77,8.42,5S483,182.82,481.37,181.53Z"/><path class="cls-41" d="M507.26,188.61c-4.88,2.78-12.48,2.36-14.16,2.23.08-.67.16-1.33.25-2Z"/><path class="cls-23" d="M508.52,188.15c-6.07,2.51-15.73,1.17-15.73,1.17a35.52,35.52,0,0,1-1-10.17c2.52-.84,10.13-2.06,10.13-2.06s7.75-1,8.88,4.27S508.52,188.15,508.52,188.15Z"/><path class="cls-36" d="M464,174.73a2.28,2.28,0,0,0-1.43-.67,2.05,2.05,0,0,1-1.76-1,6.21,6.21,0,0,1,1.26-2.31c.2-.13,1.22.65,1.55.77s.27.77,1.37,1.46"/><path class="cls-36" d="M464.12,172.29a2.66,2.66,0,0,0-.33-1.23c-.09-.2-.33-.91-.45-.91a.45.45,0,0,0-.34.34,6.17,6.17,0,0,0,0,.86"/><path class="cls-41" d="M503.82,172.92l1-1.31a20.13,20.13,0,0,0,7.58.09v1l-3.19.66A10.41,10.41,0,0,1,503.82,172.92Z"/><path class="cls-42" d="M504.82,171.61l.26,3s5.08-.2,7.9-1.56l-.57-1.74A23,23,0,0,1,504.82,171.61Z"/><path class="cls-37" d="M471.3,280.66a4.81,4.81,0,0,1-2.13.21s-.25-.56-.68-.56-.93.58-1.22.71-5.71,1.79-3.89,2.16c.07.08,6.44.1,7.84.1a.34.34,0,0,0,.34-.28A2.72,2.72,0,0,0,471.3,280.66Z"/><path class="cls-43" d="M502.52,176.63a5.94,5.94,0,0,1,4.57.15,6.12,6.12,0,0,1,3.66,7.61"/><path class="cls-43" d="M510,174.31a3.72,3.72,0,0,1-1.3,3.45"/><path class="cls-36" d="M468,156.05s-.07-2.46.52-3.11,1.69-.73,1.84.14-2.1,2.26-2.1,2.26Z"/><path class="cls-36" d="M322.61,243.84c-.9,6.74-4.56,32.76-4.56,32.76h-2.76s-2.34-21.4-1.55-26.49,1.33-6.71,1.09-9c0-.26-1.2-5.42-2.17-9.67-.14-.6-.28-1.18-.4-1.73l-.89-3.83h11.25S322.85,242.05,322.61,243.84Z"/><path class="cls-39" d="M321.79,229.36a42.78,42.78,0,0,1-9.13,2.12c-.14-.6-.28-1.18-.4-1.73v-.12l2.73-1.14S325.06,227.94,321.79,229.36Z"/><path class="cls-36" d="M318.05,276.6a2.22,2.22,0,0,0,.21,1.19A12.14,12.14,0,0,0,321.2,282l.22.6-1.61.13a21.44,21.44,0,0,1-2.48-1.66c-.16-.26-.75-1.43-.93-1.78s-.93-1-.93-1.34a9.19,9.19,0,0,0-.31-1.38,9.54,9.54,0,0,1,1.09-.8,8,8,0,0,1,.84-.11Z"/><path class="cls-44" d="M315.23,276a5.62,5.62,0,0,0-1,3.29,42.07,42.07,0,0,1,.54,4.46h.38l.61-3.31s2.74,3,3.36,3.16a29.34,29.34,0,0,0,3.25.15c.13,0,2.08-.44-1.15-1.7,0,0,0,.64-1.26,0a11,11,0,0,1-3.3-3.07A7.92,7.92,0,0,1,315.23,276Z"/><path class="cls-36" d="M313.32,225.06s0,1.11-.11,2.92c0,.51-.06,1.09-.11,1.71a69.27,69.27,0,0,1-2.59,14.56c-2,6.5-10.73,31.83-10.73,31.83l-2.73-.38s2-21,3.49-26,3.86-6.88,3.93-9.14c0-1.28-.54-5.86-1.05-9.57-.16-1.24-.32-2.38-.45-3.27l-.26-1.82Z"/><path class="cls-36" d="M299.79,276.08a2.22,2.22,0,0,0,0,1.2,12,12,0,0,0,2.33,4.61l.13.62-1.61-.09a23.56,23.56,0,0,1-2.23-2c-.12-.29-.55-1.52-.67-1.9s-.78-1.14-.74-1.45a11.18,11.18,0,0,0-.12-1.41,10.53,10.53,0,0,1,1.19-.65h.84Z"/><path class="cls-44" d="M297.07,275.07a5.63,5.63,0,0,0-1.46,3.12,42,42,0,0,1-.08,4.49l.38.06,1.07-3.2s2.29,3.36,2.88,3.59a24.71,24.71,0,0,0,3.2.6c.13,0,2.12-.15-.9-1.84,0,0-.07.64-1.25-.2a10.79,10.79,0,0,1-2.84-3.49A7.88,7.88,0,0,1,297.07,275.07Z"/><path class="cls-39" d="M313.77,229.24a7.83,7.83,0,0,1-.67.45c-3,1.74-8.12,1.45-9.68,1.32-.16-1.24-.32-2.38-.45-3.27,3.27-.17,8.18-.29,10.24.24C314.18,228.23,314.52,228.63,313.77,229.24Z"/><path class="cls-36" d="M335.31,166.85s.09,3.46-1,4.28c-.83.63-8.15.4-11.58.26l-1.77-.08.41-3.38.38-3.16Z"/><path class="cls-36" d="M333.78,167.23a18.52,18.52,0,0,1,4.73-1.73c2.23-.37,12.17-2.92,12.17-2.92l.77,1.95s-9.21,5.82-18.22,6.85Z"/><path class="cls-36" d="M350.68,162.58a3.45,3.45,0,0,0,.77-.93,2.59,2.59,0,0,1,1.32-1.4c.68-.23,1.2-.57,1.39-.5s.12.52-.26.69-.92.59-.89.72a13,13,0,0,0,1.78-.82,15.33,15.33,0,0,1,2.2-.73c.24,0,.07.58-.84.94-.7.27-1.08.62-1,.79a1.44,1.44,0,0,1,.11,1.73,2.64,2.64,0,0,1-1.94,1.5,12.16,12.16,0,0,0-2.09.12"/><path class="cls-23" d="M325,165.11s0,4.67-.61,6.56a29.16,29.16,0,0,1-4.18,0c-.86-.06-1.81-.16-2.79-.32l-1.3-.25v-7.7A44.8,44.8,0,0,1,325,165.11Z"/><path class="cls-41" d="M320.25,171.62c-.86-.06-1.81-.16-2.79-.32l-.22-.33.55-2.36S319.09,170.24,320.25,171.62Z"/><path class="cls-23" d="M320.3,196.26s-6.11,4-18.23.35c0,0,2-7,1.31-11.51a24.92,24.92,0,0,0-1.78-5.33c-.56-1.3-1.19-2.67-1.84-4-1.11-2.33-2.26-4.56-3.11-6.16a2.6,2.6,0,0,1,1.14-3.51l.21-.1a41.89,41.89,0,0,1,18.15-2.61c.52,1.2,1.45,5.26,2,6,2.6,3.81,2.27,4.23,1.73,7.08C319.07,180.45,318.31,190.21,320.3,196.26Z"/><path class="cls-41" d="M302.48,173.18s-.33,3.82-.88,6.59c-.56-1.3-1.19-2.67-1.84-4Z"/><path class="cls-38" d="M302.82,195.66s-2.15,1.82-2.89,8,2.89,25.5,2.89,25.5,5.56,2.67,20.09,0c0,0,.29-23.5-3-34.21Z"/><path class="cls-36" d="M304.64,161.92s-1.33,2.38-2.24,2.62c0,0,4.23,1.68,6.94,1.45a5.65,5.65,0,0,0,4.09-2.73,3,3,0,0,1-2.52-2.75"/><path class="cls-36" d="M311.21,156.89a7.84,7.84,0,0,1-.11,1.22l-.11,1.14c-.12,1.28-.07,2.3-.25,4l-6.1-1.34s1.09-1.15.36-7l6.1,1.94Z"/><path class="cls-39" d="M311.21,156.89a7.84,7.84,0,0,1-.11,1.22,15.76,15.76,0,0,1-2.83-.26l2.83-1Z"/><path class="cls-45" d="M306.21,141.48s1.85-1.35,3.38-.18,1.72,3.59,1,5.24S306,143.1,306,143.1"/><path class="cls-36" d="M314.39,155.58a1.17,1.17,0,0,1-.76,1.16,16.25,16.25,0,0,1-7.75,1c-4-.58-7.91-11.62.19-15.35C307.65,141.65,313.85,146.56,314.39,155.58Z"/><path class="cls-45" d="M296.77,149.43s-1.4.33-1.76,1.17c0,0,1.7-.76,2.44-.15"/><path class="cls-45" d="M298.05,149.78s-3,.75-4.89-1.34c-2.57-2.88,2.33-8.88,6.33-3.3"/><path class="cls-46" d="M297.2,150.79a1.17,1.17,0,0,1-.68-.8,6.55,6.55,0,0,1,2-6s.62-.56,1.06-.22"/><path class="cls-45" d="M305.21,158.6s-6.64-1.87-8.23-8.27,8.06-12.69,12.12-6.61c0,0-2.87.62-3.66,2.75s-.29,5.23-1.13,4.7a1.29,1.29,0,0,0-1.92,1.38c.16,1,1.7,2.19,2.49,3.54A3.11,3.11,0,0,1,305.21,158.6Z"/><path class="cls-45" d="M309.12,142.59s3.11,3.17-3.43,6.31c.33-1.25-1.44-4.28-1.44-4.28"/><rect class="cls-44" x="282.08" y="189.29" width="28.89" height="19.95" rx="0.72" transform="translate(-38.26 74.55) rotate(-13.47)"/><rect class="cls-1" x="283.56" y="190.3" width="25.93" height="17.91" transform="translate(-38.26 74.55) rotate(-13.47)"/><rect class="cls-47" x="308.59" y="193.37" width="1.33" height="6.88" transform="translate(-37.59 78.18) rotate(-13.59)"/><path class="cls-36" d="M296.65,189.76s-3.42-.53-4-1.75c-.47-.93,1.05-8.1,1.8-11.45.23-1.05.39-1.72.39-1.72l3.26,1,3,.94Z"/><path class="cls-36" d="M296.55,188.19a18.09,18.09,0,0,1,.86,5c0,2.26.71,12.5.71,12.5l-2.05.41S292,196,292.57,187Z"/><path class="cls-36" d="M296.07,206.06a13.89,13.89,0,0,0,.54,3c.92,2,3.5.09,3.78-.45,0,0-.75.09-1.27-1.35a2.91,2.91,0,0,0-.81-1,2.16,2.16,0,0,1-.19-.61"/><path class="cls-23" d="M296.52,167.48a92.88,92.88,0,0,0-2.32,10,18.4,18.4,0,0,0,6.5,1.37,38.72,38.72,0,0,0,1.95-6.57"/><path class="cls-6" d="M372.65,258.38s10.73-.59,10.74-2.77c0-1.69-6.55-.26-6.55-.26a81.48,81.48,0,0,0,10.49-3.78,5.89,5.89,0,0,0,2-1.42,2.09,2.09,0,0,0,.32-2.29c-.56-1-1.9-1-3-.9-4.41.54-7.52,2.9-11.5,4.9a36.54,36.54,0,0,0,7.93-5.51c2.23-2,4.83-3.86,6.32-6.52.93-1.67,1.3-4.14-.35-5.51s-3.9-.71-5.65-.09a22.93,22.93,0,0,0-11.57,9.14,40.31,40.31,0,0,0,1.63-6c.15-.83.21-1.84-.47-2.33-.88-.63-2.06.21-2.75,1a20.77,20.77,0,0,0-3.74,7c.54-5.63,1.08-11.37-.15-16.89a8.89,8.89,0,0,0-1.45-3.56,3.85,3.85,0,0,0-3.33-1.63,5.14,5.14,0,0,0-3,1.91,16.79,16.79,0,0,0-.53,21.76,23.21,23.21,0,0,0-4.38-3.59c-.36-.23-.89-.42-1.16-.09a.87.87,0,0,0-.12.63c.25,2.68,2,4.92,3.76,7a17.37,17.37,0,0,0-14.31-5.92,2,2,0,0,0-1.7.75,1.79,1.79,0,0,0-.16,1.09c.28,2.69,2.65,4.64,5,6,2,1.15,4,2.11,6.08,3.07a16.88,16.88,0,0,0-3.55-.13,1,1,0,0,0-.74.28c-.31.41.13,1,.54,1.26a15.86,15.86,0,0,0,10.39,2.92"/><path class="cls-48" d="M384.83,238.35c.13-.09.26.12.14.21a60.41,60.41,0,0,0-9.36,8.72,71,71,0,0,0-7.26,10.52.12.12,0,0,1-.16.06.13.13,0,0,1-.06-.17c3.66-7.66,9.87-14.4,16.7-19.34Zm-15.43,2.77a40.62,40.62,0,0,0-2.74,16.75.11.11,0,0,0,.14.07.12.12,0,0,0,.07-.07,51.7,51.7,0,0,1,2.81-16.63c.06-.17-.22-.27-.28-.11ZM362.61,230a77.55,77.55,0,0,0,2.29,28c0,.15.25.07.22-.07A122.22,122.22,0,0,1,363,243.8a117,117,0,0,1-.18-13.76.08.08,0,0,0-.16,0Zm-8.34,13.77c2.77,3.93,5.84,11.21,9.48,14.38.14.13.33-.08.2-.22-3.28-3.62-6.51-10.39-9.45-14.3-.1-.14-.32,0-.23.14Zm29.84,6.09c-5.49,2.48-11.15,5.39-15.8,9.27-.15.12,0,.36.16.25,5.12-3.4,10.08-6.75,15.71-9.29.14-.06.07-.29-.07-.23ZM350,249.21c4,2.39,8.28,7.49,12.64,9.16.14.05.25-.14.11-.21-4.22-2.07-8.54-6.82-12.63-9.16a.13.13,0,0,0-.17.05A.12.12,0,0,0,350,249.21Z"/><polygon class="cls-49" points="374.3 283.28 359.12 283.28 355.01 257.74 378.41 257.74 374.3 283.28"/><polygon class="cls-50" points="374.29 283.28 369.69 283.28 373.81 257.74 378.41 257.74 374.29 283.28"/><path class="cls-23" d="M399.19,61.59H366.53a3.24,3.24,0,0,1,.32-1.14,35.73,35.73,0,0,1,4.61-5.86,64.65,64.65,0,0,1,10.21-2.09l5.75-.37s7.31,1.69,9.76,3.45A8.3,8.3,0,0,1,399.19,61.59Z"/><path class="cls-51" d="M388.37,61.59H366.53a3.46,3.46,0,0,1,.32-1.14,5,5,0,0,1,2.59,0l1.33.35H385C387.75,60.78,388.37,61.59,388.37,61.59Z"/><path class="cls-36" d="M385.94,46.79a8.87,8.87,0,0,0,.1-2.52A5.75,5.75,0,0,0,384.89,42a6.3,6.3,0,0,0-1.21.3V44s.41,2.38.53,2.62a11.17,11.17,0,0,0,.68,1.22,5.22,5.22,0,0,0,.56-.18Z"/><path class="cls-36" d="M383,55.37A1.82,1.82,0,0,1,381.1,54a7.62,7.62,0,0,0-.45-1.15c-.25-.55-.54-1.14-.72-1.63l1.92-1.4,4.09-3s.5,3.83,1.48,5.34C387.42,52.13,387.75,55.1,383,55.37Z"/><path class="cls-39" d="M383.91,49.1a16.3,16.3,0,0,1-3.26,3.72c-.25-.55-.54-1.14-.72-1.63l1.92-1.4Z"/><path class="cls-36" d="M385.19,45a11.39,11.39,0,0,1,.05,2.26,1,1,0,0,1,0,.25,1.11,1.11,0,0,1-.05.25c-.65,2.56-8.57,5.5-8.81,5.35-4.43-2.85-6-13.39-5.51-14.09s6.79-1.49,6.92-1.51,6.16.43,6.16.43A65.17,65.17,0,0,1,385.19,45Z"/><path class="cls-40" d="M367.94,36.56s.2,4.6,7.76,2.76c2.08-.5,3.91-1,4.94-.42,1.54,4.86,1.59,7.2,2.14,7s-1.17-4.28,1.19-3.85c1.81.34,2,4.73,2,4.73s.15.35.22-.67c0-.61.45-10.47-1-12.54a2.75,2.75,0,0,0-3.64-.82s.13-5-7-1.31c-4.13,2.12-6.13.68-6.11.81A8.9,8.9,0,0,0,367.94,36.56Z"/><path class="cls-36" d="M378.16,94.66a7.91,7.91,0,0,1-.92.91,2.47,2.47,0,0,1-1.22.49,2.94,2.94,0,0,0-1.31,1c-.18.21,0,.31.37.23s.86-.37,1-.37.15.19,0,.54a3.69,3.69,0,0,1-.85,1.11c-.26.2-1,.59-1,.83s0,.35.35.24a12.69,12.69,0,0,0,1.26-.67,2.46,2.46,0,0,0,.48-.37,3.07,3.07,0,0,0,1,.1,1.08,1.08,0,0,0,.49-.21H378c.33-.13.51-1.29.68-1.61a14.43,14.43,0,0,1,1.67-1.46Z"/><path class="cls-36" d="M369.23,63.84c-.2,0-.46-.22-.79-.58a4.81,4.81,0,0,1-.42-.48l-.4-.27a1.15,1.15,0,0,0-.62-.21h0c-1.55,0-2.24-.7-4.14-.7,0,0,4.44-2.13,7.11-.62a7.1,7.1,0,0,0,1.13.12c.78,0,.55.4.31.53a3,3,0,0,1-.52.1h0l.32.37a6.67,6.67,0,0,0,.88,1c.08,0,0,.22,0,.22C372.31,63.66,370.6,64.52,369.23,63.84Z"/><path class="cls-52" d="M371.38,61.62a3,3,0,0,1-.52.1,7.35,7.35,0,0,0-.92-.75,7.1,7.1,0,0,0,1.13.12C371.85,61.1,371.62,61.49,371.38,61.62Z"/><path class="cls-36" d="M393.92,83.51s-4.84-.72-5.2-1.65a70.06,70.06,0,0,1-.06-8.45c0-.75,0-1.46.06-2.07,0-1.34.06-2.25.06-2.25l9.05.85C397,73.84,393.92,83.51,393.92,83.51Z"/><path class="cls-36" d="M388.72,81.86A28.23,28.23,0,0,0,385,85.22c-.8,1-3.29,4.75-5.2,7.37a23.32,23.32,0,0,1-2.22,2.64l1.2,1.18s5-3.27,9-6.35,5.33-4.21,6.06-6.55S390.17,80.67,388.72,81.86Z"/><path class="cls-23" d="M388.37,61.59l.3,8.29s4.88,1.71,9.28.66c0,0,2.77-6.56.57-12.83"/><line class="cls-26" x1="380.03" y1="77.41" x2="380.03" y2="59.99"/><text class="cls-53" transform="translate(194.95 277.44)">2001</text></g></svg>