<svg xmlns="http://www.w3.org/2000/svg" xmlns:xlink="http://www.w3.org/1999/xlink" width="320" height="200" viewBox="0 0 320 200">
  <defs>
    <linearGradient id="linear-gradient" x1="0.681" y1="0.287" x2="0.681" y2="-0.713" gradientUnits="objectBoundingBox">
      <stop offset="0" stop-color="gray" stop-opacity="0.251"/>
      <stop offset="0.54" stop-color="gray" stop-opacity="0.122"/>
      <stop offset="1" stop-color="gray" stop-opacity="0.102"/>
    </linearGradient>
    <linearGradient id="linear-gradient-2" x1="1.031" y1="0.443" x2="1.031" y2="-0.557" xlink:href="#linear-gradient"/>
  </defs>
  <g id="Group_35" data-name="Group 35" transform="translate(-664 -246)">
    <rect id="Rectangle_12" data-name="Rectangle 12" width="320" height="200" transform="translate(664 246)" fill="#fff"/>
    <g id="_2" data-name="2" transform="translate(708.974 279.312)">
      <path id="Path_28" data-name="Path 28" d="M62.148,342.339c-13.954-4.813-29.892-8.9-42.927-1.983a9.5,9.5,0,0,0-4.16,3.628c-2.346,4.329,1.379,9.94-.435,14.511S5.944,365.387,6.5,370.272a6.9,6.9,0,0,0,1.645,3.434c5.1,6.24,14.462,6.868,22.371,5.321s15.647-4.764,23.7-4.353c7.739.411,14.849,4.111,21.96,7.231,11.947,5.272,25.926,9.069,37.873,3.773,5.466-2.443,9.988-6.578,15.236-9.48a37.556,37.556,0,0,1,23.145-4.256c5.321.75,10.4,2.636,15.6,3.942,11.826,2.951,24.16,2.854,36.349,2.733a24.262,24.262,0,0,0,6.747-.7c3.217-.967,5.877-3.192,8.44-5.369,3.362-2.854,6.893-6,7.981-10.278,1.282-5.079-1.379-10.472-5.3-13.93s-8.948-5.345-13.858-7.159a6.34,6.34,0,0,0-3.749-.556,5.016,5.016,0,0,0-2.1,1.354c-3.483,3.337-6.409,9.021-11.149,8.1-1.693-.314-3.071-1.5-4.426-2.588-7.159-5.8-16.784-10.278-25.418-7.086-6.312,2.346-10.762,8.368-17.171,10.5-4.547,1.524-9.5.846-14.293,1.161-6.965.435-13.737,2.878-20.726,2.733-17.776-.387-32.6-17.389-50.3-15.768a5.1,5.1,0,0,0-3.749,1.548" transform="translate(-4.855 -255.099)" fill="#28c6dc" opacity="0.5"/>
      <path id="Path_29" data-name="Path 29" d="M131.464,289.212s-14.777,8.924,12.479,22.661c0,0,6-11.149-.629-20.242a8.922,8.922,0,0,0-11.609-2.539Z" transform="translate(-96.589 -218.152)" fill="#28c6dc"/>
      <path id="Path_30" data-name="Path 30" d="M144.7,292.4s12.648,9.674,12.31,22.83" transform="translate(-109.656 -221.533)" fill="none" stroke="#535461" stroke-miterlimit="10" stroke-width="1"/>
      <path id="Path_31" data-name="Path 31" d="M790.221,213.535c3,10.956-9.771,42.129-9.771,42.129s-26.869-20.339-29.868-31.295a20.56,20.56,0,1,1,39.4-11.778c.073.314.145.629.242.943Z" transform="translate(-568.352 -149.899)" fill="#28c6dc"/>
      <path id="Path_32" data-name="Path 32" d="M790.221,213.535c3,10.956-9.771,42.129-9.771,42.129s-26.869-20.339-29.868-31.295a20.56,20.56,0,1,1,39.4-11.778c.073.314.145.629.242.943Z" transform="translate(-568.352 -149.899)" opacity="0.1"/>
      <path id="Path_33" data-name="Path 33" d="M813.2,203.2s16.736,25.249,15.478,56.543" transform="translate(-616.483 -153.906)" fill="none" stroke="#535461" stroke-miterlimit="10" stroke-width="1"/>
      <path id="Path_34" data-name="Path 34" d="M892.731,342.008s-15.164-8.247-13.253,22.2c0,0,12.648-.46,17.147-10.762a8.963,8.963,0,0,0-3.676-11.318Z" transform="translate(-666.606 -258.372)" fill="#28c6dc"/>
      <path id="Path_35" data-name="Path 35" d="M893.495,345.5S891.536,361.317,880,367.653" transform="translate(-667.128 -261.791)" fill="none" stroke="#535461" stroke-miterlimit="10" stroke-width="1"/>
      <path id="Path_36" data-name="Path 36" d="M4.064,327.212s-14.777,8.924,12.479,22.661c0,0,6-11.149-.629-20.242a8.922,8.922,0,0,0-11.609-2.539Z" transform="translate(0 -246.962)" fill="#28c6dc"/>
      <path id="Path_37" data-name="Path 37" d="M17.3,330.4s12.648,9.674,12.31,22.854" transform="translate(-13.067 -250.343)" fill="none" stroke="#535461" stroke-miterlimit="10" stroke-width="1"/>
      <path id="Path_38" data-name="Path 38" d="M269.692,133.861H254.142a5.11,5.11,0,0,0,.532-2.322V60.8a5.192,5.192,0,0,0-5.2-5.2H129.229a5.192,5.192,0,0,0-5.2,5.2h0v70.764a5.526,5.526,0,0,0,.532,2.322H108.478a1.379,1.379,0,0,0-1.379,1.379h0v1.112a7.679,7.679,0,0,0,7.691,7.691H263.38a7.679,7.679,0,0,0,7.691-7.691h0v-1.113a1.383,1.383,0,0,0-1.379-1.4Zm-95.746,4.4-1.33-1.524H205.7l-1.475,1.524Z" transform="translate(-81.15 -42.002)" fill="url(#linear-gradient)"/>
      <path id="Path_39" data-name="Path 39" d="M188.735,59.7H305.207a5.64,5.64,0,0,1,5.635,5.635v68.079a5.64,5.64,0,0,1-5.635,5.635H188.735a5.64,5.64,0,0,1-5.635-5.635V65.335A5.657,5.657,0,0,1,188.735,59.7Z" transform="translate(-138.769 -45.11)" fill="#535461"/>
      <rect id="Rectangle_14" data-name="Rectangle 14" width="122.083" height="64.814" transform="translate(47.039 26.15)" fill="#fff"/>
      <circle id="Ellipse_14" data-name="Ellipse 14" cx="1.088" cy="1.088" r="1.088" transform="translate(106.993 19.427)" fill="#fff"/>
      <path id="Path_40" data-name="Path 40" d="M213.832,376l-4.184,4.3H180.071l-3.8-4.3H116.054a1.352,1.352,0,0,0-1.354,1.354v1.088a7.514,7.514,0,0,0,7.521,7.521H267.449a7.514,7.514,0,0,0,7.521-7.521v-1.088A1.352,1.352,0,0,0,273.616,376Z" transform="translate(-86.912 -284.915)" fill="#535461"/>
      <path id="Path_41" data-name="Path 41" d="M258.8,124.2v55.116h91.151" transform="translate(-196.162 -94.011)" fill="none" stroke="#535461" stroke-miterlimit="10" stroke-width="2"/>
      <rect id="Rectangle_15" data-name="Rectangle 15" width="9.408" height="14.511" transform="translate(70.692 68.642)" fill="#28c6dc" opacity="0.5"/>
      <rect id="Rectangle_16" data-name="Rectangle 16" width="9.408" height="27.425" transform="translate(86.823 55.728)" fill="#28c6dc" opacity="0.7"/>
      <rect id="Rectangle_17" data-name="Rectangle 17" width="9.408" height="19.638" transform="translate(102.954 63.515)" fill="#28c6dc" opacity="0.5"/>
      <rect id="Rectangle_18" data-name="Rectangle 18" width="9.408" height="31.73" transform="translate(119.109 51.423)" fill="#28c6dc" opacity="0.8"/>
      <rect id="Rectangle_19" data-name="Rectangle 19" width="9.408" height="43.024" transform="translate(135.24 40.129)" fill="#28c6dc"/>
      <path id="Path_42" data-name="Path 42" d="M311,169.775l16.4-14.8,16.131,13.979,15.865-16.929,16.155-6.723" transform="translate(-235.737 -110.008)" fill="none" stroke="#535461" stroke-miterlimit="10" stroke-width="2"/>
      <circle id="Ellipse_15" data-name="Ellipse 15" cx="1.886" cy="1.886" r="1.886" transform="translate(73.376 57.88)" fill="#28c6dc"/>
      <circle id="Ellipse_16" data-name="Ellipse 16" cx="1.886" cy="1.886" r="1.886" transform="translate(105.638 56.792)" fill="#28c6dc"/>
      <circle id="Ellipse_17" data-name="Ellipse 17" cx="1.886" cy="1.886" r="1.886" transform="translate(121.778 43.567) rotate(-80.78)" fill="#28c6dc"/>
      <circle id="Ellipse_18" data-name="Ellipse 18" cx="1.886" cy="1.886" r="1.886" transform="translate(89.773 42.813)" fill="#28c6dc"/>
      <circle id="Ellipse_19" data-name="Ellipse 19" cx="1.886" cy="1.886" r="1.886" transform="translate(137.925 33.405)" fill="#28c6dc"/>
      <path id="Path_43" data-name="Path 43" d="M694.41,93.455a9.935,9.935,0,0,0-3.628-.58,18.813,18.813,0,0,1-5.514-3.023,42.526,42.526,0,0,0-.121-4.643c-.919-10.375,1.137-17.2,1.137-17.2a33.541,33.541,0,0,0,1.427-9.553c.1.193.169.314.169.314a32.06,32.06,0,0,1,2.37-10.012.126.126,0,0,0,.1-.048l1.064-2.515a1.865,1.865,0,0,0,.194-.459l.169-.387-.048-.024c.024-.073.024-.145.048-.218h0a95.742,95.742,0,0,0,1.209-9.7A12.637,12.637,0,0,0,690.468,23.8l-7.352-6.312a.484.484,0,0,1,.073.266l-.073-.048c-.1-.29-.218-.653-.339-1.064a4.516,4.516,0,0,0,.726-.629,5.642,5.642,0,0,0,1.645-2.926,12.2,12.2,0,0,0,.121-2.66l-.121-3.047a9.008,9.008,0,0,0-.193-1.79,5.929,5.929,0,0,0-5.514-4.232c-.8,0-1.572.048-2.37.121a17.227,17.227,0,0,1-1.935.048.706.706,0,0,1-.218-.048.307.307,0,0,1-.1-.218.984.984,0,0,1,.266-.774A.949.949,0,0,1,675.425.3l-.169.048a.818.818,0,0,1,.29-.145,5.621,5.621,0,0,0-1.838.677,2.881,2.881,0,0,0-.435.363,1.906,1.906,0,0,0-.629,1.161,2.034,2.034,0,0,1-.653-.967.746.746,0,0,1,0-.46.433.433,0,0,0-.121.169V1.095a5.128,5.128,0,0,0-.967,1.959.8.8,0,0,1-.169-.556,1.783,1.783,0,0,0-.1.339V2.618a7.905,7.905,0,0,0-.387,2.709c0,.919.411,2.346,1.378,2.66.048.024.1.024.145.048a6.148,6.148,0,0,0,4.136,9.384c.024.121.024.218.048.339h.048c.024.242.048.508.073.774a5.217,5.217,0,0,1-.8.653,6.661,6.661,0,0,1-2.685.895,8.116,8.116,0,0,0-3.241.967,6.184,6.184,0,0,0-2.878,2.781c-.677,1.935-4.4,4.958-6.917,5.321l-.895-.048-.073-.024V29.1h-.484a2.714,2.714,0,0,0-.048.29,22.335,22.335,0,0,1-7.4-4.789c-3.87-3.507-9.117-2.83-11.125-2.37a.336.336,0,0,0-.266.411.307.307,0,0,0,.169.218,10.833,10.833,0,0,0,2.66,1.161s-1.209,1.258.073,1.935a.936.936,0,0,0,.967-.1c.629-.46,2.37.58,4.861,1.112,0,0,7.086,7.328,10.617,8.465a2.848,2.848,0,0,0,.266.459l.218-.024V35.9h.1l.024.242s5.466-.29,7.255-2.273a4.641,4.641,0,0,0,.339-.363l-1.911,23.943h.024l-.024.218h1.4a51.275,51.275,0,0,1-.387,8.827v15.6s-.073,1.379,2.781,3.386a105.506,105.506,0,0,1,8.634,6.7l.339.29c-.532,4.789-1.62,13.688-2.539,14l.556.1c-.967,1.233-3.724,4.6-4.547,4.692-1.016.121-1.717,1.717,0,2.056a19.4,19.4,0,0,0,10.157-.992,1.562,1.562,0,0,0,.967-1.645l-.339-2.515a.283.283,0,0,1,.145.145c.218.677,0-.919,0-.919a70.554,70.554,0,0,0,2.2-9.19l3.386,2.926a2.117,2.117,0,0,0,.193-.242c.822,1.886,2.3,5.732,1.983,8.561-.459,3.87,3.87.46,3.41-1.814-.363-1.838,1.282-9.65,1.911-12.576a1.185,1.185,0,0,0-.75-1.6Z" transform="translate(-484.609)" fill="url(#linear-gradient-2)"/>
      <path id="Path_44" data-name="Path 44" d="M661.011,100.671s-3.216-.556-8.005-4.885c-3.8-3.434-8.9-2.757-10.859-2.322a.356.356,0,0,0-.266.411.307.307,0,0,0,.169.218,10.961,10.961,0,0,0,2.612,1.137s-1.185,1.233.073,1.886a.888.888,0,0,0,.943-.1c.6-.435,2.3.556,4.764,1.088,0,0,9.577,9.891,11.8,8.223Z" transform="translate(-486.592 -70.434)" fill="#fec3be"/>
      <path id="Path_45" data-name="Path 45" d="M789.1,53.789s.895,3.773,0,6.457l4.015.556,3.555-1.79V56.666A16.077,16.077,0,0,1,795.436,49Z" transform="translate(-598.211 -36.998)" fill="#fec3be"/>
      <path id="Path_46" data-name="Path 46" d="M836,386.966s2.9,5.683,2.443,9.456,3.773.435,3.337-1.79c-.363-1.79,1.258-9.432,1.862-12.262a1.253,1.253,0,0,0-.846-1.475c-1.33-.435-3.579-.967-4.692-.145C836.459,381.96,836,386.966,836,386.966Z" transform="translate(-633.769 -288.19)" fill="#8b416f"/>
      <path id="Path_47" data-name="Path 47" d="M772.287,432.439s-3.773,4.885-4.788,5.006-1.669,1.669,0,2.007a18.743,18.743,0,0,0,9.916-.967,1.5,1.5,0,0,0,.943-1.62l-.629-4.764Z" transform="translate(-581.06 -327.447)" fill="#8b416f"/>
      <path id="Path_48" data-name="Path 48" d="M753.175,218.7l-3.628.484a52.264,52.264,0,0,1-.048,12.745v15.236s-.073,1.33,2.709,3.289a104.74,104.74,0,0,1,8.44,6.53l10.085,8.755s4.015-4.885,3.458-7.787c0,0-6.675-2.1-7.57-5.562-.508-1.983-3.1-3.628-5.224-4.668a6.477,6.477,0,0,1-3.458-7.352,5.645,5.645,0,0,1,.556-1.427,90.752,90.752,0,0,0,4.329-10.133l-4.885-9.335Z" transform="translate(-568.188 -165.657)" fill="#4d4981"/>
      <path id="Path_49" data-name="Path 49" d="M753.175,218.7l-3.628.484a52.264,52.264,0,0,1-.048,12.745v15.236s-.073,1.33,2.709,3.289a104.74,104.74,0,0,1,8.44,6.53l10.085,8.755s4.015-4.885,3.458-7.787c0,0-6.675-2.1-7.57-5.562-.508-1.983-3.1-3.628-5.224-4.668a6.477,6.477,0,0,1-3.458-7.352,5.645,5.645,0,0,1,.556-1.427,90.752,90.752,0,0,0,4.329-10.133l-4.885-9.335Z" transform="translate(-568.188 -165.657)" opacity="0.05"/>
      <path id="Path_50" data-name="Path 50" d="M775.655,271.145s6.554,1.112,6.8,1.79,0-.895,0-.895,3.773-11.463,2.9-21.573a49.717,49.717,0,0,1,1.112-16.808s2.346-7.57.992-11.9-15.357-2.443-15.357-2.443,4.885,11.463,4.789,16.9c0,0,.556,16.47,1.548,18.356C778.436,254.579,776.888,270.71,775.655,271.145Z" transform="translate(-585.323 -165.815)" fill="#4d4981"/>
      <path id="Path_51" data-name="Path 51" d="M758.989,80.7s.677,4.111,7.352,2.346l-4.45,33.81s-12.915.435-12.794-1.112l2.66-20.46Z" transform="translate(-567.883 -61.031)" fill="#fff"/>
      <path id="Path_52" data-name="Path 52" d="M737.1,79.8a5.425,5.425,0,0,1-3.217,1.524,8.148,8.148,0,0,0-3.168.943,5.88,5.88,0,0,0-2.805,2.709c-.774,2.225-5.683,5.9-7.908,5.127l.774,6.675s6.336-.339,7.449-2.781l-1.886,23.822h1.669s.895-6.457,1.548-7.787,2.007-8.682,2.1-10.448,1.79-12.02,3.217-13.785l2.177-5.3Z" transform="translate(-545.823 -60.349)" opacity="0.1"/>
      <path id="Path_53" data-name="Path 53" d="M736.492,81.2a7.1,7.1,0,0,1-3.434,1.427,7.915,7.915,0,0,0-3.144.943,5.879,5.879,0,0,0-2.805,2.709c-.774,2.225-5.683,5.9-7.908,5.127l.774,6.675s6.336-.339,7.449-2.781l-1.886,23.8h1.669s.895-6.457,1.548-7.787,2.007-8.682,2.1-10.448,1.79-12.02,3.216-13.785l2.394-5.175v-.7Z" transform="translate(-545.216 -61.411)" opacity="0.1"/>
      <path id="Path_54" data-name="Path 54" d="M736.416,80.3a6.847,6.847,0,0,1-3.434,1.4,8.147,8.147,0,0,0-3.168.943,5.879,5.879,0,0,0-2.805,2.709c-.774,2.225-5.683,5.9-7.908,5.127l.774,6.675s6.336-.339,7.449-2.781L725.436,118.2h1.669s.895-6.457,1.548-7.787,2.007-8.682,2.1-10.448,1.79-12.02,3.217-13.785L736.368,81Z" transform="translate(-545.141 -60.728)" fill="#656691"/>
      <path id="Path_55" data-name="Path 55" d="M795.246,53.251a10.788,10.788,0,0,1,.29-2.951L789.2,55.089s.145.653.266,1.6a6.513,6.513,0,0,0,.967.073C792.61,56.757,794.206,55.04,795.246,53.251Z" transform="translate(-598.287 -37.984)" opacity="0.1"/>
      <circle id="Ellipse_20" data-name="Ellipse 20" cx="5.998" cy="5.998" r="5.998" transform="translate(186.124 6.44)" fill="#fec3be"/>
      <path id="Path_56" data-name="Path 56" d="M767.076,11.261a7.331,7.331,0,0,1,.484-2.975.769.769,0,0,0,.121.967,4.817,4.817,0,0,1,1.5-2.684.8.8,0,0,0-.532,1.016,2.312,2.312,0,0,0,.75,1.04,1.828,1.828,0,0,1,.919-1.572,5.894,5.894,0,0,1,1.79-.653,1.047,1.047,0,0,0-.677,1.064.3.3,0,0,0,.1.218.261.261,0,0,0,.194.048,16.377,16.377,0,0,0,1.886-.048,18.669,18.669,0,0,1,2.322-.121,5.77,5.77,0,0,1,5.393,4.111,8.5,8.5,0,0,1,.169,1.741l.121,2.975a11.809,11.809,0,0,1-.1,2.612,5.574,5.574,0,0,1-2.83,3.749c-.871-1.258-.943-2.878-1.258-4.4a2.1,2.1,0,0,0-.387-.967.851.851,0,0,0-.919-.314.538.538,0,0,0-.193.846c-.242.29-.7.073-.967-.193a5.142,5.142,0,0,1-1.5-2.684c-.121-.508-.218-1.161-.726-1.33a1.318,1.318,0,0,0-.532-.024c-1.064.073-2.709.508-3.749.169C767.463,13.534,767.076,12.156,767.076,11.261Z" transform="translate(-581.508 -4.701)" opacity="0.1"/>
      <path id="Path_57" data-name="Path 57" d="M767.476,10.761a7.331,7.331,0,0,1,.484-2.975.769.769,0,0,0,.121.967,4.818,4.818,0,0,1,1.5-2.684.8.8,0,0,0-.532,1.016,2.312,2.312,0,0,0,.75,1.04,1.828,1.828,0,0,1,.919-1.572,5.894,5.894,0,0,1,1.79-.653,1.047,1.047,0,0,0-.677,1.064.3.3,0,0,0,.1.218.261.261,0,0,0,.193.048,16.379,16.379,0,0,0,1.886-.048,18.667,18.667,0,0,1,2.322-.121,5.77,5.77,0,0,1,5.393,4.111,8.494,8.494,0,0,1,.169,1.741l.121,2.975a11.82,11.82,0,0,1-.1,2.612,5.574,5.574,0,0,1-2.83,3.749c-.871-1.258-.943-2.878-1.258-4.4a2.1,2.1,0,0,0-.387-.967.851.851,0,0,0-.919-.314.538.538,0,0,0-.193.846c-.242.29-.7.073-.967-.193a5.142,5.142,0,0,1-1.5-2.684c-.121-.508-.218-1.161-.726-1.33a1.318,1.318,0,0,0-.532-.024c-1.064.073-2.709.508-3.749.169C767.887,13.059,767.476,11.656,767.476,10.761Z" transform="translate(-581.811 -4.321)" fill="#784f69"/>
      <path id="Path_58" data-name="Path 58" d="M717.249,122.4s-.895,4.111.774,6.675l.943-.073-.508-6.53Z" transform="translate(-543.555 -92.647)" opacity="0.1"/>
      <path id="Path_59" data-name="Path 59" d="M718.249,122.4s-.895,4.111.774,6.675l.943-.073-.508-6.53Z" transform="translate(-544.314 -92.647)" fill="#656691"/>
      <path id="Path_60" data-name="Path 60" d="M793.639,75.9l7.183,6.167a12.316,12.316,0,0,1,2.443,11.343s-.774,10.23-1.669,10.69c0,0-3.12,6.24-3.337,12.116,0,0-4.184-8.392-6.07-3.289a8.817,8.817,0,0,1-6.288,5.828l2.443-30.231S794.51,77.786,793.639,75.9Z" transform="translate(-595.785 -57.392)" opacity="0.1"/>
      <path id="Path_61" data-name="Path 61" d="M794.539,75.9l7.183,6.167a12.316,12.316,0,0,1,2.443,11.343s-.774,10.23-1.669,10.69c0,0-3.12,6.24-3.337,12.116,0,0-4.4-8.852-6.288-3.724a10.018,10.018,0,0,1-6.07,6.288l2.443-30.255C789.243,88.548,795.434,77.786,794.539,75.9Z" transform="translate(-596.468 -57.392)" fill="#656691"/>
      <path id="Path_62" data-name="Path 62" d="M817.137,183.1s1.79-1.233,4.668,2.1l-7.11,12.915-2.394-3.6C812.3,194.492,817.379,184.528,817.137,183.1Z" transform="translate(-615.801 -138.499)" fill="#fec3be"/>
      <path id="Path_63" data-name="Path 63" d="M825.2,180.886s3.942,4.426,5.466,3.724l1.427-3.313-5.345-2.3Z" transform="translate(-625.581 -135.558)" opacity="0.1"/>
      <path id="Path_64" data-name="Path 64" d="M825.2,179.886s3.942,4.426,5.466,3.724l1.427-3.313-5.345-2.3Z" transform="translate(-625.581 -134.8)" fill="#656691"/>
      <path id="Path_65" data-name="Path 65" d="M811.177,227.4s1.886,3.845,2.878,4.063l-1.451,1.669-2.1-4.015Z" transform="translate(-614.436 -172.253)" opacity="0.1"/>
      <path id="Path_66" data-name="Path 66" d="M810.7,227.9s1.886,3.845,2.878,4.063l-1.451,1.669L810,229.617Z" transform="translate(-614.057 -172.632)" fill="#4d4981"/>
      <path id="Path_67" data-name="Path 67" d="M825.377,129.7s.218,8.005-.677,11" transform="translate(-625.202 -98.181)" opacity="0.1"/>
      <path id="Path_68" data-name="Path 68" d="M753,131.248s1.33-.435,1.33-1.548" transform="translate(-570.842 -98.181)" opacity="0.1"/>
      <path id="Path_69" data-name="Path 69" d="M71.441,141.7a44.887,44.887,0,0,0-2.177,28.634c4.16,15.526,2.854,34.1-1.306,38.7" transform="translate(-51.391 -107.279)" fill="none" stroke="#535461" stroke-miterlimit="10" stroke-width="2"/>
      <circle id="Ellipse_21" data-name="Ellipse 21" cx="1.741" cy="1.741" r="1.741" transform="translate(18.308 32.68)" fill="#28c6dc"/>
      <path id="Path_70" data-name="Path 70" d="M71.8,172.809s6.578,1.185,8.319-1.209" transform="translate(-54.387 -129.948)" fill="none" stroke="#535461" stroke-miterlimit="10" stroke-width="2"/>
      <path id="Path_71" data-name="Path 71" d="M57.491,170.389s-3.966-4.377-3.724-6.989" transform="translate(-40.707 -123.731)" fill="none" stroke="#535461" stroke-miterlimit="10" stroke-width="2"/>
      <path id="Path_72" data-name="Path 72" d="M67.8,206.546s3.6.943,6.868-6.046" transform="translate(-51.354 -151.858)" fill="none" stroke="#535461" stroke-miterlimit="10" stroke-width="2"/>
      <path id="Path_73" data-name="Path 73" d="M46.872,219.88s-8.948-5.756-7.86-9.48" transform="translate(-29.459 -159.364)" fill="none" stroke="#535461" stroke-miterlimit="10" stroke-width="2"/>
      <path id="Path_74" data-name="Path 74" d="M77.6,242.228s6.264-5.562,5.611-11.028" transform="translate(-58.784 -175.134)" fill="none" stroke="#535461" stroke-miterlimit="10" stroke-width="2"/>
      <path id="Path_75" data-name="Path 75" d="M56.122,274.832s-7.981-2.225-7.739-5.732" transform="translate(-36.629 -203.868)" fill="none" stroke="#535461" stroke-miterlimit="10" stroke-width="2"/>
      <path id="Path_76" data-name="Path 76" d="M82.7,288.4s5.03-4.668,5.683-7.5" transform="translate(-62.651 -212.814)" fill="none" stroke="#535461" stroke-miterlimit="10" stroke-width="2"/>
      <path id="Path_77" data-name="Path 77" d="M67.269,316.269s-5.151-6.022-5.369-9.069" transform="translate(-46.881 -232.754)" fill="none" stroke="#535461" stroke-miterlimit="10" stroke-width="2"/>
      <path id="Path_78" data-name="Path 78" d="M84.1,335.58s5.78-6.409,6.215-9.48" transform="translate(-63.712 -247.083)" fill="none" stroke="#535461" stroke-miterlimit="10" stroke-width="2"/>
      <circle id="Ellipse_22" data-name="Ellipse 22" cx="1.741" cy="1.741" r="1.741" transform="translate(11.319 38.363)" fill="#28c6dc"/>
      <circle id="Ellipse_23" data-name="Ellipse 23" cx="1.741" cy="1.741" r="1.741" transform="translate(9.336 63.515)" fill="#28c6dc"/>
      <circle id="Ellipse_24" data-name="Ellipse 24" cx="1.741" cy="1.741" r="1.741" transform="translate(7.812 49.294)" fill="#28c6dc"/>
      <circle id="Ellipse_25" data-name="Ellipse 25" cx="1.741" cy="1.741" r="1.741" transform="translate(23.992 39.887)" fill="#28c6dc"/>
      <circle id="Ellipse_26" data-name="Ellipse 26" cx="1.741" cy="1.741" r="1.741" transform="translate(23.992 66.78)" fill="#28c6dc"/>
      <circle id="Ellipse_27" data-name="Ellipse 27" cx="1.741" cy="1.741" r="1.741" transform="translate(21.138 46.9)" fill="#28c6dc"/>
      <circle id="Ellipse_28" data-name="Ellipse 28" cx="1.741" cy="1.741" r="1.741" transform="translate(24.644 78.364)" fill="#28c6dc"/>
      <circle id="Ellipse_29" data-name="Ellipse 29" cx="1.741" cy="1.741" r="1.741" transform="translate(12.785 77.197) rotate(-88.09)" fill="#28c6dc"/>
      <circle id="Ellipse_30" data-name="Ellipse 30" cx="1.741" cy="1.741" r="1.741" transform="translate(22.903 54.325)" fill="#28c6dc"/>
    </g>
  </g>
</svg>
