<svg id="OBJECTS" xmlns="http://www.w3.org/2000/svg" xmlns:xlink="http://www.w3.org/1999/xlink" viewBox="0 0 750 297.41"><defs><style>.cls-1,.cls-12,.cls-15,.cls-16,.cls-17,.cls-18,.cls-19,.cls-20,.cls-21,.cls-22,.cls-23,.cls-24,.cls-25,.cls-26,.cls-27,.cls-43,.cls-44,.cls-45,.cls-46{fill:none;}.cls-2{fill:#ffdcae;}.cls-3,.cls-42,.cls-55{fill:#fff;}.cls-4,.cls-5{fill:#fce7c0;}.cls-4{opacity:0.7;}.cls-10,.cls-6,.cls-8{fill:#ededed;}.cls-10,.cls-6{stroke:#a1abad;}.cls-10,.cls-12,.cls-43,.cls-46,.cls-6,.cls-8{stroke-miterlimit:10;}.cls-6{stroke-width:0.66px;}.cls-11,.cls-36,.cls-6{fill-rule:evenodd;}.cls-41,.cls-7{fill:#a1abad;}.cls-8{stroke:#f87c41;stroke-width:2px;}.cls-52,.cls-9{fill:#f87c41;}.cls-10{stroke-width:0.98px;}.cls-11{fill:#fff1e1;}.cls-11,.cls-40,.cls-41,.cls-42,.cls-52{opacity:0.5;}.cls-11,.cls-28,.cls-40,.cls-41,.cls-42,.cls-52,.cls-55{isolation:isolate;}.cls-12,.cls-19,.cls-20,.cls-21,.cls-22,.cls-23,.cls-24,.cls-25,.cls-26,.cls-27{stroke:#fff;}.cls-12{stroke-width:0.2px;}.cls-13{fill:#efe9da;}.cls-14{fill:#ffbe57;}.cls-15,.cls-16,.cls-17,.cls-18,.cls-46{stroke:#3e2344;}.cls-15,.cls-16,.cls-17,.cls-18,.cls-19,.cls-20,.cls-21,.cls-22,.cls-23,.cls-24,.cls-25,.cls-26,.cls-27{stroke-linecap:round;stroke-linejoin:round;}.cls-15,.cls-16,.cls-17{stroke-width:0.89px;}.cls-16{stroke-dasharray:5.47 5.47;}.cls-17{stroke-dasharray:5.07 5.07;}.cls-18{stroke-width:1.78px;}.cls-19{stroke-width:0.4px;}.cls-20{stroke-width:0.33px;}.cls-21{stroke-width:0.35px;}.cls-22{stroke-width:0.43px;}.cls-23{stroke-width:0.28px;}.cls-24{stroke-width:0.14px;}.cls-25{stroke-width:0.32px;}.cls-26{stroke-width:0.3px;}.cls-27{stroke-width:0.41px;}.cls-28,.cls-32{fill:#9d68aa;}.cls-28{opacity:0.3;}.cls-29,.cls-36{fill:#ffb072;}.cls-30{clip-path:url(#clip-path);}.cls-31{fill:#2e1933;}.cls-33{fill:#ba2f1c;}.cls-34{clip-path:url(#clip-path-2);}.cls-35{fill:#dd4026;}.cls-37,.cls-40{fill:#e57e55;}.cls-38{fill:#fd6141;}.cls-39{fill:#3e2344;}.cls-43,.cls-44,.cls-45{stroke:#552f5e;}.cls-43{stroke-width:0.93px;}.cls-44{stroke-miterlimit:10;stroke-width:0.93px;}.cls-45{stroke-miterlimit:10;stroke-width:0.93px;}.cls-46{stroke-width:0.7px;}.cls-47{clip-path:url(#clip-path-3);}.cls-48{fill:#f79c41;}.cls-49{clip-path:url(#clip-path-4);}.cls-50{fill:#bc6658;}.cls-51{fill:#c67154;}.cls-53{fill:#ffb888;}.cls-54{fill:#552f5e;}.cls-55{opacity:0.1;}</style><clipPath id="clip-path"><path class="cls-1" d="M204.34,247.7l1,19.4a14,14,0,0,0-.5,2.3,16.2,16.2,0,0,0,.1,2.2,7.15,7.15,0,0,0,4.1.3l.2-.2a12.09,12.09,0,0,0,1.8.5c1.6.3,6.4.3,7.2-.3,0,0,1.1-2-.9-2.4-4.9-1.1-5.8-2.9-5.9-4.5-.3-1.9.6-16.1.6-16.1Z"/></clipPath><clipPath id="clip-path-2"><path class="cls-1" d="M190.14,247.9,184,267.2c.1.7.1,1.5.2,2.3a18.46,18.46,0,0,1-.4,2.3,6.45,6.45,0,0,1-4.1.5l-.2-.2c-.6.2-1.2.4-1.9.6-1.7.5-6.5.8-7.2.2,0,0-.5-1.6,1.5-2.2,5.1-1.5,6-3.6,6.4-5.2.6-2,2.6-18.1,2.6-18.1Z"/></clipPath><clipPath id="clip-path-3"><path class="cls-1" d="M514.14,247.7l-1,19.4a18.92,18.92,0,0,1,.5,2.3v2.2a7.15,7.15,0,0,1-4.1.3l-.2-.2a12.09,12.09,0,0,1-1.8.5c-1.6.3-6.5.3-7.2-.3,0,0-1.1-2,.9-2.4,4.9-1.1,5.8-2.9,6-4.5.3-1.9-.6-16.1-.6-16.1Z"/></clipPath><clipPath id="clip-path-4"><path class="cls-1" d="M529.74,247.5l4.6,19.7s-.2,1.7-.2,2.3a17.05,17.05,0,0,0,.4,2.3,6.67,6.67,0,0,0,4.2.5l.2-.2c.6.2,1.2.4,1.9.6,1.7.5,6.5.8,7.2.2,0,0,.5-1.6-1.5-2.2-5.1-1.5-6-3.6-6.4-5.2-.6-2-2.6-18.1-2.6-18.1Z"/></clipPath></defs><title>Artboard 1 copy</title><g id="OBJECTS-2" data-name="OBJECTS"><path class="cls-2" d="M212.64,178.3c-15.5-28.8,14.2-73.7,77.2-101.2s156.7-44.6,158.6-21.4-22.7,43.1-15.4,52.5,99.1,8.7,98.9,43.9C531.64,200.3,238.64,226.7,212.64,178.3Z"/><path class="cls-3" d="M441.74,65.2a1.88,1.88,0,0,1-.2.8c-.1.3-.2.5-.3.8s-.4.4-.5.2v-.3a1.88,1.88,0,0,1,.2-.8c.1-.3.2-.5.3-.8s.3-.4.4-.2A.37.37,0,0,1,441.74,65.2Z"/><path class="cls-3" d="M440.74,68.2a1.88,1.88,0,0,1-.2.8,3,3,0,0,1-.4.8c-.2.3-.4.3-.5.1v-.3c.1-.3.1-.5.2-.8a3,3,0,0,1,.4-.8c.2-.3.4-.3.5-.2Z"/><path class="cls-3" d="M439.54,71.2c-.1.3-.2.5-.3.8a4.35,4.35,0,0,1-.4.7c-.2.3-.4.3-.5.1v-.3c.1-.3.2-.5.3-.8a1.61,1.61,0,0,1,.4-.7c.2-.3.4-.3.5-.1A.19.19,0,0,1,439.54,71.2Z"/><path class="cls-3" d="M437.14,76.3c-.1.3-.2.5-.3.8a1.79,1.79,0,0,1-.5.7c-.2.3-.4.3-.5.1v-.3c.1-.3.2-.5.3-.8a3,3,0,0,1,.5-.7c.2-.3.4-.3.5-.1Z"/><path class="cls-3" d="M435.24,79.8c0,.2-.1.3-.2.5a1.38,1.38,0,0,1-.3.4c-.3.2-.5.2-.5-.1v-.1c0-.2.1-.3.2-.5s.2-.3.3-.4c.3-.2.5-.2.5.1Z"/><path class="cls-3" d="M433.44,82.7c0,.2-.1.3-.2.5s-.2.3-.3.4c-.3.2-.5.1-.4-.2v-.1c0-.2.1-.3.2-.5s.2-.3.3-.4c.3-.2.5-.2.4.2Z"/><path class="cls-3" d="M421.84,51.1c2.4,0,4.7,0,7,.2a33,33,0,0,1,7,1.1,12,12,0,0,1,3.3,1.3,5.71,5.71,0,0,1,2.6,2.5,7.1,7.1,0,0,1,.7,3.5,13.42,13.42,0,0,1-.4,3.5c-.1.3-.2.6-.4.5s-.2-.3-.1-.6a19.53,19.53,0,0,0,.3-3.4,7.84,7.84,0,0,0-.7-3.3,5.12,5.12,0,0,0-2.3-2.3,17.55,17.55,0,0,0-3.2-1.2,41.27,41.27,0,0,0-6.9-1.1c-2.3-.2-4.7-.3-7-.3-.3,0-.6-.1-.6-.3S421.54,51.1,421.84,51.1Z"/><path class="cls-3" d="M420.24,51.6a1.7,1.7,0,0,1-.7.1h-.7c-.3-.1-.4-.3-.3-.4a.35.35,0,0,0,.2-.1c.2,0,.5-.1.7-.1a1.7,1.7,0,0,1,.7.1c.3.1.4.3.3.4Z"/><path class="cls-3" d="M417.54,51.7a2.5,2.5,0,0,1-1.4,0c-.3-.1-.5-.2-.3-.4a.31.31,0,0,1,.2-.1,1.7,1.7,0,0,1,.7-.1h.7c.3.1.4.3.3.4S417.64,51.6,417.54,51.7Z"/><path class="cls-3" d="M414.84,51.8a28.25,28.25,0,0,1-2.9.2,28.25,28.25,0,0,0-2.9.2c-.3,0-.6-.1-.5-.2a1.07,1.07,0,0,1,.5-.3l2.9-.3a28.1,28.1,0,0,1,2.9-.1c.3,0,.5.1.5.3S415.14,51.8,414.84,51.8Z"/><path class="cls-3" d="M406.74,52.4a.6.6,0,0,1-.4.1h-.4c-.3-.1-.4-.3-.1-.5h0a.6.6,0,0,1,.4-.1h.4c.4.1.4.3.1.5Z"/><path class="cls-3" d="M403.94,52.7a.6.6,0,0,1-.4.1h-.4c-.3-.1-.4-.3-.1-.5h0a1.41,1.41,0,0,1,.9-.1c.2.1.3.4,0,.5Z"/><path class="cls-4" d="M483.94,154.9c-18.1-30.4-137-8.6-143.7-9.7-22.1-3.7,52.8-30.3,38.2-56.3s-124.3,27.9-169.8,70.8a36.16,36.16,0,0,0,3.9,19.1c17.7,33,158.9,31.4,247.6,11.7C479.74,181.4,489.84,163.9,483.94,154.9Z"/><path class="cls-3" d="M264,193.5a2.2,2.2,0,0,1,.8.1,2.35,2.35,0,0,1,.8.2c.3.1.4.3.2.4a.37.37,0,0,1-.3.1,2.2,2.2,0,0,1-.8-.1,2.35,2.35,0,0,1-.8-.2c-.3-.1-.4-.3-.2-.4S263.94,193.5,264,193.5Z"/><path class="cls-3" d="M266.94,194h.8a2.35,2.35,0,0,1,.8.2c.3.1.4.3.2.4a.37.37,0,0,1-.3.1h-.8a2.35,2.35,0,0,1-.8-.2c-.3-.1-.4-.3-.2-.4A.37.37,0,0,1,266.94,194Z"/><path class="cls-3" d="M269.94,194.4h.8a2.35,2.35,0,0,1,.8.2c.3.1.4.3.2.4a.37.37,0,0,1-.3.1h-.8c-.3,0-.5-.1-.8-.1s-.4-.3-.2-.4S269.84,194.4,269.94,194.4Z"/><path class="cls-3" d="M275.24,195h.8c.3,0,.5.1.8.1s.4.3.2.4a.37.37,0,0,1-.3.1h-.8c-.3,0-.5-.1-.8-.1s-.4-.3-.2-.4S275.14,195,275.24,195Z"/><path class="cls-3" d="M278.94,195.4h.5a.9.9,0,0,1,.5.1c.3.1.3.4.1.5h-.7a.9.9,0,0,1-.5-.1c-.3-.1-.3-.4-.1-.5Z"/><path class="cls-3" d="M282.14,195.7h.5a.9.9,0,0,1,.5.1c.3.1.3.4.1.5h-.6a.9.9,0,0,1-.5-.1c-.3-.1-.3-.4-.1-.5Z"/><path class="cls-3" d="M236.64,186.8l1.5.6,1.6.5,3.1,1,3.2.9c1.1.3,2.1.6,3.2.8,2.1.5,4.3,1.1,6.4,1.5s4.3.9,6.5,1.3c.3.1.5.2.5.3s-.3.2-.6.2c-2.2-.3-4.4-.8-6.5-1.2s-4.3-.9-6.5-1.4l-3.2-.9-3.2-.9-3.1-1.1c-.5-.2-1-.3-1.6-.5l-1.5-.6c-.3-.1-.5-.3-.4-.4A.61.61,0,0,1,236.64,186.8Z"/><path class="cls-3" d="M235,186.6a1.42,1.42,0,0,1-.6-.2l-.6-.3c-.3-.2-.3-.4-.1-.5h.3a1.42,1.42,0,0,1,.6.2l.6.3c.3.2.3.4.1.5Z"/><path class="cls-3" d="M232.74,185.7a1.42,1.42,0,0,1-.6-.2l-.6-.3c-.3-.2-.3-.4,0-.5h.3a1.42,1.42,0,0,1,.6.2l.6.3c.3.2.3.4.1.5Z"/><path class="cls-3" d="M230.44,184.7c-.8-.3-1.6-.7-2.5-1.1s-1.6-.9-2.4-1.3c-.3-.2-.4-.4-.3-.5a.45.45,0,0,1,.5,0l2.4,1.2,2.4,1.2c.3.1.4.4.3.5S230.64,184.8,230.44,184.7Z"/><path class="cls-3" d="M223.64,181.1a.76.76,0,0,1-.4-.2l-.3-.3c-.2-.3-.1-.5.3-.4h0c.1,0,.3.1.4.1l.3.3c.1.3,0,.5-.3.5Z"/><path class="cls-3" d="M221.34,179.6a.76.76,0,0,1-.4-.2l-.3-.3c-.2-.3,0-.5.3-.4h0c.1,0,.2.1.4.2l.3.3c.2.3,0,.4-.3.4Z"/><path class="cls-5" d="M324,201.3c-60,0-100.6-9-108.7-24.1-4.5-8.4-4.9-18.5-1.1-29.4,8.8-25.2,37.5-50.6,76.8-67.7,41.9-18.3,97.9-32.1,130.3-32.1,14.8,0,23.5,2.9,23.9,8,.9,11.2-4.9,21.6-10,30.9s-9.5,17.3-4.8,23.4c3,3.8,11.7,5.5,29.5,8.6,27.4,4.8,68.9,12.2,68.8,33.5-.1,12-25.1,24.8-67,34.4C421.94,195.9,370.34,201.3,324,201.3Z"/><path class="cls-6" d="M313.34,183.5a6.65,6.65,0,1,1-6.5-6.8h0A6.68,6.68,0,0,1,313.34,183.5Zm8.9,1.9a18.21,18.21,0,0,0,.1-3.3l-4.8-.4a7.94,7.94,0,0,0-.6-2.2l3.9-2.8a26.06,26.06,0,0,0-1.7-2.8l-4.3,2.2a12.88,12.88,0,0,0-1.7-1.6l1.8-4.4a11.69,11.69,0,0,0-3-1.4l-2.3,4.2a15.72,15.72,0,0,0-2.3-.4l-.9-4.7a18.59,18.59,0,0,0-3.3.4l.3,4.8a9.49,9.49,0,0,0-2.1.9l-3.3-3.5a12.66,12.66,0,0,0-2.5,2.1l2.8,3.9a12.74,12.74,0,0,0-1.3,1.9l-4.7-1.1a18.61,18.61,0,0,0-1,3.1l4.5,1.7a8.85,8.85,0,0,0,0,2.3l-4.6,1.5a16.81,16.81,0,0,0,.9,3.2l4.7-1a8.17,8.17,0,0,0,1.2,2l-3,3.8a12.56,12.56,0,0,0,2.4,2.2l3.5-3.4a20,20,0,0,0,2.1,1l-.5,4.8a12.57,12.57,0,0,0,3.3.5l1.1-4.7a9.08,9.08,0,0,0,2.3-.3l2.2,4.3a16,16,0,0,0,3-1.3l-1.5-4.5a11.92,11.92,0,0,0,1.8-1.5l4.1,2.4a15.86,15.86,0,0,0,1.8-2.7l-3.8-2.9a14.16,14.16,0,0,0,.7-2.2Z"/><path class="cls-6" d="M300.14,229.1a6,6,0,0,1-6.9,4.8,5.88,5.88,0,0,1-4.8-6.9,6,6,0,0,1,6.9-4.8h0A6.11,6.11,0,0,1,300.14,229.1Zm7.7,2a5,5,0,0,0,.2-1.2l-4-1.6a9.15,9.15,0,0,0-.1-1.7l3.8-2.1a5.64,5.64,0,0,0-.4-1.2l-4.4.5-.9-1.5,2.4-3.6-.9-.9-3.6,2.4-1.5-.9.4-4.4c-.4-.1-.8-.3-1.2-.4l-2.1,3.8a10.28,10.28,0,0,0-1.7-.1l-1.6-4.1c-.4.1-.8.1-1.2.2l-.1,4.4a11.11,11.11,0,0,0-1.6.7l-3.3-2.8c-.3.2-.6.5-1,.8l2,3.9a7.55,7.55,0,0,0-1.1,1.4l-4.3-1a5.36,5.36,0,0,0-.5,1.1l3.6,2.5a5.08,5.08,0,0,0-.3,1.7l-4.2,1.1a4.87,4.87,0,0,0,.1,1.2l4.3.6a10.93,10.93,0,0,0,.5,1.7l-3.2,3c.2.4.4.7.6,1.1l4.1-1.5a13.58,13.58,0,0,0,1.2,1.2l-1.5,4.1c.3.2.7.4,1,.6l3-3.2a8.45,8.45,0,0,0,1.7.5l.6,4.3c.4,0,.8.1,1.2.1l1.1-4.2c.6-.1,1.2-.2,1.7-.3l2.6,3.6a11.73,11.73,0,0,0,1.1-.5l-1-4.3a13.44,13.44,0,0,0,1.4-1.1l3.9,2c.3-.3.5-.7.8-1l-2.9-3.3a7.74,7.74,0,0,0,.7-1.6Z"/><path class="cls-6" d="M294.24,230.3a2.15,2.15,0,1,1,2.2-2.1h0A2.27,2.27,0,0,1,294.24,230.3Z"/><path class="cls-6" d="M429.94,232.1a6.66,6.66,0,1,1,9.3,1.5h0A6.78,6.78,0,0,1,429.94,232.1Zm-8.2,3.8a13.09,13.09,0,0,0,1.9,2.7l4.1-2.6a22,22,0,0,0,1.8,1.4l-1.4,4.6a16.59,16.59,0,0,0,3.1,1.2l2-4.4a9,9,0,0,0,2.3.2l1.3,4.6a16.47,16.47,0,0,0,3.2-.6l-.6-4.8a7.81,7.81,0,0,0,2-1.1l3.6,3.2a13.08,13.08,0,0,0,2.4-2.3l-3.1-3.7a12.81,12.81,0,0,0,1.1-2l4.7.8a16.65,16.65,0,0,0,.8-3.2l-4.6-1.4a17.7,17.7,0,0,0-.1-2.3l4.4-1.9a16.29,16.29,0,0,0-1.1-3.1l-4.6,1.3a8.47,8.47,0,0,0-1.4-1.9l2.7-4a16.38,16.38,0,0,0-2.6-2l-3.2,3.6a9,9,0,0,0-2.1-.8l.1-4.8a18.41,18.41,0,0,0-3.3-.3l-.7,4.8a9.48,9.48,0,0,0-2.3.5l-2.5-4.1a15.93,15.93,0,0,0-2.9,1.5l2,4.4A12.88,12.88,0,0,0,427,221l-4.3-2.1a16.41,16.41,0,0,0-1.6,2.9l4,2.6a8.56,8.56,0,0,0-.5,2.3l-4.8.6a12.22,12.22,0,0,0,.2,3.3h4.8a8.26,8.26,0,0,0,.8,2.2Z"/><path class="cls-6" d="M413.74,184.4a5.88,5.88,0,1,1,7.9,2.6h0A6,6,0,0,1,413.74,184.4Zm-7.4,3c.2.4.4.7.6,1.1l4.2-1.2a6.89,6.89,0,0,0,1.1,1.3l-1.8,4a6.07,6.07,0,0,0,1,.7l3.2-3a5.23,5.23,0,0,0,1.6.6l.3,4.4c.4.1.8.1,1.2.2l1.4-4.1a8.81,8.81,0,0,0,1.7-.2l2.3,3.7c.4-.1.8-.3,1.2-.4l-.7-4.3a13,13,0,0,0,1.5-1l3.8,2.3a6.47,6.47,0,0,0,.8-.9l-2.6-3.5a10.93,10.93,0,0,0,.8-1.5l4.4.3.3-1.2-3.9-1.9v-1.7l4-1.8-.3-1.2-4.4.1a11.94,11.94,0,0,0-.8-1.6l2.7-3.4c-.3-.3-.5-.6-.8-.9l-3.8,2.1a7.1,7.1,0,0,0-1.4-1l.8-4.3a7.6,7.6,0,0,0-1.1-.4l-2.4,3.7a9.85,9.85,0,0,0-1.7-.2l-1.3-4.2c-.4,0-.8.1-1.2.1l-.4,4.4a7.58,7.58,0,0,0-1.6.6l-3.1-3.1a3.59,3.59,0,0,0-1,.7l1.7,4.1a15.38,15.38,0,0,0-1.2,1.3l-4.2-1.3c-.2.4-.4.7-.6,1.1l3.3,2.8a8.47,8.47,0,0,0-.4,1.7l-4.3.8v1.2l4.3.9a10.46,10.46,0,0,0,.4,1.7Z"/><path class="cls-6" d="M417.84,179.9a2.08,2.08,0,0,1,2.4,3.4,2.06,2.06,0,0,1-2.9-.5h0A2.19,2.19,0,0,1,417.84,179.9Z"/><path class="cls-3" d="M486.24,256.2a.37.37,0,0,0-.3.1c-.1.1-.2.1-.3.2s0,.3.1.4a.35.35,0,0,0,.2.1.37.37,0,0,0,.3-.1c.1-.1.2-.1.3-.2s0-.3-.1-.4S486.34,256.2,486.24,256.2Z"/><path class="cls-3" d="M485.24,256.8a.37.37,0,0,0-.3.1c-.1.1-.2.1-.2.2s0,.3.1.4a.35.35,0,0,0,.2.1.37.37,0,0,0,.3-.1c.1-.1.2-.1.2-.2s0-.3-.1-.4A.31.31,0,0,0,485.24,256.8Z"/><path class="cls-3" d="M484.14,257.4a.55.55,0,0,0-.5.3c-.1.1,0,.3.1.4a.35.35,0,0,0,.2.1.37.37,0,0,0,.3-.1c.1-.1.2-.1.2-.2s0-.3-.1-.4S484.24,257.4,484.14,257.4Z"/><path class="cls-3" d="M482.34,258.5a.37.37,0,0,0-.3.1c-.1.1-.2.1-.2.2s0,.3.1.4h.2c.1,0,.2-.1.3-.1s.2-.1.2-.2,0-.3-.1-.4Z"/><path class="cls-3" d="M481,259.4h-.2c-.1,0-.1.1-.1.2s.1.4.2.4h.3c.1,0,.1-.1.1-.2s-.1-.4-.3-.4Z"/><path class="cls-3" d="M479.94,260.1h-.2c-.1,0-.1.1-.1.2s.1.3.3.4h.3c.1,0,.1-.1.1-.2s-.1-.2-.4-.4Z"/><path class="cls-3" d="M496.44,256.5a3.51,3.51,0,0,0-1.6-2.3,3.26,3.26,0,0,0-1.4-.4,6.6,6.6,0,0,0-1.4.1,19.75,19.75,0,0,0-2.6.8,13.44,13.44,0,0,0-2.4,1.2.3.3,0,0,0,0,.4.37.37,0,0,0,.3.1c.8-.4,1.6-.7,2.4-1.1a10.27,10.27,0,0,1,2.5-.7,5.28,5.28,0,0,1,1.3-.1,2,2,0,0,1,1.1.3,3,3,0,0,1,1.4,1.9.19.19,0,0,0,.3.1A1,1,0,0,0,496.44,256.5Z"/><path class="cls-3" d="M496,257.2c0,.1-.1.2-.1.3a.37.37,0,0,0,.1.3c.1.1.3.2.4.1l.1-.1c0-.1.1-.2.1-.3a.37.37,0,0,0-.1-.3.3.3,0,0,0-.4,0C496.14,257.1,496,257.2,496,257.2Z"/><path class="cls-3" d="M496,258.2a.75.75,0,0,0-.1.5c.1.1.3.2.4.1a.1.1,0,0,0,.1-.1.37.37,0,0,0,.1-.3v-.3c-.1-.1-.3-.2-.4-.1S496.14,258.2,496,258.2Z"/><path class="cls-3" d="M495.94,259.2c-.1.3-.2.7-.3,1s-.2.7-.3,1c0,.1.1.3.2.3a.37.37,0,0,0,.3-.1,4.18,4.18,0,0,0,.4-1,4.25,4.25,0,0,0,.2-1.1.32.32,0,0,0-.3-.3A.22.22,0,0,0,495.94,259.2Z"/><path class="cls-3" d="M495,262.1a.1.1,0,0,0-.1.1v.2a.37.37,0,0,0,.5.2h0a.1.1,0,0,0,.1-.1v-.2a.37.37,0,0,0-.5-.2Z"/><path class="cls-3" d="M494.54,263.1a.1.1,0,0,0-.1.1v.2a.55.55,0,0,0,.5.3h0c.1,0,.1-.1.2-.1v-.2q-.3-.45-.6-.3Z"/><path class="cls-3" d="M467.54,238.7a.9.9,0,0,0-.5.1c-.2,0-.3.1-.5.2s-.2.2-.1.3a.1.1,0,0,0,.1.1c.1,0,.1.1.2.1a.9.9,0,0,0,.5-.1c.2,0,.3-.1.5-.2a.25.25,0,0,0,.1-.4C467.64,238.7,467.64,238.7,467.54,238.7Z"/><path class="cls-3" d="M465.64,239.3a.75.75,0,0,0-.5.1,1.33,1.33,0,0,0-.5.3.21.21,0,0,0,0,.4c.1,0,.1.1.2.1a1.69,1.69,0,0,0,1-.3c.1-.1.2-.2.1-.4a.1.1,0,0,0-.1-.1C465.84,239.3,465.74,239.2,465.64,239.3Z"/><path class="cls-3" d="M463.74,239.9a.9.9,0,0,0-.5.1c-.2.1-.3.2-.5.3a.21.21,0,0,0,0,.4c.1,0,.1.1.2.1s.3-.1.5-.1a1.33,1.33,0,0,0,.5-.3.21.21,0,0,0,0-.4C463.94,239.9,463.84,239.9,463.74,239.9Z"/><path class="cls-3" d="M460.54,241.3c-.2,0-.3.1-.5.2a1.38,1.38,0,0,0-.4.3c-.1.2-.1.4,0,.4h.2c.2,0,.3-.1.5-.2a1.38,1.38,0,0,0,.4-.3c.1-.1.1-.4,0-.4Z"/><path class="cls-3" d="M458.34,242.4a.37.37,0,0,0-.3.1c-.1.1-.2.1-.2.2a.3.3,0,0,0,0,.4.1.1,0,0,1,.1.1h.1a.37.37,0,0,0,.3-.1c.1-.1.2-.1.2-.2a.25.25,0,0,0-.1-.4c.1-.1,0-.1-.1-.1Z"/><path class="cls-3" d="M456.54,243.4a.37.37,0,0,0-.3.1c-.1.1-.2.1-.2.2a.25.25,0,0,0,.1.4h.2a.37.37,0,0,0,.3-.1c.1,0,.2-.1.3-.2a.25.25,0,0,0-.1-.4h-.3Z"/><path class="cls-3" d="M479.64,248.1a16.32,16.32,0,0,0-.3-4.4,17.23,17.23,0,0,0-.7-2.1,5.94,5.94,0,0,0-1.3-1.8,7.61,7.61,0,0,0-1.9-1.2,7.85,7.85,0,0,0-2.2-.5,13.16,13.16,0,0,0-4.4.4.32.32,0,0,0-.3.3c.1.2.2.2.4.2a14.82,14.82,0,0,1,4.2-.2,6.53,6.53,0,0,1,2,.5,6.19,6.19,0,0,1,1.7,1.1A6.1,6.1,0,0,1,478,242a11.76,11.76,0,0,1,.7,2,15,15,0,0,1,.4,4.2c0,.2.1.3.3.4C479.44,248.5,479.64,248.3,479.64,248.1Z"/><path class="cls-3" d="M479.14,249.1a.6.6,0,0,0-.1.4v.4c.1.2.3.3.4.2l.1-.1a.6.6,0,0,0,.1-.4v-.5c-.1-.2-.3-.3-.4-.2S479.14,249,479.14,249.1Z"/><path class="cls-3" d="M478.94,250.7a.6.6,0,0,0-.1.4v.4c.1.2.2.3.4.2a.1.1,0,0,0,.1-.1,1.41,1.41,0,0,0,.1-.9c-.1-.2-.3-.3-.4-.2S479,250.7,478.94,250.7Z"/><path class="cls-3" d="M478.74,252.4c-.1.6-.3,1.1-.4,1.7s-.2,1.1-.3,1.7c0,.2.1.4.2.4a.32.32,0,0,0,.3-.3,10.46,10.46,0,0,0,.4-1.7,11,11,0,0,0,.2-1.8c0-.2-.1-.4-.3-.4S478.84,252.2,478.74,252.4Z"/><path class="cls-3" d="M477.74,257.3c-.1.1-.1.1-.1.2v.3c0,.2.2.3.4.2s.1,0,.1-.1h0c.1-.1.1-.1.1-.2v-.3c0-.2-.2-.3-.4-.2l-.1.1Z"/><path class="cls-3" d="M477.34,258.9c-.1.1-.1.1-.1.2v.3c0,.2.2.3.4.2a.1.1,0,0,0,.1-.1h0c.1-.1.1-.1.1-.2V259c0-.2-.2-.3-.4-.2A.1.1,0,0,0,477.34,258.9Z"/><path class="cls-7" d="M303.84,218.9v-.8a2.35,2.35,0,0,1,.2-.8c.1-.3.3-.4.4-.3a.37.37,0,0,1,.1.3v.8a2.35,2.35,0,0,1-.2.8c-.1.3-.3.4-.4.3A.37.37,0,0,0,303.84,218.9Z"/><path class="cls-7" d="M304.24,216v-.8a2.35,2.35,0,0,1,.2-.8c.1-.3.3-.4.4-.3a.37.37,0,0,1,.1.3v.8a2.35,2.35,0,0,1-.2.8c-.1.3-.3.4-.4.3S304.24,216.1,304.24,216Z"/><path class="cls-7" d="M304.64,213.1a2.2,2.2,0,0,1,.1-.8,2.35,2.35,0,0,1,.2-.8c.1-.3.3-.4.4-.3s.1.2.1.3a2.2,2.2,0,0,1-.1.8,2.35,2.35,0,0,1-.2.8c-.1.3-.3.4-.4.2A.35.35,0,0,1,304.64,213.1Z"/><path class="cls-7" d="M305.54,207.9a2.2,2.2,0,0,1,.1-.8,2.35,2.35,0,0,1,.2-.8c.1-.3.3-.4.4-.2a.37.37,0,0,1,.1.3,2.2,2.2,0,0,1-.1.8,2.35,2.35,0,0,1-.2.8c-.1.3-.3.4-.4.2S305.54,208,305.54,207.9Z"/><path class="cls-7" d="M306.34,204.3v-.5a.52.52,0,0,1,.2-.4c.2-.3.4-.3.5-.1v.6a.52.52,0,0,1-.2.4c-.2.3-.4.3-.5.1Z"/><path class="cls-7" d="M307,201.2v-.5a.52.52,0,0,1,.2-.4c.2-.3.4-.3.5,0v.6a.52.52,0,0,1-.2.4c-.2.3-.4.3-.5.1Z"/><path class="cls-7" d="M422.44,218.9v-.8a2.35,2.35,0,0,0-.2-.8c-.1-.3-.3-.4-.4-.3a.37.37,0,0,0-.1.3v.8a2.35,2.35,0,0,0,.2.8c.1.3.3.4.4.3S422.44,219,422.44,218.9Z"/><path class="cls-7" d="M422,216v-.8a2.35,2.35,0,0,0-.2-.8c-.1-.3-.3-.4-.4-.3a.37.37,0,0,0-.1.3v.8a2.35,2.35,0,0,0,.2.8c.1.3.3.4.4.3S422,216.1,422,216Z"/><path class="cls-7" d="M421.64,213.1a2.2,2.2,0,0,0-.1-.8,2.35,2.35,0,0,0-.2-.8c-.1-.3-.3-.4-.4-.3a.37.37,0,0,0-.1.3,2.2,2.2,0,0,0,.1.8,2.35,2.35,0,0,0,.2.8c.1.3.3.4.4.2C421.64,213.3,421.64,213.2,421.64,213.1Z"/><path class="cls-7" d="M420.74,207.9a2.2,2.2,0,0,0-.1-.8,2.35,2.35,0,0,0-.2-.8c-.1-.3-.3-.4-.4-.2a.37.37,0,0,0-.1.3,2.2,2.2,0,0,0,.1.8,2.35,2.35,0,0,0,.2.8c.1.3.3.4.4.2A.37.37,0,0,0,420.74,207.9Z"/><path class="cls-7" d="M419.94,204.3v-.5a.52.52,0,0,0-.2-.4c-.2-.3-.4-.3-.5-.1v.6a.52.52,0,0,0,.2.4c.2.3.4.3.5.1Z"/><path class="cls-7" d="M419.24,201.2v-.5a.52.52,0,0,0-.2-.4c-.2-.3-.4-.3-.5,0v.6a.52.52,0,0,0,.2.4c.2.3.4.3.5.1Z"/><ellipse class="cls-8" cx="363.64" cy="218.1" rx="48.4" ry="48.3"/><ellipse class="cls-9" cx="363.64" cy="218.1" rx="38" ry="37.9"/><ellipse class="cls-10" cx="363.64" cy="218.1" rx="24.8" ry="24.7"/><circle class="cls-9" cx="363.64" cy="218.9" r="9.2"/><path class="cls-3" d="M237.84,256.2a.37.37,0,0,1,.3.1c.1.1.2.1.2.2s0,.3-.1.4a.35.35,0,0,1-.2.1h-.3c-.1-.1-.2-.1-.3-.2s0-.3.1-.4S237.74,256.2,237.84,256.2Z"/><path class="cls-3" d="M238.94,256.8a.37.37,0,0,1,.3.1c.1.1.2.1.2.2s0,.3-.1.4a.35.35,0,0,1-.2.1.37.37,0,0,1-.3-.1c-.1-.1-.2-.1-.2-.2s0-.3.1-.4S238.84,256.8,238.94,256.8Z"/><path class="cls-3" d="M239.94,257.4a.37.37,0,0,1,.3.1c.1.1.2.1.2.2s0,.3-.1.4a.35.35,0,0,1-.2.1.37.37,0,0,1-.3-.1c-.1-.1-.2-.1-.2-.2s0-.3.1-.4A.31.31,0,0,1,239.94,257.4Z"/><path class="cls-3" d="M241.84,258.5a.37.37,0,0,1,.3.1c.1.1.2.1.2.2s0,.4-.2.4H242a.66.66,0,0,1-.5-.4c-.1-.1,0-.3.1-.4C241.74,258.5,241.74,258.5,241.84,258.5Z"/><path class="cls-3" d="M243,259.4h.2c.1,0,.1.1.1.2s-.1.4-.3.4h-.3c-.1,0-.1-.1-.1-.2s.2-.4.4-.4Z"/><path class="cls-3" d="M244.14,260.1h.2c.1,0,.1.1.1.2s-.1.3-.3.4h-.3c-.1,0-.1-.1-.1-.2s.2-.3.4-.4Z"/><path class="cls-3" d="M227.74,256.5a3.2,3.2,0,0,1,1.6-2.3,3.26,3.26,0,0,1,1.4-.4,6.6,6.6,0,0,1,1.4.1,19.75,19.75,0,0,1,2.6.8,13.44,13.44,0,0,1,2.4,1.2c.1.1.1.2.1.4s-.2.2-.3.1c-.8-.4-1.6-.7-2.4-1.1a10.27,10.27,0,0,0-2.5-.7,5.28,5.28,0,0,0-1.3-.1,2,2,0,0,0-1.1.3,3,3,0,0,0-1.4,1.9c-.1.1-.2.2-.3.1s-.3-.2-.2-.3Z"/><path class="cls-3" d="M228,257.2c0,.1.1.2.1.3a.37.37,0,0,1-.1.3c-.1.1-.3.2-.4.1l-.1-.1a.5.5,0,0,1,0-.6.3.3,0,0,1,.4,0C228,257.1,228,257.2,228,257.2Z"/><path class="cls-3" d="M228,258.2a.37.37,0,0,1,.1.3v.3c-.1.1-.3.2-.4.1a.1.1,0,0,1-.1-.1.5.5,0,0,1,0-.6c0-.1.2-.2.4,0Z"/><path class="cls-3" d="M228.14,259.2c.1.3.2.7.3,1s.2.7.3,1c0,.1-.1.3-.2.3a.37.37,0,0,1-.3-.1,4.18,4.18,0,0,1-.4-1,4.25,4.25,0,0,1-.2-1.1.32.32,0,0,1,.3-.3A.22.22,0,0,1,228.14,259.2Z"/><path class="cls-3" d="M229.14,262.1a.1.1,0,0,1,.1.1v.2a.37.37,0,0,1-.5.2h0a.1.1,0,0,1-.1-.1v-.2a.37.37,0,0,1,.5-.2Z"/><path class="cls-3" d="M229.54,263.1a.1.1,0,0,1,.1.1v.2a.55.55,0,0,1-.5.3h0a.1.1,0,0,1-.1-.1v-.2c.1-.3.3-.4.5-.3Z"/><path class="cls-3" d="M256.54,238.7a.75.75,0,0,1,.5.1c.2,0,.3.1.5.2s.2.2.1.3a.1.1,0,0,1-.1.1c-.1,0-.1.1-.2.1a.9.9,0,0,1-.5-.1c-.2,0-.3-.1-.5-.2a.25.25,0,0,1-.1-.4A.77.77,0,0,1,256.54,238.7Z"/><path class="cls-3" d="M258.44,239.3a.9.9,0,0,1,.5.1,1.33,1.33,0,0,1,.5.3.21.21,0,0,1,0,.4c-.1,0-.1.1-.2.1a.9.9,0,0,1-.5-.1c-.2-.1-.3-.1-.5-.2a.21.21,0,0,1,0-.4C258.34,239.3,258.44,239.2,258.44,239.3Z"/><path class="cls-3" d="M260.34,239.9a.9.9,0,0,1,.5.1,1.33,1.33,0,0,1,.5.3.21.21,0,0,1,0,.4c-.1,0-.1.1-.2.1a2.11,2.11,0,0,1-1-.4.6.6,0,0,1-.1-.4l.1-.1Z"/><path class="cls-3" d="M263.54,241.3a1.62,1.62,0,0,1,.9.5c.1.2.1.4,0,.4h-.2a2.47,2.47,0,0,1-.9-.4c-.1-.1-.1-.4,0-.4S263.44,241.3,263.54,241.3Z"/><path class="cls-3" d="M265.74,242.4a.37.37,0,0,1,.3.1c.1.1.2.1.2.2a.25.25,0,0,1-.1.4h-.2a.37.37,0,0,1-.3-.1c-.1-.1-.2-.1-.2-.2a.25.25,0,0,1,.1-.4Z"/><path class="cls-3" d="M267.54,243.4a.37.37,0,0,1,.3.1c.1.1.2.1.2.2a.25.25,0,0,1-.1.4h-.1a.37.37,0,0,1-.3-.1c-.1-.1-.2-.1-.2-.2a.25.25,0,0,1,.1-.4c0,.1,0,0,.1,0Z"/><path class="cls-3" d="M244.54,248.1a16.32,16.32,0,0,1,.3-4.4,17.23,17.23,0,0,1,.7-2.1,4.89,4.89,0,0,1,1.4-1.8,7.61,7.61,0,0,1,1.9-1.2,7.85,7.85,0,0,1,2.2-.5,13.16,13.16,0,0,1,4.4.4.32.32,0,0,1,.3.3c-.1.2-.2.2-.4.2a14.82,14.82,0,0,0-4.2-.2,6.53,6.53,0,0,0-2,.5,6.19,6.19,0,0,0-1.7,1.1,6.1,6.1,0,0,0-1.2,1.6,11.76,11.76,0,0,0-.7,2,15,15,0,0,0-.4,4.2c0,.2-.1.4-.3.4S244.54,248.3,244.54,248.1Z"/><path class="cls-3" d="M245,249.1a.6.6,0,0,1,.1.4v.4c-.1.2-.3.3-.4.2l-.1-.1a.6.6,0,0,1-.1-.4v-.5c.1-.2.3-.3.4-.2S245,249,245,249.1Z"/><path class="cls-3" d="M245.14,250.7a.6.6,0,0,1,.1.4v.4c-.1.2-.2.3-.4.2a.1.1,0,0,1-.1-.1.6.6,0,0,1-.1-.4v-.4c0-.1.1-.2.3-.2h.1Z"/><path class="cls-3" d="M245.34,252.4c.1.6.3,1.1.4,1.7s.2,1.1.3,1.7c0,.2-.1.4-.2.4a.32.32,0,0,1-.3-.3,10.46,10.46,0,0,1-.4-1.7,11,11,0,0,1-.2-1.8c0-.2.1-.4.3-.4S245.34,252.2,245.34,252.4Z"/><path class="cls-3" d="M246.34,257.3c.1.1.1.1.1.2v.3c0,.2-.2.3-.4.2s-.1,0-.1-.1h0c-.1-.1-.1-.1-.1-.2v-.3c0-.2.2-.3.4-.2a.1.1,0,0,1,.1.1Z"/><path class="cls-3" d="M246.84,258.9c.1.1.1.1.1.2v.3c0,.2-.2.3-.4.2a.1.1,0,0,1-.1-.1h0c-.1-.1-.1-.1-.1-.2V259c0-.2.2-.3.4-.2l.1.1Z"/><path class="cls-11" d="M479.74,123.2c0,1-1.8,1.9-4,1.9s-4-.8-4-1.9,1.8-.5,4-.5S479.74,122.1,479.74,123.2Z"/><path class="cls-12" d="M473.14,119.3c0,.3.4.9.7.8a.79.79,0,0,0,.5-.8c0-.1-.1-.3-.2-.3s-.3,0-.3.2v.4a1.42,1.42,0,0,0,.2.6.6.6,0,0,0,.6.3.9.9,0,0,0,.6-.6.6.6,0,0,0,.1-.4.52.52,0,0,0-.2-.4c-.1-.1-.3,0-.4.1a.6.6,0,0,0-.1.4.82.82,0,0,0,1,.7h.1a.81.81,0,0,0,.5-1.1h0c-.1-.1-.2-.3-.4-.2s-.1.1-.1.2a.67.67,0,0,0,.3.8.78.78,0,0,0,.8.1.67.67,0,0,0,.3-.8.22.22,0,0,0-.2-.2c-.2,0-.3.2-.3.4a.63.63,0,0,0,.5.6.67.67,0,0,0,.7-.4"/><path class="cls-3" d="M419.44,69.5h16a1.79,1.79,0,0,1,1.8,1.8v61.2a1.79,1.79,0,0,1-1.8,1.8h-16a1.79,1.79,0,0,1-1.8-1.8V71.3A1.79,1.79,0,0,1,419.44,69.5Z"/><rect class="cls-9" x="420.54" y="82.1" width="13.8" height="13.8"/><rect class="cls-13" x="420.54" y="99.2" width="13.8" height="13.8"/><rect class="cls-14" x="420.54" y="117.1" width="13.8" height="13.8"/><polyline class="cls-15" points="397.94 135.5 397.94 138.2 395.34 138.2"/><line class="cls-16" x1="389.84" y1="138.2" x2="337.84" y2="138.2"/><polyline class="cls-15" points="335.14 138.2 332.44 138.2 332.44 135.5"/><line class="cls-17" x1="332.44" y1="130.5" x2="332.44" y2="51.9"/><polyline class="cls-15" points="332.44 49.4 332.44 46.7 335.14 46.7"/><line class="cls-16" x1="340.64" y1="46.7" x2="392.54" y2="46.7"/><polyline class="cls-15" points="395.34 46.7 397.94 46.7 397.94 49.4"/><line class="cls-17" x1="397.94" y1="54.5" x2="397.94" y2="133"/><line class="cls-18" x1="332.44" y1="43.4" x2="332.44" y2="50.1"/><line class="cls-18" x1="335.74" y1="46.8" x2="329.14" y2="46.8"/><line class="cls-18" x1="397.74" y1="43.4" x2="397.74" y2="50.1"/><line class="cls-18" x1="401.14" y1="46.8" x2="394.44" y2="46.8"/><line class="cls-18" x1="332.44" y1="134.9" x2="332.44" y2="141.6"/><line class="cls-18" x1="335.74" y1="138.2" x2="329.14" y2="138.2"/><line class="cls-18" x1="397.74" y1="134.9" x2="397.74" y2="141.6"/><line class="cls-18" x1="401.14" y1="138.2" x2="394.44" y2="138.2"/><path class="cls-9" d="M388.74,74.5c0,7.1-5.5,14.4-11.7,16.2v.4s14.9,3.6,14.9,17.7c0,14.8-9.9,21.4-27.7,21.4h-18.3c-2.2,0-3.2-1-3.2-3.2V59c0-2.2,1-3.2,3.2-3.2h19C380.84,55.6,388.74,63.3,388.74,74.5Zm-36.6-10.8v24h12.3c8.6,0,14.7-5.5,14.7-12.4,0-7.9-4.5-11.6-15.1-11.6Zm0,32.1v26.1h15.5c9.5,0,14.7-5.3,14.7-13.7,0-7.8-5.5-12.4-16.5-12.4Z"/><rect class="cls-19" x="351.94" y="55.5" width="40.2" height="74.4"/><rect class="cls-20" x="351.94" y="55.5" width="27.2" height="74.4"/><rect class="cls-21" x="351.94" y="55.5" width="30.1" height="74.4"/><rect class="cls-22" x="342.74" y="55.5" width="46.1" height="74.4"/><rect class="cls-23" x="342.74" y="55.5" width="46.1" height="32.1"/><rect class="cls-24" x="342.74" y="55.5" width="46.1" height="8.1"/><rect class="cls-25" x="342.74" y="55.5" width="46.1" height="40.4"/><rect class="cls-26" x="342.74" y="55.5" width="46.1" height="35.2"/><rect class="cls-27" x="342.74" y="55.5" width="46.1" height="66.3"/><path class="cls-28" d="M265.14,271.8c0,1.4-47.5,2.5-71.3,2.5s-26.2-1.1-26.2-2.5,2.4-2.5,26.2-2.5S265.14,270.4,265.14,271.8Z"/><path class="cls-9" d="M207.44,143.3c5.4,9.6,43.3,21.5,49.8,20.1,2.4-.5,3.8-6.9,1-8.2,0,0-36.6-19.5-44.9-22.9C210.24,131,204,137.3,207.44,143.3Z"/><path class="cls-3" d="M259.44,159.5a5,5,0,0,1-1.2,2.9,1.09,1.09,0,0,1-.9.4,1.42,1.42,0,0,1-1-1,6.26,6.26,0,0,1-.3-2.7,4.56,4.56,0,0,1,1.3-2.9,1.49,1.49,0,0,1,.9-.4.37.37,0,0,1,.3.1h0C259.24,156.4,259.64,157.9,259.44,159.5Z"/><path class="cls-29" d="M268.14,163c-2.3,1.4-8,.6-9.5-.4l-.1-.1c-.5-.2-1.6-.3-1.9-.6h0a6.26,6.26,0,0,1-.3-2.7,4.56,4.56,0,0,1,1.3-2.9c.3-.2.6-.1,1.3-.2h0a2.38,2.38,0,0,0,1.1-.6,12.62,12.62,0,0,1,4.6-1.6,16.15,16.15,0,0,1,3.1.2c1.3.1.5,1.4-.3,1.7a9,9,0,0,0-2.2.6,2.65,2.65,0,0,0-.6.5,31.17,31.17,0,0,0,4.4.9c.9.1,1.3,1.8,0,1.8a8.6,8.6,0,0,1-1.6-.1,5.82,5.82,0,0,0,1.9.3C269.84,159.7,268.34,162.8,268.14,163Z"/><path class="cls-29" d="M204.34,247.7l1,19.4a14,14,0,0,0-.5,2.3,16.2,16.2,0,0,0,.1,2.2,7.15,7.15,0,0,0,4.1.3l.2-.2a12.09,12.09,0,0,0,1.8.5c1.6.3,6.4.3,7.2-.3,0,0,1.1-2-.9-2.4-4.9-1.1-5.8-2.9-5.9-4.5-.3-1.9.6-16.1.6-16.1Z"/><g class="cls-30"><path class="cls-31" d="M212.44,266.8a3.5,3.5,0,0,0-2.2.6c-.8.7-1.4,1.3-2.5,1.1-2.7-.5-2.4-2.6-3.6-1.6l-.6,5.6,15.2.4.5-4.2Z"/><path class="cls-32" d="M218.54,271.2s-.3.7-5.1.6-5.1-1.2-8.9-1l.1,1.3,13.9,1Z"/></g><path class="cls-33" d="M202.34,180.6c3.1-7.9,14.2-8.8,14.3-.7.1,11.6-3.9,70-3.9,70-2.4,1.8-7.6,1.3-9.5.6C202.34,228.8,195,199.4,202.34,180.6Z"/><path class="cls-29" d="M190.14,247.9,184,267.2c.1.7.1,1.5.2,2.3a18.46,18.46,0,0,1-.4,2.3,6.45,6.45,0,0,1-4.1.5l-.2-.2c-.6.2-1.2.4-1.9.6-1.7.5-6.5.8-7.2.2,0,0-.5-1.6,1.5-2.2,5.1-1.5,6-3.6,6.4-5.2.6-2,2.6-18.1,2.6-18.1Z"/><g class="cls-34"><path class="cls-31" d="M176.94,267.5a3.14,3.14,0,0,1,2.1.5c.7.7,1.2,1.2,2.3,1,2.8-.7,2.8-2.8,3.9-1.9l-.3,5.6-15.4,1.4.2-4.2Z"/><path class="cls-32" d="M170,272.4s.2.7,5,.3,5.3-1.6,9.1-1.7l-.3,1.3-14.2,1.9Z"/></g><path class="cls-35" d="M185.74,178c1.2-8.4,15.2-5,15.1,3.2-.3,26.3-5.2,56.4-10.7,68.3-2.5,1.3-8.3.5-9.9-.6C182.84,225.1,183.54,193.9,185.74,178Z"/><path class="cls-35" d="M212.74,185.5c-.1,4.3-4.3,9.2-11.3,9s-16-3.8-15.9-8c.3-13.7,6-21.1,13-20.9S213.14,171.5,212.74,185.5Z"/><path class="cls-2" d="M214.74,181.7c-.1,2.5-7.5,3.6-15.6,3.4s-14.1-1.5-14.1-4c.2-8.1,7.2-12.6,15.3-12.4S214.94,173.5,214.74,181.7Z"/><path class="cls-2" d="M181.54,137.9c3.1-5.1,17.7-9.9,18.4-9.9,5.1-.1,15.9,6.9,17.1,9.5,1,2.3-2.9,21.7-2.5,30.4.2,4.5.8,7.9.7,12.5-.1,4.3-30.4,4.3-30.3.1.1-3.5,2.7-6.1,2.6-9.8C187.44,163.2,180.24,140.1,181.54,137.9Z"/><path class="cls-36" d="M206.14,118.5c-1-.8-1.3-3.4-.5-4.6a1.46,1.46,0,0,1,1.9-.6c1,.4,1.3,1.7,1.2,2.9C208.64,117.7,207.34,119.3,206.14,118.5Z"/><path class="cls-37" d="M206.54,117.9l.3-1.4-.8-.2s.1-2.5,1.5-1.8C208.64,115,207.94,118.2,206.54,117.9Z"/><path class="cls-36" d="M196.24,119.5a8.21,8.21,0,0,0,1.3,3.5c1.1,1.4,2.7,3.2,6.8,2.3s2.8-9.7,2.8-9.7a21.63,21.63,0,0,0-.9-6.2c-1-2.7-6.8-3.4-11.1-1.3,0,0-1.1,1.4.2,6.9a1.8,1.8,0,0,0-2.2,0c-.9.7-.8,2-.3,3.1C193.44,119.5,195.14,120.5,196.24,119.5Z"/><path class="cls-38" d="M200.54,120a6.52,6.52,0,0,0,2.4.2l1.2-.3c.4-.1.8-.1,1.2-.2h0a.1.1,0,0,1,.1.1v.1a1.21,1.21,0,0,1-.5.5,1.42,1.42,0,0,1-.6.2,5.28,5.28,0,0,1-1.3.1,4.42,4.42,0,0,1-2.5-.6c-.1,0-.1,0,0-.1Z"/><path class="cls-39" d="M192.94,108.1c2.9-6.1,11.8-4.8,11.8-4.8,3.6,1.8,3.8,6.1,2.5,12.3l-.5-4.4a10.64,10.64,0,0,0-.9-2.5s-.5.6-3.4.7h-.5a29.61,29.61,0,0,1-5.2-.4c-.1,1.1-.2,2.1-.4,3.2a37.27,37.27,0,0,0,.5,5.6s-.1.6-.3,0c-.4-1-.8-3.9-3.2-2.9C193.24,115,191.84,110.4,192.94,108.1Z"/><path class="cls-37" d="M195.74,119l-.7-1.2.8-.5s-.9-2.4-2.1-1.3S194.44,119.7,195.74,119Z"/><path class="cls-39" d="M200.94,116c0,.3-.4.4-.9.4s-.9,0-.9-.3.4-.6.9-.6S200.94,115.7,200.94,116Z"/><path class="cls-39" d="M197.44,113.9c0,.1,1.4-.5,1.9-.5a8.84,8.84,0,0,0,2.3,0,1.88,1.88,0,0,0,.2-.8,14,14,0,0,0-2.9,0,3.51,3.51,0,0,0-1.4.6C197.54,113.4,197.44,113.6,197.44,113.9Z"/><path class="cls-39" d="M206,115.7c0,.3-.4.4-.9.4s-.9,0-.9-.3.4-.6.9-.6S206,115.4,206,115.7Z"/><path class="cls-39" d="M206.54,113.5a3.83,3.83,0,0,0-1.1-.5c-.3,0-1.7.6-1.8.5s-.2-.5-.3-.7a18.46,18.46,0,0,1,2.3-.4,2,2,0,0,1,.8.4A.76.76,0,0,1,206.54,113.5Z"/><path class="cls-40" d="M203.74,118.8s-1.2.1-1.2-.2,2.3-1,2.5-.8S204.24,118.5,203.74,118.8Z"/><path class="cls-37" d="M203.24,113.9a6.73,6.73,0,0,0,.1,2c.3.5,1.5,1.5,1.5,1.8s-1.1,1-1.2,1.1,1.7-.5,1.6-1.1-1.7-1.8-1.8-2.1A14.93,14.93,0,0,1,203.24,113.9Z"/><path class="cls-41" d="M207.74,113.9s.8,2.7-1.9,2.8-2.2-2.7-2.2-2.7A9.5,9.5,0,0,1,207.74,113.9Z"/><path class="cls-41" d="M197.84,114.3c2.9-.6,4.1-.1,4.1-.1s.8,2.7-1.9,2.8S197.84,114.3,197.84,114.3Z"/><path class="cls-35" d="M197.64,114.8h0a2.24,2.24,0,0,0,4.1,1.5,2.52,2.52,0,0,0,.3-1.9,1.56,1.56,0,0,1,1.4-.1,2.27,2.27,0,0,0,.5,1.8,2.63,2.63,0,0,0,3.6-.2,2.56,2.56,0,0,0,.2-2.1v-.1h-.1a10.11,10.11,0,0,0-4.2.1h-.1v.1h0a1.39,1.39,0,0,0-1.4.1v-.1h-.1a9.92,9.92,0,0,0-4.2.1h-.1l-2,.4v.4Zm6.1-.7a10.24,10.24,0,0,1,3.9-.1,2.54,2.54,0,0,1-.2,1.9,2.33,2.33,0,0,1-3.2.2,2.88,2.88,0,0,1-.5-2Zm-5.8.4a8.57,8.57,0,0,1,3.9-.1,2.25,2.25,0,0,1-.2,1.8,2.33,2.33,0,0,1-3.2.2A2.75,2.75,0,0,1,197.94,114.5Z"/><path class="cls-29" d="M196.54,119.5a26.71,26.71,0,0,1-.4,6.3,15.4,15.4,0,0,1-2.2,4.9s6.8,5.6,8.2,5.4,4.6-5.6,4.6-5.6a7.4,7.4,0,0,1-3.1-6.1c.1-3.4.2-5.2.2-5.2Z"/><path class="cls-36" d="M206.14,118.5c-1-.8-1.3-3.4-.5-4.6a1.46,1.46,0,0,1,1.9-.6c1,.4,1.3,1.7,1.2,2.9C208.64,117.7,207.34,119.3,206.14,118.5Z"/><path class="cls-37" d="M206.54,117.9l.3-1.4-.8-.2s.1-2.5,1.5-1.8C208.64,115,207.94,118.2,206.54,117.9Z"/><path class="cls-36" d="M196.24,119.5s.2,3.1,1.2,4.3c1.4,1.6,2.8,2.8,7.1,2.4,5.6-.6,2.7-10.5,2.7-10.5a21.63,21.63,0,0,0-.9-6.2c-1-2.7-6.8-3.4-11.1-1.3,0,0-1.1,1.4.2,6.9a1.8,1.8,0,0,0-2.2,0c-.9.7-.8,2-.3,3.1C193.44,119.5,195.14,120.5,196.24,119.5Z"/><path class="cls-39" d="M203.74,118.8s-3.2-.2-4,.8-1.4,7.4,4.7,7.1,2.9-7.8,2.3-7.9A7.57,7.57,0,0,0,203.74,118.8Z"/><path class="cls-3" d="M201.14,120.3l4.2-.2a3.58,3.58,0,0,1-.4,1.1C204.34,121.7,201.84,122.1,201.14,120.3Z"/><path class="cls-38" d="M201.14,120.3h0c1.3-.2,2.8-.3,4.3-.4a.22.22,0,0,1,.2.2h0v.1a1.85,1.85,0,0,1-.2.7.76.76,0,0,1-.2.4,1.38,1.38,0,0,1-.4.3,3.19,3.19,0,0,1-1.4.3,2.3,2.3,0,0,1-1.4-.4A1.78,1.78,0,0,1,201.14,120.3Zm.1,0h0a2,2,0,0,0,.9.9,2,2,0,0,0,1.3.2,3.26,3.26,0,0,0,1.3-.4c.3-.1.4-.6.5-1.1l.2.3c-1.4.1-2.7.1-4.2.1Z"/><path class="cls-39" d="M192.94,108.1c2.9-6.1,11.8-4.8,11.8-4.8,3.6,1.8,3.8,6.1,2.5,12.3l-.5-4.4a10.64,10.64,0,0,0-.9-2.5s-.5.6-3.4.7h-.5a29.61,29.61,0,0,1-5.2-.4c-.1,1.1-.2,2.1-.4,3.2a37.27,37.27,0,0,0,.5,5.6s-.1.6-.3,0c-.4-1-.8-3.9-3.2-2.9C193.24,115,191.84,110.4,192.94,108.1Z"/><path class="cls-37" d="M195.74,119l-.7-1.2.8-.5s-.9-2.4-2.1-1.3S194.44,119.7,195.74,119Z"/><path class="cls-39" d="M200.94,116c0,.3-.4.4-.9.4s-.9,0-.9-.3.4-.6.9-.6S200.94,115.7,200.94,116Z"/><path class="cls-39" d="M197.44,113.9c0,.1,1.4-.5,1.9-.5a8.84,8.84,0,0,0,2.3,0,1.88,1.88,0,0,0,.2-.8,14,14,0,0,0-2.9,0,3.51,3.51,0,0,0-1.4.6C197.54,113.4,197.44,113.6,197.44,113.9Z"/><path class="cls-39" d="M206,115.7c0,.3-.4.4-.9.4s-.9,0-.9-.3.4-.6.9-.6S206,115.4,206,115.7Z"/><path class="cls-39" d="M206.54,113.5a3.83,3.83,0,0,0-1.1-.5c-.3,0-1.7.6-1.8.5s-.2-.5-.3-.7a18.46,18.46,0,0,1,2.3-.4,2,2,0,0,1,.8.4A.76.76,0,0,1,206.54,113.5Z"/><path class="cls-40" d="M203.74,118.8s-1.2.1-1.2-.2,2.3-1,2.5-.8S204.24,118.5,203.74,118.8Z"/><path class="cls-37" d="M203.24,113.9a6.73,6.73,0,0,0,.1,2c.3.5,1.5,1.5,1.5,1.8s-1.1,1-1.2,1.1,1.7-.5,1.6-1.1-1.7-1.8-1.8-2.1A14.93,14.93,0,0,1,203.24,113.9Z"/><path class="cls-41" d="M207.74,113.9s.8,2.7-1.9,2.8-2.2-2.7-2.2-2.7A9.5,9.5,0,0,1,207.74,113.9Z"/><path class="cls-41" d="M197.84,114.3c2.9-.6,4.1-.1,4.1-.1s.8,2.7-1.9,2.8S197.84,114.3,197.84,114.3Z"/><path class="cls-35" d="M197.64,114.8h0a2.24,2.24,0,0,0,4.1,1.5,2.52,2.52,0,0,0,.3-1.9,1.56,1.56,0,0,1,1.4-.1,2.27,2.27,0,0,0,.5,1.8,2.63,2.63,0,0,0,3.6-.2,2.56,2.56,0,0,0,.2-2.1v-.1h-.1a10.11,10.11,0,0,0-4.2.1h-.1v.1h0a1.39,1.39,0,0,0-1.4.1v-.1h-.1a9.92,9.92,0,0,0-4.2.1h-.1l-2,.4v.4Zm6.1-.7a10.24,10.24,0,0,1,3.9-.1,2.54,2.54,0,0,1-.2,1.9,2.33,2.33,0,0,1-3.2.2,2.88,2.88,0,0,1-.5-2Zm-5.8.4a8.57,8.57,0,0,1,3.9-.1,2.25,2.25,0,0,1-.2,1.8,2.33,2.33,0,0,1-3.2.2A2.75,2.75,0,0,1,197.94,114.5Z"/><path class="cls-35" d="M269.74,112.2c2.8,5.6,1.8,11.6-2,17.9,0,0,21.4-4.2,22.9-.8s.9,8.6,4.2,9.4,23.1-2.8,23.1-2.8-14.6-3.2-16.5-5.8-2.5-12.4-6.1-14.4S269.74,112.2,269.74,112.2Z"/><path class="cls-42" d="M294.94,118c-2,3.4-4.3,7.2-4.5,11.1l.2.2c1.5,3.4.9,8.6,4.2,9.4,2.9.7,18.1-1.9,22.1-2.6-6.1-.5-14-2.9-16.5-4.8C298.54,129.5,297.84,117.9,294.94,118Z"/><path class="cls-39" d="M258.64,271c-.1.7-2.6.5-2.6-.2l12.5-160.3a1.25,1.25,0,1,1,2.5.1v.1Z"/><polygon class="cls-43" points="454.34 145.9 458.44 154.2 467.64 155.5 460.94 162 462.54 171.1 454.34 166.8 446.24 171.1 447.74 162 441.14 155.5 450.24 154.2 454.34 145.9"/><circle class="cls-44" cx="281.9" cy="166.32" r="10.2" transform="translate(72.74 418.08) rotate(-80.82)"/><rect class="cls-45" x="301.45" y="101.19" width="18.9" height="18.9" transform="translate(12.83 252.25) rotate(-45)"/><circle class="cls-43" cx="353.24" cy="148.9" r="1.9"/><path class="cls-43" d="M361.44,148.9a1.9,1.9,0,1,1-1.9-1.9,1.9,1.9,0,0,1,1.9,1.9Z"/><circle class="cls-43" cx="365.94" cy="148.9" r="1.9"/><path class="cls-43" d="M374.24,148.9a1.9,1.9,0,1,1-1.9-1.9h0A1.9,1.9,0,0,1,374.24,148.9Z"/><path class="cls-43" d="M380.64,148.9a1.9,1.9,0,1,1-1.9-1.9,1.9,1.9,0,0,1,1.9,1.9Z"/><path class="cls-9" d="M194.24,129.9c7.8,18.5,5.2,65.6.6,69-1.4.5-14-2.1-14.6-4.1s6.7-21.3,6.3-28.5-8.6-22.7-6.8-28.2S194.24,129.9,194.24,129.9Z"/><path class="cls-9" d="M174.14,205a14,14,0,0,0-.5-4.1c-1.2-3.2-5.1-4.2-6.7-3-1,.8-3.1,7.4-1.9,11a.78.78,0,0,0,.4.4,5.85,5.85,0,0,0,.2,1.3.44.44,0,0,0,.6.4c.1,0,.2-.1.3-.2.1.3.1.6.2.9.2.6.9.6.9,0,.2-1.2.2-2.1.4-2.9a6.36,6.36,0,0,1,.6-1.8c-.1.5-.2,1.1-.3,1.6a6.24,6.24,0,0,0,.3,3.3.5.5,0,0,0,1-.1c.1-1,.2-2,.3-2.9s.7-3.2,1.6-4.2l.3.6a17.85,17.85,0,0,1,.2,2.3c.1.9,1.2,1.9,1.5.6C173.74,207.1,174,206,174.14,205Z"/><path class="cls-9" d="M180.74,136.2c-4.4,4.4-8.6,15.7-10.7,29.2-2.5,15.5-5,34.3-5,34.3.1,1,9.5,2.1,9.4,1.1,0,0,4.4-21.9,7.6-31.5,3.3-10.2,7.3-15.9,10.3-24.2C194.24,139.5,186.54,130.4,180.74,136.2Z"/><path class="cls-9" d="M205.44,129.3c4.5,16.5,6.7,54.5,5.3,69.4-1,2.3,8.8-3.6,8.8-3.6s-1.5-32-2.5-48c-.2-3.7,1.9-5.7.4-11.5C216.54,132,205.44,129.3,205.44,129.3Z"/><path class="cls-39" d="M197.84,104.6a4.1,4.1,0,1,1-4.1-4.1A4.06,4.06,0,0,1,197.84,104.6Z"/><path class="cls-46" d="M450.54,195.3c-3.8,2.1-8.9-.3-11.1-4.1s-2.3-8.3-2.1-12.7.7-8.8-.6-13a15.86,15.86,0,0,0-19.8-10.4,16.08,16.08,0,0,0-9.1,7.3"/><path class="cls-28" d="M472.64,271.8c0,1.4,35.7,2.5,59.5,2.5s26.5-1.1,26.5-2.5-2.8-2.5-26.5-2.5S472.64,270.4,472.64,271.8Z"/><path class="cls-9" d="M515.34,138.8c2.1,12.2-24.3,42-31.6,43.4-2.4.5-6.9-3.9-5.2-6.4,11.8-13.8,20.1-32.7,22.9-40.8C502.64,131.9,514.24,131.9,515.34,138.8Z"/><path class="cls-38" d="M514.14,247.7l-1,19.4a18.92,18.92,0,0,1,.5,2.3v2.2a7.15,7.15,0,0,1-4.1.3l-.2-.2a12.09,12.09,0,0,1-1.8.5c-1.6.3-6.5.3-7.2-.3,0,0-1.1-2,.9-2.4,4.9-1.1,5.8-2.9,6-4.5.3-1.9-.6-16.1-.6-16.1Z"/><g class="cls-47"><path class="cls-31" d="M506,266.8a3.5,3.5,0,0,1,2.2.6c.8.7,1.4,1.3,2.5,1.1,2.7-.5,2.3-2.6,3.6-1.6l.6,5.6-15.2.4-.5-4.2Z"/><path class="cls-32" d="M499.84,271.2s.3.7,5.1.6,5.1-1.2,8.8-1v1.3l-13.9,1Z"/></g><path class="cls-48" d="M516,180.6c-3.1-7.9-13-8.7-14.3-.7-2.7,16.4,5.6,54.7,4.8,85.5,2.4,1.8,5.3.8,7.2.1C514.64,243.8,523.34,199.4,516,180.6Z"/><path class="cls-38" d="M529.74,247.5l4.6,19.7s-.2,1.7-.2,2.3a17.05,17.05,0,0,0,.4,2.3,6.67,6.67,0,0,0,4.2.5l.2-.2c.6.2,1.2.4,1.9.6,1.7.5,6.5.8,7.2.2,0,0,.5-1.6-1.5-2.2-5.1-1.5-6-3.6-6.4-5.2-.6-2-2.6-18.1-2.6-18.1Z"/><g class="cls-49"><path class="cls-31" d="M541.54,267.5a3.14,3.14,0,0,0-2.1.5c-.7.7-1.2,1.2-2.3,1-2.8-.7-2.8-2.8-3.9-1.9l.3,5.6,15.3,1.4-.2-4.2Z"/><path class="cls-32" d="M548.44,272.4s-.2.7-5,.3-5.3-1.6-9.1-1.7l.3,1.3,14.2,1.9Z"/></g><path class="cls-14" d="M532.64,178c-1.2-8.4-14.2-4.9-15.1,3.2-2.8,25.4,12.2,65.2,16.3,85.3a7.27,7.27,0,0,0,7-.4C538.24,242.3,534.84,193.9,532.64,178Z"/><path class="cls-14" d="M505.64,185.5c.1,4.3,4.3,9.2,11.3,9s16-3.8,15.9-8c-.3-13.7-6-21.1-13-20.9S505.34,171.5,505.64,185.5Z"/><path class="cls-2" d="M503.64,181.7c.1,2.5,7.5,3.6,15.6,3.4s14.1-1.5,14.1-4c-.2-8.1-7.2-12.6-15.3-12.4S503.44,173.5,503.64,181.7Z"/><path class="cls-2" d="M536.84,137.9c-3.1-5.1-17.7-9.9-18.4-9.9-5.1-.1-15.9,6.9-17.1,9.5-1,2.3,3,21.7,2.5,30.4-.2,4.5-.8,7.9-.7,12.5.1,4.3,30.4,4.3,30.3.1-.1-3.5-2.7-6.1-2.6-9.8C530.94,163.2,538.24,140.1,536.84,137.9Z"/><path class="cls-39" d="M520.94,122a17.68,17.68,0,0,0,3.8-15.6,6.93,6.93,0,0,0-4-4.8l.3.7s-2.6-2-5-.1c0,0-1.9,5.7-1.3,8.2S520.94,122,520.94,122Z"/><path class="cls-29" d="M510.34,114.2c-.3-.6-1.5-2-2.6-1.1s-.5,3.4.6,4.3S512.54,118,510.34,114.2Z"/><path class="cls-37" d="M509,116c.2-.3.6.3.9-.4.1-.3-.2-.8-.4-1.1s-1-1.4-1.7-.8-.2,2.4.5,3c.4.3.9.3.8.1A1.13,1.13,0,0,1,509,116Z"/><path class="cls-50" d="M508.64,115a1.57,1.57,0,0,0,.5,1.7.63.63,0,0,1,0-.6c.2-.3.6.3.9-.4.1-.3-.2-.8-.4-1.1h0A.7.7,0,0,0,508.64,115Z"/><path class="cls-29" d="M520.94,118.1s.3,8.2,1.5,9.8c4.5,5.5-2.3,8.6-6.3,8.6-5.3-.1-5.2-3.8-2.2-8.5.6-.9.3-8.9.3-8.9Z"/><path class="cls-29" d="M514.44,125.2c3.1-.1,6.4-4.3,6.7-7.7.2-2-.7-3.8-.1-6.5,1.2-5.6-4.8-6.5-7.2-6.4-3.3.1-5.2,3.7-5.1,7.1,0,0,.1,4.9.3,6.5C509.34,123,511.34,125.4,514.44,125.2Z"/><path class="cls-3" d="M516.74,119.5c-.1-.3-5-.1-5.1.1s.4,1.2,1.8,1.2C515,120.8,516.84,119.7,516.74,119.5Z"/><path class="cls-51" d="M516.54,119.5c.1.2.1.1.1.1h-4.1a1.7,1.7,0,0,0-.7.1h-.2a.37.37,0,0,0,.1.3,1.74,1.74,0,0,0,1.1.6,2.88,2.88,0,0,0,1.3-.1,6.94,6.94,0,0,0,1.3-.5l.6-.3c.1-.1.2-.1.3-.2.1.1.1,0,.2,0Zm.5-.1a.6.6,0,0,1-.1.4l-.2.1-.3.2a4.88,4.88,0,0,1-.7.3,5.73,5.73,0,0,1-1.4.4,2.53,2.53,0,0,1-2.7-.8c-.1-.1-.1-.2-.2-.4v-.1l.1-.1h.1l.2-.1c.2,0,.5-.1.7-.1a6.6,6.6,0,0,1,1.4-.1c.5,0,.9-.1,1.4-.1h1.4C516.74,119.1,516.84,119.2,517,119.4Z"/><path class="cls-29" d="M520.54,113.8c.3-.6,1.3-2.1,2.5-1.3s.8,3.3-.3,4.4S518.64,117.8,520.54,113.8Z"/><path class="cls-37" d="M521.94,115.5l-.9-.3c.1-.4.2-.8.3-1.1s.9-1.4,1.6-.9.4,2.4-.3,3a1.23,1.23,0,0,1-.8.4Z"/><path class="cls-39" d="M515,115.5c0,.3.4.4.8.4s.9,0,.9-.3-.4-.5-.8-.6S515,115.2,515,115.5Z"/><path class="cls-39" d="M518,113c0,.1-1.4-.3-1.8-.3a7.8,7.8,0,0,1-2.2.3c-.1-.2-.2-.5-.3-.7a12.22,12.22,0,0,1,2.6-.3,3.71,3.71,0,0,1,1.4.4A.71.71,0,0,1,518,113Z"/><path class="cls-39" d="M510.34,115.3c0,.3.4.4.8.4s.8,0,.9-.3-.4-.5-.8-.6S510.34,115,510.34,115.3Z"/><path class="cls-39" d="M508.84,113.4c0,.1,1-.6,1.4-.5s2.1.6,2.2.4a1.91,1.91,0,0,0,.3-.8,13.33,13.33,0,0,0-2.8-.3,3,3,0,0,0-1,.4A1.18,1.18,0,0,0,508.84,113.4Z"/><path class="cls-40" d="M512.54,118.1s1.1.1,1.1-.2-2.2-.9-2.4-.7S512.14,117.9,512.54,118.1Z"/><path class="cls-37" d="M512.84,113.6a6,6,0,0,1,0,1.9,14.12,14.12,0,0,1-1.4,1.7c-.1.2,1,.9,1.1,1s-1.6-.4-1.5-.9,1.5-1.7,1.6-2A14.93,14.93,0,0,0,512.84,113.6Z"/><path class="cls-39" d="M520.64,113.7a4,4,0,0,1-.7-2.4c0-1.4.9-1.9.1-3.2s-3.1-.7-3.1-.7-4.1-2.5-6.1-1.4-2.3,4.7-2,7.3c0,0-2.3-5.9.9-9s9.6-2.8,12.4-.4.9,8.5.9,8.5S522.14,111.7,520.64,113.7Z"/><path class="cls-39" d="M517,107.3s-4.1-2.2-6.8.3c-1.6,1.5-1.9,6.2-1.9,6.2a5.38,5.38,0,0,1-3.3-4.5c-.6-3.7,1.9-6.8,6.1-7.2a6.75,6.75,0,0,0-5.3,2.2s1.9-3.6,7.7-3.2S517,107.3,517,107.3Z"/><path class="cls-39" d="M509.34,112.2s-.2-4.3,1.6-5.4a4.84,4.84,0,0,1,6.1.5s-3-1.5-5.4.4C510.34,108.6,509.34,112.2,509.34,112.2Z"/><path class="cls-9" d="M513,129.3c-4.5,16.5-3.3,56.5-5,59.5s-8.8-3.6-8.8-3.6,1.2-22.1,2.2-38.1c.2-3.7-1.8-5.7-.4-11.5C501.84,132,513,129.3,513,129.3Z"/><path class="cls-9" d="M524.14,129.9c-7.8,18.5-7.3,56-2.7,59.3,1.4.5,14-2.1,14.6-4.1s-4.5-11.6-4.2-18.8,8.6-22.7,6.8-28.2S524.14,129.9,524.14,129.9Z"/><path class="cls-52" d="M538.74,142.1a5,5,0,0,0-4.3-.8c-1.9.6-3.2,2.6-4.5,3.9-5.8,8.4-4.7,20.2,2.4,26.4a19.07,19.07,0,0,1-.5-5.3C532.14,160.4,537.64,149.1,538.74,142.1Z"/><path class="cls-9" d="M557.14,150.9s-5,3.9-10,8c-2.3-10.6-5.8-19-9.5-22.7-5.8-5.8-13.5,3.3-11.5,8.9,3,8.3,11.2,30.3,16.6,31.4a4,4,0,0,0,3.2-.2,8.86,8.86,0,0,0,1.7-.8c5.8-3.5,14.6-18.6,14.6-18.6Z"/><path class="cls-35" d="M546.14,160.3c-2.1.8-6.5,4.8-5.8,5.4s4.3-3.5,4.3-3.5-4.5,5.2-2.6,6.1c1,.5,1.3-3.6,4.5-7.4C546.64,160.9,547.44,159.8,546.14,160.3Z"/><path class="cls-53" d="M558.64,151.6s-3-.5-3.8,1.6,0,4.4,3.2,4.4,7.8-3.8,7.8-4.9S558.64,151.6,558.64,151.6Z"/><path class="cls-54" d="M448.84,195.3c-.3.1.1,1.1.4.9l3.1-1.4-.4-.9Z"/><path class="cls-35" d="M577.24,139.5h0a2.93,2.93,0,0,1,1.5-3.9l2.4-1.1A2.93,2.93,0,0,1,585,136h0a2.93,2.93,0,0,1-1.5,3.9l-2.4,1.1A3.07,3.07,0,0,1,577.24,139.5Z"/><rect class="cls-33" x="562.44" y="134.32" width="7.8" height="3.9" transform="translate(-6.94 239.53) rotate(-23.74)"/><path class="cls-35" d="M540.74,147.6h0a2.35,2.35,0,0,1,1.2-3.1l28.6-12.6a2.35,2.35,0,0,1,3.1,1.2h0l-32.9,14.5Z"/><path class="cls-35" d="M461.44,185.3l3.7,8.4,116.4-51.2a.75.75,0,0,0,.4-.9l-3.2-7.2a.81.81,0,0,0-.9-.3Z"/><path class="cls-55" d="M462,186.6l2.5,5.7,116.4-51.2c.4-.1.6-.4.5-.7l-2.2-4.9a.59.59,0,0,0-.8-.1Z"/><path class="cls-42" d="M508.24,167h0a1.36,1.36,0,0,0,1.8.7h0l50.3-22.1c.2-.1.3-.2.2-.3l-1-2.2c0-.1-.2-.1-.4,0l-50.3,22.2A1.32,1.32,0,0,0,508.24,167Z"/><path class="cls-35" d="M558.44,144l2.7,6a2.17,2.17,0,0,0,2.5,1.3,57.78,57.78,0,0,0,15.7-6.9,2.08,2.08,0,0,0,.7-2.7l-2.7-6.1a2.17,2.17,0,0,0-2.5-1.3,55.2,55.2,0,0,0-15.7,6.9A2.21,2.21,0,0,0,558.44,144Z"/><path class="cls-7" d="M465.84,184.2l3.1,7a2.23,2.23,0,0,0,2.9.8,264.74,264.74,0,0,0,37-16.3,2.21,2.21,0,0,0,1.3-2.7l-3.1-7a2.11,2.11,0,0,0-2.8-.8,250,250,0,0,0-37.1,16.3A2.36,2.36,0,0,0,465.84,184.2Z"/><path class="cls-38" d="M451.44,194l10.2-8.5,3.5,7.8L452,195.1C451.64,195.3,451.14,194.2,451.44,194Z"/><path class="cls-53" d="M475.94,190.9c-.5-1.1-1-2.8-.7-3.4a.87.87,0,0,1,1.2-.4c.1.1.2.1.3.2a8.73,8.73,0,0,1,1.3,3.5c0,.3-.2.6-.8.8S476.14,191.2,475.94,190.9Z"/><path class="cls-53" d="M477.94,190.4c-.1-1.2-.2-3,.2-3.5a1,1,0,0,1,1.4.1c.1.1.1.1.1.2a9.26,9.26,0,0,1,.2,3.7c-.1.3-.4.5-1,.5S477.94,190.7,477.94,190.4Z"/><path class="cls-53" d="M480.14,190.1c-.2-1.1-.4-2.8,0-3.3a.78.78,0,0,1,1.1-.1c.1.1.2.2.2.3a7,7,0,0,1,.6,3.5.88.88,0,0,1-.9.5C480.54,191,480.24,190.4,480.14,190.1Z"/><path class="cls-53" d="M482,189.4a24.89,24.89,0,0,1-.6-3.2c-.1-.5,1-.7,1.4-.1a9.64,9.64,0,0,1,1,3,.58.58,0,0,1-.6.6h0C482.64,189.8,482,189.6,482,189.4Z"/><path class="cls-53" d="M567.64,148.7c-.5.6-1,1.2-1.5,1.7a22.75,22.75,0,0,0-.2-2.6c-.3-1-1.4-.8-1.4,1.3s-.4,2.3-.4,2.3l-.1.1a10.92,10.92,0,0,0-.2-3.6c-.3-1-1.3-.7-1.3,1.3s-.5,2.3-.5,2.3h0a8.83,8.83,0,0,0-.2-2.8c-.2-.8-1.1-.6-1,1.2s-.5,1.9-.5,1.9a7.55,7.55,0,0,0-1.4,1.1c1,.6,5.2,1.3,6,.8a17.57,17.57,0,0,0,4.7-5.1C569.84,147.5,568.74,147,567.64,148.7Z"/><path class="cls-7" d="M348.74,159c.2-.1.5-.2.7-.3h.7c.3,0,.5.3.4.5a.22.22,0,0,1-.2.2,3.19,3.19,0,0,1-1.4.3c-.3-.1-.5-.3-.4-.5S348.64,159,348.74,159Z"/><path class="cls-7" d="M351.54,158.4a2.62,2.62,0,0,1,1.5-.2c.3.1.4.3.3.5s-.1.2-.2.2a2.2,2.2,0,0,1-1.4.2c-.3-.1-.5-.3-.4-.5Z"/><path class="cls-7" d="M354.24,158.1a1.85,1.85,0,0,1,.7-.2h.7c.3.1.4.3.3.5s-.1.2-.2.2a1.85,1.85,0,0,1-.7.2h-.7c-.3-.1-.4-.3-.3-.5A.22.22,0,0,1,354.24,158.1Z"/><path class="cls-7" d="M359.14,157.7a2,2,0,0,1,1.5,0,.45.45,0,0,1,.3.6c-.1.1-.2.1-.3.2a2.5,2.5,0,0,1-1.4,0,.42.42,0,0,1-.3-.6C358.94,157.8,359,157.8,359.14,157.7Z"/><path class="cls-7" d="M362.74,157.7a.6.6,0,0,1,.4-.1c.2,0,.3,0,.4.1a.48.48,0,0,1,.2.6.1.1,0,0,1-.1.1l-.1.1a.6.6,0,0,1-.4.1c-.2,0-.3,0-.4-.1a.37.37,0,0,1-.2-.5c0-.1,0-.2.2-.3Z"/><path class="cls-7" d="M365.64,157.9a.6.6,0,0,1,.4-.1c.2,0,.3.1.4.1a.38.38,0,0,1,.1.6.1.1,0,0,1-.1.1l-.1.1a.75.75,0,0,1-.5.1c-.1,0-.3-.1-.4-.1a.37.37,0,0,1-.2-.5c0-.1.1-.1.1-.2Z"/><path class="cls-7" d="M325.64,170.8a45.37,45.37,0,0,1,4.8-3.9,40.41,40.41,0,0,1,5.2-3.2,56.16,56.16,0,0,1,5.6-2.5l1.5-.5,1.5-.4c1-.3,2-.5,3-.8a.48.48,0,0,1,.6.2h0a.66.66,0,0,1-.4.5c-1,.3-1.9.5-2.9.9l-1.4.5-1.4.5a46.73,46.73,0,0,0-10.6,5.6,43.7,43.7,0,0,0-4.8,3.7c-.2.2-.5.2-.6,0C325.44,171.2,325.44,170.9,325.64,170.8Z"/><path class="cls-7" d="M325,172.3a1,1,0,0,1-.4.5c-.2.1-.3.3-.5.4a.42.42,0,0,1-.6-.3v-.3a1,1,0,0,1,.4-.5c.2-.1.3-.3.5-.4a.37.37,0,0,1,.5.2v.1A.37.37,0,0,1,325,172.3Z"/><path class="cls-7" d="M323.44,173.9a2.19,2.19,0,0,1-.3.5,1,1,0,0,1-.5.4c-.2.1-.4.1-.5-.1l-.1-.1v-.3a2.19,2.19,0,0,1,.3-.5,1,1,0,0,1,.5-.4.42.42,0,0,1,.6.3Z"/><path class="cls-7" d="M321.84,175.6c-.5.7-1,1.3-1.5,2a14.62,14.62,0,0,1-1.6,1.9c-.2.2-.5.3-.6.1a.45.45,0,0,1,0-.5c.4-.7.9-1.4,1.4-2.1a15.37,15.37,0,0,1,1.7-1.9c.2-.2.5-.2.6,0A.45.45,0,0,1,321.84,175.6Z"/><path class="cls-7" d="M317.64,181.2a.68.68,0,0,1-.4.6.48.48,0,0,1-.6-.2v-.2h0a.6.6,0,0,1,.1-.4l.3-.3a.48.48,0,0,1,.6.2v.3Z"/><path class="cls-7" d="M316.44,183.3a.6.6,0,0,1-.1.4l-.3.3c-.2.1-.5.1-.6-.1s-.1-.1-.1-.2h0a.6.6,0,0,1,.1-.4l.3-.3a.4.4,0,0,1,.6.2A.1.1,0,0,1,316.44,183.3Z"/></g></svg>