<svg xmlns="http://www.w3.org/2000/svg" xmlns:xlink="http://www.w3.org/1999/xlink" width="320" height="200" viewBox="0 0 320 200">
  <defs>
    <linearGradient id="linear-gradient" x1="0.5" y1="1" x2="0.5" gradientUnits="objectBoundingBox">
      <stop offset="0" stop-color="gray" stop-opacity="0.251"/>
      <stop offset="0.54" stop-color="gray" stop-opacity="0.122"/>
      <stop offset="1" stop-color="gray" stop-opacity="0.102"/>
    </linearGradient>
    <linearGradient id="linear-gradient-3" x1="0.5" y1="1" x2="0.5" y2="0" xlink:href="#linear-gradient"/>
    <linearGradient id="linear-gradient-4" x1="0.5" y1="1" x2="0.5" y2="0" xlink:href="#linear-gradient"/>
    <linearGradient id="linear-gradient-6" x1="0.5" y1="1" x2="0.5" y2="0" xlink:href="#linear-gradient"/>
    <linearGradient id="linear-gradient-7" x1="0.5" y1="1" x2="0.5" y2="0" xlink:href="#linear-gradient"/>
  </defs>
  <g id="Group_36" data-name="Group 36" transform="translate(-1038 -246)">
    <rect id="Rectangle_13" data-name="Rectangle 13" width="320" height="200" transform="translate(1038 246)" fill="#fff"/>
    <g id="_3" data-name="3" transform="translate(1097.813 261.219)">
      <ellipse id="Ellipse_31" data-name="Ellipse 31" cx="20.507" cy="3.436" rx="20.507" ry="3.436" transform="translate(100.862 156.465)" fill="#28c6dc" opacity="0.1"/>
      <path id="Path_79" data-name="Path 79" d="M197.378,45.809c-8.4,7.122-19.287,6.662-28.821,2.957s-18.317-10.3-27.613-14.992a77.528,77.528,0,0,0-24.259-7.661c-11.849-1.643-25.084.359-33.341,11.872C74.148,50.807,74.856,73.931,84.8,85.707c5.059,5.987,11.682,8.924,17.46,13.6s11.122,12.436,10.631,21.458c-.454,8.353-5.753,14.765-11.229,18.792-4.236,3.106-9.452,6.5-9.971,12.938-.495,6.228,3.891,11.109,8.081,13.885a38.952,38.952,0,0,0,44.1-.228c4.857-3.281,9.319-7.643,14.413-10.2,13.369-6.712,28.1.044,42.26,2.516a70.361,70.361,0,0,0,35.945-3.17c7.011-2.508,14.048-6.343,18.974-13.488,3.551-5.153,5.764-11.674,7.841-18.113q3.325-10.3,6.389-20.746a61.3,61.3,0,0,0,2.75-12.913c.575-8.106-1.845-16.108-5.137-22.957C259.5,50.824,246.332,39.4,232.078,36.5s-29.356,2.765-40.417,15.162" transform="translate(-76.87 -25.61)" fill="#28c6dc" opacity="0.1"/>
      <g id="Group_1" data-name="Group 1" transform="translate(64.695 37.853)" opacity="0.35">
        <path id="Path_80" data-name="Path 80" d="M445.615,224.275V223h-20.1c-.924,0-.36,1.283-.36,1.283H414.24v28.6h47.94V224.275Z" transform="translate(-414.24 -223)" fill="#28c6dc" opacity="0.2"/>
      </g>
      <path id="Path_81" data-name="Path 81" d="M910.28,231.949s6.042-10.7,15.149-13.787a18.618,18.618,0,0,0,9.432-7.057,31.208,31.208,0,0,0,2.782-5" transform="translate(-750.466 -171.488)" fill="none" stroke="#535461" stroke-miterlimit="10" stroke-width="2"/>
      <path id="Path_82" data-name="Path 82" d="M1058.064,176.842c-1.036,1.007-5.864,2.048-5.864,2.048s1.183-4.794,2.221-5.8a2.616,2.616,0,1,1,3.643,3.755Z" transform="translate(-865.171 -144.209)" fill="#28c6dc"/>
      <path id="Path_83" data-name="Path 83" d="M1043.1,219.158c-1.417.282-6.036-1.469-6.036-1.469s3.6-3.381,5.018-3.663a2.616,2.616,0,0,1,1.018,5.131Z" transform="translate(-852.935 -177.854)" fill="#28c6dc"/>
      <path id="Path_84" data-name="Path 84" d="M997.838,268.665c-1.365-.472-4.468-4.315-4.468-4.315s4.815-1.1,6.18-.629a2.616,2.616,0,0,1-1.712,4.944Z" transform="translate(-817.622 -217.965)" fill="#28c6dc"/>
      <path id="Path_85" data-name="Path 85" d="M947.443,296.392c-1.425-.232-5.133-3.492-5.133-3.492s4.56-1.9,5.987-1.664a2.616,2.616,0,0,1-.853,5.162Z" transform="translate(-776.354 -240.282)" fill="#28c6dc"/>
      <path id="Path_86" data-name="Path 86" d="M1016.056,202.507c0,1.446,2.614,5.636,2.614,5.636s2.619-4.188,2.619-5.634a2.618,2.618,0,1,0-5.233,0Z" transform="translate(-835.957 -166.413)" fill="#28c6dc"/>
      <path id="Path_87" data-name="Path 87" d="M960.184,232.722c.432,1.379,4.18,4.6,4.18,4.6s1.245-4.781.813-6.159a2.616,2.616,0,1,0-4.986,1.563Z" transform="translate(-790.676 -190.166)" fill="#28c6dc"/>
      <path id="Path_88" data-name="Path 88" d="M911.454,274.444c.192,1.432,3.344,5.237,3.344,5.237s2.035-4.5,1.843-5.933a2.617,2.617,0,1,0-5.177.7Z" transform="translate(-751.381 -224.194)" fill="#28c6dc"/>
      <path id="Path_89" data-name="Path 89" d="M1058.064,176.842c-1.036,1.007-5.864,2.048-5.864,2.048s1.183-4.794,2.221-5.8a2.616,2.616,0,1,1,3.643,3.755Z" transform="translate(-865.171 -144.209)" opacity="0.25"/>
      <path id="Path_90" data-name="Path 90" d="M1043.1,219.158c-1.417.282-6.036-1.469-6.036-1.469s3.6-3.381,5.018-3.663a2.616,2.616,0,0,1,1.018,5.131Z" transform="translate(-852.935 -177.854)" opacity="0.25"/>
      <path id="Path_91" data-name="Path 91" d="M997.838,268.665c-1.365-.472-4.468-4.315-4.468-4.315s4.815-1.1,6.18-.629a2.616,2.616,0,0,1-1.712,4.944Z" transform="translate(-817.622 -217.965)" opacity="0.25"/>
      <path id="Path_92" data-name="Path 92" d="M947.443,296.392c-1.425-.232-5.133-3.492-5.133-3.492s4.56-1.9,5.987-1.664a2.616,2.616,0,0,1-.853,5.162Z" transform="translate(-776.354 -240.282)" opacity="0.25"/>
      <path id="Path_93" data-name="Path 93" d="M1016.056,202.507c0,1.446,2.614,5.636,2.614,5.636s2.619-4.188,2.619-5.634a2.618,2.618,0,1,0-5.233,0Z" transform="translate(-835.957 -166.413)" opacity="0.25"/>
      <path id="Path_94" data-name="Path 94" d="M960.184,232.722c.432,1.379,4.18,4.6,4.18,4.6s1.245-4.781.813-6.159a2.616,2.616,0,1,0-4.986,1.563Z" transform="translate(-790.676 -190.166)" opacity="0.25"/>
      <path id="Path_95" data-name="Path 95" d="M911.454,274.444c.192,1.432,3.344,5.237,3.344,5.237s2.035-4.5,1.843-5.933a2.617,2.617,0,1,0-5.177.7Z" transform="translate(-751.381 -224.194)" opacity="0.25"/>
      <path id="Path_96" data-name="Path 96" d="M912.1,193.458s1.185-12.234,8.246-18.741a18.6,18.6,0,0,0,5.762-10.272,31.19,31.19,0,0,0,.516-5.7" transform="translate(-751.937 -133.21)" fill="none" stroke="#535461" stroke-miterlimit="10" stroke-width="2"/>
      <path id="Path_97" data-name="Path 97" d="M989.791,122.051c-.541,1.342-4.533,4.249-4.533,4.249s-.861-4.867-.32-6.209a2.616,2.616,0,1,1,4.853,1.956Z" transform="translate(-810.663 -100.648)" fill="#28c6dc"/>
      <path id="Path_98" data-name="Path 98" d="M990.543,164.319c-1.181.832-6.113,1.1-6.113,1.1s1.918-4.55,3.1-5.381a2.616,2.616,0,0,1,3.011,4.278Z" transform="translate(-810.397 -133.875)" fill="#28c6dc"/>
      <path id="Path_99" data-name="Path 99" d="M964.143,228.135c-1.44.121-5.833-2.134-5.833-2.134s3.956-2.959,5.4-3.08a2.616,2.616,0,1,1,.437,5.214Z" transform="translate(-789.285 -185.076)" fill="#28c6dc"/>
      <path id="Path_100" data-name="Path 100" d="M930.9,273.519c-1.4.364-6.111-1.118-6.111-1.118s3.4-3.584,4.794-3.946a2.616,2.616,0,0,1,1.314,5.064Z" transform="translate(-762.193 -221.817)" fill="#28c6dc"/>
      <path id="Path_101" data-name="Path 101" d="M956.332,165.234c.585,1.321,4.673,4.092,4.673,4.092s.7-4.89.111-6.211a2.619,2.619,0,0,0-4.794,2.109Z" transform="translate(-787.499 -135.481)" fill="#28c6dc"/>
      <path id="Path_102" data-name="Path 102" d="M917.73,215.693c.959,1.085,5.684,2.508,5.684,2.508s-.8-4.874-1.753-5.962a2.616,2.616,0,1,0-3.931,3.452Z" transform="translate(-755.961 -175.731)" fill="#28c6dc"/>
      <path id="Path_103" data-name="Path 103" d="M890.108,273.755c.767,1.231,5.177,3.432,5.177,3.432s.048-4.94-.719-6.171a2.617,2.617,0,1,0-4.461,2.739Z" transform="translate(-733.847 -222.947)" fill="#28c6dc"/>
      <path id="Path_104" data-name="Path 104" d="M173.427,455.072s-7.479-9.268-7.009-18.568a18.052,18.052,0,0,0-2.984-11.018,30.344,30.344,0,0,0-3.515-4.3" transform="translate(-143.993 -345.333)" fill="none" stroke="#535461" stroke-miterlimit="10" stroke-width="2"/>
      <path id="Path_105" data-name="Path 105" d="M140.744,384.029c.537,1.294-.247,6.017-.247,6.017s-3.9-2.78-4.433-4.075a2.535,2.535,0,0,1,4.685-1.941Z" transform="translate(-124.555 -314.034)" fill="#28c6dc"/>
      <path id="Path_106" data-name="Path 106" d="M175.875,407.007c-.253,1.377-3.48,4.911-3.48,4.911s-1.766-4.456-1.505-5.829a2.535,2.535,0,1,1,4.986.919Z" transform="translate(-152.838 -331.449)" fill="#28c6dc"/>
      <path id="Path_107" data-name="Path 107" d="M199.416,466.52C198.5,467.582,193.93,469,193.93,469s.729-4.731,1.643-5.793a2.535,2.535,0,0,1,3.835,3.31Z" transform="translate(-171.482 -378.647)" fill="#28c6dc"/>
      <path id="Path_108" data-name="Path 108" d="M209.914,520.609c-.721,1.2-4.986,3.375-4.986,3.375s-.082-4.794.64-5.987a2.535,2.535,0,1,1,4.345,2.612Z" transform="translate(-180.368 -422.583)" fill="#28c6dc"/>
      <path id="Path_109" data-name="Path 109" d="M147.219,436.657c1.3.516,6.012-.341,6.012-.341s-2.838-3.854-4.138-4.372a2.537,2.537,0,0,0-1.873,4.713Z" transform="translate(-132.485 -353.898)" fill="#28c6dc"/>
      <path id="Path_110" data-name="Path 110" d="M154.408,497.656c1.4.1,5.634-2.123,5.634-2.123s-3.862-2.83-5.258-2.934a2.536,2.536,0,1,0-.384,5.057Z" transform="translate(-137.638 -403.043)" fill="#28c6dc"/>
      <path id="Path_111" data-name="Path 111" d="M174.773,556.6c1.358.339,5.912-1.15,5.912-1.15s-3.329-3.431-4.687-3.764a2.535,2.535,0,1,0-1.225,4.92Z" transform="translate(-154.444 -450.74)" fill="#28c6dc"/>
      <path id="Path_112" data-name="Path 112" d="M1046.535,679s1.463,1.918-.675,4.794-3.9,5.327-3.189,7.13c0,0,3.227-5.369,5.852-5.44S1049.425,682.225,1046.535,679Z" transform="translate(-857.34 -553.706)" fill="#28c6dc"/>
      <path id="Path_113" data-name="Path 113" d="M1046.883,679a2.383,2.383,0,0,1,.3.6c2.562,3.011,3.927,5.82,1.465,5.891-2.3.065-5.047,4.167-5.707,5.2a2.253,2.253,0,0,0,.079.236s3.227-5.369,5.852-5.44S1049.772,682.225,1046.883,679Z" transform="translate(-857.687 -553.706)" opacity="0.1"/>
      <path id="Path_114" data-name="Path 114" d="M1076.267,689.895c0,.675-.077,1.22-.169,1.22s-.169-.545-.169-1.22.094-.355.192-.355S1076.267,689.222,1076.267,689.895Z" transform="translate(-884.351 -562.163)" fill="#ffd037"/>
      <path id="Path_115" data-name="Path 115" d="M1077.688,693.962c-.591.322-1.106.516-1.151.435s.4-.41.989-.732.359-.088.4,0S1078.28,693.64,1077.688,693.962Z" transform="translate(-884.839 -565.425)" fill="#ffd037"/>
      <path id="Path_116" data-name="Path 116" d="M1009.361,679s-1.463,1.918.675,4.794,3.9,5.327,3.189,7.13c0,0-3.227-5.369-5.852-5.44S1006.471,682.225,1009.361,679Z" transform="translate(-827.893 -553.706)" fill="#28c6dc"/>
      <path id="Path_117" data-name="Path 117" d="M1009.361,679a2.3,2.3,0,0,0-.3.6c-2.564,3.011-3.927,5.82-1.465,5.891,2.3.065,5.047,4.167,5.707,5.2-.023.079-.048.157-.079.236,0,0-3.227-5.369-5.852-5.44S1006.471,682.225,1009.361,679Z" transform="translate(-827.893 -553.706)" opacity="0.1"/>
      <path id="Path_118" data-name="Path 118" d="M1009,689.895c0,.675.077,1.22.169,1.22s.169-.545.169-1.22-.094-.355-.192-.355S1009,689.222,1009,689.895Z" transform="translate(-830.255 -562.163)" fill="#ffd037"/>
      <path id="Path_119" data-name="Path 119" d="M1002.625,693.962c.593.322,1.108.516,1.151.435s-.4-.41-.99-.732-.359-.088-.4,0S1002.035,693.64,1002.625,693.962Z" transform="translate(-824.812 -565.425)" fill="#ffd037"/>
      <ellipse id="Ellipse_32" data-name="Ellipse 32" cx="15.298" cy="2.347" rx="15.298" ry="2.347" transform="translate(170.033 147.166)" fill="#28c6dc" opacity="0.1"/>
      <path id="Path_120" data-name="Path 120" d="M1018.016,724l-.073.6-.1.844-.042.353-.1.844-.046.353-.1.844-1.172,9.588c-.1.857-1.5,1.534-3.193,1.534H1007.1c-1.689,0-3.087-.667-3.193-1.534l-1.172-9.588-.1-.844-.042-.353-.1-.844-.044-.353-.1-.844-.075-.6c-.057-.485.7-.894,1.655-.894h12.441C1017.318,723.11,1018.076,723.518,1018.016,724Z" transform="translate(-824.811 -589.357)" fill="#65617d"/>
      <path id="Path_121" data-name="Path 121" d="M941.4,705.27l-.1.844H925.9l-.1-.844Z" transform="translate(-748.269 -570.027)" fill="#9d9cb5"/>
      <path id="Path_122" data-name="Path 122" d="M941.862,711.51l-.1.844h-15.1l-.105-.844Z" transform="translate(-748.875 -575.071)" fill="#9d9cb5"/>
      <path id="Path_123" data-name="Path 123" d="M942.337,717.75l-.1.842H927.424l-.1-.842Z" transform="translate(-749.498 -580.114)" fill="#9d9cb5"/>
      <path id="Path_124" data-name="Path 124" d="M781.371,192.576h-.161a1.179,1.179,0,0,0,.362-.83l-1.457-1.457.556-1.246H778.8l.347-.972h-1.11l-12.284,4.092a3.434,3.434,0,0,0,0,.414h-7.91v35.638H792.2V192.576Z" transform="translate(-627.257 -156.915)" fill="url(#linear-gradient)"/>
      <rect id="Rectangle_20" data-name="Rectangle 20" width="33.838" height="35.138" transform="translate(130.838 35.786)" fill="#f6f7f9"/>
      <path id="Path_125" data-name="Path 125" d="M815.164,212.22c-1.6,2.361-12.311,5.469-12.311,5.469l.067-2.46h-1.981a1.122,1.122,0,0,0-.548-1.231c-.575-.316-.631-1.342-.623-1.778Z" transform="translate(-661.144 -176.434)" opacity="0.1"/>
      <path id="Path_126" data-name="Path 126" d="M811.876,189.01l-12.1,4.027s-.138,1.572.614,1.981a1.126,1.126,0,0,1,.548,1.231h1.981l-.067,2.46s12.714-3.691,12.508-6.083l-1.434-1.436.547-1.231h-1.847l.343-.959Z" transform="translate(-661.145 -157.667)" fill="#9d9cb5"/>
      <g id="Group_2" data-name="Group 2" transform="translate(137.093 47.176)" opacity="0.35">
        <rect id="Rectangle_21" data-name="Rectangle 21" width="21.327" height="0.598" fill="#28c6dc" opacity="0.2"/>
      </g>
      <g id="Group_3" data-name="Group 3" transform="translate(137.093 50.33)" opacity="0.35">
        <rect id="Rectangle_22" data-name="Rectangle 22" width="21.327" height="0.598" fill="#28c6dc" opacity="0.2"/>
      </g>
      <g id="Group_4" data-name="Group 4" transform="translate(137.093 53.483)" opacity="0.35">
        <rect id="Rectangle_23" data-name="Rectangle 23" width="21.327" height="0.598" fill="#28c6dc" opacity="0.2"/>
      </g>
      <g id="Group_5" data-name="Group 5" transform="translate(137.093 56.635)" opacity="0.35">
        <rect id="Rectangle_24" data-name="Rectangle 24" width="21.327" height="0.598" fill="#28c6dc" opacity="0.2"/>
      </g>
      <g id="Group_6" data-name="Group 6" transform="translate(137.093 59.788)" opacity="0.35">
        <rect id="Rectangle_25" data-name="Rectangle 25" width="21.327" height="0.598" fill="#28c6dc" opacity="0.2"/>
      </g>
      <g id="Group_7" data-name="Group 7" transform="translate(137.093 62.942)" opacity="0.35">
        <rect id="Rectangle_26" data-name="Rectangle 26" width="21.327" height="0.598" fill="#28c6dc" opacity="0.2"/>
      </g>
      <path id="Path_127" data-name="Path 127" d="M210.276,177.573H210.2a20.094,20.094,0,0,0,1.141-3.358c-.054-.575-1.206.675-1.26.362s0-1.5-.523-1.5-.84.616-1.151.616-1.574-.207-1.574-.207l-1.609,4.084H193.1v38.062h30.075V177.573Z" transform="translate(-170.811 -144.8)" fill="url(#linear-gradient)"/>
      <rect id="Rectangle_27" data-name="Rectangle 27" width="29.395" height="37.596" transform="translate(22.627 32.984)" fill="#f6f7f9"/>
      <path id="Path_128" data-name="Path 128" d="M256.314,197.61c-.619,1.609-1.317,3.3-1.477,3.709-.309.767-.512.359-.872.257s-.819.1-1.024,0a6.458,6.458,0,0,0-1.409,0,3.968,3.968,0,0,0,0-.566c-.027-.2-1.411,0-1.411,0l1.319-3.4Z" transform="translate(-216.897 -164.626)" opacity="0.1"/>
      <path id="Path_129" data-name="Path 129" d="M252.941,174.883l-2.821,7.229s1.384-.205,1.409,0a3.66,3.66,0,0,1,0,.564,6.354,6.354,0,0,1,1.411,0c.205.1.665-.1,1.024,0s.564.512.872-.257,2.564-6.255,2.512-6.819-1.179.667-1.231.359,0-1.478-.512-1.478-.821.608-1.128.608S252.941,174.883,252.941,174.883Z" transform="translate(-216.897 -145.931)" fill="#9d9cb5"/>
      <g id="Group_8" data-name="Group 8" transform="translate(26.661 42.963)" opacity="0.35">
        <rect id="Rectangle_28" data-name="Rectangle 28" width="21.327" height="0.598" fill="#28c6dc" opacity="0.2"/>
      </g>
      <g id="Group_9" data-name="Group 9" transform="translate(26.661 45.22)" opacity="0.35">
        <rect id="Rectangle_29" data-name="Rectangle 29" width="21.327" height="0.598" fill="#28c6dc" opacity="0.2"/>
      </g>
      <g id="Group_10" data-name="Group 10" transform="translate(26.661 47.475)" opacity="0.35">
        <rect id="Rectangle_30" data-name="Rectangle 30" width="21.327" height="0.598" fill="#28c6dc" opacity="0.2"/>
      </g>
      <g id="Group_11" data-name="Group 11" transform="translate(26.661 49.732)" opacity="0.35">
        <rect id="Rectangle_31" data-name="Rectangle 31" width="21.327" height="0.598" fill="#28c6dc" opacity="0.2"/>
      </g>
      <g id="Group_12" data-name="Group 12" transform="translate(26.661 51.987)" opacity="0.35">
        <rect id="Rectangle_32" data-name="Rectangle 32" width="21.327" height="0.598" fill="#28c6dc" opacity="0.2"/>
      </g>
      <g id="Group_13" data-name="Group 13" transform="translate(26.661 54.242)" opacity="0.35">
        <rect id="Rectangle_33" data-name="Rectangle 33" width="21.327" height="0.598" fill="#28c6dc" opacity="0.2"/>
      </g>
      <path id="Path_130" data-name="Path 130" d="M772.456,466.642h-.081a24.781,24.781,0,0,0,1.4-4.142c-.063-.7-1.478.832-1.534.449s0-1.849-.642-1.849-1.028.767-1.413.767-1.929-.257-1.929-.257l-1.983,5.032H751.42V513.6h36.862v-46.96Z" transform="translate(-622.068 -377.59)" fill="url(#linear-gradient-3)"/>
      <rect id="Rectangle_34" data-name="Rectangle 34" width="36.219" height="46.329" transform="translate(129.647 89.378)" fill="#f6f7f9"/>
      <path id="Path_131" data-name="Path 131" d="M828.663,491.7c-.755,1.967-1.6,4.027-1.8,4.522-.384.947-.631.441-1.074.316s-1.011.125-1.264,0a8,8,0,0,0-1.737,0,4.871,4.871,0,0,0,0-.7c-.033-.251-1.737,0-1.737,0l1.617-4.142Z" transform="translate(-678.346 -402.322)" opacity="0.1"/>
      <path id="Path_132" data-name="Path 132" d="M824.525,463.687l-3.475,8.907s1.7-.253,1.737,0a4.844,4.844,0,0,1,0,.694,8,8,0,0,1,1.737,0c.253.125.821-.125,1.264,0s.694.633,1.074-.314,3.158-7.709,3.095-8.4-1.453.821-1.517.443,0-1.824-.631-1.824-1.011.75-1.39.75S824.525,463.687,824.525,463.687Z" transform="translate(-678.346 -379.279)" fill="#9d9cb5"/>
      <g id="Group_14" data-name="Group 14" transform="translate(137.093 102.324)" opacity="0.35">
        <rect id="Rectangle_35" data-name="Rectangle 35" width="21.327" height="1.521" fill="#28c6dc" opacity="0.2"/>
      </g>
      <g id="Group_15" data-name="Group 15" transform="translate(137.093 112.201)" opacity="0.35">
        <rect id="Rectangle_36" data-name="Rectangle 36" width="21.327" height="1.521" fill="#28c6dc" opacity="0.2"/>
      </g>
      <g id="Group_16" data-name="Group 16" transform="translate(137.093 122.08)" opacity="0.35">
        <rect id="Rectangle_37" data-name="Rectangle 37" width="21.327" height="1.521" fill="#28c6dc" opacity="0.2"/>
      </g>
      <path id="Path_133" data-name="Path 133" d="M134.37,448.86v-5.67h-7.96v5.67H109.79v44.676h39.036V448.86Z" transform="translate(-88.736 -358.203)" fill="url(#linear-gradient-4)"/>
      <rect id="Rectangle_38" data-name="Rectangle 38" width="38.212" height="44.158" transform="translate(21.467 90.883)" fill="#f6f7f9"/>
      <rect id="Rectangle_39" data-name="Rectangle 39" width="7.793" height="6.015" transform="translate(37.735 90.883)" opacity="0.1"/>
      <rect id="Rectangle_40" data-name="Rectangle 40" width="7.793" height="11.415" transform="translate(37.735 85.278)" fill="#9d9cb5"/>
      <g id="Group_17" data-name="Group 17" transform="translate(29.908 101.564)" opacity="0.35">
        <rect id="Rectangle_41" data-name="Rectangle 41" width="21.327" height="1.521" fill="#28c6dc" opacity="0.2"/>
      </g>
      <g id="Group_18" data-name="Group 18" transform="translate(29.908 104.588)" opacity="0.35">
        <rect id="Rectangle_42" data-name="Rectangle 42" width="21.327" height="1.521" fill="#28c6dc" opacity="0.2"/>
      </g>
      <g id="Group_19" data-name="Group 19" transform="translate(29.908 107.614)" opacity="0.35">
        <rect id="Rectangle_43" data-name="Rectangle 43" width="21.327" height="1.521" fill="#28c6dc" opacity="0.2"/>
      </g>
      <g id="Group_20" data-name="Group 20" transform="translate(29.908 110.638)" opacity="0.35">
        <rect id="Rectangle_44" data-name="Rectangle 44" width="21.327" height="1.521" fill="#28c6dc" opacity="0.2"/>
      </g>
      <g id="Group_21" data-name="Group 21" transform="translate(45.528 114.006)" opacity="0.35">
        <rect id="Rectangle_45" data-name="Rectangle 45" width="5.709" height="4.614" fill="#28c6dc" opacity="0.2"/>
      </g>
      <g id="Group_22" data-name="Group 22" transform="translate(29.908 119.712)" opacity="0.35">
        <rect id="Rectangle_46" data-name="Rectangle 46" width="5.709" height="4.614" fill="#28c6dc" opacity="0.2"/>
      </g>
      <path id="Path_134" data-name="Path 134" d="M494.333,475.907h-.054c.621-2.43,1.089-4.364,1.089-4.364l-2.65,1.246s-1.881-2.493-2.577-2.077-2.224,1.454-2.224,1.454l-2.029-1.039-.777,4.781H469.09v34.5l1.03.616c.849-.3,2.247-.823,2.247-.823l-.642,1.783.433.257.731-.662.27,1.264.869.52,1.371-.872-.384,1.469,1.287.767,3.741-1.406-1.128,2.968.742.445,1.693-.3s-.077.593-.125,1.235l1.7,1.016c.7-.27,1.352-.537,1.352-.537s-.067.648-.1,1.285l1.139.683c.9-.525,2.044-1.241,2.044-1.241l-.959,1.783h21.65V475.907Z" transform="translate(-393.877 -385.321)" fill="url(#linear-gradient-4)"/>
      <path id="Path_135" data-name="Path 135" d="M509.01,499.55v44.158H487.776l.947-1.758s-1.122.7-2,1.223L485.6,542.5c.031-.627.1-1.268.1-1.268s-.644.263-1.327.529l-1.666-1c.048-.633.121-1.218.121-1.218l-1.659.293-.727-.439,1.1-2.93-3.668,1.388-1.264-.767.368-1.45-1.342.861-.851-.512-.265-1.246-.717.656-.426-.255.631-1.758s-1.371.51-2.205.811l-1.009-.606V499.55Z" transform="translate(-395.259 -408.667)" fill="#f6f7f9"/>
      <g id="Group_23" data-name="Group 23" transform="translate(83.98 104.588)" opacity="0.35">
        <rect id="Rectangle_47" data-name="Rectangle 47" width="21.327" height="1.521" fill="#28c6dc" opacity="0.2"/>
      </g>
      <g id="Group_24" data-name="Group 24" transform="translate(83.98 109.135)" opacity="0.35">
        <rect id="Rectangle_48" data-name="Rectangle 48" width="21.327" height="1.521" fill="#28c6dc" opacity="0.2"/>
      </g>
      <g id="Group_25" data-name="Group 25" transform="translate(83.98 113.68)" opacity="0.35">
        <rect id="Rectangle_49" data-name="Rectangle 49" width="21.327" height="1.521" fill="#28c6dc" opacity="0.2"/>
      </g>
      <g id="Group_26" data-name="Group 26" transform="translate(83.98 118.226)" opacity="0.35">
        <rect id="Rectangle_50" data-name="Rectangle 50" width="4.272" height="1.521" fill="#28c6dc" opacity="0.2"/>
      </g>
      <path id="Path_136" data-name="Path 136" d="M555.758,499.542c-1.039,4.1-2.554,9.78-2.949,9.68-.614-.167-1.572-1.342-1.572-1.342s-2.255,2.119-3.348,1.026a2.356,2.356,0,0,0-2.6-.343l1.457-9.022Z" transform="translate(-455.465 -408.659)" opacity="0.1"/>
      <path id="Path_137" data-name="Path 137" d="M547.478,473.076,545.29,486.61a2.349,2.349,0,0,1,2.6.343c1.093,1.095,3.35-1.03,3.35-1.03s.959,1.174,1.572,1.342,3.966-13.78,3.966-13.78l-2.6,1.231s-1.845-2.462-2.529-2.052-2.18,1.436-2.18,1.436Z" transform="translate(-455.465 -386.9)" fill="#9d9cb5"/>
      <path id="Path_138" data-name="Path 138" d="M516,161.588v-1.3H495.649c-.934,0-.362,1.3-.362,1.3H484.23v28.944h48.534V161.577Z" transform="translate(-406.114 -134.462)" fill="url(#linear-gradient-6)"/>
      <rect id="Rectangle_51" data-name="Rectangle 51" width="47.936" height="28.608" transform="translate(78.423 27.264)" fill="#f6f7f9"/>
      <path id="Path_139" data-name="Path 139" d="M562.922,172.445H543.9s-.205-2.205.462-2.614-1.9-1.847-1.9-1.847a2.147,2.147,0,0,1-.075-.205h20.532v.667S565.537,170.754,562.922,172.445Z" transform="translate(-453.121 -140.516)" opacity="0.1"/>
      <path id="Path_140" data-name="Path 140" d="M542.42,161.1h20.1v1.743s2.616,2.3,0,4H543.5s-.205-2.205.462-2.614-1.9-1.847-1.9-1.847S541.5,161.1,542.42,161.1Z" transform="translate(-452.718 -135.117)" fill="#9d9cb5"/>
      <g id="Group_27" data-name="Group 27" transform="translate(84.312 36.236)" opacity="0.35">
        <rect id="Rectangle_52" data-name="Rectangle 52" width="36.162" height="0.598" fill="#28c6dc" opacity="0.2"/>
      </g>
      <g id="Group_28" data-name="Group 28" transform="translate(84.312 38.491)" opacity="0.35">
        <rect id="Rectangle_53" data-name="Rectangle 53" width="21.602" height="0.598" fill="#28c6dc" opacity="0.2"/>
      </g>
      <g id="Group_29" data-name="Group 29" transform="translate(84.312 40.748)" opacity="0.35">
        <rect id="Rectangle_54" data-name="Rectangle 54" width="36.162" height="0.598" fill="#28c6dc" opacity="0.2"/>
      </g>
      <g id="Group_30" data-name="Group 30" transform="translate(84.312 43.003)" opacity="0.35">
        <rect id="Rectangle_55" data-name="Rectangle 55" width="36.162" height="0.598" fill="#28c6dc" opacity="0.2"/>
      </g>
      <g id="Group_31" data-name="Group 31" transform="translate(84.312 45.258)" opacity="0.35">
        <rect id="Rectangle_56" data-name="Rectangle 56" width="36.162" height="0.598" fill="#28c6dc" opacity="0.2"/>
      </g>
      <path id="Path_141" data-name="Path 141" d="M528.6,327.635c-.343-1.461-.554-2.742-.554-2.742a5.652,5.652,0,0,0-.635-2.782v-.4h0v-2.936a9.9,9.9,0,0,1,.74-1.534c.529-.924,0-4.307,0-4.307s-1.96-4.769-1.482-7.793-4.027-13.433-4.027-13.433a13.214,13.214,0,0,1,.424-2.974,2.362,2.362,0,0,0,.058-.623v-.052a23.107,23.107,0,0,0-1.643-5.734l.211-7.128a20.949,20.949,0,0,0-.635-9.843c-.575-1.969-.942-3.544-1.174-4.759q-.04-.207-.075-.4c3.381-.516,5.962-.945,5.962-.945s-1.962-8.207-3.285-9.642-2.384-5.945-2.384-5.945-.69-5.793.424-7.479a11.216,11.216,0,0,0,1.269-4.616s2.543-1.845,2.861-2.665a13.553,13.553,0,0,0,.848-3.643c0-.978-.318-1.847-.211-2.359s-.742-2.46-.318-3.385a2.493,2.493,0,0,0,.169-.89.11.11,0,0,0,0-.027v-.01a12.541,12.541,0,0,0-.224-2.407,6.777,6.777,0,0,0-2.514-1.342l-.056-.221-.144-.575a2.7,2.7,0,0,0-.251-.15v-.209l-.023-.832.4-1.873c.78-3.26-3.563-3.741-3.563-3.741a2.273,2.273,0,0,0-1.229-1.085c-.874-.309-.146,4.9.263,5.229a19.4,19.4,0,0,1,1.714,2.685h0l.075.132a1.784,1.784,0,0,0-.192.209l.165,1.129.025.173a4.7,4.7,0,0,0-.692,1.183,2.518,2.518,0,0,1,.637,1.845,5.637,5.637,0,0,0,.263,2.255c-.048-.054-.606-.66-1.164-.512s-2.109.616-2.109.616-1.166.205-1.058.462-.8,1.385-.8,1.385l-3.131-2.968c-.031-.088-.061-.176-.09-.268a7.218,7.218,0,0,1-.272-1.3,7.14,7.14,0,0,0,1-.318,2.162,2.162,0,0,0,.867-.554,3.34,3.34,0,0,0,.5-1.342,18.948,18.948,0,0,1,1.162-2.591,8.438,8.438,0,0,0,.625-4.654,3.058,3.058,0,0,0-.481-1.361c-.51-.7-1.438-.989-2.109-1.551s-1.108-1.417-1.895-1.839a3.744,3.744,0,0,0-2.376-.205,12.794,12.794,0,0,0-4.439,1.615,2.312,2.312,0,0,1-1.484.487,1.97,1.97,0,0,1-1.068-.784.382.382,0,0,1,.013-.044l-.035-.04a5.525,5.525,0,0,0-.487,2.343,3.285,3.285,0,0,0,.015.383v.132a.678.678,0,0,1,0,.107h0a.6.6,0,0,1-.023.165,1.223,1.223,0,0,1-.293.424,2.311,2.311,0,0,0-.255.347c.013-.042.027-.084.042-.127a1.85,1.85,0,0,0-.324.986.986.986,0,0,0,.236.708,3.322,3.322,0,0,0,.51.41,5.975,5.975,0,0,0,2.857,6.209c.036.088.071.178.107.268a7.653,7.653,0,0,1,.575,3.415c-.012.084-.023.167-.038.249-.04.042-.079.086-.113.13h0s-5.177.05-6.387-1.053-3.068,2.685-3.068,2.685-1.854.361-2.224,0-2.543-.05-2.543-.05a4.671,4.671,0,0,0-3.231-1.179,9.571,9.571,0,0,0-2.372-1.319h0l-.059-.021h0a2.684,2.684,0,0,0-1.166-.148,24.206,24.206,0,0,1-3.283-3.229c-.74-1.12-4.274-5.312-4.29-5.331l-.013-.192-.04-.61a2.222,2.222,0,0,1-.316.027l-.071-.211a11.47,11.47,0,0,0-.752-1.726s0-.767.224-.959a13.175,13.175,0,0,0-.092-3.013s-2.292-5.358-4.343-1.358c0,0-3.879,2.587-.623,5.6,0,0,1.3.631,1.482,1.129.121.324.562,1.227.859,1.829.05.1.094.192.132.268l-.036.031.048.5.019.192c-.614.349-1.03.692-.928.959a5.689,5.689,0,0,1,.37,1.384s4.5,5.64,5.085,8.054c0,0,12.081,7.178,16.05,7.691l-.688,3.588a28.794,28.794,0,0,0-.159,2.922c.054.769-.477,4.257-.477,4.257s-.688,5.126-1.271,5.843-.476,3.795-.476,3.795a25.9,25.9,0,0,1-.8,4.359,11.234,11.234,0,0,0-.157,4.357s-2.013,4.616,2.807,1.488c0,0,2.366-.148,5.091-.24v.27c0,.351-.012.731-.015,1.131-.036,2.642-.052,6.284.067,9.039.211,4.871,1.7,14.51,1.7,14.51V291.5a6.54,6.54,0,0,0-.14,1.384,9.013,9.013,0,0,0,1.306,4.848l.328,3.2a12.642,12.642,0,0,1,.888,3.4,1.86,1.86,0,0,1-.038.309,2.228,2.228,0,0,0-.042.495,27.793,27.793,0,0,0,.834,4.974s.054,3.538.575,3.743c.453.174-.6,2.038-.92,2.573a.634.634,0,0,0-.019-.1c-.04.069-.065.107-.065.107a2.511,2.511,0,0,0-.165.894,1.287,1.287,0,0,0,.587,1.245c1.007.615,1.547,1.128.694,1.342a9.321,9.321,0,0,0-.934.192c-.015-.04-.031-.081-.044-.119a.575.575,0,0,0-.349.619,2.621,2.621,0,0,0,.316,1.2,12.873,12.873,0,0,0,1.434,2.616l.407-.046a2.214,2.214,0,0,1-.236.437,1.7,1.7,0,0,1-.6.531,1.805,1.805,0,0,1-.723.247,2.05,2.05,0,0,0-1.5.731,1.557,1.557,0,0,0,.192,2.431l3.789,1.308s6.52.846,6.169-.616-.554-2.742-.554-2.742a5.79,5.79,0,0,0-.529-2.593,3.1,3.1,0,0,0-.23-.384l.23-.027s.476-3.229,1.112-3.835c.146-.142.178-.251.144-.334.067-.176-.1-.28-.313-.338l-.046.127a3.09,3.09,0,0,0-.633-.071s-.213-1.691.476-2.3a.644.644,0,0,0,.134-.5,2.717,2.717,0,0,0-.071-.688c0,.011-.015.027-.025.038a24.981,24.981,0,0,0-1.521-3.975,4.864,4.864,0,0,1,.37-2.151c.424-.617-.052-8.359-.052-8.359a25.3,25.3,0,0,0-.318-5.484,6.167,6.167,0,0,1,.575-3.795.776.776,0,0,0-.011-.111l.013-.027s-.023-.23-.061-.589a.259.259,0,0,0-.013.035c-.105-.989-.309-2.784-.456-3.615-.213-1.179.052-6.819.052-6.819l.959-2.409,1.7,4.152,1.8,5.538a4.729,4.729,0,0,1,.913,2.355.869.869,0,0,1-.012.173,3.124,3.124,0,0,0-.021.37,3.29,3.29,0,0,0,.548,1.973s.477,2.614,1.22,3.281a2.951,2.951,0,0,1,.74,1.948,32.922,32.922,0,0,0,1.325,4.46,6.5,6.5,0,0,1,.372,2.579h0v.138s.125,1.356.121,2.493a3.977,3.977,0,0,1-.013.4v-.029a4.089,4.089,0,0,1-.109.922.413.413,0,0,0-.015.052.811.811,0,0,1,.015-.192,9.728,9.728,0,0,0-.265,2.364,6.129,6.129,0,0,0,1.009,3.927c1.431,1.641,2.332,1.436,2.332,1.436s-.69,2.05-1.534,2.46a.55.55,0,0,0-.09.058.862.862,0,0,0-.021-.119,1,1,0,0,0-.247.767,5.46,5.46,0,0,0,1.049,3.039,1.7,1.7,0,0,0,.715.418,1.565,1.565,0,0,1-.134.082,2.54,2.54,0,0,1-.292.136,1.4,1.4,0,0,1-.431.113,2.029,2.029,0,0,0-1.505.721,1.555,1.555,0,0,0,.192,2.43l3.789,1.308S528.944,329.1,528.6,327.635Z" transform="translate(-393.249 -168.348)" fill="url(#linear-gradient-7)"/>
      <path id="Path_142" data-name="Path 142" d="M634.686,838.6l-3.666-1.308a1.59,1.59,0,0,1-.178-2.431,1.958,1.958,0,0,1,1.452-.731,1.713,1.713,0,0,0,.7-.247,1.663,1.663,0,0,0,.575-.531,2.7,2.7,0,0,0,.418-1.417s4.027-1.179,5.128,0a2.953,2.953,0,0,1,.487.715,6.1,6.1,0,0,1,.514,2.593s.205,1.279.537,2.742S634.686,838.6,634.686,838.6Z" transform="translate(-524.22 -676.887)" fill="#2d293d"/>
      <path id="Path_143" data-name="Path 143" d="M728.262,829.176l-3.666-1.308a1.591,1.591,0,0,1-.178-2.43,1.948,1.948,0,0,1,1.452-.731,1.316,1.316,0,0,0,.42-.113,2.459,2.459,0,0,0,.282-.136,2.32,2.32,0,0,0,1-1.948s4.027-1.179,5.128,0a2.857,2.857,0,0,1,.383.523,5.816,5.816,0,0,1,.614,2.784s.205,1.281.539,2.742S728.262,829.176,728.262,829.176Z" transform="translate(-599.854 -669.273)" fill="#2d293d"/>
      <path id="Path_144" data-name="Path 144" d="M652.676,831.932a2.954,2.954,0,0,1,.487.715h0l-6.033.7a2.7,2.7,0,0,0,.418-1.417S651.575,830.755,652.676,831.932Z" transform="translate(-537.777 -676.889)" opacity="0.1"/>
      <path id="Path_145" data-name="Path 145" d="M743,823.034v1.129c-.938,1.546-5.477,1.208-6.794.431a2.466,2.466,0,0,0,.282-.136,2.32,2.32,0,0,0,1-1.948s4.027-1.179,5.128,0a2.856,2.856,0,0,1,.385.524Z" transform="translate(-609.775 -669.273)" opacity="0.1"/>
      <path id="Path_146" data-name="Path 146" d="M646.2,549.468a10.166,10.166,0,0,0-.717,1.534v4.054c-1.026,1.691-6.359,1.128-7.076.205s-1.486-3.333-.667-3.743,1.484-2.46,1.484-2.46-.872.205-2.257-1.436-.974-5.281-.715-6.152a18.043,18.043,0,0,0,0-3.795,7.6,7.6,0,0,0-.359-2.717,33.414,33.414,0,0,1-1.271-4.46,3.019,3.019,0,0,0-.719-1.948c-.719-.667-1.179-3.281-1.179-3.281a3.367,3.367,0,0,1-.512-2.2,4.472,4.472,0,0,0-.872-2.667l-1.743-5.536-1.639-4.153-.922,2.41s-.257,5.64-.052,6.819.512,4.307.512,4.307a6.33,6.33,0,0,0-.564,3.793,26.293,26.293,0,0,1,.309,5.486s.46,7.741.05,8.357a5.013,5.013,0,0,0-.359,2.153s2.109,4.51,1.436,5.126-.462,2.3-.462,2.3,1.436,0,.821.616-1.078,3.835-1.078,3.835l-6.2.719a12.511,12.511,0,0,1-1.388-2.616c-.813-1.9.153-1.691.978-1.9s.3-.717-.671-1.342-.41-2-.41-2,1.486-2.512.974-2.717-.564-3.743-.564-3.743-1.026-4.2-.767-5.331-.83-3.828-.83-3.828l-.359-3.231a8.873,8.873,0,0,1-1.128-6.1V518.86s-1.436-9.638-1.641-14.508c-.13-3.12-.094-7.377-.052-10.033.025-1.49.052-2.478.052-2.478l22.148-2.3a18.209,18.209,0,0,0,.4,3.291c.224,1.216.575,2.79,1.135,4.759a21.616,21.616,0,0,1,.616,9.843l-.205,7.124s1.948,4.769,1.534,6.409a13.632,13.632,0,0,0-.41,2.974s4.362,10.4,3.9,13.437,1.436,7.793,1.436,7.793S646.716,548.544,646.2,549.468Z" transform="translate(-512.258 -400.576)" fill="#575988"/>
      <path id="Path_147" data-name="Path 147" d="M709.34,658.977l6.742-.9S712.262,661.977,709.34,658.977Z" transform="translate(-588.057 -536.797)" opacity="0.05"/>
      <path id="Path_148" data-name="Path 148" d="M734.231,623.73s.23,2.384-1.231,3.281C733,627.011,735.616,626.6,734.231,623.73Z" transform="translate(-607.181 -509.034)" opacity="0.1"/>
      <path id="Path_149" data-name="Path 149" d="M703.67,584.16s-5.636,4.639-7.686,4.255S703.67,584.16,703.67,584.16Z" transform="translate(-577.034 -477.052)" opacity="0.1"/>
      <path id="Path_150" data-name="Path 150" d="M647.159,674.13s-4.28.972-4.41,2.685S647.159,674.13,647.159,674.13Z" transform="translate(-534.233 -549.77)" opacity="0.1"/>
      <path id="Path_151" data-name="Path 151" d="M651.117,785.61s-6.05,1.129-4.332,1.9a29.211,29.211,0,0,0,4.537,1.383S653.271,788.995,651.117,785.61Z" transform="translate(-537.25 -639.872)" opacity="0.05"/>
      <g id="Group_32" data-name="Group 32" transform="translate(103.289 91.11)" opacity="0.05">
        <path id="Path_152" data-name="Path 152" d="M638.432,798.176a1.193,1.193,0,0,1-.554-.876l-.061.107s-.564,1.384.41,2l.316.207c.178-.033.372-.058.56-.106C639.927,799.3,639.406,798.792,638.432,798.176Z" transform="translate(-633.407 -740.43)"/>
        <path id="Path_153" data-name="Path 153" d="M681.146,795.293c.165-.153.159-.546.058-1.053a2.853,2.853,0,0,0-.343,1.484A1.222,1.222,0,0,1,681.146,795.293Z" transform="translate(-668.328 -737.957)"/>
        <path id="Path_154" data-name="Path 154" d="M675.768,666.72a6.873,6.873,0,0,0-.408,1.885,7.415,7.415,0,0,1,.468-1.294S675.8,667.079,675.768,666.72Z" transform="translate(-663.883 -634.89)"/>
        <path id="Path_155" data-name="Path 155" d="M749.251,650.32a2.237,2.237,0,0,0,.056-.56c-.075.383-.128.738-.167,1.049C749.173,650.65,749.209,650.487,749.251,650.32Z" transform="translate(-723.515 -621.182)"/>
        <path id="Path_156" data-name="Path 156" d="M676.132,756.969a3.3,3.3,0,0,0,.153-1.139,4.007,4.007,0,0,0-.3,1.438A1.4,1.4,0,0,1,676.132,756.969Z" transform="translate(-664.392 -706.912)"/>
        <path id="Path_157" data-name="Path 157" d="M646.223,812.19a20.082,20.082,0,0,0-.708,3.149l-6.2.717a12.453,12.453,0,0,1-1.388-2.614c-.071-.167-.128-.316-.174-.453-.372.171-.518.556-.031,1.682a13.008,13.008,0,0,0,1.388,2.616l6.2-.723s.462-3.229,1.078-3.835C646.691,812.422,646.5,812.267,646.223,812.19Z" transform="translate(-633.212 -752.465)"/>
        <path id="Path_158" data-name="Path 158" d="M620.326,551.247s.052,3.538.564,3.743h0c.259-.585.431-1.151.192-1.233-.512-.2-.564-3.741-.564-3.741s-1.026-4.205-.767-5.333-.821-3.845-.821-3.845l-.359-3.229a8.878,8.878,0,0,1-1.128-6.1v-4.97s-1.436-9.64-1.641-14.51c-.13-3.118-.094-7.375-.052-10.031,0-.481.017-.907.025-1.266l-.178.017s-.027.988-.052,2.478c-.042,2.656-.079,6.9.052,10.033.205,4.871,1.641,14.508,1.641,14.508v4.974a8.873,8.873,0,0,0,1.128,6.1l.359,3.231s1.076,2.717.821,3.835S620.326,551.247,620.326,551.247Z" transform="translate(-615.507 -500.73)"/>
        <path id="Path_159" data-name="Path 159" d="M730.657,814.865a5.975,5.975,0,0,1-.982-2.435c-.633.575.094,2.79.767,3.667.717.922,6.05,1.486,7.076-.205v-.976C736.142,816.29,731.336,815.738,730.657,814.865Z" transform="translate(-707.586 -752.659)"/>
        <path id="Path_160" data-name="Path 160" d="M773.429,794.734a10.079,10.079,0,0,0-.719,1.534v.719c.117-.263.284-.614.514-1.026a3.112,3.112,0,0,0,.224-1.271C773.441,794.707,773.435,794.723,773.429,794.734Z" transform="translate(-742.565 -738.321)"/>
        <path id="Path_161" data-name="Path 161" d="M725.091,767.2a9.733,9.733,0,0,0,.506-1.218s-.872.205-2.257-1.434c-1.007-1.195-1.064-3.452-.92-4.922-.259.872-.667,4.512.715,6.152A3.651,3.651,0,0,0,725.091,767.2Z" transform="translate(-701.705 -709.984)"/>
        <path id="Path_162" data-name="Path 162" d="M685.331,621a27.32,27.32,0,0,1,.1,3.039,4.366,4.366,0,0,1,.105-.476,18.029,18.029,0,0,0,0-3.793,7.6,7.6,0,0,0-.359-2.717,33.872,33.872,0,0,1-1.291-4.46,3.021,3.021,0,0,0-.717-1.948c-.717-.665-1.179-3.281-1.179-3.281a3.375,3.375,0,0,1-.512-2.205,4.47,4.47,0,0,0-.872-2.665l-1.743-5.538-1.64-4.152-.924,2.409s-.013.3-.031.779l.75-1.958,1.64,4.153,1.743,5.536a4.471,4.471,0,0,1,.872,2.667,3.368,3.368,0,0,0,.512,2.2s.462,2.616,1.179,3.281a3.068,3.068,0,0,1,.731,1.948,33.649,33.649,0,0,0,1.283,4.46A7.546,7.546,0,0,1,685.331,621Z" transform="translate(-664.618 -575.145)"/>
      </g>
      <path id="Path_163" data-name="Path 163" d="M724.734,227.6l-.383,1.872.023.832.015.616-2.148.211-.24-.443h0A19.551,19.551,0,0,0,720.341,228c-.4-.334-1.1-5.538-.253-5.229a2.242,2.242,0,0,1,1.191,1.078S725.486,224.341,724.734,227.6Z" transform="translate(-596.422 -184.954)" fill="#ffcdd3"/>
      <path id="Path_164" data-name="Path 164" d="M734.13,261.591l-2.14.221-.24-.443h0a1.881,1.881,0,0,1,2.362-.384Z" transform="translate(-606.17 -215.634)" opacity="0.1"/>
      <path id="Path_165" data-name="Path 165" d="M734.173,263.477l-2.825.663-.059-.422-.159-1.129a1.941,1.941,0,0,1,2.731-.374l.14.575Z" transform="translate(-605.669 -216.508)" fill="#dce6f2"/>
      <path id="Path_166" data-name="Path 166" d="M480,211.077l-3.007,1.618s-.115-.238-.272-.575c-.288-.6-.713-1.505-.83-1.829-.178-.5-1.436-1.128-1.436-1.128-3.151-3.013.6-5.6.6-5.6,1.987-4,4.2,1.358,4.2,1.358a13.636,13.636,0,0,1,.09,3.013c-.217.19-.217.959-.217.959a11.641,11.641,0,0,1,.725,1.726C479.949,210.9,480,211.077,480,211.077Z" transform="translate(-397.194 -168.239)" fill="#ffcdd3"/>
      <path id="Path_167" data-name="Path 167" d="M494.859,246.98l-3.007,1.618s-.115-.238-.272-.575c.424-.355,1.931-1.576,2.426-1.521a3.6,3.6,0,0,0,.713.017C494.809,246.807,494.859,246.98,494.859,246.98Z" transform="translate(-412.055 -204.141)" opacity="0.1"/>
      <path id="Path_168" data-name="Path 168" d="M495.507,248.757l-3.385,1.668-.067-.729-.056-.51s1.96-1.68,2.539-1.615a3.033,3.033,0,0,0,.884,0l.038.61Z" transform="translate(-412.394 -205.006)" fill="#dce6f2"/>
      <path id="Path_169" data-name="Path 169" d="M651.179,264.535s-14.754,1.664-12,.767a3.7,3.7,0,0,0,2.842-3.2,7.707,7.707,0,0,0-.548-3.413,14.677,14.677,0,0,0-1.319-2.665s11.279-6.205,9.013-.575a9.056,9.056,0,0,0-.639,2.673,7.511,7.511,0,0,0,.29,2.706A8.054,8.054,0,0,0,651.179,264.535Z" transform="translate(-531.076 -209.464)" fill="#ffcdd3"/>
      <path id="Path_170" data-name="Path 170" d="M654.732,255.48a9.05,9.05,0,0,0-.639,2.673c-1.062.892-2.228.834-3.724.834-1.151,0-2.422.278-3.34-.276a14.686,14.686,0,0,0-1.319-2.665S656.989,249.84,654.732,255.48Z" transform="translate(-536.629 -209.485)" opacity="0.1"/>
      <circle id="Ellipse_33" data-name="Ellipse 33" cx="6.102" cy="6.102" r="6.102" transform="translate(107.439 37.69)" fill="#ffcdd3"/>
      <path id="Path_171" data-name="Path 171" d="M651.179,294.5s-14.754,1.664-12,.767a3.7,3.7,0,0,0,2.842-3.2,8.109,8.109,0,0,1,3.158-1.674,4.424,4.424,0,0,1,2.685-.044,3.688,3.688,0,0,1,.972.453A8.054,8.054,0,0,0,651.179,294.5Z" transform="translate(-531.076 -239.432)" opacity="0.1"/>
      <path id="Path_172" data-name="Path 172" d="M734.844,267.283l-2.825.663-.059-.422a2.493,2.493,0,0,1,2.711-.926Z" transform="translate(-606.34 -220.314)" opacity="0.1"/>
      <path id="Path_173" data-name="Path 173" d="M495.742,251.351l-3.385,1.668-.067-.729a24.868,24.868,0,0,1,3.413-1.511Z" transform="translate(-412.629 -207.6)" opacity="0.1"/>
      <path id="Path_174" data-name="Path 174" d="M638.362,492.817c-5.714.9-13.847,2.077-15.137,1.684-1.07-.326-4.489-.291-7.465-.192.025-1.49.052-2.478.052-2.478l22.148-2.3A18.186,18.186,0,0,0,638.362,492.817Z" transform="translate(-512.422 -400.568)" opacity="0.1"/>
      <path id="Path_175" data-name="Path 175" d="M540.5,299.371s-18.815,3.231-20.836,2.616-12.386.052-12.386.052c-4.666,3.126-2.717-1.488-2.717-1.488a11.452,11.452,0,0,1,.153-4.357,26.649,26.649,0,0,0,.767-4.359s-.1-3.068.462-3.793,1.229-5.845,1.229-5.845.514-3.486.462-4.255.153-2.922.153-2.922l.669-3.582c-3.835-.512-15.532-7.69-15.532-7.69-.564-2.41-4.922-8.054-4.922-8.054a5.944,5.944,0,0,0-.359-1.384c-.309-.821,4.307-2.46,4.307-2.46s3.434,4.2,4.152,5.331a23.408,23.408,0,0,0,3.179,3.231,2.466,2.466,0,0,1,1.128.148.233.233,0,0,1,.059.017h0a9.322,9.322,0,0,1,2.3,1.317,4.454,4.454,0,0,1,3.128,1.179s2.109-.307,2.46.052,2.154,0,2.154,0,1.795-3.795,2.974-2.685,6.182,1.051,6.182,1.051a7.4,7.4,0,0,1,3.3-1.849,4.424,4.424,0,0,1,2.685-.044,3.4,3.4,0,0,1,1.055.51l3.036,2.972s.872-1.128.767-1.384,1.026-.46,1.026-.46,1.486-.462,2.05-.616,1.081.456,1.128.51a5.965,5.965,0,0,1-.255-2.253,2.655,2.655,0,0,0-.616-1.847c1.795-4.41,5.845-.717,5.845-.717s.462,2.41.052,3.333.41,2.876.307,3.383.205,1.384.205,2.359a13.958,13.958,0,0,1-.821,3.643c-.309.823-2.779,2.656-2.779,2.656a11.6,11.6,0,0,1-1.231,4.614c-1.076,1.691-.41,7.479-.41,7.479s1.026,4.512,2.3,5.945S540.5,299.371,540.5,299.371Z" transform="translate(-408.864 -208.465)" fill="#656691"/>
      <path id="Path_176" data-name="Path 176" d="M609.5,310.5s-.564-1.691-1.076-1.847a11.949,11.949,0,0,1-1.488-.665l.33-.631s1.927.527,2.234,1.091A4.441,4.441,0,0,1,609.5,310.5Z" transform="translate(-505.293 -253.331)" opacity="0.1"/>
      <path id="Path_177" data-name="Path 177" d="M546.905,298.588c-.1.514-4.665.974-4.665.974l2.3-2.313h0l.058.019h0A9.121,9.121,0,0,1,546.905,298.588Z" transform="translate(-453 -245.159)" opacity="0.1"/>
      <circle id="Ellipse_34" data-name="Ellipse 34" cx="0.41" cy="0.41" r="0.41" transform="translate(80.292 45.981)" fill="#575988"/>
      <circle id="Ellipse_35" data-name="Ellipse 35" cx="0.41" cy="0.41" r="0.41" transform="translate(80.818 46.802)" fill="#575988"/>
      <circle id="Ellipse_36" data-name="Ellipse 36" cx="0.41" cy="0.41" r="0.41" transform="translate(81.332 47.559)" fill="#575988"/>
      <circle id="Ellipse_37" data-name="Ellipse 37" cx="0.41" cy="0.41" r="0.41" transform="translate(81.869 48.378)" fill="#575988"/>
      <circle id="Ellipse_38" data-name="Ellipse 38" cx="0.334" cy="0.334" r="0.334" transform="translate(130.272 48.411)" fill="#575988"/>
      <circle id="Ellipse_39" data-name="Ellipse 39" cx="0.334" cy="0.334" r="0.334" transform="translate(130.324 49.166)" fill="#575988"/>
      <circle id="Ellipse_40" data-name="Ellipse 40" cx="0.334" cy="0.334" r="0.334" transform="translate(130.37 49.924)" fill="#575988"/>
      <path id="Path_178" data-name="Path 178" d="M620.439,396.2c-.046-.059,11.505,14.535,20.482,6.1C640.921,402.3,626.746,404.224,620.439,396.2Z" transform="translate(-516.204 -325.134)" opacity="0.1"/>
      <path id="Path_179" data-name="Path 179" d="M585.82,435.77s6.915.192,7.64,2.178v2.069a1.317,1.317,0,0,1-1.287,0c-.7-.384-4.878-2.493-6.353-1.478Z" transform="translate(-488.223 -357.117)" opacity="0.1"/>
      <path id="Path_180" data-name="Path 180" d="M586.49,435.77s6.614.18,7.306,2.077v1.973a1.262,1.262,0,0,1-1.231,0c-.665-.359-4.665-2.384-6.075-1.409Z" transform="translate(-488.765 -357.117)" fill="#656691"/>
      <path id="Path_181" data-name="Path 181" d="M605.51,357.46a22.254,22.254,0,0,0,2.685,4.6,18.052,18.052,0,0,0,4.2,4.054S605.625,358.411,605.51,357.46Z" transform="translate(-504.138 -293.824)" opacity="0.1"/>
      <path id="Path_182" data-name="Path 182" d="M593.71,315.55s1.151,4.986,4.127,6.673Z" transform="translate(-494.6 -259.95)" opacity="0.1"/>
      <path id="Path_183" data-name="Path 183" d="M584.047,318.173c-.029-.092-1.024,3.939,3.835,6.169C587.88,324.342,585.817,323.642,584.047,318.173Z" transform="translate(-486.708 -262.069)" opacity="0.1"/>
      <path id="Path_184" data-name="Path 184" d="M741.993,300.746a35.479,35.479,0,0,1,3.068,2.3C745.061,303.053,743.446,300.643,741.993,300.746Z" transform="translate(-614.447 -247.983)" opacity="0.1"/>
      <path id="Path_185" data-name="Path 185" d="M638.94,224.815a1.274,1.274,0,0,0,.476.825,1.3,1.3,0,0,0,.575.128,12.4,12.4,0,0,0,5.517-.52,2.083,2.083,0,0,0,.838-.556,3.424,3.424,0,0,0,.487-1.342,19.313,19.313,0,0,1,1.128-2.591,8.7,8.7,0,0,0,.6-4.652,3.151,3.151,0,0,0-.466-1.363c-.495-.7-1.392-.989-2.046-1.549s-1.072-1.417-1.833-1.839a3.525,3.525,0,0,0-2.3-.205,12.13,12.13,0,0,0-4.3,1.613,2.138,2.138,0,0,1-1.436.489,1.974,1.974,0,0,1-1.055-.809,5.671,5.671,0,0,0-.458,2.658,1.124,1.124,0,0,1-.013.4,1.188,1.188,0,0,1-.284.422,1.555,1.555,0,0,0-.291,1.918c.192.234.5.362.692.6.345.43.228,1.045.22,1.594a.812.812,0,0,0,.134.541.791.791,0,0,0,.754.18,2.085,2.085,0,0,1,.8-.077,1.342,1.342,0,0,1,.7.537A9.49,9.49,0,0,1,638.94,224.815Z" transform="translate(-527.048 -175.493)" fill="#2d293d"/>
      <g id="Group_33" data-name="Group 33" transform="translate(106.808 36.882)" opacity="0.1">
        <path id="Path_186" data-name="Path 186" d="M646.551,245.636a2.083,2.083,0,0,1-.838.556,12.3,12.3,0,0,1-5.517.518,1.275,1.275,0,0,1-.575-.127,1.312,1.312,0,0,1-.476-.825,9.532,9.532,0,0,0-1.555-3.609,1.343,1.343,0,0,0-.7-.537,2.085,2.085,0,0,0-.8.077.8.8,0,0,1-.754-.18.811.811,0,0,1-.134-.541c0-.548.123-1.166-.22-1.594-.192-.24-.495-.366-.694-.6a1.207,1.207,0,0,1-.117-1.225,1.4,1.4,0,0,0-.086,1.634c.192.236.5.362.692.6.343.428.228,1.045.221,1.594a.811.811,0,0,0,.134.541.792.792,0,0,0,.754.18,2.085,2.085,0,0,1,.8-.077,1.343,1.343,0,0,1,.7.537,9.585,9.585,0,0,1,1.555,3.609.959.959,0,0,0,1.051.951,12.4,12.4,0,0,0,5.517-.518,2.083,2.083,0,0,0,.838-.556,1.622,1.622,0,0,0,.265-.495C646.592,245.581,646.572,245.61,646.551,245.636Z" transform="translate(-633.856 -233.79)"/>
        <path id="Path_187" data-name="Path 187" d="M638.092,220.9a.87.87,0,0,0,.192-.309,1.124,1.124,0,0,0,.013-.4,5.707,5.707,0,0,1,.286-2.207l-.033-.04a5.667,5.667,0,0,0-.458,2.658A1.56,1.56,0,0,1,638.092,220.9Z" transform="translate(-637.269 -217.94)"/>
      </g>
      <path id="Path_188" data-name="Path 188" d="M654.69,301.524s7.622,1.011,8.307-.134" transform="translate(-543.887 -248.505)" opacity="0.1"/>
      <path id="Path_189" data-name="Path 189" d="M732,285.65s4.234,0,5.166,1.592" transform="translate(-606.372 -235.784)" opacity="0.1"/>
    </g>
  </g>
</svg>
