<svg id="OBJECTS" xmlns="http://www.w3.org/2000/svg" viewBox="0 0 750 297.41"><defs><style>.cls-1{fill:#fce7c0;}.cls-1,.cls-10,.cls-11,.cls-12,.cls-13,.cls-14,.cls-15,.cls-16,.cls-17,.cls-18,.cls-19,.cls-2,.cls-20,.cls-21,.cls-22,.cls-23,.cls-26,.cls-29,.cls-3,.cls-31,.cls-32,.cls-33,.cls-34,.cls-35,.cls-36,.cls-37,.cls-38,.cls-39,.cls-4,.cls-40,.cls-41,.cls-42,.cls-43,.cls-44,.cls-45,.cls-46,.cls-47,.cls-48,.cls-49,.cls-5,.cls-52,.cls-53,.cls-6,.cls-7,.cls-8,.cls-9{fill-rule:evenodd;}.cls-2{fill:#f4dab0;opacity:0.7;}.cls-3{fill:#a3c869;}.cls-28,.cls-30,.cls-4{fill:#fff;}.cls-5{fill:#f4f3f1;}.cls-6{fill:#8caf8e;}.cls-7{fill:#c4d5c3;}.cls-8{fill:#373c2d;}.cls-9{fill:#2e2912;}.cls-10{fill:#f2c68f;}.cls-11{fill:#d4854c;}.cls-12{fill:#3b412c;}.cls-13{fill:#292412;}.cls-14{fill:#73886f;}.cls-15{fill:#231916;}.cls-16{fill:#6f8168;}.cls-17,.cls-55{fill:#211505;}.cls-18{fill:#566651;}.cls-19{fill:#2e2b17;}.cls-20{fill:#2c2a20;}.cls-21{fill:#799175;}.cls-22{fill:#88a259;}.cls-23,.cls-27{fill:#f87c41;}.cls-24{fill:#dd4026;}.cls-25,.cls-35{fill:#664533;}.cls-26{fill:#35220d;}.cls-29{fill:#4c3117;}.cls-30{font-size:8.57px;font-family:OpenSans-Bold, Open Sans;font-weight:700;}.cls-31{fill:#f4ad85;}.cls-32{fill:#ed9072;}.cls-33{fill:#facc6a;}.cls-34{fill:#ffbe57;}.cls-36{fill:#30200c;}.cls-37{fill:#e3e8e2;}.cls-38{fill:#e37b64;}.cls-39,.cls-51{fill:#d64341;}.cls-40,.cls-54{fill:#8d6a55;}.cls-41{fill:#f79c41;}.cls-42{fill:#ac7b21;}.cls-43{fill:#d9d4d6;}.cls-44{fill:#f5f4f4;}.cls-45{fill:#7f9e46;}.cls-46{fill:#543b24;}.cls-47{fill:#34210c;}.cls-48{fill:#d7d1cd;}.cls-49{fill:#74391f;}.cls-50,.cls-53{fill:#c13421;}.cls-52,.cls-56{fill:#eb6b5d;}</style></defs><title>Artboard 1 copy 2</title><path class="cls-1" d="M486.31,262.53a48,48,0,0,0,47.84-47.83h0a48,48,0,0,0-47.84-47.84h0a20.28,20.28,0,0,1-20.22-20.23h0a20.28,20.28,0,0,1,20.22-20.22h2.41a21.09,21.09,0,0,0,21-21h0a21.09,21.09,0,0,0-21-21h-7.39a8.2,8.2,0,0,1-8.18-8.19h0A8.2,8.2,0,0,1,481.33,68h5.43a5.67,5.67,0,0,0,5.65-5.65h0a5.66,5.66,0,0,0-5.65-5.65H450.29a8.9,8.9,0,0,1-8.88-8.88h0a8.9,8.9,0,0,1,8.88-8.88h10.9a5.66,5.66,0,0,0,5.65-5.65h0a5.66,5.66,0,0,0-5.65-5.65H323.34A7.4,7.4,0,0,0,316,35h0a7.4,7.4,0,0,0,7.37,7.38h22.37A11.61,11.61,0,0,1,357.3,54h0a11.62,11.62,0,0,1-11.59,11.59H269.37A7.39,7.39,0,0,0,262,72.91h0a7.4,7.4,0,0,0,7.37,7.37h7.08A10.71,10.71,0,0,1,287.13,91h0a10.71,10.71,0,0,1-10.68,10.69h-9.64a27.51,27.51,0,0,0-27.43,27.44h0a27.51,27.51,0,0,0,27.43,27.44H270a26.47,26.47,0,0,1,26.39,26.39h0A26.47,26.47,0,0,1,270,209.31h-6.81a26.7,26.7,0,0,0-26.61,26.61h0a26.69,26.69,0,0,0,26.61,26.61ZM304.48,42.37A7.38,7.38,0,1,1,311.85,35a7.39,7.39,0,0,1-7.37,7.38ZM502.62,68a5.65,5.65,0,1,1,5.65-5.65A5.65,5.65,0,0,1,502.62,68Z"/><path class="cls-2" d="M262.71,108.56Zm223.6,154a48,48,0,0,0,47.31-40.78V207.64a48,48,0,0,0-47.31-40.78h0a20.28,20.28,0,0,1-20.22-20.23h0A20,20,0,0,1,469,136.2c-.09-1.72-.26-3.29-.26-5.41a55.25,55.25,0,0,0-.18-7.86c-1.21-8-.75-20-.75-30.35-.85-.41-.59-.31-1.85-.31,0-1.72-.58-1.67-.62-3.39l-2.46-.36c-.42-1.71-1.15-3.19-1.46-5L460.57,81c-.38-1.16.07-1.44,0-2.75l-.12-11.9c-1.4.37-.59.14-.65,2.13v9c-.14,1.72-.44.58-.25,1.58.39,2.08,0,1.54-.47,3.55l-1.1,6a9.29,9.29,0,0,0-3.09.62c0,1.94-.67,2.63-2.47,2.78,0,16.9.62,17.09.62,33.87h-9.58v17c-2.46-.05-.31-.11-1.73-.73a5.51,5.51,0,0,0-2.29-.19l-.3-7.11c-.07-1.38-.28-1.12-.31-2.47h-1.55l-.31-20.7c0-4.22-.23-32.45,1.24-35.24L437,76.05c.48-1,.6-6.46.6-8.31a3.45,3.45,0,0,1-.86-.07l-1.44-.28c-.58-.1-.55.13-.86-.38-.55-.92,0-.2-.1-.58,0-.06,0-.16,0-.21l-.44-2.8c-.8.59-.65.69-.92,1.85h-1.86c-.15-1.81-.09-.17-.44-1.4-.54-1.89-.17-4.35-.17-6.32-1.43,0-.77.2-1.4-.46-1-1-.44-4.63-.45-6,0-2.92-.72-4.64,0-7.71h-.92a41.68,41.68,0,0,1-.09,5.48l-.22,4.1c-.18.94.19.6-.62.92v1.24c.73.29.71-.17.69,1.55,0,2.83-2.19.77-4.09.61a19.39,19.39,0,0,0-2.16,6.18l-.67-1.53c-1.46,1.1-.48,4.26-.38,4.86l.22,47.76c-.26,1.69-.68,1.27-.71,3a1.82,1.82,0,0,1-.46.11c-.74.18,0-.16-.78.2.14,1.74.62.25.62,6.49,0,2,.41,5.29-.31,6.8-2.57-.22-.6-1.76-1.82-3.15-1.62-1.84-2.2.87-2.2,2.22h-.62c-.19-.82-.15-.92-.32-1.84-.28-1.61-.33-.61-.55-1.92-.51-3-.15-6-.35-8.92-.13-2-.65-1.71-.62-4.32l-.32-17.29c-5,0-9.63-.62-14.83-.62,0,2.81.33,4.56.32,7.1s0,5,0,7.42h-2.78v12.36c-1.73,0-3.53-.26-4.76-.13-1.8.17-3.57.13-5.43.13,0-1.75,0-3.51,0-5.26,0-2.81.4-2.6-1.14-4.1-2.68-2.62-5.15-1.15-9-1.15,0-2.38.3-31.57-.07-33s-2.44-1.88-3.69-2.45L370,76c-4.65-2.76-2.95-1.07-4.14-3.55l-1.52.63c-1.57.8-5.23.88-6.9.69-1.89-.21-1.9.11-3.31.23,0,3.31-.32,5.41-.31,8.64v40.47c0,2-.31,2.54-.31,4.32-.87-1.37-.35-1.55-3.09-1.55,0,1.49-.43,1.5-1.26,2.14-5.3,4.09-5.85-2.48-5.85,5.28-6.33,0-5.25-1.08-5.25,5.25h-.31c0-1.87.21-1.57-1.23-1.24,0-1.62-1.89-5-2.44-6.51-.78-2.17-.34-5.92-.34-8.62-.95-.46-4.2-.48-5.15-.93l.21-19.76c-1.22,0-.73.09-1.55-.3a14.61,14.61,0,0,0-.55-4.71c-.51-1.46-1.2-2.22-1.66-3.9-.39-1.43.14-2.08-.88-2.82-.55,2.36-.47,3.78-1.77,5.64-1,1.45-1,3.32-1,5.17-.82.39-.33.28-1.54.31,0,2.17-.78,4.09-.92,5.87-.16,2,0,4.7,0,6.79a18.25,18.25,0,0,1-3-3.17,8.27,8.27,0,0,1-2.08-3.12c-.5-2.33-5.81-1.43-7.87-1.42a7.23,7.23,0,0,0-3.1.3c-1.27.49-.26.15-.52.66-.05.09-2.41,4.09-5,4-2.25-.09-2.16-.31-2.19-1.57h-1.23c-.26.66.14.35-.64.29l-3.66,0c-1.59-.33-.64,0-3.5.9-1,.3-.05.12-1.16.38v5.87c-3.32,0-3.36.38-5.56,1.55,0,5.62-.31.07-.31,5.46-2.62,0-1,.06-1.71.76l-.15.16-.17.13-.19.12c-.6.44-.84.2-1.05,1.12l-.11,2c-.06,1.45,0,1.21-.94,1.84v-5.26c-1.34-.11-2-.58-3.4-.61l1.54-.62c-1-.23-.89-.4-1.85-.62,0-6.84.31-3,.31-10.09-1.69-.4-1.23-.11-1.76-1.34l-.25-.67a3.5,3.5,0,0,1-.16-1.39c-1.89-.05-.66-.14-1.71-.45a7,7,0,0,0-2.3-.17c.27-1.17.63-2.31-.38-3.32-.72-.72-.95-.7-2.09-.7a26.47,26.47,0,0,1,0,4c-1.29.68-1.71,1.3-2.08,4.1-.81,6.1-.39,12.85-.39,19.07-2.62.06.17.42-2.47.62-1.45.11-1.61-.26-2.78.3.31.79-.11.25.59.65a2.43,2.43,0,0,0,.95.28c-.1,1.14-.51.75-1.51.94a9.86,9.86,0,0,1-2.81.3v1.85l-4.64,1.54c.2.75.08.26.5.76.72.86.61-.1.43.48-.05,0-.13,0-.15,0l-2,0a6.44,6.44,0,0,1,.3,1.85c-3.15,0-2.68-.09-4.23.3a27.53,27.53,0,0,0,24.4,14.93H270a26.47,26.47,0,0,1,26.39,26.39h0A26.47,26.47,0,0,1,270,209.31h-6.81a26.71,26.71,0,0,0-26.08,21.36v10.5a26.7,26.7,0,0,0,26.08,21.36ZM474.47,130.26c0-3.75,0-6.85.17-7.79.19-1.34.6-1.27,1.22-2.19,1.56.75,5,.32,7.1.31,2.66,0,4.28.31,7.11.31v-4a6.06,6.06,0,0,1,2.16-.31c.11-1.37,1.1-2.75,1.24-4.33,3.34,1.21,1.29,5.19,4.32,5.25a44,44,0,0,0,.53,5.65,8.72,8.72,0,0,1,.08.88,20.81,20.81,0,0,1-9.68,2.38h-2.41a20.12,20.12,0,0,0-11.84,3.85Zm30.93-12.11-.21-11.48c0-2.25.06-1.3.68-2.71.7-1.62.26-4.8.26-6.84a6,6,0,0,1,1.67-.56,20.85,20.85,0,0,1,1.95,8.82h0A21,21,0,0,1,505.4,118.15Z"/><path class="cls-3" d="M282,206.4c-.9-11.77-5.49-20.54-12.17-26.76-7.15-6.65-16.69-10.37-26.64-11.7a65.41,65.41,0,0,0-10.64-.53.34.34,0,0,0-.34.36v0c0,.71,1.36,30.1,18.25,44.77a26.31,26.31,0,0,1,12.71-3.26H270A26.18,26.18,0,0,0,282,206.4Z"/><path class="cls-4" d="M234.34,169.29a.32.32,0,0,0-.43.17.32.32,0,0,0,.16.43,72.11,72.11,0,0,1,8.68,4.88c-1.85.22-6.06.75-7.91,1.23a.33.33,0,0,0-.24.4.34.34,0,0,0,.41.24c2.16-.57,7.77-1.21,8.6-1.3,2.23,1.47,4.73,3.26,7.37,5.38l-14.62,2.93a.34.34,0,0,0-.26.39.32.32,0,0,0,.39.25l15.16-3a100.45,100.45,0,0,1,7.6,6.9c-3,.72-17.47,4.23-19.87,5.28a.33.33,0,1,0,.27.6c2.47-1.09,18.34-4.91,20.14-5.34,2.06,2.11,4.12,4.4,6.13,6.9l-22.6,5.76a.33.33,0,1,0,.16.63l22.89-5.83c1.56,2,3.09,4.07,4.56,6.29-3.69,1-22.54,5.66-22.59,5.67a.33.33,0,0,0,.15.64c.06,0,19.65-4.85,22.82-5.74q1.81,2.79,3.5,5.84c.39-.07.77-.15,1.16-.24A64.73,64.73,0,0,0,278.72,197a.34.34,0,0,0-.28-.37.33.33,0,0,0-.37.28,62.52,62.52,0,0,1-2.74,11.56c-1.12-2-2.3-4-3.51-5.85.47-1.15,3.26-8.2,3.76-13.28a.33.33,0,0,0-.29-.36.34.34,0,0,0-.36.3c-.45,4.56-2.8,10.77-3.55,12.68q-2.19-3.27-4.5-6.18a34.64,34.64,0,0,0,4.24-12.69.34.34,0,0,0-.31-.36.33.33,0,0,0-.35.3,33.23,33.23,0,0,1-4,12.19c-2-2.5-4.08-4.81-6.14-6.92,1.61-3.11,3.47-11.33,3.47-11.35a.32.32,0,0,0-.25-.39.33.33,0,0,0-.39.24s-1.77,7.84-3.32,11a99.09,99.09,0,0,0-7.7-7,37.15,37.15,0,0,0,1.44-8.66.32.32,0,0,0-.31-.34.33.33,0,0,0-.34.32,36.43,36.43,0,0,1-1.34,8.23c-2.69-2.17-5.23-4-7.5-5.5a24.37,24.37,0,0,0,.37-4.76.32.32,0,0,0-.34-.31.33.33,0,0,0-.32.34,23.07,23.07,0,0,1-.31,4.34,72.49,72.49,0,0,0-9.11-5.16Zm45.67,38c.15-.8.24-1.32.24-1.32a.32.32,0,0,0-.26-.38.33.33,0,0,0-.38.27s-.12.7-.33,1.72Z"/><path class="cls-5" d="M435.78,115.47a6.06,6.06,0,0,1,2.1.37,1.64,1.64,0,0,1,1.2-.53,1.6,1.6,0,0,1,.62.13,2.69,2.69,0,0,1,2.68-2.49,2.66,2.66,0,0,1,1.64.56,1.59,1.59,0,0,1,1.29-.66,1.1,1.1,0,0,1,.26,0,3.47,3.47,0,0,1,3.2-4.84,3.52,3.52,0,0,1,1,.15,1.56,1.56,0,0,1,1.43-.91h0c0-.12,0-.25,0-.38a6.25,6.25,0,0,1,12.49,0V107a3.67,3.67,0,0,1,.94-.12,3.82,3.82,0,0,1,1.79.44,5,5,0,0,1,9,3,4.94,4.94,0,0,1-.25,1.55h.15a2.46,2.46,0,0,1,2.46,2.46,2.42,2.42,0,0,1,0,.47h0a1.42,1.42,0,0,1,1.42,1.37,3.52,3.52,0,0,1,.66-.06,3.35,3.35,0,0,1,2.32.88c1.6,1.51-.15,1.9-1.83,1.9H433.93c-1.76,0-4.26.29-2.52-1.54A6,6,0,0,1,435.78,115.47Z"/><path class="cls-5" d="M274.83,132.26a8.59,8.59,0,0,1,3,.54,2.32,2.32,0,0,1,1.71-.76,2.45,2.45,0,0,1,.9.18,3.85,3.85,0,0,1,3.84-3.56,3.91,3.91,0,0,1,2.35.79,2.28,2.28,0,0,1,1.85-.94,2.22,2.22,0,0,1,.37,0,4.91,4.91,0,0,1-.4-2,5,5,0,0,1,5-5,4.76,4.76,0,0,1,1.47.23,2.26,2.26,0,0,1,2-1.31H297c0-.17,0-.36,0-.54a9,9,0,0,1,17.9,0c0,.07,0,.14,0,.21a5.47,5.47,0,0,1,3.92.47,7.16,7.16,0,0,1,12.59,6.46h.22a3.53,3.53,0,0,1,3.53,3.53,3.71,3.71,0,0,1-.06.67h.07a2,2,0,0,1,2,2,5,5,0,0,1,.95-.09,4.82,4.82,0,0,1,3.32,1.25c2.29,2.17-.21,2.73-2.62,2.73H272.18c-2.51,0-6.1.41-3.61-2.22A8.63,8.63,0,0,1,274.83,132.26Z"/><path class="cls-5" d="M391.42,55.09a12,12,0,0,1,4.17.74,3.22,3.22,0,0,1,3.62-.8,5.35,5.35,0,0,1,8.58-3.84,3.18,3.18,0,0,1,2.57-1.31,4.55,4.55,0,0,1,.52,0s.45-2.74,6.83-2.43c4.17.2,6.94,3.71,7.7,7.77s-2.2,6.63-7.59,6.63H387.75c-3.49,0-8.47.57-5-3.07A11.93,11.93,0,0,1,391.42,55.09Z"/><path class="cls-6" d="M465.23,125.8c1.93-8.61,10.06-4.25,13.75,2.91,3.26,6.34,10.64,29.13,17.17,39.18a38.78,38.78,0,0,0-5.75-.7C478.13,156.31,463.06,135.45,465.23,125.8Z"/><path class="cls-7" d="M493,167.39c-14.82-16.25-23.35-42.5-23.38-42.6a.37.37,0,0,1,.22-.45.35.35,0,0,1,.45.23c0,.1,8.74,26.91,23.79,43Z"/><path class="cls-8" d="M479.4,113.18c5-8.51,12.13-1.12,13.64,7.74,1.33,7.83,1.49,34.48,5,47.41a38.33,38.33,0,0,0-4.8-.9C483.51,152.06,473.63,123.08,479.4,113.18Z"/><path class="cls-9" d="M495.28,167.73c-10.71-22.36-10.93-54-10.93-54.15a.4.4,0,0,1,.39-.4.39.39,0,0,1,.4.39c0,.12.22,32.16,11.1,54.34Z"/><path class="cls-10" d="M300.12,134.61c-5.2-12-15.84-3.4-19.24,8.06-3.34,11.27-8.46,53.59-16.51,66.64h4.14C284.56,193.25,306.81,150.07,300.12,134.61Z"/><path class="cls-11" d="M266.92,209.31c20.56-27.45,26.58-74.8,26.6-75a.53.53,0,0,0-.46-.59.53.53,0,0,0-.59.45c0,.16-6.1,48-26.86,75.1Z"/><path class="cls-12" d="M271.59,145.67c-7.18-8.26-13.48,1.3-13.29,11.28.17,8.74,5.42,37.39,4.39,52.37h4.39C274.89,190.87,280.17,155.55,271.59,145.67Z"/><path class="cls-13" d="M265.35,209.31c7.39-26.73.94-62.05.91-62.17a.44.44,0,0,0-.51-.36.43.43,0,0,0-.35.51c0,.13,6.49,35.51-1,62Z"/><path class="cls-6" d="M305.07,172.44c10.22-.44,7.79,10,.9,16.26-2.62,2.4-8.4,6.55-14.87,11.33v-1.36a27.32,27.32,0,0,1-4.76,4.91l0,0h0l-1,.75a26.32,26.32,0,0,1-8.13,3.94h0l-.72.2h-.05l-.22.06-.25.05h0l-.2,0-.1,0-.37.08-.09,0-.18,0-.17,0-.22,0-.22,0-.14,0-.2,0-.19,0-.25,0-.13,0-.23,0h-.13l-.3,0h-.1l-.29,0h-.07l-.32,0h-.13l-.31,0h0l-.34,0h-2.83C277.54,192.84,294.45,172.91,305.07,172.44Z"/><path class="cls-14" d="M271.74,209.25c14.34-18.27,35.68-32.2,35.77-32.26a.41.41,0,1,1,.45.69c-.09.06-20.88,13.63-35.1,31.47h-.18l-.24,0h-.19l-.17,0h-.34Z"/><path class="cls-11" d="M452.13,257.91a38.78,38.78,0,0,0-10-10.83c-17.39-13.47-25.29-19.47-19.15-27.3s17.26-14.9,27.25-1.16c7.4,10.18,12.67,24.83,10.15,39.29Z"/><path class="cls-10" d="M456.74,257.91a46.17,46.17,0,0,0-.41-5.38A17.78,17.78,0,0,0,444.8,245c-.26,0-.34-.28-.18-.53a.78.78,0,0,1,.73-.38,18,18,0,0,1,10.57,6,44.86,44.86,0,0,0-1.94-7,.28.28,0,0,1-.06-.18c-.43-1.14-.91-2.31-1.46-3.49-.43-.35-9.2-7.17-18.66-4.25-.29.09-.52,0-.52-.27a.77.77,0,0,1,.55-.6c7.43-2.29,14.35,1,17.59,3a46.51,46.51,0,0,0-3.33-5.38.36.36,0,0,1-.08-.12,50.77,50.77,0,0,0-5.93-6.83,23.17,23.17,0,0,0-15.53.6c-.3.12-.56,0-.59-.19a.69.69,0,0,1,.47-.62,24.33,24.33,0,0,1,14.06-1.27q-1.12-1-2.34-2l0,0a64.88,64.88,0,0,0-7.15-5c-.19-.12-.17-.4.06-.63a.66.66,0,0,1,.75-.2,65.79,65.79,0,0,1,6.38,4.36c.11-1.67.12-4.66-1.08-6-.14-.16,0-.45.22-.65s.58-.23.72-.07c1.68,1.93,1.22,6.58,1.1,7.52a53.65,53.65,0,0,1,8.9,9.06c0-2.88-.31-8.46-2.41-11.42-.12-.17,0-.46.26-.65s.59-.2.71,0c2.84,4,2.53,12.47,2.48,13.5a46.8,46.8,0,0,1,5.23,9.44c.47-2.85,1.08-7.76.1-9.14-.13-.17,0-.47.26-.66s.58-.2.71,0c1.46,2-.17,10.6-.37,11.62a46.74,46.74,0,0,1,2.81,15.45Z"/><path class="cls-9" d="M513.14,254.25c-.36-.54-.73-1.08-1.1-1.6-7.36-10.22-18.48-17.34-30.74-21.54A84.38,84.38,0,0,0,468,227.74a.46.46,0,0,0-.52.37s0,0,0,0a114.25,114.25,0,0,0,.64,34.38h18.22A47.55,47.55,0,0,0,513.14,254.25Z"/><path class="cls-15" d="M469.79,230.59a.42.42,0,0,0-.59.1.43.43,0,0,0,.1.59,88.15,88.15,0,0,1,9.74,8.36c-2.39-.19-7.85-.59-10.31-.45a.43.43,0,1,0,0,.85c2.88-.17,10.13.44,11.21.54,2.45,2.42,5.16,5.32,8,8.67H468.72a.42.42,0,1,0,0,.84h19.93a129.71,129.71,0,0,1,7.88,10.64c-4,.16-23.17.94-26.47,1.66a.45.45,0,0,0-.22.13h7.61c6.22-.41,14.53-.76,18.1-.9.77-.15,1.54-.33,2.3-.52,2.82-3.56,7.21-13.4,7.23-13.43a.41.41,0,0,0-.22-.55.42.42,0,0,0-.56.21s-4.23,9.47-7,13.07a129.94,129.94,0,0,0-8-10.79,47.62,47.62,0,0,0,4-10.58.42.42,0,0,0-.82-.2,47.56,47.56,0,0,1-3.77,10.08c-2.85-3.43-5.61-6.38-8.1-8.86a30.52,30.52,0,0,0,1.67-5.92.43.43,0,0,0-.35-.49.42.42,0,0,0-.48.35,31.19,31.19,0,0,1-1.49,5.42A90,90,0,0,0,469.79,230.59Z"/><path class="cls-6" d="M533.6,207.45a46.55,46.55,0,0,0-12-15c-9.55-7.88-21.9-11.87-34.6-12.8a83.33,83.33,0,0,0-13.5.12.45.45,0,0,0-.41.49s0,0,0,0c.12,1.15,6.55,62.35,50.82,63.95a47.6,47.6,0,0,0,10.25-29.5h0A48,48,0,0,0,533.6,207.45Z"/><path class="cls-16" d="M475.91,182a.41.41,0,1,0-.29.77A88.81,88.81,0,0,1,487,188.28c-2.32.41-7.62,1.39-9.92,2.14a.42.42,0,0,0-.27.53.42.42,0,0,0,.53.26c2.7-.88,9.74-2.11,10.79-2.29,2.93,1.7,6.23,3.77,9.74,6.26L479.55,200a.42.42,0,0,0-.29.51.41.41,0,0,0,.51.29l18.94-5A127.37,127.37,0,0,1,508.86,204c-3.76,1.14-21.79,6.67-24.75,8.18a.43.43,0,0,0-.18.56.42.42,0,0,0,.56.18c3.05-1.56,22.85-7.6,25.09-8.28,2.76,2.51,5.54,5.26,8.27,8.27l-28.16,9a.42.42,0,1,0,.26.8l28.52-9.11c2.12,2.38,4.22,4.91,6.24,7.61-4.58,1.55-28.09,8.86-28.16,8.89a.4.4,0,0,0-.27.51.42.42,0,0,0,.52.28c.07,0,24.5-7.63,28.44-9q2.61,3.52,5,7.41c-5.56,2.75-24.22,7.59-24.28,7.61a.41.41,0,1,0,.21.8c.06,0,18.92-4.91,24.51-7.7l.56.94q.19-.51.36-1l-.32-.52a80.88,80.88,0,0,0,2.81-15.46c0-.15,0-.3,0-.44a.4.4,0,0,0-.36-.27.41.41,0,0,0-.44.38,80.16,80.16,0,0,1-2.59,14.83q-2.37-3.74-4.89-7.13c.51-1.49,3.51-10.63,3.76-17.09a.42.42,0,0,0-.83,0c-.22,5.8-2.73,13.84-3.54,16.31-2-2.65-4.06-5.14-6.15-7.48a43.44,43.44,0,0,0,4.4-16.38.43.43,0,0,0-.41-.43.41.41,0,0,0-.42.41,42.36,42.36,0,0,1-4.18,15.73c-2.74-3-5.53-5.78-8.3-8.3,1.8-4,3.54-14.59,3.54-14.63a.42.42,0,0,0-.82-.13s-1.66,10.06-3.37,14.17a128.45,128.45,0,0,0-10.27-8.27,47.36,47.36,0,0,0,1.17-11.06.42.42,0,1,0-.84,0,45.89,45.89,0,0,1-1.06,10.52c-3.57-2.54-6.93-4.66-9.92-6.4a30,30,0,0,0,.12-6,.43.43,0,0,0-.46-.38.41.41,0,0,0-.37.45,29.72,29.72,0,0,1-.07,5.52A88.88,88.88,0,0,0,475.91,182Zm52.62,55.14q-.28.54-.6,1.08a62,62,0,0,1-12,3,.42.42,0,1,1-.08-.83A64.83,64.83,0,0,0,528.53,237.12Z"/><path class="cls-17" d="M351.7,90.21s-12.76-3.58-17.81-1.13-10.11,4.56-11.39,7.75-1.75,35.61,0,45.71,16.5,16.06,24,10.05S351.7,90.21,351.7,90.21Z"/><path class="cls-8" d="M523.37,244.86a68.11,68.11,0,0,0-49.1-25.39s-4.06-1.09-1.89,4.48c1.64,4.23,12.22,25.31,35.17,33.57A48.37,48.37,0,0,0,523.37,244.86Z"/><path class="cls-18" d="M522,246.51c-.51-1-.86-1.6-.86-1.61a.59.59,0,0,0-1,.57s.45.8,1.05,2l.85-.93Zm-3,3.1-3.23-2.33c.25-5.11-2.88-10.7-2.88-10.71a.59.59,0,0,0-1,.57s2.67,4.76,2.76,9.31c-3.33-2.38-7-5-10.83-7.57.07-5-2.68-9.91-2.68-9.93a.6.6,0,0,0-.81-.23.59.59,0,0,0-.23.8,22.09,22.09,0,0,1,2.53,8.55c-4-2.74-8.17-5.48-12.18-8,.3-2.57-1.77-7.17-1.78-7.19a.59.59,0,0,0-1.08.48s1.67,3.71,1.72,6c-4.75-3-9.29-5.59-13.17-7.52a.6.6,0,0,0-.79.27.59.59,0,0,0,.26.79c3.47,1.72,7.46,4,11.67,6.59a32.3,32.3,0,0,0-7.59-.07.59.59,0,1,0,.24,1.16c2.57-.53,8.73.23,9.67.36,3.95,2.47,8,5.17,12,7.86-3.44-.3-10-.71-14,.12a.6.6,0,0,0-.46.7.59.59,0,0,0,.7.46c5.19-1.06,14.57,0,15.82.11,3.51,2.41,6.9,4.79,10,7a63.7,63.7,0,0,0-14.57,1,.6.6,0,0,0-.44.71.59.59,0,0,0,.7.44c6.47-1.44,14.81-1,16.08-.9l2.75,2C518.33,250.16,518.63,249.88,518.92,249.61Z"/><path class="cls-3" d="M530.19,233.7a68.14,68.14,0,0,0-30.35-29.56s-3.32-2.57-3.47,3.4c-.12,4.55,1.51,28.15,19.58,44.63A48.38,48.38,0,0,0,530.19,233.7Z"/><path class="cls-4" d="M528.9,236.42c0-1-.1-1.63-.1-1.64a.59.59,0,0,0-1.18.13,26.27,26.27,0,0,1,.09,3.68c.41-.71.81-1.44,1.19-2.17Zm-3.66,6c-1.8-2.87-3.73-5.92-5.74-9a22.82,22.82,0,0,0,1.36-10.2.59.59,0,0,0-.65-.52.58.58,0,0,0-.53.64,22.28,22.28,0,0,1-1,8.86c-2.66-4.07-5.42-8.19-8.15-12.07,1.26-2.26,1.13-7.3,1.13-7.32a.59.59,0,0,0-1.18,0s.1,4.07-.73,6.2c-3.24-4.57-6.41-8.74-9.25-12a.58.58,0,0,0-.83-.06.59.59,0,0,0-.06.83c2.54,2.93,5.34,6.58,8.22,10.58a32.47,32.47,0,0,0-7-3,.59.59,0,0,0-.22,1.16c2.58.51,8,3.59,8.79,4.06,2.68,3.81,5.41,7.87,8,11.89-3.06-1.61-8.91-4.5-13-5.3a.59.59,0,0,0-.69.47.58.58,0,0,0,.46.69c5.2,1,13.45,5.59,14.56,6.21,2,3.06,3.88,6.07,5.64,8.9l.76-1Zm-1.34,1.77-.77,1a57.78,57.78,0,0,0-11.82-3.83.58.58,0,0,1-.47-.68.59.59,0,0,1,.68-.48A60.18,60.18,0,0,1,523.9,244.19Z"/><path class="cls-12" d="M416.25,262.53a12.18,12.18,0,0,1-.71-2.87c-1.52-11,1.45-25.5,20.29-22.83,15.06,2.13,32.39,10.31,41.7,25.7Z"/><path class="cls-19" d="M472.84,262.53a51.88,51.88,0,0,0-5-4.17,19.82,19.82,0,0,0-15.05,3.4c-.23.17-.49.05-.57-.27a.9.9,0,0,1,.26-.9,20.22,20.22,0,0,1,13.06-3.83,50.72,50.72,0,0,0-7.18-3.92.37.37,0,0,1-.19-.09c-1.25-.56-2.57-1.08-3.95-1.56-.61.09-12.62,1.79-17.76,11.34h-1a.79.79,0,0,1,.1-.33c3.94-7.76,12-10.75,16.14-11.8a51.88,51.88,0,0,0-6.93-1.51.3.3,0,0,1-.16,0,56.68,56.68,0,0,0-10.12-.55,26,26,0,0,0-11.62,13c-.13.33-.4.48-.61.33a.79.79,0,0,1-.13-.87,27.33,27.33,0,0,1,9.93-12.31c-1.12.08-2.26.19-3.41.34h0a74.3,74.3,0,0,0-9.57,1.88c-.25.07-.46-.17-.47-.53a.77.77,0,0,1,.43-.77,76.36,76.36,0,0,1,8.47-1.73c-1.25-1.39-3.65-3.73-5.69-3.83-.24,0-.4-.32-.36-.69s.27-.65.51-.64c2.86.15,6.24,4.15,6.91,5a60.62,60.62,0,0,1,14.22-.11c-2.32-2.24-7-6.34-11.06-7-.24,0-.39-.36-.33-.72s.3-.63.54-.59c5.42.82,12,7.68,12.79,8.52a52.52,52.52,0,0,1,11.67,3.15c-1.93-2.6-5.4-6.92-7.28-7.2-.23,0-.38-.36-.32-.72s.29-.63.53-.59c2.79.42,8.4,8.39,9.07,9.35a52.38,52.38,0,0,1,15.81,10.95Z"/><path class="cls-3" d="M490.76,167.07a20.42,20.42,0,0,1,2.35-7.76c4.95-9.37-7.33-9.94-5.86-16s6.92-6.88,5.53-16.58,1.32-17.62,7.12-17.09,10.48,8.47,10.77,17.64,8.85,11.12,12.94,16.88,5.23,10.71-2.83,18.69,12.31,9.27,8.76,31.43A48.08,48.08,0,0,0,490.76,167.07Z"/><path class="cls-4" d="M508.76,172.49c.1-.33.2-.65.29-1,0,0,0-.05,0-.08a31.08,31.08,0,0,0,1.45-7.08,37.73,37.73,0,0,0-11-6.89.57.57,0,0,1,.42-1.05,39.23,39.23,0,0,1,10.53,6.43,8,8,0,0,0-.08-.84c-.48-3.28-2.44-6.25-6.44-10.79a12.69,12.69,0,0,1-2.8-5.32c-1.09-.77-6.84-4.93-8.19-7.61a.57.57,0,0,1,.24-.76.56.56,0,0,1,.76.25c1,2,4.89,5,6.85,6.49-.64-4.18.24-8.77,1.06-13.06.09-.49.19-1,.28-1.45a16.85,16.85,0,0,0-4.73-4.24.57.57,0,0,1-.24-.76.58.58,0,0,1,.76-.24,16.7,16.7,0,0,1,4.47,3.79c.64-3.73.92-7-.4-9.22a.56.56,0,0,1,.19-.77.55.55,0,0,1,.77.19c1.66,2.76,1.15,6.74.33,11.16,0,0,0,.06,0,.09-.1.55-.21,1.1-.32,1.66-.34,1.79-.69,3.64-.94,5.48a66,66,0,0,1,5.62-9.46.56.56,0,0,1,.79-.1.57.57,0,0,1,.09.79c-2.8,3.57-6.33,10.93-6.78,11.89-.18,3.85.46,7.53,3,10.46,4.15,4.71,6.19,7.83,6.71,11.37a16.79,16.79,0,0,1-.34,5.89c2-3.12,5.26-7.48,9.33-10a.56.56,0,0,1,.77.18.55.55,0,0,1-.18.77c-6.32,3.92-10.69,12.56-11,13.17q-.17.59-.36,1.2Z"/><path class="cls-8" d="M339.49,263.59a40.32,40.32,0,0,0-10.36-11.23c-18-14-26.22-20.19-19.85-28.31s17.9-15.45,28.25-1.2c7.67,10.55,13.15,25.75,10.53,40.74Z"/><path class="cls-20" d="M344.26,263.59a43.69,43.69,0,0,0-.43-5.58,18.37,18.37,0,0,0-11.95-7.82c-.26-.05-.35-.29-.19-.56a.85.85,0,0,1,.77-.4,18.76,18.76,0,0,1,11,6.22,47.47,47.47,0,0,0-2-7.3.28.28,0,0,1-.06-.18c-.44-1.19-.94-2.41-1.51-3.63-.45-.36-9.54-7.43-19.35-4.41-.31.1-.55,0-.54-.28a.8.8,0,0,1,.57-.62c7.7-2.37,14.88,1.07,18.24,3.14a49.09,49.09,0,0,0-3.45-5.58.34.34,0,0,1-.09-.12,52.53,52.53,0,0,0-6.15-7.09A24.07,24.07,0,0,0,313,230c-.3.13-.57,0-.61-.19a.73.73,0,0,1,.49-.65,25.32,25.32,0,0,1,14.58-1.32c-.77-.69-1.58-1.38-2.42-2.05l0,0a68.87,68.87,0,0,0-7.42-5.16c-.2-.12-.17-.41.06-.64a.7.7,0,0,1,.78-.22,69.92,69.92,0,0,1,6.61,4.52c.12-1.72.13-4.83-1.11-6.25-.15-.17-.05-.48.22-.68s.61-.24.75-.07c1.75,2,1.26,6.82,1.14,7.8a55.79,55.79,0,0,1,9.24,9.39c0-3-.32-8.77-2.51-11.84-.13-.18,0-.48.27-.68s.61-.21.74,0c2.95,4.13,2.62,12.92,2.57,14a49.1,49.1,0,0,1,5.43,9.79c.48-2.95,1.12-8,.09-9.48-.12-.18,0-.48.27-.68s.61-.2.74,0c1.52,2.13-.17,11-.38,12a48.44,48.44,0,0,1,2.91,16Z"/><path class="cls-6" d="M285.53,196.09a1.39,1.39,0,0,1,2.38-.4c15.17,12.53,17.83,42.16,15.62,57.52l-15.63-5.69C281.92,231.87,278.33,208.19,285.53,196.09Z"/><path class="cls-21" d="M286.3,195.27c.6,1.2,1.63,3.37,2.87,6.36l.71-2.11a.29.29,0,0,1,.36-.18.28.28,0,0,1,.18.36l-.92,2.74c.78,1.9,1.62,4.1,2.49,6.57l1.35-3.59a.28.28,0,0,1,.37-.17.29.29,0,0,1,.16.37l-1.59,4.23c.37,1.09.75,2.23,1.12,3.41l1.69-3a.29.29,0,0,1,.38-.11.28.28,0,0,1,.11.39L293.63,214q1,3.06,1.87,6.5l2.9-3.28a.28.28,0,0,1,.4,0,.28.28,0,0,1,0,.4l-3.16,3.56c.8,3.11,1.56,6.44,2.23,10l2.81-3.95a.28.28,0,0,1,.4-.06.28.28,0,0,1,.06.39L298,231.9c.46,2.51.87,5.12,1.22,7.81l3.12-4.23a.28.28,0,0,1,.45.33l-3.46,4.72c.3,2.5.56,5.08.74,7.71l2.29-2.4a.28.28,0,0,1,.4,0,.28.28,0,0,1,0,.4L300.16,249c.07,1,.12,2,.16,3l-.57-.21v-.2l-5.7-3a.28.28,0,0,1-.12-.38.27.27,0,0,1,.38-.12l5.41,2.81c0-.67-.07-1.34-.12-2,0,0,0-.06,0-.08-.16-2.42-.38-4.79-.64-7.1l-7.51-3.25a.27.27,0,0,1-.14-.37.29.29,0,0,1,.37-.15l7.2,3.12c0-.2-.05-.4-.07-.6a.36.36,0,0,1,0-.1q-.46-3.78-1.1-7.34l-11.07-4.8a.28.28,0,1,1,.23-.52l10.72,4.65-.09-.48a.5.5,0,0,1,0-.12c-.64-3.47-1.37-6.75-2.15-9.83l-10-4.39a.28.28,0,0,1-.15-.37.3.3,0,0,1,.38-.15l9.59,4.22,0-.09a.27.27,0,0,1,0-.12c-.64-2.47-1.32-4.8-2-7a.19.19,0,0,1,0-.12l-.18-.55-8.48-4.16a.28.28,0,0,1,.25-.51l8,3.92c-.3-.93-.6-1.83-.9-2.69a.28.28,0,0,1,0-.12c-.43-1.26-.86-2.45-1.28-3.57l-6.11-3.46a.28.28,0,0,1-.11-.39.29.29,0,0,1,.39-.1l5.52,3.12c-.39-1-.78-2-1.14-2.89a.36.36,0,0,1,0-.09c-1.33-3.25-2.44-5.59-3.08-6.89A1.51,1.51,0,0,1,286.3,195.27Z"/><path class="cls-3" d="M245.88,219.22s-.74-1.75,1.36-2c19.53-2.34,42.83,16.18,52.42,28.37L284.76,253C269.3,246.51,249.69,232.78,245.88,219.22Z"/><path class="cls-22" d="M245.83,218.09c1.28.4,3.56,1.15,6.58,2.31l-1-2a.27.27,0,0,1,.12-.38.28.28,0,0,1,.38.12l1.34,2.55c1.91.75,4.09,1.66,6.48,2.74L258,220a.28.28,0,0,1,.13-.38.3.3,0,0,1,.38.14l2,4.08q1.56.72,3.24,1.53l-1-3.28a.28.28,0,0,1,.19-.35.27.27,0,0,1,.35.18l1.16,3.8q2.87,1.41,6,3.13l-.37-4.36a.28.28,0,0,1,.26-.31.28.28,0,0,1,.3.26l.4,4.74c2.81,1.56,5.75,3.31,8.75,5.26l-.91-4.75a.29.29,0,0,1,.23-.34.28.28,0,0,1,.33.23l1,5.29c2.13,1.4,4.3,2.9,6.49,4.51l-.92-5.18a.29.29,0,0,1,.23-.33.28.28,0,0,1,.33.23l1,5.77c2,1.5,4.06,3.09,6.1,4.78l-.16-3.32a.28.28,0,0,1,.27-.3.27.27,0,0,1,.29.27l.19,3.84c.77.64,1.54,1.3,2.3,2l-.55.27-.15-.13-6.08,2.08a.28.28,0,0,1-.36-.18.29.29,0,0,1,.17-.36l5.77-2-1.53-1.3-.06,0q-2.79-2.33-5.58-4.43l-7.52,3.19a.29.29,0,0,1-.38-.15.29.29,0,0,1,.15-.37l7.23-3.06-.49-.36a.27.27,0,0,1-.08-.07c-2-1.51-4.07-2.93-6.07-4.26L270,240.65a.27.27,0,0,1-.37-.15.29.29,0,0,1,.15-.37l10.77-4.55-.41-.27-.1-.07c-2.95-1.93-5.84-3.66-8.6-5.22l-10.08,4.21a.29.29,0,0,1-.37-.15.28.28,0,0,1,.15-.37l9.67-4-.07,0a.27.27,0,0,1-.12-.06c-2.23-1.24-4.38-2.36-6.42-3.37l-.12-.05-.52-.26-8.86,3.27a.29.29,0,0,1-.37-.16.29.29,0,0,1,.17-.37l8.36-3.08c-.88-.43-1.74-.83-2.57-1.21l-.11-.05c-1.21-.56-2.37-1.07-3.47-1.54l-6.72,2a.27.27,0,0,1-.35-.19.27.27,0,0,1,.18-.35l6.08-1.84q-1.53-.65-2.88-1.17l-.1,0c-3.26-1.28-5.73-2.09-7.11-2.52A1.49,1.49,0,0,1,245.83,218.09Z"/><path class="cls-10" d="M268,263.59a12.61,12.61,0,0,1-.75-3c-1.57-11.45,1.51-26.45,21-23.68,15.61,2.21,33.58,10.69,43.24,26.66Z"/><path class="cls-11" d="M326.66,263.59a52.2,52.2,0,0,0-5.18-4.33c-.52-.11-8.65-1.72-15.61,3.52-.24.18-.5.05-.59-.28a.93.93,0,0,1,.27-.92,20.92,20.92,0,0,1,13.55-4,53.44,53.44,0,0,0-7.45-4.07.28.28,0,0,1-.2-.09c-1.3-.57-2.66-1.11-4.09-1.61-.63.08-13.09,1.85-18.42,11.76h-1a1.4,1.4,0,0,1,.1-.35c4.1-8,12.46-11.14,16.74-12.23a53.71,53.71,0,0,0-7.18-1.57.3.3,0,0,1-.16,0,59,59,0,0,0-10.5-.58,27.1,27.1,0,0,0-12.05,13.46c-.13.34-.42.49-.63.34a.82.82,0,0,1-.14-.91A28.2,28.2,0,0,1,284.41,249c-1.16.08-2.34.2-3.54.35h0a75.47,75.47,0,0,0-9.93,2c-.25.06-.47-.18-.48-.55a.8.8,0,0,1,.44-.8,75.81,75.81,0,0,1,8.79-1.79c-1.3-1.45-3.78-3.87-5.9-4-.25,0-.42-.33-.38-.71s.29-.68.54-.66c3,.15,6.46,4.3,7.16,5.16a61.9,61.9,0,0,1,14.75-.11c-2.41-2.33-7.31-6.58-11.47-7.21-.25,0-.4-.37-.34-.75s.3-.65.55-.61c5.63.85,12.45,8,13.26,8.83a54.8,54.8,0,0,1,12.11,3.27c-2-2.69-5.6-7.17-7.55-7.47-.24,0-.4-.37-.34-.74s.31-.66.56-.62c2.89.44,8.71,8.71,9.4,9.7a54.07,54.07,0,0,1,16.4,11.36Z"/><path class="cls-6" d="M303.53,263.59a50.1,50.1,0,0,1,16.05-23.1c10.18-8.19,23.26-12.23,36.67-13a89,89,0,0,1,14.24.31.47.47,0,0,1,.42.52v0a118.13,118.13,0,0,1-10.66,35.27Z"/><path class="cls-21" d="M367.9,230.11a.43.43,0,0,1,.56.26.44.44,0,0,1-.26.56,93.16,93.16,0,0,0-12.05,5.68A106.79,106.79,0,0,1,366.58,239a.45.45,0,0,1,.28.56.44.44,0,0,1-.56.27c-2.84-1-10.25-2.35-11.36-2.56-3.11,1.75-6.62,3.9-10.35,6.48l19.22,5.31a.44.44,0,1,1-.23.85l-19.93-5.51a133.07,133.07,0,0,0-10.81,8.47c4,1.26,22.9,7.33,26,9a.45.45,0,0,1,.18.6.44.44,0,0,1-.59.18c-3.19-1.69-24-8.32-26.35-9.07-2.95,2.61-5.92,5.48-8.85,8.61l4.31,1.44h-2.78l-2.18-.73-.66.73h-1.18c.4-.45.79-.89,1.19-1.32a46.3,46.3,0,0,1-4.43-17.34.44.44,0,0,1,.44-.44.44.44,0,0,1,.44.43s0,7.27,4.2,16.65c2.93-3.15,5.91-6,8.87-8.64-1.85-4.3-3.54-15.45-3.54-15.48a.43.43,0,1,1,.86-.13s1.62,10.63,3.38,15a132.76,132.76,0,0,1,10.94-8.59A49.66,49.66,0,0,1,342,232a.44.44,0,0,1,.88,0,49.48,49.48,0,0,0,1,11.12c3.79-2.64,7.37-4.83,10.54-6.62a31.81,31.81,0,0,1,0-6.38.44.44,0,0,1,.88.09,30.13,30.13,0,0,0,0,5.83,92.41,92.41,0,0,1,12.66-6Zm-61.82,33.48-.06-.83a.45.45,0,0,1,.41-.47.45.45,0,0,1,.47.42c0,.29,0,.59.05.88Zm6.54,0A55,55,0,0,1,311,252.85a.44.44,0,0,1,.42-.45.43.43,0,0,1,.45.43,55.33,55.33,0,0,0,1.71,10.76Z"/><path class="cls-23" d="M521.22,262.53H268.41A6.46,6.46,0,0,0,262,269h0a6.46,6.46,0,0,0,6.44,6.45h18a4.17,4.17,0,0,1,4.15,4.15h0a4.17,4.17,0,0,1-4.15,4.15H277a4.74,4.74,0,0,0-4.73,4.72h0a4.75,4.75,0,0,0,4.73,4.73H504a4.75,4.75,0,0,0,4.73-4.73h0a4.74,4.74,0,0,0-4.73-4.72H491.3a4.17,4.17,0,0,1-4.15-4.15h0a4.17,4.17,0,0,1,4.15-4.15h29.92a6.46,6.46,0,0,0,6.44-6.45h0a6.46,6.46,0,0,0-6.44-6.44ZM263.7,283.72H264a4.74,4.74,0,0,1,4.73,4.72h0a4.75,4.75,0,0,1-4.73,4.73h-.32a4.74,4.74,0,0,1-4.72-4.73h0A4.74,4.74,0,0,1,263.7,283.72Z"/><rect class="cls-24" x="297.29" y="53.3" width="3.8" height="160.77" rx="1.9"/><rect class="cls-25" x="295.91" y="173.17" width="6.56" height="92.05" rx="3.28"/><path class="cls-26" d="M315.35,262.53h0a5.54,5.54,0,0,1-5.52,5.52H288.56a5.53,5.53,0,0,1-5.52-5.52h0a5.53,5.53,0,0,1,5.52-5.51h21.27A5.54,5.54,0,0,1,315.35,262.53Z"/><rect class="cls-27" x="268.61" y="41.83" width="61.16" height="14.88" rx="2.39"/><rect class="cls-24" x="270.24" y="43.46" width="57.91" height="11.63" rx="0.76"/><rect class="cls-27" x="268.61" y="62.02" width="61.16" height="14.88" rx="2.39"/><rect class="cls-24" x="270.24" y="63.65" width="57.91" height="11.63" rx="0.76"/><rect class="cls-28" x="273.8" y="66.19" width="2.47" height="1.91" rx="0.27"/><rect class="cls-28" x="273.8" y="70.83" width="2.47" height="1.91" rx="0.27"/><path class="cls-29" d="M300.42,176.84v81.83h2.05V176.45a3.27,3.27,0,0,0-3.28-3.28,3.45,3.45,0,0,0-1,.16,3.31,3.31,0,0,1,2.25,3.12Z"/><text class="cls-30" transform="translate(275.21 52.04)">TRAVELING</text><rect class="cls-28" x="285.56" y="68.68" width="34.81" height="1.58" rx="0.22"/><path class="cls-4" d="M321.14,69.9h0l.06-.09h0v0h0v0h0v0h0l0-.11h0v0h0v0h0v0h0v0h0v-.05h0v0h0l0-.11h0v0h0v0h0v0h0v0h0l-.06-.09h0l-2.78-3.54a.68.68,0,0,0-1-.12.69.69,0,0,0-.12,1l2.45,3.13-2.45,3.13a.68.68,0,1,0,1.08.84Z"/><rect class="cls-28" x="280.44" y="68.68" width="3.22" height="1.58" rx="0.39"/><path class="cls-31" d="M427.42,120.35c.34-2.63-5.56-6.74-5.56-6.74-6.26,9.11-9.05,18.49-18.07,29.13-7.32,8.62-17.66,15.58-20,17.77-2.76,2.6-1.84,3,.13,1.67s16.38-9.32,22.93-15.58S427.42,120.35,427.42,120.35Z"/><path class="cls-32" d="M412.45,130.14c-.62,1.1-1.27,2.2-2,3.32a5.57,5.57,0,0,1,1.22,2.62c.62,3.2-5.82,9.53-8.3,11.65-1.31,1.12-3.29.93-4.86.51-.72.68-1.44,1.35-2.16,2a21.11,21.11,0,0,0,1,3.6,72.24,72.24,0,0,0,9.47-7.23c3.21-3.06,8.2-9.42,12.47-15.11C417.74,129.86,415.53,129.21,412.45,130.14Z"/><path class="cls-32" d="M445.92,264.18l1.6-1.14s-3.46-.22-1.39-1.84c.57-.45,2.58-1.76,3.63-2.48.54-.38.11-1.63,0-4l3.34,0c.05,1.2.11,2.33.18,3.38.09,1.27.61,1.51.74,2.49l-.4,2-2.14.23-5.44,1.85Z"/><path class="cls-33" d="M446.92,261.14a1.91,1.91,0,0,0-1.47.42,7,7,0,0,0-1.79,2.28c0,.38.2.89,1.16,1s4.76.22,5.95-.28,1.89-1.49,2.38-1.55,1.81-.59,1.2-2.4c0,0-.19-.4-.37-.41s-.13.86-1.48,1.54S450.51,261.31,446.92,261.14Z"/><path class="cls-32" d="M414.4,263.29l.56-1.44a13.69,13.69,0,0,0,3.71-2.27c.68-.56,2.52-1.52,2.78-2.23a16.37,16.37,0,0,0,.22-3.48h2.53c.05,1.14.1,2.21.17,3.19.09,1.2.58,1.41.7,2.33l-.38,1.87-2,.32-5.15,2Z"/><path class="cls-33" d="M425.07,259.39a1.86,1.86,0,0,1,.36.71,6.62,6.62,0,0,1-.49,2.35c-.18.28-3.29.23-4.3.61s-4.24,1.12-5.64.81-1.13-1-.6-1.78a14.88,14.88,0,0,1,3.27-2.47C420.05,258.16,424.05,263.27,425.07,259.39Z"/><path class="cls-34" d="M438.77,140.69c3.24,6.1.65,13.94.24,20.1a290.64,290.64,0,0,1-6.94,43.47,12.57,12.57,0,0,0-.59,4.4,135.82,135.82,0,0,1-1.75,22.61c-1.66,10.39-4.29,19.86-5,25.09-.3,1.25-3.44,1-3.48.5,0,0,.51-36.41.72-51.77.16-11.72,2.11-35.44,3.51-59C438.56,137.36,438.18,139.57,438.77,140.69Z"/><path class="cls-34" d="M430,139.12c1-.11,2-.2,2.95-.26a35.31,35.31,0,0,1,4.55-1.18l.62,1.28a6.13,6.13,0,0,1,2.55.8,1.36,1.36,0,0,1,1.1-.23s-.64,2.86.52,4.08c6.22,6.53,8.82,10.43,9.54,17.6,1.36,13.45.83,30.68,0,43.85a12.28,12.28,0,0,0,.16,4.38c3.57,15.26,1.21,32.36,1.63,47.62,0,.68-3.7,1.74-3.76.54,0,0-5.07-35.4-7.43-50.41-1.79-11.47-3.89-22.39-6.44-45.62C436,161.57,430.3,150.52,430,139.12Z"/><path class="cls-35" d="M414.25,76c1.18-7.87,7.85-9.78,10.21-8.54,0,0,8.33-6.31,14.56-1.65,12,9,16.35,41.66,4.12,49.87a8.61,8.61,0,0,0-1.81-5.55c1.35,2,1.33,5.83,1.33,6-.37.31-.74.61-1.14.89a11.49,11.49,0,0,0-2-6c.6,2.34.08,5.5-.36,7.44C415.54,130.24,411.45,94.55,414.25,76Z"/><path class="cls-36" d="M448.14,80.69c4,9.51,3.44,29-4.2,36.15a12.13,12.13,0,0,0-2.61-6.73c1.35,2,1.33,5.83,1.33,6-.37.31-.74.61-1.14.89a11.49,11.49,0,0,0-2-6c.6,2.34.08,5.5-.36,7.44-9.16,4.6-9.39,5.21-14.71-1.4l3.71-9.71-5.48-18.1-1.26-12S437,89.21,448.14,80.69Z"/><path class="cls-17" d="M435.09,90.15l3.59-2.84c12.53-2.16,8.77,19.93,2.91,26-3.84,4-13.41,1.07-14,.51-8.11-7.57-9.33-19.93-9.56-21.57C417.29,86.89,435.09,90.15,435.09,90.15Z"/><path class="cls-4" d="M426.1,111.34s.4-.82.37-.82a17,17,0,0,0-3.85,2.06c-2.41,1.71-8.46,13.3-11.55,18-.69,1-.58,1.27,0,2.07s4.71,4.31,5.84,4.35,3.44-5.37,3.44-5.37C423.55,123.89,427.74,119.42,426.1,111.34Z"/><path class="cls-37" d="M426.1,111.34s.4-.82.37-.82a17,17,0,0,0-3.85,2.06,17,17,0,0,0-3.1,3.94c1.23,4.75.25,11.37-2.61,14.39a8.46,8.46,0,0,1-5.06,2.61c1.42,1.32,4.15,3.46,5,3.49,1.13,0,3.44-5.37,3.44-5.37C423.55,123.89,427.74,119.42,426.1,111.34Z"/><path class="cls-4" d="M448.38,111.32c-6.82-3.52-12.2-1.88-20.85-1.23-5.83,1.36-12.93,21-6.34,27.33h0c1.22,5.74,2.68,9.44,3.24,13.76.94,7.28,24.75,1.05,23.54-2.23-3.83-10.4-2.21-15.12.22-20.11h0C451.31,118.48,449,112.58,448.38,111.32Z"/><path class="cls-37" d="M448.28,111.12c-4.45-2.47-7.21-2.05-11.59-1.71l-4,2.18s9.09-4.34,10.45,4.07-4.32,18.4-8.21,20.11-7.61-3.81-10.75-.78-5.26-.41-5.42-.67a14.82,14.82,0,0,0,2.43,3.1h0c.1.49.21,1,.32,1.44,6.81-1.6,16.78-1.73,17.41,4.57.6,5.95-4,9.45-7.28,11.18,7.05-.08,17.06-3.51,16.33-5.66-3.52-10.32-2.44-14.68.11-19.72a2.85,2.85,0,0,1,.11-.39C451.53,117.73,448.61,111.75,448.28,111.12Z"/><path class="cls-38" d="M435.32,97.19l.38,3s1,6,1.19,6.93,1.31,2.35,4,2c2.19-.27-4.27,4.66-8.81,4.92-4.7.27-6.71-3.12-5.05-3.81a3.09,3.09,0,0,0,1.23-1.17c.82-1.27-.07-6.15-1.3-7.25S435.32,97.19,435.32,97.19Z"/><path class="cls-4" d="M421.3,117.5c-1.89,7.7-7.28,13.07-.11,19.92h0c.43,2,1,3.83,1.45,5.47,2.73.53,4.05-1.53,6.75-2.66a9.35,9.35,0,0,0,5.12-6.24,38.48,38.48,0,0,0,0-9.59c-.18-.77-2.65-3.07-4.92-5C424.7,115.06,427.86,115.53,421.3,117.5Z"/><path class="cls-37" d="M439,132.13c-3.64,3.07-19.86,3-20.3,2.31a14.53,14.53,0,0,0,2.54,3h0c.1.49.21,1,.32,1.44a30.56,30.56,0,0,1,10.85-.7C433,137.51,440.06,135.18,439,132.13Z"/><path class="cls-38" d="M440.91,87.34a3.3,3.3,0,1,1-2.82,3.71A3.29,3.29,0,0,1,440.91,87.34Z"/><path class="cls-31" d="M426.71,72.46h0a11.32,11.32,0,0,1,12.72,9.65l1.39,10.17A11.32,11.32,0,0,1,431.17,105h0a11.33,11.33,0,0,1-12.72-9.66l-1.39-10.16A11.32,11.32,0,0,1,426.71,72.46Z"/><path class="cls-32" d="M438.81,79.68a11.4,11.4,0,0,1,.62,2.43l1.39,10.17A11.32,11.32,0,0,1,431.17,105c11.63-4,4.62-17.27.76-18.09s-7.62-5.13-9.52-4.5-4.93,5.75-4.88,6.19l-.47-3.42a11.1,11.1,0,0,1,.1-3.69c1-.29,2.16-4.7,4.32-5,2.57-.31,6.32,3.53,9.25,3.12a28.88,28.88,0,0,1,8.08,0ZM431.17,105"/><path class="cls-17" d="M421,92.59h0a1.12,1.12,0,0,1,1.31.86l.28,1.41a1.11,1.11,0,0,1-.87,1.31h0a1.12,1.12,0,0,1-1.3-.87l-.28-1.41A1.11,1.11,0,0,1,421,92.59Z"/><path class="cls-17" d="M433.32,90.1h0a1.1,1.1,0,0,1,1.3.87l.28,1.41a1.11,1.11,0,0,1-.86,1.3h0a1.11,1.11,0,0,1-1.3-.86l-.29-1.42A1.11,1.11,0,0,1,433.32,90.1Z"/><path class="cls-38" d="M421.11,97a1.63,1.63,0,1,1-1.28,1.93A1.64,1.64,0,0,1,421.11,97Z"/><path class="cls-38" d="M434.88,94.23a1.64,1.64,0,1,1-1.28,1.93A1.65,1.65,0,0,1,434.88,94.23Z"/><path class="cls-36" d="M441.6,87.32l-2.53-.68s-.89,3.09,1.5,3.79L440.38,89A1.39,1.39,0,0,1,441.6,87.32Z"/><path class="cls-35" d="M421.43,77.18s2.34,8.21,19.48,10.16l-1.84-12.08-9.3-4.81-8.11,2.24s-4,3.53-4.37,4.21-1.83,8.88-1.83,8.88l1.83,1.11S420.63,84.79,421.43,77.18Z"/><path class="cls-36" d="M421.43,77.18s2.34,8.21,19.48,10.16l-.56-3.66C430.9,84.49,421.43,77.18,421.43,77.18Z"/><path class="cls-17" d="M431.36,98.58a2.92,2.92,0,0,1-5.71,1.26h0a.5.5,0,0,1,.38-.6l4.71-1a.51.51,0,0,1,.6.39Z"/><path class="cls-39" d="M430.79,101a2.92,2.92,0,0,1-1.65,1,2.88,2.88,0,0,1-1.6-.1,1.8,1.8,0,0,1,1.39-1.41A1.86,1.86,0,0,1,430.79,101Z"/><path class="cls-4" d="M426,99.26l4.42-1a1,1,0,0,1-.24,1.2,12.92,12.92,0,0,1-3.87.65A1.74,1.74,0,0,1,426,99.26Z"/><path class="cls-17" d="M430.41,87.57a.47.47,0,0,0,.63.69,3,3,0,0,1,2.68-.69.46.46,0,0,0,.57-.34.48.48,0,0,0-.34-.57A4,4,0,0,0,430.41,87.57Z"/><path class="cls-17" d="M422.1,88.88a.48.48,0,0,1,.34.57.47.47,0,0,1-.57.34,3,3,0,0,0-2.68.67.47.47,0,0,1-.66,0,.46.46,0,0,1,0-.66A4.05,4.05,0,0,1,422.1,88.88Z"/><path class="cls-40" d="M417.32,69.55a7.71,7.71,0,0,1,6.32-2.39c6.33,15.19,18.67,12.31,23.22,10.62l.51,1.12C433.81,87.35,421.3,74.37,417.32,69.55Z"/><path class="cls-37" d="M363.17,92.06s4.11,0,7.23,6.7,4.6,16.65,5.31,18.19c0,0,.19.26-.19.45s-6.67,2.62-10.33,1.77a.49.49,0,0,1-.31-.46,46,46,0,0,0-2.25-7.61C361.27,107.68,357.26,97.69,363.17,92.06Z"/><path class="cls-34" d="M365.86,156l1.42,1.65s-.93,14.41-3.06,33-5.39,62-5.3,65.25-5.26,1.39-5.93.46.86-76.18.33-82.18c-.19-2.1-3.51-1.31-4.81,2.86-2.41,7.78-2.67,33.83-3.42,43.18-1.15,14.37-3.26,36.31-3.1,37.47s-4.7,2.33-5.68.47a2.2,2.2,0,0,1-.13-1.27c.06-1-1.79-100.9-.55-103.35S362.94,149.88,365.86,156Z"/><path class="cls-41" d="M365.86,156l1.42,1.65s-.21,3.23-.66,8.61c-1.74-1.84-2.77-4.06-10.61-3.71s-16.58,7.45-17.47,18.94-1.15,66.07-.6,70.55,3.45,4.11,4.38.33c-.24,3-.38,5-.33,5.31.15,1.17-4.7,2.33-5.68.47a2.2,2.2,0,0,1-.13-1.27c.06-1-1.79-100.9-.55-103.35s27.31-3.63,30.23,2.47ZM359,254.67c-2.42.73-4.22-.08-4.3-3.33s2.9-74.9,1.31-76.57-4.14-.71-4.14-.71h0a1.14,1.14,0,0,1,1.49,1.07c.53,5.93-1,80.3-.33,81.22s6,2.8,5.93-.46C358.91,255.65,358.93,255.23,359,254.67Z"/><path class="cls-33" d="M357.22,256.61a3.35,3.35,0,0,1,2.43-.47c1.25.32,8.53,3.76,9.7,4.23s2.4,2.27,1.48,3.29-7.07.91-10.32.27a22.06,22.06,0,0,0-7-.12c-1.19.09-2.6-2.51-1.44-6.26S352.89,257.29,357.22,256.61Z"/><path class="cls-42" d="M357.22,256.61a3.35,3.35,0,0,1,2.43-.47l.38.12c-1,.24-3.14.88-3.56,2.26s-.62,3.58.83,5.07a30,30,0,0,0-3.77.22c-1.2.09-2.6-2.51-1.44-6.26S352.89,257.29,357.22,256.61Z"/><path class="cls-4" d="M371,262.14a1.43,1.43,0,0,1-.19,1.52c-.93,1-7.07.91-10.32.27a22.06,22.06,0,0,0-7-.12c-.75.06-1.59-.95-1.81-2.64.89,1.23,2.43,1.34,5.38,1.11s5.85.56,9.69.92C369.47,263.45,370.59,262.65,371,262.14Z"/><path class="cls-43" d="M357.3,263.59a30,30,0,0,0-3.77.22c-.75.06-1.59-.95-1.81-2.64.83,1.15,2.21,1.32,4.77,1.15A3.76,3.76,0,0,0,357.3,263.59Z"/><path class="cls-33" d="M341.47,257.61a3.44,3.44,0,0,0-4.7-.5,3.75,3.75,0,0,0-1.94,1.76c-.53,1.24-1.53,1.8-1.71,3.15s.24,2.41,2.09,2.41h3c1.32,0,3.29.2,4-1.44s0-3.15.24-4S341.47,257.61,341.47,257.61Z"/><path class="cls-42" d="M341.47,257.61a3.44,3.44,0,0,0-4.7-.5,3.75,3.75,0,0,0-1.94,1.76c-.53,1.24-1.53,1.8-1.71,3.15s.24,2.41,2.09,2.41h1.65c-2.64-2.16-.36-6.38,1.75-6.75a5.47,5.47,0,0,1,3.82,1.24C342.58,258.11,341.47,257.61,341.47,257.61Z"/><path class="cls-4" d="M333.1,262.27c-.09,1.23.38,2.16,2.11,2.16h3c1.32,0,3.29.2,4-1.44a3.87,3.87,0,0,0,.28-1.1s-.77,1.07-3.32,1.23S333.54,263.31,333.1,262.27Z"/><path class="cls-43" d="M333.1,262.27c-.09,1.23.38,2.16,2.11,2.16h1.65a3.25,3.25,0,0,1-.94-1.25C334.5,263.12,333.35,262.88,333.1,262.27Z"/><path class="cls-44" d="M365.05,100.17c-1.64-1.08-2.68-.33-4.66,1.39s-3.73,1.44-4.79,1.78-2.2,17.29,4.33,20.27c2.42,1.1,4,.2,5.12-1.76C367,118.33,369.32,103,365.05,100.17Z"/><path class="cls-4" d="M332.58,152.47c1.25,3.23,8.3,5.77,13.95,7h0c1.35.29,2.62.51,3.71.64a8.49,8.49,0,0,0,2,0c2.72.14,14.65-.57,16.3-2.92h0c.84-1.22.52-3.1.27-4.78-.46-3-2.63-9-1-23.1,1.53-13.6,6-36.36-7-40.06-.44-.12-1-.19-1.44-.28a2.48,2.48,0,0,0,.18.9h-.62s1.17,4.35-1.67,5.63-5.81-.85-7.07-2.55a.83.83,0,0,0-.66-.37c-.87-1.26-1.85-2.53-2.93-3.83a40.29,40.29,0,0,0-8.28,2.5c-2.57,1-5.82,2.92-6.41,5.47-.84,3.63,2.72,16.55,4.91,24.65C340.4,134.94,330.48,147,332.58,152.47Z"/><path class="cls-37" d="M332.58,152.47c1.21,3.12,7.83,5.6,13.37,6.86-6.84-4.54-8.08-12.43-5.41-24.5s-.88-30.55-.88-30.55L337.43,106l-4.3,1.27c1.06,4.73,2.52,10,3.62,14.12C340.4,134.94,330.48,147,332.58,152.47Z"/><path class="cls-41" d="M368.86,120.52a87.9,87.9,0,0,0,.77-16.81c-13.39,2.56-27.43,1.75-37.13.55,1,5.29,2.86,12,4.2,17A140.74,140.74,0,0,0,368.86,120.52Z"/><path class="cls-45" d="M341.5,121.56A124.32,124.32,0,0,0,339.79,105l-1-.08-1.4,1.08-4.3,1.27,0,.11,0,.12,0,.14v.08l0,.19v0l.06.23h0l.05.21v.07l0,.16,0,.11,0,.11,0,.16,0,.07.1.45h0v0l0,.2,0,.07,0,.16,0,.12,0,.11.06.23.05.21v0l.06.23v0l.05.2,0,.08,0,.15,0,.13,0,.1,0,.17v.06l0,.22h0l.06.23v0l0,.19,0,.09,0,.14,0,.13,0,.1.05.18v0l.06.23h0l.06.23v0l.05.19,0,.09,0,.14,0,.14,0,.09,0,.18v0l.06.23h0l.06.23,0,0,0,.17,0,.1,0,.13,0,.14,0,.09,0,.18v0l.06.22h0l.06.22v0l0,.17,0,.1,0,.12,0,.15,0,.07.05.19v0l.06.22h0l.05.21,0,.06,0,.15,0,.11,0,.11,0,.14v.07l.06.19v0l.06.21v0l.06.19V119l0,.15,0,.1,0,.1,0,.15v.06l.05.19v0l.11.4,0,.07,0,.13,0,.11,0,.09,0,.15v0l.05.19h0l.05.2v0C338.24,121.35,339.85,121.46,341.5,121.56Z"/><path class="cls-38" d="M348.48,77.7l-.06,2.88s-.41,5.87-.47,6.76c0,.43-.52,1-1.33,1.53,4,7.9,13.48,9.33,12.4.12-.5-.16-1.41-.26-1.76-.66-1-1.13-.62-5.9.55-7.09S348.48,77.7,348.48,77.7Z"/><path class="cls-17" d="M335.49,92.62s4.88,2.91,6.15,11.38-2.79,20.69-5.78,23.54a2.07,2.07,0,0,0-.15,1.08c.13.43.39.35.67.44s8.89-5.17,9.87-17.76-3.39-20.6-4.31-21.41c0,0-.13-.26-1-.25S335.07,91.1,335.49,92.62Z"/><path class="cls-17" d="M360.74,89.26s10.79,9.15,8,32.1C372.15,116.94,372.16,89.51,360.74,89.26Z"/><path class="cls-46" d="M360.31,89.16a12.24,12.24,0,0,0-1.66-.27c2,6.71-7.66,7.42-11.51-.39-.46,0-2.08.52-2.59.63C347.66,98.13,363.6,101.53,360.31,89.16Z"/><path class="cls-38" d="M370.85,70.76a3.74,3.74,0,1,0,2.7,4.55A3.75,3.75,0,0,0,370.85,70.76Z"/><path class="cls-38" d="M346,64.41a3.74,3.74,0,1,0,2.7,4.55A3.73,3.73,0,0,0,346,64.41Z"/><path class="cls-31" d="M364,49.48h0a12.84,12.84,0,0,0-15.59,9.23L345.49,70a12.86,12.86,0,0,0,9.23,15.59h0a12.85,12.85,0,0,0,15.59-9.23l2.89-11.28A12.84,12.84,0,0,0,364,49.48Z"/><path class="cls-32" d="M349.39,56.05a13.05,13.05,0,0,0-1,2.66L345.5,70a12.84,12.84,0,0,0,9.22,15.59c-12.59-6-4-21.72.44-22.14s13.21,1.46,15.45,2.5a2.53,2.53,0,0,1,1.61,2.93l1-3.8a12.63,12.63,0,0,0,.36-4.17c-2.4-1-9.07-2.29-15.05-3.82a32.47,32.47,0,0,0-9.12-1Zm5.33,29.52"/><path class="cls-17" d="M367.9,71.5h0a1.26,1.26,0,0,0-1.53.9L366,74a1.26,1.26,0,0,0,.91,1.53h0a1.26,1.26,0,0,0,1.52-.9L368.8,73A1.26,1.26,0,0,0,367.9,71.5Z"/><path class="cls-17" d="M354,68h0a1.26,1.26,0,0,0-1.53.9l-.4,1.58A1.25,1.25,0,0,0,353,72h0a1.26,1.26,0,0,0,1.52-.9l.41-1.59A1.26,1.26,0,0,0,354,68Z"/><path class="cls-17" d="M370.39,68.9,367,68a.68.68,0,0,0-.83.49h0a.68.68,0,0,0,.49.83l3.43.88a.69.69,0,0,0,.83-.49h0A.69.69,0,0,0,370.39,68.9Z"/><path class="cls-17" d="M356.53,65.35l-3.43-.88a.69.69,0,0,0-.83.49h0a.68.68,0,0,0,.49.83l3.43.88a.69.69,0,0,0,.83-.49h0A.69.69,0,0,0,356.53,65.35Z"/><path class="cls-4" d="M355.25,75.61a4.07,4.07,0,0,0,7.89,2h0a.7.7,0,0,0-.51-.85l-6.52-1.67a.69.69,0,0,0-.85.51Z"/><path class="cls-38" d="M367.46,76.49a1.85,1.85,0,1,0,1.34,2.26A1.86,1.86,0,0,0,367.46,76.49Z"/><path class="cls-38" d="M352,72.54a1.85,1.85,0,1,0,1.33,2.25A1.85,1.85,0,0,0,352,72.54Z"/><path class="cls-17" d="M375.59,62.68l-2.79,1.68s0-4.43-9.35-5.4,10.39-6.29,12.09-4.74S378.17,59.29,375.59,62.68Z"/><path class="cls-35" d="M348.26,64.45a4.25,4.25,0,0,0,1.17-3.15c-.13-1.93,2.63.14,2.74-4.27,0,0,8.61,3.19,13.83,1.46s9.38-2.13,10.14-.27-5.35,5.23-4.54,13.06c2.62-9.72,10.83-7.92,6.6-18.93-1.95-5.07-3.91-6.89-7-5.59a8.88,8.88,0,0,1-5,.59c-4.37-.67-14.63-6.34-17.1,3.31,0,0-6.25.49-3.84,13.63a1.59,1.59,0,0,1,1.16,2.1l-.4,1.54C348.1,67.58,348.29,65.49,348.26,64.45Z"/><path class="cls-40" d="M378.69,53.74c-.14-.44-.3-.9-.49-1.39a21.64,21.64,0,0,0-1.63-3.45c-2.54,1.65-9,5.29-15.89,4.67-5.94-.53-6.43-5-5.58-8.45a6,6,0,0,0-1,.13C352.53,50.53,352.56,60.32,378.69,53.74Z"/><path class="cls-17" d="M348.26,64.45a4.25,4.25,0,0,0,1.17-3.15c-.13-1.93,2.63.14,2.74-4.27,0,0,6.21,2.3,11.28,1.93C345.56,57,353,45.63,353.08,45.55c-1.78.68-3.23,2.2-4,5.11,0,0-6.25.49-3.84,13.63a1.59,1.59,0,0,1,1.16,2.1l-.4,1.54C348.1,67.58,348.29,65.49,348.26,64.45Z"/><path class="cls-31" d="M329.88,123c1.25,7.72,2.09,18.61,12.41,10.91,5.1-3.8,10.41-14.58,10.22-15.92-.14-1,0-2.53-.84-1.91-.25.19-.15,1.59-1.44,2.84s-8.91,11.58-11.52,10.33c-.63-.09-1.31-2.5-1-6.25Z"/><path class="cls-32" d="M340.16,129.15a1.7,1.7,0,0,1-1.45.14c-.25,0-.52-.45-.72-1.19.36,1.42-1.35,1.17-1.52,1.43a.21.21,0,0,0,.09.34,7.16,7.16,0,0,0,3.6-.72Z"/><path class="cls-32" d="M329.88,123c1.1,6.8,1.88,16,9.09,12.91-4.68,1.52-6.39-3.28-6.57-5.46a4.3,4.3,0,0,1,2.91-4.77,6.28,6.28,0,0,1,2.33-.38c0-.7,0-1.46.08-2.3Z"/><path class="cls-4" d="M334.84,93s-4,1-5.61,9.27S328.36,122,328,123.94a.34.34,0,0,0,.29.45c.42.11,7.08,1.28,10.47-.58a.6.6,0,0,0,.2-.59,60.14,60.14,0,0,1,.55-9.06C340.08,110,341.83,97.85,334.84,93Z"/><path class="cls-31" d="M374.47,117.79c.64,2.12,1.38,5.51.28,7.33-1.67,2.76-5.39,3.85-7.79-.3s-3.79-7.13-3.86-8.08.66-1.57,2.19-1.31,4.11,4.7,4.11,4.7a8.63,8.63,0,0,0,.36-1.06h0A31.05,31.05,0,0,0,374.47,117.79Z"/><path class="cls-32" d="M374.47,117.79c.12.39.24.81.35,1.26-2.09-.71-4.63,1-4.43,2.29s.18,1.64-1.07-.16-2.64-2.46-4-2a1.51,1.51,0,0,0-.92.93,12.87,12.87,0,0,1-1.33-3.4,1.21,1.21,0,0,1,.24-.87c.3,0,1.3-.09,2.57-.15,1.51,1,3.49,4.41,3.49,4.41a8.63,8.63,0,0,0,.36-1.06h0A31.05,31.05,0,0,0,374.47,117.79Z"/><path class="cls-15" d="M353.66,110.29l16.73-4.85a.77.77,0,0,1,.64.08h0l1.52,1-1.2,1v6.83a1.48,1.48,0,0,1-1,1.36l-14,4.05-2,1.64-1.36-.9h0a.82.82,0,0,1-.37-.73v-8.15A1.48,1.48,0,0,1,353.66,110.29Z"/><path class="cls-17" d="M355.05,111.21l16.72-4.85a.75.75,0,0,1,1,.8v8.14a1.48,1.48,0,0,1-1,1.36l-16.72,4.85a.75.75,0,0,1-1-.8v-8.14A1.48,1.48,0,0,1,355.05,111.21Z"/><path class="cls-35" d="M367.33,109.24l4.06-1.13a.14.14,0,0,1,.19.15v1.56a.29.29,0,0,1-.19.26l-4.06,1.13a.14.14,0,0,1-.19-.15V109.5A.27.27,0,0,1,367.33,109.24Z"/><path class="cls-17" d="M368,109.52c.23,0,.41.18.41.48a.57.57,0,0,1-.41.6c-.23,0-.42-.18-.42-.48A.58.58,0,0,1,368,109.52Z"/><path class="cls-17" d="M369.36,109.12c.23,0,.41.18.41.48a.57.57,0,0,1-.41.6c-.23,0-.42-.18-.42-.48A.58.58,0,0,1,369.36,109.12Z"/><path class="cls-4" d="M370.73,108.67c.23,0,.41.19.41.49a.57.57,0,0,1-.41.6c-.23,0-.42-.18-.42-.48A.6.6,0,0,1,370.73,108.67Z"/><path class="cls-31" d="M350.62,118.54c.66-1.85-.21-4.22,2.06-4.66v1.2s.05,1.2.55,1.2.84-.26.84-.72c1-4.71,4.75-4.88,3.3,1.41-1.17,5-5.28,3-6.92,6.17Z"/><path class="cls-33" d="M394.85,260.83c.25,0,3.86,1.68,4,2.49s-.73,1.11-2.42,1.11a15.86,15.86,0,0,1-4.29-.34c-.4-.27.16-3.08,1.07-3.37A2.13,2.13,0,0,1,394.85,260.83Z"/><path class="cls-33" d="M383.43,260.83c-.25,0-3.85,1.68-4,2.49s.72,1.11,2.42,1.11a15.9,15.9,0,0,0,4.29-.34c.39-.27-.16-3.08-1.08-3.37A2.14,2.14,0,0,0,383.43,260.83Z"/><path class="cls-34" d="M402.75,213l1.7,3.08s-.5,4.68-1.87,11.8-7.08,33.19-7.13,33.31a3.71,3.71,0,0,1-2,.24c-.31-.23,1.16-35.13,1.29-37.15s-5-1.47-6,.62-3.66,36-3.82,36.42-1.25.39-1.45,0-5.94-38.89-4.65-45.32S402.75,213,402.75,213Z"/><path class="cls-41" d="M395.45,261.17c-.3.57-1.72.46-2,.24s1.16-35.13,1.29-37.15c.09-1.29-2-1.53-3.71-1h0s3.44-1.18,5.29.17-1.63,32.52-1.79,34.84S395.13,260.65,395.45,261.17Z"/><path class="cls-41" d="M403.53,208.69l1,6.5s-.24,2.12-.51,4.23c-1.12-1-19.27-3.58-22.05.92-2.33,3.78,1.15,33.56,1.62,36.77s.83,3,1.43,3.58a1.88,1.88,0,0,1-.06.57c-.09.26-2,.38-2.18,0s-5.14-38.92-3.85-46.12c.49-2.75,4-8.52,8.29-8.89C391.88,207.24,398.8,208.13,403.53,208.69Z"/><path class="cls-33" d="M391.19,207.85H378.5a6.87,6.87,0,0,1,.46-2.27,8.34,8.34,0,0,1-.63-4.74c.44-1.78,2.76-9.86.13-15.43h0c-2-6.1,2.45-8.84,5.1-9.89a22.2,22.2,0,0,1,15.79.22c2.67,1.19,6.49,4,4.57,9.67h0c-2.63,5.57-.31,13.65.14,15.43a8.4,8.4,0,0,1-.64,4.74,6.87,6.87,0,0,1,.46,2.27Z"/><path class="cls-42" d="M394.4,174.4a8.41,8.41,0,0,1,2.15.28c.74.41.25,2.35-.27,2.92-.92,1-3.5,1.67-6.61,1.3s-4.62-1.7-4.58-2.79S385.4,174.16,394.4,174.4Z"/><path class="cls-38" d="M387.66,171.68a20.81,20.81,0,0,0,.4,4.5c.45,1.48,5.71,1.26,6.07-.07s-.09-6.75-.18-7.32S387.66,171.68,387.66,171.68Z"/><path class="cls-33" d="M404.37,205.12s.73,8,.09,12a69.53,69.53,0,0,0-25.73.26s-.55-9.93.23-11.78a50,50,0,0,1,25.41-.46Zm-25.68,12.24h0Z"/><path class="cls-38" d="M400.21,159.3a2.84,2.84,0,1,0,3,2.64A2.84,2.84,0,0,0,400.21,159.3Z"/><path class="cls-38" d="M380.54,160.59a2.84,2.84,0,1,0,3,2.64A2.83,2.83,0,0,0,380.54,160.59Z"/><path class="cls-31" d="M389.92,145.6h0a9.72,9.72,0,0,0-9,10.33l.58,8.81a9.75,9.75,0,0,0,10.34,9h0a9.74,9.74,0,0,0,9-10.34l-.58-8.81A9.74,9.74,0,0,0,389.92,145.6Z"/><path class="cls-32" d="M383.68,148.46a9.66,9.66,0,0,0-2.8,7.47l.23,3.55.22,0s.94-4,2.33-4.41,10.41-.18,12.59,0,6.41,12.58,0,17.35a9.7,9.7,0,0,0,4.59-8.9l-.58-8.81a9.7,9.7,0,0,0-2.73-6.11C393.5,148.43,386.47,148,383.68,148.46Z"/><path class="cls-47" d="M381.16,163.25a11.63,11.63,0,0,0,.19-5.88s1.47-2.51.33-4.32a34.79,34.79,0,0,0,17.81-.7c-1,1.89.67,4.28.67,4.28a11.58,11.58,0,0,0,.65,5.84c-.29-2.89,1.1-2.71,1.1-2.71,3.32-8.86-.39-11.44-.39-11.44.81-4.47-5.41-6.91-11.37-6.74s-12,3.22-10.82,7.61c0,0-3.49,2.87.52,11.44C379.85,160.63,381.22,160.34,381.16,163.25Z"/><path class="cls-46" d="M400.31,148.11a5.38,5.38,0,0,0,1.16-1.54,5.26,5.26,0,0,0-2.53-3c-3.1,4.34-13.54,5.21-16.95.37a8.13,8.13,0,0,0-.87.64C384.55,150.06,395.25,152.18,400.31,148.11Z"/><path class="cls-15" d="M397.08,159.62h-2.69a.51.51,0,0,0-.51.52h0a.52.52,0,0,0,.51.52h2.69a.52.52,0,0,0,.52-.52h0A.53.53,0,0,0,397.08,159.62Z"/><path class="cls-15" d="M387.79,159.63h-2.68a.52.52,0,0,0-.52.52h0a.52.52,0,0,0,.52.51h2.68a.52.52,0,0,0,.52-.52h0A.52.52,0,0,0,387.79,159.63Z"/><path class="cls-38" d="M396.36,165.75a1.41,1.41,0,1,0,1.41,1.4A1.4,1.4,0,0,0,396.36,165.75Z"/><path class="cls-38" d="M385.84,165.76a1.41,1.41,0,1,0,1.41,1.41A1.41,1.41,0,0,0,385.84,165.76Z"/><path class="cls-15" d="M385.57,164.19a.24.24,0,0,1-.22.27.25.25,0,0,1-.28-.22,1.51,1.51,0,0,1,.33-1.13,1.56,1.56,0,0,1,1-.58,1.61,1.61,0,0,1,1.14.33,1.55,1.55,0,0,1,.57,1,.24.24,0,0,1-.22.27.25.25,0,0,1-.28-.22,1,1,0,0,0-1.15-.92,1.07,1.07,0,0,0-.7.39A1,1,0,0,0,385.57,164.19Z"/><path class="cls-15" d="M394.85,164.17a.25.25,0,1,1-.49.06,1.53,1.53,0,0,1,1.36-1.71,1.51,1.51,0,0,1,1.13.33,1.54,1.54,0,0,1,.58,1,.26.26,0,0,1-.22.28.24.24,0,0,1-.28-.22,1.07,1.07,0,0,0-.39-.7,1,1,0,0,0-1.46.16A1.06,1.06,0,0,0,394.85,164.17Z"/><path class="cls-4" d="M362.79,167.91s-1.13-.06-1,1.38,4.24,20.12,4.35,21.56-5.55,10.33-5.73,10.87a1.47,1.47,0,0,0,.36,1.73c.6.42,13.26,7,14,7.26.44.17,8.44.23,15.32.25s14.87-.08,15.32-.25c.77-.3,13.43-6.84,14-7.26a1.47,1.47,0,0,0,.36-1.73c-.18-.54-5.85-9.44-5.73-10.87s4.18-20.13,4.36-21.56-1-1.38-1-1.38c-2.6.66-16.58,9.74-18.13,9.74l-9.25,0-9.26,0C379.37,177.65,365.39,168.57,362.79,167.91Z"/><path class="cls-48" d="M366.17,190.63c0,.09,0,.17,0,.22a.94.94,0,0,1,0,.23l.34.14a111.25,111.25,0,0,0,11.4,4.28l-3.26,15.12.2.09a5.16,5.16,0,0,0,.76.07l-.53-.2c1.25-5.8,2.16-10.46,2.93-15.05l.1,0a60.67,60.67,0,0,0,8.65.49c6.52.08,14.25-.1,15.12-.19a151.75,151.75,0,0,0,3.4,14.89l.21,0,.19-.09-3.54-14.83c1.48-.47,8.32-3.62,12.06-5.35,0-.14.06-.31.09-.5-3.67,1.71-10.78,5-12.23,5.45l-2.43-17.73v0a1.15,1.15,0,0,1-.22,0h-.2v0c.89,6.51,1.61,12.13,2.59,17.76-.93.09-8.58.26-15,.19a61.18,61.18,0,0,1-8.57-.48l-.13,0c.88-5.35,1.58-10.65,2.39-17.58l-.42-.17,0,.1L378,195.1a113.5,113.5,0,0,1-11.31-4.25Z"/><path class="cls-31" d="M365.62,187.75a3.25,3.25,0,0,0-2.2,2.1c-.55,1.71-.7,5.78,1.71,5.71s3.29-4.54.86-5.95Z"/><path class="cls-32" d="M365.62,187.75a2.89,2.89,0,0,0-.75.31.77.77,0,0,1,.33.35c.16.49-.36.51-.45.51s-.3.07.06.41,1.95,1.81,1.38,3.78-2.42,1.87-2.73,1.31a1.69,1.69,0,0,0,1.67,1.14c2.4-.07,3.29-4.54.86-5.95Z"/><path class="cls-31" d="M414.72,187.75a3.27,3.27,0,0,1,2.21,2.1c.54,1.71.69,5.78-1.71,5.71s-3.29-4.54-.87-5.95Z"/><path class="cls-17" d="M394,167.89a2.92,2.92,0,1,1-5.84.15h0a.51.51,0,0,1,.49-.51l4.83-.13a.5.5,0,0,1,.51.49Z"/><path class="cls-39" d="M393,170.19a2.9,2.9,0,0,1-1.81.7,3,3,0,0,1-1.56-.4,1.82,1.82,0,0,1,1.64-1.13A1.87,1.87,0,0,1,393,170.19Z"/><path class="cls-4" d="M388.59,167.53l4.53-.12a1,1,0,0,1-.47,1.13,12.75,12.75,0,0,1-3.92-.1A1.75,1.75,0,0,1,388.59,167.53Z"/><path class="cls-32" d="M414.72,187.75a2.89,2.89,0,0,1,.75.31.83.83,0,0,0-.33.35c-.16.49.36.51.46.51s.29.07-.07.41-1.94,1.81-1.38,3.78,2.42,1.87,2.73,1.31a1.68,1.68,0,0,1-1.66,1.14c-2.41-.07-3.29-4.54-.87-5.95Z"/><path class="cls-31" d="M449.21,111.66a14,14,0,0,1,5.17,8.21c1.76,7.06,6,12.49,6.63,26.75s2.3,24.6,2.43,27.65-1.85,2.64-2,1.84-5.47-32.19-6.43-34.19-8.26-17.2-8.94-19.51S442.36,106.7,449.21,111.66Z"/><path class="cls-32" d="M458.55,131.88A48.85,48.85,0,0,1,460,137.7a2.71,2.71,0,0,0-3.92,1.94c-.15,1.42.65,2,1.67,1.64s-.58,1.71-.58,2.37,3.35,22.71,3.78,25,.8,5.37.23,5.66c-1.15-6.76-5.31-30.69-6.14-32.43-.48-1-2.51-5.22-4.52-9.51C452.45,132.23,455.71,132,458.55,131.88Z"/><path class="cls-4" d="M445.93,110s5.78.42,8.59,8.79,5.71,15.19,5.53,16.66a.86.86,0,0,1-.75.46,38.69,38.69,0,0,0-6.35,2.26s-.71.45-1,0-4.85-10.92-6-13.42S442.86,111,445.93,110Z"/><path class="cls-37" d="M445.93,110a8.38,8.38,0,0,1,4.45,2.16,1.87,1.87,0,0,0-1.95-.17c-1.43.69-2.5,6.8.84,15.8,2.63,7.09,4.05,9,5.85,9.45a17,17,0,0,0-2.17.93s-.71.45-1,0-4.85-10.92-6-13.42S442.86,111,445.93,110Z"/><path class="cls-49" d="M454.7,177.56h15.53a4.14,4.14,0,0,1,2.93,1.22,4.1,4.1,0,0,1,1.22,2.93v26.36a4.1,4.1,0,0,1-1.22,2.93l0,0a4.17,4.17,0,0,1-2.9,1.19H454.7a4.14,4.14,0,0,1-2.93-1.22h0a4.1,4.1,0,0,1-1.22-2.92V181.71a4.17,4.17,0,0,1,4.15-4.15Zm15.53,1.24H454.7a2.94,2.94,0,0,0-2.06.85h0a2.9,2.9,0,0,0-.85,2.06v26.36a2.86,2.86,0,0,0,.85,2.05h0a2.91,2.91,0,0,0,2.06.86h15.53a2.9,2.9,0,0,0,2-.83l0,0a2.88,2.88,0,0,0,.85-2.05V181.71a2.9,2.9,0,0,0-.85-2.06A2.94,2.94,0,0,0,470.23,178.8Z"/><path class="cls-35" d="M455.55,177.56h15.53a4.15,4.15,0,0,1,4.15,4.15v26.36A4.13,4.13,0,0,1,474,211l0,0a4.15,4.15,0,0,1-2.9,1.19H455.55a4.16,4.16,0,0,1-2.93-1.22h0a4.14,4.14,0,0,1-1.22-2.92V181.71a4.17,4.17,0,0,1,4.15-4.15Zm15.53,1.24H455.55a2.94,2.94,0,0,0-2.06.85h0a2.94,2.94,0,0,0-.85,2.06v26.36a2.9,2.9,0,0,0,.85,2.05h0a2.91,2.91,0,0,0,2.06.86h15.53a2.9,2.9,0,0,0,2-.83l0,0a2.89,2.89,0,0,0,.86-2.05V181.71a2.91,2.91,0,0,0-.86-2.06A2.94,2.94,0,0,0,471.08,178.8Z"/><rect class="cls-50" x="471.73" y="260.59" width="4.29" height="3.83" rx="0.81"/><rect class="cls-50" x="446.31" y="260.59" width="4.29" height="3.83" rx="0.81"/><path class="cls-39" d="M443.83,204.23s-6.35.8-6.35,6.11v40.34c0,4.7-1.08,11.17,6.2,11.17h26.45c3.39,0,7.83-.32,7.83-6.24V210c0-2.38-.92-5.62-4.21-5.62S446.35,204,443.83,204.23Z"/><rect class="cls-51" x="473.88" y="260.59" width="4.29" height="3.83" rx="0.81"/><rect class="cls-51" x="448.46" y="260.59" width="4.29" height="3.83" rx="0.81"/><path class="cls-52" d="M449.46,204.23s-6.35.8-6.35,6.11v40.34c0,4.7-1.09,11.17,6.19,11.17h26.45c3.39,0,7.84-.32,7.84-6.24V210c0-2.38-.93-5.62-4.22-5.62S452,204,449.46,204.23Z"/><path class="cls-52" d="M483.59,252.52V210c0-2.38-.93-5.62-4.22-5.62-2.84,0-21.17-.26-27.77-.19v37.18c0,4.7-1.08,11.17,6.19,11.17Z"/><path class="cls-53" d="M448.24,261.8c.33,0,.68.05,1.06.05h26.45a20,20,0,0,0,2.65-.14q0-15.63,0-31.25c0-2.22-.27-4.18-.36-6.35-.13-3-2.06-5.41-5.21-5.41h-9.95c-3,0-6,.09-8.95.1a5.49,5.49,0,0,0-5.28,3.44,17.41,17.41,0,0,0-.41,4.93C448.22,238.71,448.24,250.25,448.24,261.8Z"/><path class="cls-39" d="M478.39,256.58q0-13.06,0-26.12c0-2.22-.27-4.18-.36-6.35-.13-3-2.06-5.41-5.21-5.41h-9.95c-3,0-6,.09-8.95.1a6.2,6.2,0,0,0-1,.07q0,14.65,0,29.3a17.05,17.05,0,0,0,.41,4.93,5.48,5.48,0,0,0,5.28,3.44c3,0,5.95.09,8.95.09h9.95A7.22,7.22,0,0,0,478.39,256.58Z"/><path class="cls-17" d="M449.42,261.85h.23v-.16a.19.19,0,0,0,0-.07.12.12,0,0,0-.21.07v.16Zm27.8-.43a.12.12,0,0,1-.21.08.13.13,0,0,1,0-.08v-.23a.12.12,0,0,1,.21-.08.11.11,0,0,1,0,.08v.23Zm0-.94a.12.12,0,0,1-.21.07.11.11,0,0,1,0-.07v-.24a.12.12,0,0,1,.21-.07.09.09,0,0,1,0,.07v.24Zm0-1a.12.12,0,0,1-.21.08.11.11,0,0,1,0-.08v-.23a.12.12,0,0,1,.21-.08.11.11,0,0,1,0,.08v.23Zm0-.94a.12.12,0,0,1-.21.07.09.09,0,0,1,0-.07v-.24a.12.12,0,0,1,.21-.07.09.09,0,0,1,0,.07v.24Zm0-.95a.12.12,0,0,1-.21.08.11.11,0,0,1,0-.08v-.23a.12.12,0,0,1,.21-.08.11.11,0,0,1,0,.08v.23Zm0-.94a.12.12,0,0,1-.21.07.09.09,0,0,1,0-.07v-.24a.12.12,0,0,1,.21-.07.11.11,0,0,1,0,.07v.24Zm0-.95a.12.12,0,0,1-.21.08.11.11,0,0,1,0-.08v-.23a.12.12,0,0,1,.21-.08.13.13,0,0,1,0,.08v.23Zm0-.94a.12.12,0,0,1-.21.08.13.13,0,0,1,0-.08v-.24a.12.12,0,0,1,.21-.07.11.11,0,0,1,0,.07v.24Zm0-.94a.12.12,0,0,1-.21.07.11.11,0,0,1,0-.07v-.24a.12.12,0,0,1,.21-.08.13.13,0,0,1,0,.08v.24Zm0-1a.12.12,0,0,1-.21.08.13.13,0,0,1,0-.08v-.24a.12.12,0,0,1,.21-.07.11.11,0,0,1,0,.07v.24Zm0-.94a.12.12,0,0,1-.21.07.11.11,0,0,1,0-.07v-.24a.12.12,0,0,1,.21-.07.09.09,0,0,1,0,.07V252Zm0-.95a.12.12,0,0,1-.21.08.11.11,0,0,1,0-.08v-.23a.12.12,0,0,1,.21-.08.11.11,0,0,1,0,.08V251Zm0-.94a.12.12,0,0,1-.21.07.09.09,0,0,1,0-.07v-.24a.12.12,0,0,1,.21-.07.09.09,0,0,1,0,.07v.24Zm0-1a.12.12,0,0,1-.21.08.11.11,0,0,1,0-.08v-.23a.12.12,0,0,1,.21-.08.11.11,0,0,1,0,.08v.23Zm0-.94a.12.12,0,0,1-.21.07.09.09,0,0,1,0-.07V248a.12.12,0,0,1,.21-.07.09.09,0,0,1,0,.07v.24Zm0-.95a.12.12,0,0,1-.21.08.11.11,0,0,1,0-.08V247a.12.12,0,0,1,.21-.08.11.11,0,0,1,0,.08v.23Zm0-.94a.12.12,0,0,1-.21.07.09.09,0,0,1,0-.07v-.24a.12.12,0,0,1,.21-.07.11.11,0,0,1,0,.07v.24Zm0-.94a.12.12,0,0,1-.21.07.11.11,0,0,1,0-.07v-.24a.12.12,0,0,1,.21-.08.13.13,0,0,1,0,.08v.24Zm0-1a.12.12,0,0,1-.21.08.13.13,0,0,1,0-.08v-.24a.12.12,0,0,1,.21-.07.11.11,0,0,1,0,.07v.24Zm0-.94a.12.12,0,0,1-.21.07.11.11,0,0,1,0-.07v-.24a.12.12,0,0,1,.21-.08.13.13,0,0,1,0,.08v.24Zm0-.95a.12.12,0,0,1-.21.08.13.13,0,0,1,0-.08v-.23a.12.12,0,0,1,.21-.08.11.11,0,0,1,0,.08v.23Zm0-.94a.12.12,0,0,1-.21.07.11.11,0,0,1,0-.07v-.24a.12.12,0,0,1,.21-.07.09.09,0,0,1,0,.07v.24Zm0-1a.12.12,0,0,1-.21.08.11.11,0,0,1,0-.08v-.23a.12.12,0,0,1,.21-.08.11.11,0,0,1,0,.08v.23Zm0-.94a.12.12,0,0,1-.21.07.09.09,0,0,1,0-.07v-.24a.12.12,0,0,1,.21-.07.09.09,0,0,1,0,.07v.24Zm0-.95a.12.12,0,0,1-.21.08.11.11,0,0,1,0-.08v-.23a.12.12,0,0,1,.21-.08.11.11,0,0,1,0,.08v.23Zm0-.94a.12.12,0,0,1-.21.07.09.09,0,0,1,0-.07v-.24a.12.12,0,0,1,.21-.07.11.11,0,0,1,0,.07v.24Zm0-.95a.12.12,0,0,1-.21.08.11.11,0,0,1,0-.08v-.23a.12.12,0,0,1,.21-.08.13.13,0,0,1,0,.08v.23Zm0-.94a.12.12,0,0,1-.21.08.13.13,0,0,1,0-.08v-.24a.12.12,0,0,1,.21-.07.11.11,0,0,1,0,.07v.24Zm0-.94a.12.12,0,0,1-.21.07.11.11,0,0,1,0-.07v-.24a.12.12,0,0,1,.21-.08.13.13,0,0,1,0,.08V235Zm0-.95a.12.12,0,0,1-.21.08.13.13,0,0,1,0-.08v-.23a.12.12,0,0,1,.21-.08.11.11,0,0,1,0,.08V234Zm0-.94a.12.12,0,0,1-.21.07.11.11,0,0,1,0-.07v-.24a.12.12,0,0,1,.21-.08.13.13,0,0,1,0,.08,1.92,1.92,0,0,0,0,.24Zm0-1a.12.12,0,0,1-.21.08.11.11,0,0,1,0-.08v-.23a.12.12,0,0,1,.21-.08.11.11,0,0,1,0,.08v.23Zm0-.94a.12.12,0,0,1-.21.07.09.09,0,0,1,0-.07V231a.12.12,0,0,1,.21-.07.09.09,0,0,1,0,.07v.24Zm0-.95a.12.12,0,0,1-.2.09.1.1,0,0,1,0-.09V230a.11.11,0,0,1,.06-.11.12.12,0,0,1,.17.1,1.93,1.93,0,0,1,0,.24Zm0-.95a.12.12,0,0,1-.2.09.1.1,0,0,1,0-.08,1.69,1.69,0,0,1,0-.23.12.12,0,0,1,.05-.1.11.11,0,0,1,.18.09,1.85,1.85,0,0,1,0,.23Zm0-.94a.12.12,0,0,1-.2.09.12.12,0,0,1,0-.08,1.79,1.79,0,0,0,0-.23.18.18,0,0,1,0-.1.12.12,0,0,1,.2.08c0,.08,0,.16,0,.24Zm-.07-1a.12.12,0,0,1-.15.13.12.12,0,0,1-.08-.11l0-.23a.12.12,0,0,1,.2-.1.11.11,0,0,1,0,.08,2,2,0,0,1,0,.23Zm-.07-.94a.12.12,0,0,1-.2.1.11.11,0,0,1,0-.08l0-.23a.12.12,0,1,1,.23,0l0,.23Zm-.07-.94a.12.12,0,0,1-.21.08.14.14,0,0,1,0-.06l0-.24a.12.12,0,0,1,.21-.08.09.09,0,0,1,0,.07v.23Zm-.06-.94a.12.12,0,0,1-.21.08.14.14,0,0,1,0-.07v-.23a.12.12,0,0,1,.2-.09.11.11,0,0,1,0,.08c0,.07,0,.15,0,.23Zm-.06-1a.12.12,0,0,1-.2.1.25.25,0,0,1,0-.07l0-.23a.12.12,0,0,1,.18-.12.1.1,0,0,1,0,.08,2,2,0,0,1,0,.24Zm-.2-.94a.17.17,0,0,1,0,.13.12.12,0,0,1-.19-.06c0-.08-.05-.15-.07-.22a.12.12,0,0,1,.18-.14l0,.06c0,.07,0,.15.08.23Zm-.38-.89a.12.12,0,0,1-.13.17s-.06,0-.08-.06l-.12-.19a.12.12,0,0,1,.14-.18.1.1,0,0,1,.06,0l.13.21Zm-.58-.79a.12.12,0,0,1-.1.2.09.09,0,0,1-.07,0l-.16-.16h0a.12.12,0,0,1,.1-.21l.06,0,.17.17Zm-.76-.6a.11.11,0,0,1,0,.21.11.11,0,0,1-.08,0l-.2-.11s-.06,0-.06-.08a.12.12,0,0,1,.17-.13l.21.12ZM474,220a.11.11,0,0,1,.08.07.12.12,0,0,1-.15.15l-.22,0a.14.14,0,0,1-.09-.08.12.12,0,0,1,.14-.15l.24.06Zm-1-.15a.11.11,0,0,1,.05.21.07.07,0,0,1-.06,0h-.23a.12.12,0,0,1-.08-.21.11.11,0,0,1,.08,0Zm-.95,0a.12.12,0,0,1,.07.21.09.09,0,0,1-.07,0h-.24a.12.12,0,0,1-.07-.21.09.09,0,0,1,.07,0Zm-1,0a.12.12,0,0,1,.08.21.11.11,0,0,1-.08,0h-.23a.12.12,0,0,1-.08-.21.11.11,0,0,1,.08,0Zm-.94,0a.12.12,0,0,1,.07.21.09.09,0,0,1-.07,0H470a.12.12,0,0,1-.07-.21.11.11,0,0,1,.07,0Zm-.95,0a.12.12,0,0,1,.08.21.11.11,0,0,1-.08,0H469a.12.12,0,0,1-.08-.21.13.13,0,0,1,.08,0Zm-.94,0a.12.12,0,0,1,.07.21.09.09,0,0,1-.07,0h-.24a.12.12,0,0,1-.07-.21.11.11,0,0,1,.07,0Zm-.94,0a.12.12,0,0,1,.07.21.11.11,0,0,1-.07,0h-.24a.12.12,0,0,1-.08-.21.13.13,0,0,1,.08,0Zm-.95,0a.12.12,0,0,1,.08.21.13.13,0,0,1-.08,0h-.23a.12.12,0,0,1-.08-.21.11.11,0,0,1,.08,0Zm-.94,0a.12.12,0,0,1,.07.21.11.11,0,0,1-.07,0h-.24a.12.12,0,0,1-.07-.21.09.09,0,0,1,.07,0Zm-.95,0a.12.12,0,0,1,.08.21.11.11,0,0,1-.08,0h-.23a.12.12,0,0,1-.08-.21.11.11,0,0,1,.08,0Zm-.94,0a.12.12,0,0,1,.07.21.09.09,0,0,1-.07,0h-.24a.12.12,0,0,1-.07-.21.09.09,0,0,1,.07,0Zm-1,0a.12.12,0,0,1,.08.21.11.11,0,0,1-.08,0h-.23a.12.12,0,0,1-.08-.21.11.11,0,0,1,.08,0Zm-.94,0a.12.12,0,0,1,.12.12.13.13,0,0,1-.12.11h-.24a.12.12,0,0,1-.07-.21l.07,0Zm-.95,0a.12.12,0,0,1,.07.22l-.06,0h-.24a.11.11,0,0,1-.09-.19.1.1,0,0,1,.09,0Zm-.94,0a.12.12,0,1,1,0,.23h-.23a.09.09,0,0,1-.11-.07.11.11,0,0,1,.1-.16Zm-.95,0a.12.12,0,0,1,.08.21.1.1,0,0,1-.07,0h-.24a.12.12,0,0,1-.08-.21.11.11,0,0,1,.08,0Zm-.94,0a.12.12,0,0,1,.08.21.11.11,0,0,1-.08,0h-.23a.12.12,0,0,1-.09-.2.13.13,0,0,1,.08,0Zm-.95,0a.12.12,0,0,1,.08.21l-.07,0h-.24a.12.12,0,1,1,0-.24Zm-.94,0a.11.11,0,0,1,.08.2.12.12,0,0,1-.08,0h-.23a.12.12,0,0,1-.09-.2.12.12,0,0,1,.08,0Zm-.94,0a.12.12,0,0,1,.09.19.11.11,0,0,1-.09.05h-.24a.12.12,0,0,1-.06-.22l.06,0Zm-1,0a.12.12,0,0,1,.1.18.12.12,0,0,1-.1.05h-.23a.12.12,0,0,1-.07-.21l.07,0Zm-.21,0v0Zm-.74.05a.12.12,0,0,1,.1.2.09.09,0,0,1-.07,0l-.23,0a.12.12,0,0,1-.11-.2.15.15,0,0,1,.07,0l.24,0Zm-.94.23a.12.12,0,0,1,.13.18l-.06,0-.21.08a.12.12,0,0,1-.1,0,.12.12,0,0,1,0-.22l.23-.08Zm-.88.42a.1.1,0,0,1,.13,0,.11.11,0,0,1,0,.19l-.19.13a.12.12,0,0,1-.19-.11.14.14,0,0,1,.05-.08l.2-.13Zm-.75.6a.12.12,0,0,1,.16,0,.12.12,0,0,1,0,.17,1.29,1.29,0,0,0-.16.17.15.15,0,0,1-.09,0,.12.12,0,0,1-.09-.2l.17-.18Zm-.59.78a.12.12,0,0,1,0-.05.12.12,0,0,1,.15.17l-.11.2a.12.12,0,0,1-.22,0,.28.28,0,0,1,0-.09l.12-.21Zm-.38.89a.12.12,0,0,1,.21,0,.15.15,0,0,1,0,.09l-.06.23a.12.12,0,0,1-.22,0,.17.17,0,0,1,0-.07l.06-.24Zm-.16,1a.1.1,0,0,1,.05-.08.12.12,0,0,1,.18.11,2,2,0,0,1,0,.23.11.11,0,0,1-.2.07.11.11,0,0,1,0-.09,1.94,1.94,0,0,1,0-.24Zm-.06.95a.12.12,0,0,1,.22,0,.13.13,0,0,1,0,.06v.24a.11.11,0,0,1-.21.06.14.14,0,0,1,0-.07v-.24Zm0,1a.12.12,0,0,1,.18-.1.14.14,0,0,1,0,.1V226a.11.11,0,0,1-.06.1.12.12,0,0,1-.18-.1c0-.08,0-.16,0-.24Zm0,.95a.13.13,0,0,1,0-.1.12.12,0,0,1,.19.09V227a.12.12,0,0,1-.21.08.13.13,0,0,1,0-.08v-.23Zm0,.94a.12.12,0,0,1,.05-.1.12.12,0,0,1,.18.1v.24a.12.12,0,0,1,0,.1.12.12,0,0,1-.18-.1v-.24Zm0,.94a.11.11,0,0,1,.06-.1.12.12,0,0,1,.17.1v.24a.11.11,0,0,1-.06.11.12.12,0,0,1-.17-.11v-.24Zm0,1a.11.11,0,0,1,0-.09.11.11,0,0,1,.19.09v.23a.1.1,0,0,1,0,.09.12.12,0,0,1-.2-.09v-.23Zm0,.94a.13.13,0,0,1,.06-.1.12.12,0,0,1,.18.1v.24a.11.11,0,0,1-.06.1.12.12,0,0,1-.18-.1v-.24Zm0,.95a.12.12,0,1,1,.24,0v.23a.1.1,0,0,1-.06.1.12.12,0,0,1-.18-.1v-.23Zm0,.94a.14.14,0,0,1,.07-.11.13.13,0,0,1,.17.11v.24a.12.12,0,0,1-.07.11.13.13,0,0,1-.17-.11v-.24Zm0,1a.12.12,0,0,1,.2-.09.13.13,0,0,1,0,.09v.23a.12.12,0,0,1-.2.09.11.11,0,0,1,0-.09v-.23Zm0,.94a.12.12,0,0,1,.21-.08.13.13,0,0,1,0,.08v.24a.12.12,0,0,1-.21.07.11.11,0,0,1,0-.07v-.24Zm0,.95a.12.12,0,0,1,.21-.08.11.11,0,0,1,0,.08v.23a.13.13,0,0,1-.22.08.19.19,0,0,1,0-.08v-.23Zm0,.94a.12.12,0,0,1,.21-.07.09.09,0,0,1,0,.07v.24a.12.12,0,0,1-.22.07.19.19,0,0,1,0-.07v-.24Zm0,.94a.11.11,0,0,1,.2-.07.11.11,0,0,1,0,.07v.24a.12.12,0,1,1-.23,0v-.24Zm0,1a.12.12,0,1,1,.23,0v.23a.11.11,0,0,1-.07.11.11.11,0,0,1-.16-.11v-.23Zm0,.94a.1.1,0,0,1,.07-.1.11.11,0,0,1,.16.1v.24a.12.12,0,0,1-.07.11.12.12,0,0,1-.16-.11V239Zm0,.95a.12.12,0,0,1,.2-.09.16.16,0,0,1,0,.09v.23a.12.12,0,0,1-.21.08.19.19,0,0,1,0-.08V240Zm0,.94a.12.12,0,0,1,.21-.07.08.08,0,0,1,0,.07v.24a.12.12,0,0,1-.21.07.14.14,0,0,1,0-.07v-.24Zm0,1a.12.12,0,0,1,.2-.09.14.14,0,0,1,0,.09v.23a.12.12,0,0,1-.2.09.14.14,0,0,1,0-.09v-.23Zm0,.94a.12.12,0,0,1,.21-.07.08.08,0,0,1,0,.07V243a.12.12,0,0,1-.21.07.14.14,0,0,1,0-.07v-.24Zm0,.95a.12.12,0,0,1,.21-.08.11.11,0,0,1,0,.08V244a.12.12,0,0,1-.21.08.24.24,0,0,1,0-.08v-.23Zm0,.94a.12.12,0,0,1,.21-.07.08.08,0,0,1,0,.07v.24a.12.12,0,0,1-.2.08.13.13,0,0,1,0-.08v-.24Zm0,.95a.11.11,0,0,1,.2-.08.1.1,0,0,1,0,.08v.23a.12.12,0,0,1-.21.08.11.11,0,0,1,0-.08v-.23Zm0,.94a.11.11,0,0,1,.2-.08.12.12,0,0,1,0,.08v.24a.13.13,0,0,1-.21.08.13.13,0,0,1,0-.08v-.24Zm0,.94a.12.12,0,0,1,.21-.07.11.11,0,0,1,0,.07v.24a.12.12,0,0,1-.22.07.14.14,0,0,1,0-.07v-.24Zm0,.95a.12.12,0,0,1,.21-.07.09.09,0,0,1,0,.07v.23a.12.12,0,0,1-.22.08.19.19,0,0,1,0-.08v-.23Zm0,.94a.12.12,0,0,1,.21-.07.11.11,0,0,1,0,.07v.24a.12.12,0,0,1-.22.07.14.14,0,0,1,0-.07v-.24Zm0,1a.12.12,0,0,1,.21-.08.13.13,0,0,1,0,.08v.23a.13.13,0,0,1-.22.08.19.19,0,0,1,0-.08v-.23Zm0,.94a.12.12,0,0,1,.21-.07.11.11,0,0,1,0,.07v.24a.12.12,0,0,1-.21.08.11.11,0,0,1,0-.08v-.24Zm0,.95a.12.12,0,0,1,.21-.08.11.11,0,0,1,0,.08v.23a.12.12,0,0,1-.21.08.11.11,0,0,1,0-.08v-.23Zm0,.94a.12.12,0,0,1,.21-.08.11.11,0,0,1,0,.08v.24a.12.12,0,0,1-.21.08.13.13,0,0,1,0-.08v-.24Zm0,.95a.12.12,0,0,1,.21-.08.11.11,0,0,1,0,.08v.23a.12.12,0,0,1-.21.08.11.11,0,0,1,0-.08v-.23Zm0,.94a.12.12,0,0,1,.21-.08.11.11,0,0,1,0,.08v.24a.12.12,0,0,1-.21.08.13.13,0,0,1,0-.08v-.24Zm0,.94a.12.12,0,0,1,.21-.07.09.09,0,0,1,0,.07v.24a.11.11,0,0,1-.2.08.09.09,0,0,1,0-.08V256Zm0,1a.12.12,0,0,1,.21-.08.11.11,0,0,1,0,.08v.24a.11.11,0,0,1-.2.07.08.08,0,0,1,0-.07V257Zm0,.94a.12.12,0,0,1,.21-.08.13.13,0,0,1,0,.08v.24a.11.11,0,0,1-.2.08.12.12,0,0,1,0-.08v-.24Zm0,.95a.12.12,0,0,1,.21-.08.11.11,0,0,1,0,.08v.23a.12.12,0,1,1-.23,0v-.23Zm0,.94a.12.12,0,0,1,.2-.08.13.13,0,0,1,0,.08V260a.12.12,0,1,1-.23,0v-.24Zm0,.95a.12.12,0,0,1,.21-.08.19.19,0,0,1,0,.08V261a.12.12,0,0,1-.21.08.11.11,0,0,1,0-.08Z"/><path class="cls-39" d="M484.61,211v-1c0-3.27-1.51-6.64-5.24-6.64l-3,0a.32.32,0,0,0-.26.1.33.33,0,0,0-.1.25V211a.36.36,0,0,0,.35.36h7.87A.36.36,0,0,0,484.61,211Z"/><path class="cls-39" d="M476.39,262.87c.61,0,1.23,0,1.84-.11q6.39-.72,6.38-7.15v-.56a.36.36,0,0,0-.36-.36h-7.87a.36.36,0,0,0-.35.36v7.46a.33.33,0,0,0,.1.25A.36.36,0,0,0,476.39,262.87Z"/><rect class="cls-54" x="457.19" y="176.39" width="12.25" height="3.58" rx="0.79"/><path class="cls-39" d="M467.37,217h-8.93a1.69,1.69,0,0,0-1.68,1.68h0a1.68,1.68,0,0,0,1.68,1.68h8.93a1.68,1.68,0,0,0,1.68-1.68h0A1.69,1.69,0,0,0,467.37,217Z"/><path class="cls-53" d="M436.4,255.06a9.68,9.68,0,0,0,1.41,5.29c1.37,1.94,3.59,2.52,5.85,2.52h6.72v-4H445v-3.81a.36.36,0,0,0-.35-.36h-7.86a.36.36,0,0,0-.26.11A.35.35,0,0,0,436.4,255.06Z"/><path class="cls-53" d="M443.69,203.21a10.93,10.93,0,0,0-3.55,1.18,6.55,6.55,0,0,0-3.69,6V211a.36.36,0,0,0,.35.36h7.82A.36.36,0,0,0,445,211v-3.78h5.41v-4H444.3l-.57,0h0Z"/><path class="cls-39" d="M442,255.06a9.68,9.68,0,0,0,1.4,5.29c1.38,1.94,3.6,2.52,5.86,2.52h.95a.36.36,0,0,0,.36-.36v-7.46a.36.36,0,0,0-.36-.36H442.4a.36.36,0,0,0-.26.11A.35.35,0,0,0,442,255.06Z"/><path class="cls-39" d="M449.33,203.21a10.77,10.77,0,0,0-3.55,1.18,6.55,6.55,0,0,0-3.7,6V211a.36.36,0,0,0,.36.36h7.81a.36.36,0,0,0,.36-.36v-7.43a.36.36,0,0,0-.11-.26.35.35,0,0,0-.26-.1c-.29,0-.58,0-.87.05h0Z"/><path class="cls-31" d="M461.56,173.77l-.37.58a3,3,0,0,0-1.07,2s1.19,0,1.19,1,.2,1.4,1.27,1.4,1.84-.47,1.84-2.41-1-2.29-1-2.29Z"/><rect class="cls-55" x="314.15" y="186.43" width="1.89" height="5.1"/><rect class="cls-25" x="310.04" y="190.54" width="10.11" height="6.66" rx="1.23"/><rect class="cls-54" x="312.22" y="179.66" width="5.74" height="7.9" rx="1.06"/><rect class="cls-51" x="299.7" y="193.71" width="30.79" height="70.72" rx="3.41"/><rect class="cls-56" x="304.1" y="193.71" width="26.39" height="70.72" rx="3.41"/><rect class="cls-55" x="314.73" y="193.71" width="0.72" height="70.72"/></svg>