<svg xmlns="http://www.w3.org/2000/svg" width="56.31" height="56.311" viewBox="0 0 56.31 56.311"><path d="M-405.276,138H-446.41A7.588,7.588,0,0,0-454,145.588v41.134a7.588,7.588,0,0,0,7.588,7.588h20.287l.035-20.122h-5.228a1.233,1.233,0,0,1-1.233-1.229l-.025-6.486a1.234,1.234,0,0,1,1.234-1.238h5.218v-6.267c0-7.273,4.442-11.233,10.93-11.233h5.324a1.234,1.234,0,0,1,1.234,1.234v5.469a1.234,1.234,0,0,1-1.233,1.234l-3.267,0c-3.528,0-4.212,1.677-4.212,4.137v5.426h7.753a1.233,1.233,0,0,1,1.225,1.379l-.769,6.486a1.234,1.234,0,0,1-1.225,1.088h-6.95l-.035,20.122h12.071a7.588,7.588,0,0,0,7.588-7.588V145.588A7.588,7.588,0,0,0-405.276,138Z" transform="translate(453.998 -138)" fill="#fff"/></svg>