<svg xmlns="http://www.w3.org/2000/svg" width="22.156" height="22.157" viewBox="0 0 22.156 22.157"><rect width="12.504" height="20.26" transform="translate(6.667 1.897)" fill="#fff"/><path d="M-434.827,138h-16.185A2.986,2.986,0,0,0-454,140.986v16.185a2.986,2.986,0,0,0,2.986,2.986h7.982l.014-7.918h-2.057a.485.485,0,0,1-.485-.483l-.01-2.552a.485.485,0,0,1,.485-.487h2.053V146.25c0-2.862,1.748-4.42,4.3-4.42h2.095a.485.485,0,0,1,.485.485v2.152a.485.485,0,0,1-.485.485h-1.286c-1.388,0-1.657.66-1.657,1.628v2.135h3.051a.485.485,0,0,1,.482.542l-.3,2.552a.485.485,0,0,1-.482.428h-2.735l-.014,7.918h4.75a2.986,2.986,0,0,0,2.986-2.986V140.986A2.986,2.986,0,0,0-434.827,138Z" transform="translate(453.998 -138)" fill="#b7b7b7"/></svg>