<svg xmlns="http://www.w3.org/2000/svg" width="203" height="415" viewBox="0 0 203 415"><g transform="translate(1570 409)"><g transform="translate(-1266.396 -1512.515) rotate(-90)" opacity="0.2"><g transform="translate(-1459 -199.156)"><path d="M121.953,59.5c-2.041,4.811-9.842,10.971-26.209,7.314-16.639-3.716-26.958-1.128-33.136,5.195C68.414,68.937,76.137,67.34,85.38,69.3c11.243,2.394,27.453,7.392,35.519-.007,3.2-2.942,3.668-8.118,1.054-9.794" transform="translate(-62.608 -50.872)" fill="#6d5145"/><path d="M63.065,69.612s2.011-3.728,8.226-5.917c7.035-2.465,14.173-2.283,19.376-6.513a22.189,22.189,0,0,0,16.453,10.785c-3.672,2.968-12.244-.451-19.3-1.549-11.209-1.754-19.048-.164-24.753,3.2" transform="translate(-61.363 -57.181)" fill="#6d5145"/></g><g transform="translate(-1103.515 -303.604) rotate(90)" fill="none" stroke="#6d5145" stroke-width="6" opacity="0.2"><rect width="203" height="415" stroke="none"/><rect x="3" y="3" width="197" height="409" fill="none"/></g><text transform="translate(-1428.515 -193.604)" fill="#6d5145" font-size="60" font-family="Roboto-Black, Roboto" font-weight="800" letter-spacing="0.2em"><tspan x="0" y="0">TERRA </tspan></text><text transform="translate(-1379.515 -159.604)" fill="#6d5145" font-size="27" font-family="Roboto-Black, Roboto" font-weight="800" letter-spacing="0.2em"><tspan x="0" y="0">INDOCHINA</tspan></text></g></g></svg>