<svg xmlns="http://www.w3.org/2000/svg" width="80.604" height="66" viewBox="0 0 80.604 66"><g transform="translate(-1572 -1460)"><g transform="translate(1572 1460)"><path d="M4392.847,705.841a10.065,10.065,0,0,0-8.346-4.974l-5.284-21.632a9.967,9.967,0,0,0,5.23-7.782l59.274-14.669a9.241,9.241,0,0,0,7.442,4.645l5.283,21.632a9.607,9.607,0,0,0-4.326,8.111Z" transform="translate(-4377.527 -655.1)" fill="#fff"/><path d="M4391.066,706.5l-.54-.993a8.573,8.573,0,0,0-6.981-4.2l-.109,0-1.124-.023-5.82-23.823.986-.543a8.517,8.517,0,0,0,4.47-6.548l.046-1.1,61.411-15.19.549.956a7.8,7.8,0,0,0,6.236,3.908l1.1.047,5.807,23.772-.951.553a8.11,8.11,0,0,0-3.595,6.859l-.022,1.132Zm-6.432-8.062a11.6,11.6,0,0,1,7.852,4.676l57.21-14.154a11.229,11.229,0,0,1,4.046-7.578l-4.791-19.616a10.685,10.685,0,0,1-6.924-4.322l-57.275,14.167a11.615,11.615,0,0,1-4.894,7.284Z" transform="translate(-4376.491 -654.068)" fill="#d91e32"/><g transform="translate(11.959 16.056)"><path d="M4400.981,704.388l.22.438.035-.009-.011-.477.322-6.755,1.812-.443-.815,9.275-1.764.432-5-7.852,1.812-.443Z" transform="translate(-4395.779 -686.329)" fill="#d91e32"/><path d="M4417.488,699.6a3.7,3.7,0,0,1-.359,2.85,3.547,3.547,0,0,1-2.339,1.663,3.5,3.5,0,0,1-2.822-.4,3.713,3.713,0,0,1-1.625-2.364l-.377-1.541a3.722,3.722,0,0,1,.348-2.843,3.488,3.488,0,0,1,2.314-1.661,3.551,3.551,0,0,1,2.846.4,3.691,3.691,0,0,1,1.636,2.358Zm-2.1-1.128a2.676,2.676,0,0,0-.9-1.521,1.7,1.7,0,0,0-1.533-.306,1.651,1.651,0,0,0-1.2.972,2.739,2.739,0,0,0-.079,1.765l.381,1.555a2.755,2.755,0,0,0,.895,1.543,1.659,1.659,0,0,0,1.516.309,1.686,1.686,0,0,0,1.219-.979,2.733,2.733,0,0,0,.087-1.783Z" transform="translate(-4401.119 -685.58)" fill="#d91e32"/><path d="M4429.065,690.957l1.391,5.681a2.794,2.794,0,0,1-.409,2.456,3.917,3.917,0,0,1-2.3,1.393,3.87,3.87,0,0,1-2.671-.176,2.805,2.805,0,0,1-1.488-1.992l-1.391-5.681,1.723-.422,1.389,5.677a1.7,1.7,0,0,0,.764,1.156,1.812,1.812,0,0,0,1.35.115,1.859,1.859,0,0,0,1.162-.726,1.679,1.679,0,0,0,.148-1.382l-1.389-5.677Z" transform="translate(-4405.817 -683.979)" fill="#d91e32"/><path d="M4443.817,693.789l.02.033a2.87,2.87,0,0,1-.308,2.4,3.484,3.484,0,0,1-2.209,1.4,3.441,3.441,0,0,1-2.754-.379,3.63,3.63,0,0,1-1.591-2.322l-.416-1.7a3.689,3.689,0,0,1,.315-2.788,3.3,3.3,0,0,1,2.2-1.6,3.655,3.655,0,0,1,2.681.207,2.867,2.867,0,0,1,1.414,2.007l0,.038-1.67.409a1.931,1.931,0,0,0-.723-1.2,1.67,1.67,0,0,0-1.375-.141,1.476,1.476,0,0,0-1.07.926,2.731,2.731,0,0,0-.062,1.706l.418,1.71a2.654,2.654,0,0,0,.871,1.491,1.578,1.578,0,0,0,1.44.31,1.56,1.56,0,0,0,1.085-.724,1.927,1.927,0,0,0,.071-1.38Z" transform="translate(-4411.224 -683.114)" fill="#d91e32"/><path d="M4457.129,693.156l-1.711.419-.871-3.558-3.494.855.871,3.558-1.717.42-2.1-8.563,1.717-.42.9,3.682,3.493-.856-.9-3.682,1.711-.418Z" transform="translate(-4415.664 -681.561)" fill="#d91e32"/><path d="M4468.3,686.592l-3.546.868.6,2.441,4.146-1.015.324,1.323-5.864,1.435-2.1-8.563,5.852-1.432.324,1.323-4.134,1.012.527,2.153,3.546-.868Z" transform="translate(-4420.891 -680.442)" fill="#d91e32"/><path d="M4476,685.368l.837,3.423-1.717.42-2.1-8.563,3.229-.791a3.655,3.655,0,0,1,2.454.107,2.328,2.328,0,0,1,1.282,1.659,1.946,1.946,0,0,1-.068,1.226,2.492,2.492,0,0,1-.829,1.02,1.9,1.9,0,0,1,1.274.48,2.437,2.437,0,0,1,.648,1.212l.154.629a3.2,3.2,0,0,0,.28.726,1.058,1.058,0,0,0,.475.5l.03.124-1.771.433a1,1,0,0,1-.46-.555,5.437,5.437,0,0,1-.275-.818l-.148-.606a1.4,1.4,0,0,0-.594-.911,1.355,1.355,0,0,0-1.072-.115Zm-.324-1.323,1.482-.363a1.671,1.671,0,0,0,1-.57,1.163,1.163,0,0,0,.134-.993,1.282,1.282,0,0,0-.585-.848,1.487,1.487,0,0,0-1.134-.09l-1.512.37Z" transform="translate(-4425.129 -679.702)" fill="#d91e32"/></g></g><g transform="translate(1573.816 1485.09)"><path d="M4388.474,731.6a10.076,10.076,0,0,0-6.613-7.095l.994-22.107a9.9,9.9,0,0,0,7.2-5.941l60.978,2.74a9.247,9.247,0,0,0,5.838,6.527l-.993,22.107a9.529,9.529,0,0,0-6.423,6.509Z" transform="translate(-4380.348 -694.942)" fill="#fff"/><path d="M4386.355,732.083l-.24-1.1a8.58,8.58,0,0,0-5.519-5.979l-.1-.033-1.072-.339,1.095-24.357,1.1-.24a8.465,8.465,0,0,0,6.125-4.982l.354-1.04,63.175,2.84.259,1.067a7.8,7.8,0,0,0,4.887,5.485l1.041.355-1.093,24.3-1.068.259a8.043,8.043,0,0,0-5.371,5.526l-.339,1.073Zm-3.911-9.5a11.613,11.613,0,0,1,6.223,6.673l58.854,2.644a11.139,11.139,0,0,1,6.008-6.084l.9-20.055a10.691,10.691,0,0,1-5.431-6.074l-58.921-2.649a11.538,11.538,0,0,1-6.737,5.565Z" transform="translate(-4379.42 -694.014)" fill="#d91e32"/><g transform="translate(11.067 14.74)"><path d="M4400.741,724.426l.086.483.037,0,.124-.461,2.215-6.39,1.863.086-3.4,8.669-1.815-.083-2.583-8.944,1.862.086Z" transform="translate(-4397.27 -717.787)" fill="#d91e32"/><path d="M4417.478,723.952a3.7,3.7,0,0,1-1.148,2.633,3.549,3.549,0,0,1-2.713.936,3.5,3.5,0,0,1-2.594-1.18,3.715,3.715,0,0,1-.894-2.726l.073-1.585a3.724,3.724,0,0,1,1.136-2.629,3.488,3.488,0,0,1,2.688-.941,3.552,3.552,0,0,1,2.619,1.184,3.7,3.7,0,0,1,.905,2.724Zm-1.692-1.673a2.677,2.677,0,0,0-.437-1.714,1.7,1.7,0,0,0-1.386-.725,1.65,1.65,0,0,0-1.427.593,2.745,2.745,0,0,0-.574,1.672l-.073,1.6a2.75,2.75,0,0,0,.424,1.732,1.655,1.655,0,0,0,1.366.725,1.687,1.687,0,0,0,1.446-.6,2.732,2.732,0,0,0,.586-1.686Z" transform="translate(-4402.155 -718.04)" fill="#d91e32"/><path d="M4431.335,719.361l-.269,5.843a2.791,2.791,0,0,1-1.085,2.241,3.916,3.916,0,0,1-2.6.687,3.869,3.869,0,0,1-2.513-.922,2.807,2.807,0,0,1-.865-2.331l.269-5.843,1.772.082-.269,5.837a1.7,1.7,0,0,0,.406,1.324,1.815,1.815,0,0,0,1.263.491,1.864,1.864,0,0,0,1.32-.369,1.686,1.686,0,0,0,.532-1.285l.268-5.837Z" transform="translate(-4407.426 -718.262)" fill="#d91e32"/><path d="M4444.389,725.8l.011.037a2.874,2.874,0,0,1-.971,2.216,3.491,3.491,0,0,1-2.516.721,3.441,3.441,0,0,1-2.536-1.141,3.624,3.624,0,0,1-.871-2.677l.081-1.748a3.687,3.687,0,0,1,1.088-2.587,3.3,3.3,0,0,1,2.563-.913,3.654,3.654,0,0,1,2.514.955,2.864,2.864,0,0,1,.79,2.324l-.014.035-1.718-.079a1.927,1.927,0,0,0-.355-1.353,1.673,1.673,0,0,0-1.279-.523,1.476,1.476,0,0,0-1.288.586,2.731,2.731,0,0,0-.541,1.619l-.082,1.759a2.655,2.655,0,0,0,.414,1.675,1.583,1.583,0,0,0,1.3.7,1.557,1.557,0,0,0,1.244-.389,1.929,1.929,0,0,0,.458-1.3Z" transform="translate(-4412.557 -718.514)" fill="#d91e32"/><path d="M4457.556,729.4l-1.76-.081.169-3.659-3.593-.165-.168,3.659-1.767-.081.4-8.807,1.766.081-.173,3.786,3.592.165.174-3.786,1.76.081Z" transform="translate(-4417.473 -718.727)" fill="#d91e32"/><path d="M4470.173,726.1l-3.647-.167-.115,2.51,4.264.2-.063,1.361-6.03-.277.4-8.807,6.019.276-.063,1.361-4.252-.2-.1,2.214,3.647.167Z" transform="translate(-4422.848 -718.974)" fill="#d91e32"/><path d="M4477.983,726.807l-.162,3.52-1.766-.081.4-8.806,3.321.152a3.651,3.651,0,0,1,2.324.795,2.327,2.327,0,0,1,.762,1.953,1.944,1.944,0,0,1-.411,1.157,2.5,2.5,0,0,1-1.083.745,1.894,1.894,0,0,1,1.086.82,2.431,2.431,0,0,1,.281,1.346l-.03.647a3.232,3.232,0,0,0,.064.776,1.059,1.059,0,0,0,.315.612l-.006.126-1.82-.084a.99.99,0,0,1-.285-.661,5.452,5.452,0,0,1-.034-.862l.029-.623a1.4,1.4,0,0,0-.312-1.042,1.363,1.363,0,0,0-1-.413Zm.063-1.361,1.524.07a1.669,1.669,0,0,0,1.125-.264,1.165,1.165,0,0,0,.409-.915,1.282,1.282,0,0,0-.322-.979,1.488,1.488,0,0,0-1.063-.406l-1.555-.071Z" transform="translate(-4427.207 -719.175)" fill="#d91e32"/></g></g></g></svg>