<svg xmlns="http://www.w3.org/2000/svg" width="52" height="52" viewBox="0 0 52 52">
  <g id="icon4" transform="translate(-699 -578)">
    <rect id="Rectangle_69" data-name="Rectangle 69" width="52" height="52" transform="translate(699 578)" fill="none"/>
    <g id="XMLID_1017_" transform="translate(654 582)">
      <g id="XMLID_1278_" transform="translate(54 0)">
        <path id="XMLID_1279_" d="M225.681,47.573a1.053,1.053,0,0,1,1.132.948.859.859,0,0,0,1.719,0,2.7,2.7,0,0,0-1.991-2.542v-.119a.859.859,0,0,0-1.719,0v.119a2.7,2.7,0,0,0-1.991,2.542,2.766,2.766,0,0,0,2.85,2.666.963.963,0,1,1-1.132.948.859.859,0,1,0-1.719,0,2.7,2.7,0,0,0,1.991,2.542v.12a.859.859,0,0,0,1.719,0v-.119a2.7,2.7,0,0,0,1.991-2.542,2.766,2.766,0,0,0-2.85-2.666.963.963,0,1,1,0-1.9Z" transform="translate(-208.322 -41.133)" fill="#fff"/>
        <path id="XMLID_1303_" d="M87.859,23.567H83.932A9.237,9.237,0,0,0,74.7,32.794v3.572l-2.486,2.486V18.35A9.2,9.2,0,0,0,80.089,6.3a.859.859,0,0,0-1.632.541,7.468,7.468,0,1,1-4.875-4.785A.859.859,0,1,0,74.094.414,9.2,9.2,0,1,0,70.5,18.35V31.441l-2.486-2.486V25.384a9.237,9.237,0,0,0-9.227-9.227H54.859a.859.859,0,0,0-.859.859v3.928a9.237,9.237,0,0,0,9.227,9.227H66.8l3.7,3.7v8.409H61.892a.859.859,0,0,0,0,1.719H80.826a.859.859,0,0,0,0-1.719H72.219v-1l3.7-3.7h3.572a9.237,9.237,0,0,0,9.227-9.227V24.426A.859.859,0,0,0,87.859,23.567ZM63.227,28.452a7.517,7.517,0,0,1-7.508-7.508V17.875h3.068A7.517,7.517,0,0,1,66.3,25.383v1.853l-3.8-3.8a.859.859,0,0,0-1.215,1.215l3.8,3.8ZM87,28.354a7.517,7.517,0,0,1-7.508,7.508H77.639l3.8-3.8a.859.859,0,1,0-1.215-1.215l-3.8,3.8V32.794a7.517,7.517,0,0,1,7.508-7.508H87Z" transform="translate(-54 0)" fill="#fff"/>
        <path id="XMLID_1306_" d="M315.239,29.919a.86.86,0,1,0-.608-.252A.866.866,0,0,0,315.239,29.919Z" transform="translate(-292.004 -25.777)" fill="#fff"/>
      </g>
    </g>
  </g>
</svg>
