<svg xmlns="http://www.w3.org/2000/svg" width="52" height="52" viewBox="0 0 52 52">
  <g id="icon3" transform="translate(-629 -578)">
    <rect id="Rectangle_68" data-name="Rectangle 68" width="52" height="52" transform="translate(629 578)" fill="none"/>
    <g id="partnership-handshake" transform="translate(633.001 582.5)">
      <path id="Path_218" data-name="Path 218" d="M43.209,109.39l-7.262-9.433a.851.851,0,0,0-1.131-.2l-4.688,2.982H24.013a.843.843,0,0,0-.234.039l-4.741,1.365-4.92-1.346-4.78-3.04a.85.85,0,0,0-1.118.183L.188,109.891A.851.851,0,0,0,.3,111.07l4.21,3.623,3.777,5.09a3,3,0,0,0,1.89,5.046,3.026,3.026,0,0,0-.035.46,3.007,3.007,0,0,0,3.007,3.007h.032c0,.021,0,.041,0,.061a3.006,3.006,0,0,0,3.007,3.007,3.067,3.067,0,0,0,.469-.037,3.007,3.007,0,0,0,5.116,1.831l.46-.46.193.156a3.005,3.005,0,0,0,5.1-2.208,3,3,0,0,0,3.052-3.05,3,3,0,0,0,3.052-3.053,3,3,0,0,0,2.568-4.642l2.758-5.776,4.146-3.568a.851.851,0,0,0,.119-1.164ZM9.066,101.6l3.437,2.186L5.026,112.9l-3-2.579Zm.485,19.314,1.037-1.037c.031-.031.065-.061.1-.089a1.3,1.3,0,0,1,.709-.288h.022c.037,0,.074,0,.112,0a1.3,1.3,0,0,1,.931.409,1.337,1.337,0,0,1-.058,1.851L11.4,122.761a1.305,1.305,0,0,1-1.845-1.846Zm2.669,5.295a1.3,1.3,0,0,1,0-1.845l2.012-2.012a1.319,1.319,0,0,1,1.484-.256,1.3,1.3,0,0,1,.719,1.348,1.377,1.377,0,0,1-.389.786l-1.98,1.979a1.3,1.3,0,0,1-1.846,0Zm3.037,3.067a1.3,1.3,0,0,1,0-1.845l2.011-2.012a1.32,1.32,0,0,1,1.578-.207,1.3,1.3,0,0,1,.623,1.319,1.379,1.379,0,0,1-.387.766L17.1,129.277a1.305,1.305,0,0,1-1.846,0Zm3.46,2.675a1.306,1.306,0,0,1,0-1.845l1.037-1.037c.031-.031.064-.061.1-.089l0,0a1.3,1.3,0,0,1,.579-.269l.015,0c.036-.007.073-.012.111-.015l.045,0c.03,0,.061,0,.091,0a1.3,1.3,0,0,1,.931.409,1.178,1.178,0,0,1,.084.1,1.347,1.347,0,0,1-.147,1.757l-1,1a1.306,1.306,0,0,1-1.845,0Zm15.87-9.494a1.306,1.306,0,0,1-1.845,0,.774.774,0,0,0-.058-.052l-5.47-5.528a.851.851,0,0,0-1.21,1.2l5.53,5.587,0,0a1.305,1.305,0,1,1-1.846,1.846l-3.7-3.737a.851.851,0,1,0-1.209,1.2l3.642,3.68a.806.806,0,0,0,.06.067,1.305,1.305,0,1,1-1.846,1.845l-2.019-2.04a.851.851,0,1,0-1.21,1.2l1.963,1.983a.759.759,0,0,0,.06.067,1.305,1.305,0,0,1-1.845,1.846,1.881,1.881,0,0,0-.193-.154c-.056-.042-.07-.072-.042-.139s.07-.13.1-.2.056-.156.081-.235a3.067,3.067,0,0,0,.11-1.309,2.976,2.976,0,0,0-2.536-2.561,3.034,3.034,0,0,0-.729-2.738,2.984,2.984,0,0,0-2.143-.94h-.09A2.977,2.977,0,0,0,15.2,120.27a3.059,3.059,0,0,0-.726.077,3,3,0,0,0-4.971-1.78L6.21,114.136l7.868-9.585,2.507.686-3.275,5.778a3.007,3.007,0,0,0,1.134,4.1q.066.037.132.071l.01,0a3.026,3.026,0,0,0,.361.151,3.006,3.006,0,0,0,3.594-1.36l2.128-3.755,3.8.269,10.118,10.118a1.307,1.307,0,0,1,0,1.846Zm.353-3.9-9.492-9.491a.754.754,0,0,0-.056-.052.851.851,0,0,0-.485-.2l-4.652-.33a.865.865,0,0,0-.8.429l-2.393,4.222a1.305,1.305,0,1,1-2.271-1.287l3.194-5.637,1.294-.372.025-.009,4.83-1.395h5.836l7.286,9.262Zm3.432-6.189-6.738-8.57,3.439-2.187,6.3,8.178Zm0,0" transform="translate(0 -90.725)" fill="#fff"/>
      <path id="Path_219" data-name="Path 219" d="M301,36.384a.848.848,0,0,0,.6-.249l5.811-5.811a.851.851,0,0,0-1.2-1.2l-5.811,5.811a.851.851,0,0,0,.6,1.452Zm0,0" transform="translate(-274.712 -25.967)" fill="#fff"/>
      <path id="Path_220" data-name="Path 220" d="M129.256,36.135a.851.851,0,0,0,1.2-1.2l-5.811-5.811a.851.851,0,1,0-1.2,1.2Zm0,0" transform="translate(-112.757 -25.967)" fill="#fff"/>
      <path id="Path_221" data-name="Path 221" d="M246.812,47.21a.851.851,0,0,0,.851-.851V41.55a.851.851,0,0,0-1.7,0v4.809A.851.851,0,0,0,246.812,47.21Zm0,0" transform="translate(-225.119 -36.792)" fill="#fff"/>
      <path id="Path_222" data-name="Path 222" d="M246.049,1.674a.85.85,0,1,0,1.3-1,.85.85,0,0,0-1.3,1Zm0,0" transform="translate(-225.142 0)" fill="#fff"/>
    </g>
  </g>
</svg>
