<svg xmlns="http://www.w3.org/2000/svg" width="57.697" height="66" viewBox="0 0 57.697 66"><g transform="translate(-1333 -1460)"><path d="M123.425,64.577a22.577,22.577,0,1,0-45.154,0c-3.223.4-6.271,2.509-6.271,7.4v11.79c0,5.519,3.863,7.526,7.526,7.526h3.637a1.254,1.254,0,0,0,1.254-1.254V65.756A1.254,1.254,0,0,0,83.163,64.5H80.78a20.068,20.068,0,0,1,40.137,0h-2.383a1.254,1.254,0,0,0-1.254,1.254V90a1.254,1.254,0,0,0,1.254,1.254h2.383c-.351,8.617-4.49,10.636-12.756,11v-.84a2.508,2.508,0,0,0-2.509-2.509H97.763a2.508,2.508,0,0,0-2.509,2.509v4.076A2.508,2.508,0,0,0,97.763,108h7.914a2.508,2.508,0,0,0,2.509-2.509v-.727c7.952-.364,14.826-2.007,15.239-13.584,3.223-.4,6.271-2.509,6.271-7.4V71.99c0-4.917-3.035-7.011-6.271-7.413ZM81.909,88.747H79.463c-1.856,0-5.017-.652-5.017-5.017V71.94c0-4.327,3.123-5.017,5.017-5.017h2.446ZM97.763,105.5v-4.076h7.914V105.5Zm29.425-21.737c0,4.327-3.123,5.017-5.017,5.017h-2.383V67.01h2.446c1.856,0,5.017.652,5.017,5.017Z" transform="translate(1261 1418)" fill="#d91e32"/></g></svg>