<svg xmlns="http://www.w3.org/2000/svg" width="52" height="52" viewBox="0 0 52 52">
  <g id="icon1" transform="translate(-419 -578)">
    <rect id="Rectangle_57" data-name="Rectangle 57" width="52" height="52" transform="translate(419 578)" fill="none"/>
    <g id="Group_45" data-name="Group 45" transform="translate(425 554.812)">
      <g id="Group_38" data-name="Group 38" transform="translate(21.835 57.815)">
        <g id="Group_37" data-name="Group 37">
          <path id="Path_190" data-name="Path 190" d="M282.258,361.686h-2.193a.586.586,0,1,0,0,1.172h2.193a.586.586,0,0,0,0-1.172Z" transform="translate(-279.479 -361.686)" fill="#fff"/>
        </g>
      </g>
      <g id="Group_40" data-name="Group 40" transform="translate(17.245 32.063)">
        <g id="Group_39" data-name="Group 39" transform="translate(0 0)">
          <path id="Path_191" data-name="Path 191" d="M241,51.545l-3.191-1.231-1.627-1.627a.583.583,0,0,0-.377-.17V47.223a6.043,6.043,0,0,0,1.533-3.019,1.677,1.677,0,0,0,.411-.033,1.734,1.734,0,0,0,1.345-1.72v-.427a1.756,1.756,0,0,0-.516-1.246c.517-2.814.091-5.107-1.238-6.642-1.286-1.485-3.357-2.194-5.99-2.052a7.848,7.848,0,0,0-4.5,1.66,3.087,3.087,0,0,0-1.206.41,3.119,3.119,0,0,0-1.426,2.9,14.633,14.633,0,0,0,.406,3.4,1.737,1.737,0,0,0-.954,1.573v.421a1.734,1.734,0,0,0,1.345,1.72,1.673,1.673,0,0,0,.411.033,6.043,6.043,0,0,0,1.533,3.019v1.294a.583.583,0,0,0-.377.17l-1.627,1.627-3.191,1.231a3.881,3.881,0,0,0-.784.41.586.586,0,1,0,.659.969,2.711,2.711,0,0,1,.547-.286l2.961-1.142,2.264,3.4a1.676,1.676,0,0,0,1.234.741c.056.006.112.008.168.008a1.672,1.672,0,0,0,.825-.218l-.486,11.021a.586.586,0,0,0,.56.611h.026a.586.586,0,0,0,.585-.56l.451-10.23H232l.451,10.23a.586.586,0,0,0,.585.56h.026a.586.586,0,0,0,.56-.611l-.486-11.021a1.672,1.672,0,0,0,.825.218c.056,0,.112,0,.168-.008a1.676,1.676,0,0,0,1.234-.741l2.264-3.4,2.961,1.142a2.7,2.7,0,0,1,1.054.735L239.611,55.4a3.85,3.85,0,0,0-1.135,2.74V66.47a.586.586,0,0,0,1.172,0V58.138a2.686,2.686,0,0,1,.792-1.911l1.778-1.778a2.7,2.7,0,0,1,.094.819l-.454,11.178a.586.586,0,0,0,.562.609h.024a.586.586,0,0,0,.585-.562l.454-11.178A3.874,3.874,0,0,0,241,51.545Zm-14.426-7.582a1.141,1.141,0,0,0-1.187-.93.5.5,0,0,1-.136-.009.568.568,0,0,1-.409-.572v-.421a.555.555,0,0,1,.413-.557.509.509,0,0,1,.5.192.817.817,0,0,0,1.123.176,4.254,4.254,0,0,0,.961-.939.586.586,0,0,0-.94-.7,3.111,3.111,0,0,1-.456.493,1.676,1.676,0,0,0-.635-.339,13.476,13.476,0,0,1-.419-3.3,2.053,2.053,0,0,1,.822-1.874,1.9,1.9,0,0,1,.876-.281.592.592,0,0,0,.4-.162,6.6,6.6,0,0,1,3.921-1.484c2.258-.122,4,.448,5.041,1.649s1.4,3.068,1.018,5.393a2.54,2.54,0,0,0-.5.035l-.55-1.322a.587.587,0,0,0-.689-.342c-.054.014-5.465,1.386-7.734-1.439a.586.586,0,1,0-.914.734c2.317,2.885,6.914,2.257,8.444,1.951l.426,1.022a.963.963,0,0,0,1.113.571,1.265,1.265,0,0,1,.438-.032.553.553,0,0,1,.416.55v.427a.568.568,0,0,1-.409.572.5.5,0,0,1-.136.009,1.141,1.141,0,0,0-1.187.93,4.89,4.89,0,0,1-9.618,0Zm2.6,10.358a.51.51,0,0,1-.786-.078l-2.281-3.421.917-.917,3.5,3.064Zm1.653.774.035-.805.521-.521.521.521.035.805Zm.557-2.934-3.251-2.845V48.194a6.064,6.064,0,0,0,6.5,0v1.121Zm3,2.082a.51.51,0,0,1-.786.078l-1.352-1.352,3.5-3.064.917.917Z" transform="translate(-220.729 -32.066)" fill="#fff"/>
        </g>
      </g>
      <g id="Group_42" data-name="Group 42" transform="translate(0 32.063)">
        <g id="Group_41" data-name="Group 41" transform="translate(0)">
          <path id="Path_192" data-name="Path 192" d="M18.582,54.613l-2.861-1.249L14.157,51.8a.583.583,0,0,0-.377-.17v-.922a6.052,6.052,0,0,0,2.629-3.94,1.684,1.684,0,0,0,.462-.044,1.744,1.744,0,0,0,1.294-1.708v-.427a1.747,1.747,0,0,0-.751-1.441,6.626,6.626,0,0,0,.2-1.623,6.832,6.832,0,0,0-3.29-5.793,3.8,3.8,0,0,0-3.874-3.668,3.8,3.8,0,0,0-3.874,3.668,6.832,6.832,0,0,0-3.29,5.793,6.626,6.626,0,0,0,.2,1.619,1.751,1.751,0,0,0-.75,1.452v.421a1.744,1.744,0,0,0,1.294,1.708,1.68,1.68,0,0,0,.462.044,6.052,6.052,0,0,0,2.629,3.94v.922a.583.583,0,0,0-.377.17L5.186,53.364,2.325,54.613A3.9,3.9,0,0,0,0,58.328L.35,66.492a.586.586,0,0,0,.585.561H.96a.586.586,0,0,0,.561-.61l-.346-8.164A2.7,2.7,0,0,1,1.546,56.8l1.538,1.845a3.257,3.257,0,0,1,.754,2.081v5.737a.586.586,0,1,0,1.172,0V60.73A4.432,4.432,0,0,0,3.984,57.9L2.349,55.936a2.656,2.656,0,0,1,.445-.25L5.287,54.6l1.762,2.86a1.134,1.134,0,0,0,1.7.268l1.117-.953v9.694a.586.586,0,1,0,1.172,0V56.774l1.116.953a1.133,1.133,0,0,0,.736.271,1.144,1.144,0,0,0,.177-.014,1.133,1.133,0,0,0,.789-.525L15.62,54.6l2.493,1.088a2.659,2.659,0,0,1,.445.25L16.923,57.9A4.432,4.432,0,0,0,15.9,60.73v5.737a.586.586,0,1,0,1.172,0V60.73a3.258,3.258,0,0,1,.754-2.081L19.361,56.8a2.7,2.7,0,0,1,.371,1.476l-.346,8.164a.586.586,0,0,0,.561.61h.025a.586.586,0,0,0,.585-.561l.346-8.164A3.9,3.9,0,0,0,18.582,54.613ZM10.454,33.235a2.685,2.685,0,0,1,2.609,1.873,7.431,7.431,0,0,0-5.219,0A2.685,2.685,0,0,1,10.454,33.235ZM5.645,46.527a1.141,1.141,0,0,0-1.186-.93.506.506,0,0,1-.153-.013.572.572,0,0,1-.392-.568V44.6a.555.555,0,0,1,.413-.557.509.509,0,0,1,.5.192.817.817,0,0,0,1.123.176,4.25,4.25,0,0,0,.948-.923.586.586,0,0,0-.937-.7,3.106,3.106,0,0,1-.447.481,1.679,1.679,0,0,0-.884-.389,5.457,5.457,0,0,1-.17-1.347,5.867,5.867,0,0,1,5.992-5.718,5.867,5.867,0,0,1,5.992,5.718,5.455,5.455,0,0,1-.169,1.344,2.687,2.687,0,0,0-.456.075l-.44-.362a1.125,1.125,0,0,0-.782-.256c-.861.051-5.272.167-7.535-2.541a.586.586,0,1,0-.9.751A8.374,8.374,0,0,0,11.03,43.22a14.341,14.341,0,0,0,3.618.276l.687.565a.585.585,0,0,0,.666.054,1.293,1.293,0,0,1,.577-.077.553.553,0,0,1,.416.55v.427a.572.572,0,0,1-.392.568.5.5,0,0,1-.153.013,1.142,1.142,0,0,0-1.187.93,4.89,4.89,0,0,1-9.618,0ZM8.024,56.806,6.262,53.946l.9-.9,2.426,2.426Zm2.43-2.132L8.3,52.52V51.307a6.058,6.058,0,0,0,4.31,0V52.52Zm2.43,2.132-1.567-1.337,2.426-2.426.9.9Z" transform="translate(0 -32.063)" fill="#fff"/>
        </g>
      </g>
      <g id="Group_44" data-name="Group 44" transform="translate(6.03 60.399)">
        <g id="Group_43" data-name="Group 43" transform="translate(0 0)">
          <path id="Path_193" data-name="Path 193" d="M79.414,394.766H77.77a.586.586,0,0,0,0,1.172h1.645a.586.586,0,0,0,0-1.172Z" transform="translate(-77.184 -394.766)" fill="#fff"/>
        </g>
      </g>
    </g>
  </g>
</svg>
