<svg xmlns="http://www.w3.org/2000/svg" width="52" height="52" viewBox="0 0 52 52">
  <g id="icon2" transform="translate(-541 -578)">
    <rect id="Rectangle_58" data-name="Rectangle 58" width="52" height="52" transform="translate(541 578)" fill="none"/>
    <g id="visit" transform="translate(545.002 581.998)">
      <g id="Group_48" data-name="Group 48" transform="translate(0 24.933)">
        <g id="Group_47" data-name="Group 47" transform="translate(0)">
          <path id="Path_194" data-name="Path 194" d="M11.468,282.184a3.862,3.862,0,0,0-1.668-.617,5.09,5.09,0,0,0,1.933-3.7c0-4.848-2.792-5.866-5.133-5.866s-5.133,1.018-5.133,5.866a5.09,5.09,0,0,0,1.934,3.7,3.874,3.874,0,0,0-3.4,3.85v4.913a.733.733,0,0,0,.733.733H12.466a.733.733,0,0,0,.733-.733v-4.913A3.88,3.88,0,0,0,11.468,282.184Zm-8.5-5.1c.2-2.458,1.355-3.624,3.628-3.624a3.2,3.2,0,0,1,3.554,3.037L7.71,275.035a.733.733,0,0,0-1.073.4C6.267,276.545,4.263,276.966,2.971,277.088Zm.064,1.471c1.255-.1,3.52-.483,4.576-1.874l2.621,1.573A4.539,4.539,0,0,1,6.6,281.531,4.62,4.62,0,0,1,3.035,278.559Zm4.17,7.193-.606.607-.606-.606.606-1.516Zm4.527,3.844H1.467v-4.18A2.42,2.42,0,0,1,3.886,283H5.514l-1.063,2.661a.733.733,0,0,0,.163.79l1.467,1.467a.733.733,0,0,0,1.037,0l1.467-1.467a.733.733,0,0,0,.163-.79L7.682,283h1.63a2.42,2.42,0,0,1,2.42,2.42Z" transform="translate(0 -271.998)" fill="#fff"/>
        </g>
      </g>
      <g id="Group_50" data-name="Group 50" transform="translate(15.399 24.933)">
        <g id="Group_49" data-name="Group 49">
          <path id="Path_195" data-name="Path 195" d="M179.468,282.184a3.862,3.862,0,0,0-1.668-.617,5.09,5.09,0,0,0,1.933-3.7c0-4.848-2.792-5.866-5.133-5.866s-5.133,1.018-5.133,5.866a5.09,5.09,0,0,0,1.934,3.7,3.874,3.874,0,0,0-3.4,3.85v4.913a.733.733,0,0,0,.733.733h11.732a.733.733,0,0,0,.733-.733v-4.913A3.88,3.88,0,0,0,179.468,282.184Zm-8.5-5.1c.2-2.458,1.355-3.624,3.628-3.624a3.2,3.2,0,0,1,3.554,3.037l-2.443-1.467a.733.733,0,0,0-1.073.4C174.267,276.545,172.263,276.966,170.971,277.088Zm.064,1.471c1.255-.1,3.52-.483,4.576-1.874l2.621,1.573a4.539,4.539,0,0,1-3.632,3.272A4.62,4.62,0,0,1,171.035,278.559Zm4.17,7.193-.606.607-.606-.606.606-1.516Zm4.527,3.844H169.467v-4.18a2.42,2.42,0,0,1,2.42-2.42h1.628l-1.065,2.661a.733.733,0,0,0,.163.79l1.467,1.467a.733.733,0,0,0,1.037,0l1.467-1.467a.733.733,0,0,0,.163-.79L175.682,283h1.63a2.42,2.42,0,0,1,2.42,2.42Z" transform="translate(-168 -271.998)" fill="#fff"/>
        </g>
      </g>
      <g id="Group_52" data-name="Group 52" transform="translate(30.797 24.933)">
        <g id="Group_51" data-name="Group 51">
          <path id="Path_196" data-name="Path 196" d="M347.468,282.184a3.862,3.862,0,0,0-1.668-.617,5.09,5.09,0,0,0,1.933-3.7c0-4.848-2.792-5.866-5.133-5.866s-5.133,1.018-5.133,5.866a5.09,5.09,0,0,0,1.934,3.7,3.874,3.874,0,0,0-3.4,3.85v4.913a.733.733,0,0,0,.733.733h11.732a.733.733,0,0,0,.733-.733v-4.913A3.88,3.88,0,0,0,347.468,282.184Zm-8.5-5.1c.2-2.458,1.355-3.624,3.628-3.624a3.2,3.2,0,0,1,3.554,3.037l-2.443-1.467a.733.733,0,0,0-1.073.4C342.267,276.545,340.263,276.966,338.971,277.088Zm.064,1.471c1.255-.1,3.52-.483,4.576-1.874l2.621,1.573a4.539,4.539,0,0,1-3.632,3.272A4.62,4.62,0,0,1,339.035,278.559Zm4.17,7.193-.606.607-.606-.606.606-1.516Zm4.527,3.844H337.466v-4.18a2.42,2.42,0,0,1,2.42-2.42h1.628l-1.065,2.661a.734.734,0,0,0,.163.79l1.467,1.467a.733.733,0,0,0,1.037,0l1.467-1.467a.733.733,0,0,0,.163-.79L343.682,283h1.63a2.42,2.42,0,0,1,2.42,2.42Z" transform="translate(-336 -271.998)" fill="#fff"/>
        </g>
      </g>
      <g id="Group_54" data-name="Group 54" transform="translate(10.265 5.865)">
        <g id="Group_53" data-name="Group 53">
          <path id="Path_197" data-name="Path 197" d="M135.461,80.1V70.569a.733.733,0,0,0-.733-.733h-6.6v-2.2a.733.733,0,0,0-.733-.733H122.94a5.853,5.853,0,0,0-5.258-2.933A6.024,6.024,0,0,0,112,70.051a10.046,10.046,0,0,0,1.574,5.4l2.957,4.646h-.864v1.467h20.532V80.1Zm-15.4,0H119.2l.864-1.357Zm-2.2-.632-3.055-4.8a8.579,8.579,0,0,1-1.345-4.617,4.546,4.546,0,0,1,4.264-4.615h.136a4.4,4.4,0,0,1,4.4,4.4v.216a8.579,8.579,0,0,1-1.345,4.62Zm8.8.632h-5.133V76.439l.626-.983a10.046,10.046,0,0,0,1.574-5.4v-.216a5.9,5.9,0,0,0-.191-1.467h3.124Zm5.133,0h-1.467V77.9h1.467Zm2.2-8.066h-1.467V73.5h1.467v.733h-1.467V75.7h1.467v4.4h-.733V77.168a.733.733,0,0,0-.733-.733h-2.933a.733.733,0,0,0-.733.733V80.1h-.733V75.7h1.467V74.235h-1.467V73.5h1.467V72.035h-1.467V71.3h5.866Z" transform="translate(-111.996 -63.967)" fill="#fff"/>
        </g>
      </g>
      <g id="Group_56" data-name="Group 56" transform="translate(23.172 10.265)">
        <g id="Group_55" data-name="Group 55" transform="translate(0 0)">
          <rect id="Rectangle_59" data-name="Rectangle 59" width="1" height="3" transform="translate(-0.174 -0.263)" fill="#fff"/>
        </g>
      </g>
      <g id="Group_58" data-name="Group 58" transform="translate(29.041 13.786)">
        <g id="Group_57" data-name="Group 57" transform="translate(0 0)">
          <rect id="Rectangle_60" data-name="Rectangle 60" width="1" height="1" transform="translate(-0.042 0.216)" fill="#fff"/>
        </g>
      </g>
      <g id="Group_60" data-name="Group 60" transform="translate(29.041 14.96)">
        <g id="Group_59" data-name="Group 59" transform="translate(0 0)">
          <rect id="Rectangle_61" data-name="Rectangle 61" width="1" height="3" transform="translate(-0.042 0.042)" fill="#fff"/>
        </g>
      </g>
      <g id="Group_62" data-name="Group 62" transform="translate(23.172 12.612)">
        <g id="Group_61" data-name="Group 61" transform="translate(0 0)">
          <rect id="Rectangle_62" data-name="Rectangle 62" width="1" height="1" transform="translate(-0.174 0.39)" fill="#fff"/>
        </g>
      </g>
      <g id="Group_64" data-name="Group 64" transform="translate(23.172 14.96)">
        <g id="Group_63" data-name="Group 63" transform="translate(0 0)">
          <rect id="Rectangle_63" data-name="Rectangle 63" width="1" height="2" transform="translate(-0.174 0.042)" fill="#fff"/>
        </g>
      </g>
      <g id="Group_66" data-name="Group 66" transform="translate(20.824 18.481)">
        <g id="Group_65" data-name="Group 65" transform="translate(0 0)">
          <rect id="Rectangle_64" data-name="Rectangle 64" width="1" height="2" transform="translate(0.174 -0.479)" fill="#fff"/>
        </g>
      </g>
      <g id="Group_68" data-name="Group 68" transform="translate(23.172 18.481)">
        <g id="Group_67" data-name="Group 67" transform="translate(0 0)">
          <rect id="Rectangle_65" data-name="Rectangle 65" width="1" height="2" transform="translate(-0.174 -0.479)" fill="#fff"/>
        </g>
      </g>
      <g id="Group_70" data-name="Group 70" transform="translate(20.824 19.655)">
        <g id="Group_69" data-name="Group 69" transform="translate(0 0)">
          <rect id="Rectangle_66" data-name="Rectangle 66" width="1" height="1" transform="translate(0.174 0.347)" fill="#fff"/>
        </g>
      </g>
      <g id="Group_72" data-name="Group 72" transform="translate(23.172 19.655)">
        <g id="Group_71" data-name="Group 71" transform="translate(0 0)">
          <rect id="Rectangle_67" data-name="Rectangle 67" width="1" height="1" transform="translate(-0.174 0.347)" fill="#fff"/>
        </g>
      </g>
      <g id="Group_74" data-name="Group 74" transform="translate(39.254 15.301)">
        <g id="Group_73" data-name="Group 73">
          <path id="Path_198" data-name="Path 198" d="M429.694,166.918l-1.438.29c.09.448.164.906.22,1.362l1.454-.173C429.871,167.9,429.792,167.4,429.694,166.918Z" transform="translate(-428.256 -166.918)" fill="#fff"/>
        </g>
      </g>
      <g id="Group_76" data-name="Group 76" transform="translate(3.065 15.337)">
        <g id="Group_75" data-name="Group 75">
          <path id="Path_199" data-name="Path 199" d="M33.675,167.3c-.1.49-.177.986-.235,1.476l1.456.172c.053-.452.126-.911.216-1.364Z" transform="translate(-33.44 -167.302)" fill="#fff"/>
        </g>
      </g>
      <g id="Group_78" data-name="Group 78" transform="translate(37.34 9.717)">
        <g id="Group_77" data-name="Group 77">
          <path id="Path_200" data-name="Path 200" d="M408.653,105.99l-1.277.72c.225.4.44.811.631,1.228l1.329-.619C409.126,106.868,408.9,106.421,408.653,105.99Z" transform="translate(-407.376 -105.99)" fill="#fff"/>
        </g>
      </g>
      <g id="Group_80" data-name="Group 80" transform="translate(35.8 7.237)">
        <g id="Group_79" data-name="Group 79">
          <path id="Path_201" data-name="Path 201" d="M391.727,78.934l-1.151.911c.284.357.558.733.815,1.115l1.216-.819C392.329,79.727,392.032,79.321,391.727,78.934Z" transform="translate(-390.576 -78.934)" fill="#fff"/>
        </g>
      </g>
      <g id="Group_82" data-name="Group 82" transform="translate(6.148 7.261)">
        <g id="Group_81" data-name="Group 81">
          <path id="Path_202" data-name="Path 202" d="M67.961,79.2c-.309.389-.6.8-.881,1.208l1.219.816c.254-.381.528-.756.812-1.116Z" transform="translate(-67.08 -79.198)" fill="#fff"/>
        </g>
      </g>
      <g id="Group_84" data-name="Group 84" transform="translate(33.924 5.047)">
        <g id="Group_83" data-name="Group 83">
          <path id="Path_203" data-name="Path 203" d="M371.106,55.046l-.994,1.078c.34.314.669.642.977.975l1.076-1C371.831,55.741,371.474,55.386,371.106,55.046Z" transform="translate(-370.112 -55.046)" fill="#fff"/>
        </g>
      </g>
      <g id="Group_86" data-name="Group 86" transform="translate(4.684 9.741)">
        <g id="Group_85" data-name="Group 85">
          <path id="Path_204" data-name="Path 204" d="M51.785,106.254c-.242.43-.471.879-.681,1.333l1.33.616c.194-.419.406-.834.628-1.229Z" transform="translate(-51.104 -106.254)" fill="#fff"/>
        </g>
      </g>
      <g id="Group_88" data-name="Group 88" transform="translate(3.648 12.458)">
        <g id="Group_87" data-name="Group 87">
          <path id="Path_205" data-name="Path 205" d="M40.263,135.894c-.174.469-.329.948-.463,1.423l1.411.4c.124-.44.268-.88.428-1.314Z" transform="translate(-39.8 -135.894)" fill="#fff"/>
        </g>
      </g>
      <g id="Group_90" data-name="Group 90" transform="translate(8.001 5.065)">
        <g id="Group_89" data-name="Group 89">
          <path id="Path_206" data-name="Path 206" d="M88.345,55.238c-.367.337-.72.692-1.057,1.057l1.077,1c.308-.336.639-.663.975-.975Z" transform="translate(-87.288 -55.238)" fill="#fff"/>
        </g>
      </g>
      <g id="Group_92" data-name="Group 92" transform="translate(38.501 12.428)">
        <g id="Group_91" data-name="Group 91">
          <path id="Path_207" data-name="Path 207" d="M421.423,135.566l-1.375.51c.161.432.305.873.43,1.313l1.411-.4C421.753,136.511,421.6,136.034,421.423,135.566Z" transform="translate(-420.048 -135.566)" fill="#fff"/>
        </g>
      </g>
      <g id="Group_94" data-name="Group 94" transform="translate(15.391 0.717)">
        <g id="Group_93" data-name="Group 93">
          <path id="Path_208" data-name="Path 208" d="M169.333,7.8c-.481.136-.96.293-1.421.463l.508,1.375c.426-.157.868-.3,1.313-.427Z" transform="translate(-167.912 -7.798)" fill="#fff"/>
        </g>
      </g>
      <g id="Group_96" data-name="Group 96" transform="translate(18.268 0.134)">
        <g id="Group_95" data-name="Group 95">
          <path id="Path_209" data-name="Path 209" d="M200.781,1.446c-.49.058-.987.136-1.477.232l.284,1.439c.453-.089.912-.163,1.365-.216Z" transform="translate(-199.304 -1.446)" fill="#fff"/>
        </g>
      </g>
      <g id="Group_98" data-name="Group 98" transform="translate(21.236 0.002)">
        <g id="Group_97" data-name="Group 97" transform="translate(0 0)">
          <path id="Path_210" data-name="Path 210" d="M231.68.016l.056,1.467c.458-.016.924-.018,1.382,0l.059-1.467C232.679,0,232.176,0,231.68.016Z" transform="translate(-231.68 -0.002)" fill="#fff"/>
        </g>
      </g>
      <g id="Group_100" data-name="Group 100" transform="translate(12.678 1.751)">
        <g id="Group_99" data-name="Group 99">
          <path id="Path_211" data-name="Path 211" d="M139.644,19.086c-.449.208-.9.44-1.332.68l.719,1.279c.4-.225.813-.44,1.229-.628Z" transform="translate(-138.312 -19.086)" fill="#fff"/>
        </g>
      </g>
      <g id="Group_102" data-name="Group 102" transform="translate(24.051 0.13)">
        <g id="Group_101" data-name="Group 101">
          <path id="Path_212" data-name="Path 212" d="M262.568,1.4,262.4,2.854c.451.052.91.124,1.365.213l.281-1.439C263.553,1.531,263.06,1.454,262.568,1.4Z" transform="translate(-262.4 -1.398)" fill="#fff"/>
        </g>
      </g>
      <g id="Group_104" data-name="Group 104" transform="translate(31.755 3.197)">
        <g id="Group_103" data-name="Group 103">
          <path id="Path_213" data-name="Path 213" d="M347.261,34.862l-.813,1.22c.378.252.754.525,1.117.811l.906-1.153C348.078,35.431,347.671,35.135,347.261,34.862Z" transform="translate(-346.448 -34.862)" fill="#fff"/>
        </g>
      </g>
      <g id="Group_106" data-name="Group 106" transform="translate(26.758 0.707)">
        <g id="Group_105" data-name="Group 105">
          <path id="Path_214" data-name="Path 214" d="M292.322,7.694l-.394,1.412c.44.123.88.265,1.313.424l.505-1.376C293.279,7.981,292.8,7.827,292.322,7.694Z" transform="translate(-291.928 -7.694)" fill="#fff"/>
        </g>
      </g>
      <g id="Group_108" data-name="Group 108" transform="translate(10.195 3.215)">
        <g id="Group_107" data-name="Group 107">
          <path id="Path_215" data-name="Path 215" d="M112.44,35.054c-.415.279-.822.575-1.208.88l.908,1.151c.356-.282.733-.555,1.118-.814Z" transform="translate(-111.232 -35.054)" fill="#fff"/>
        </g>
      </g>
      <g id="Group_110" data-name="Group 110" transform="translate(29.346 1.738)">
        <g id="Group_109" data-name="Group 109">
          <path id="Path_216" data-name="Path 216" d="M320.773,18.942l-.613,1.332c.414.191.829.4,1.232.626l.715-1.28C321.671,19.378,321.223,19.149,320.773,18.942Z" transform="translate(-320.16 -18.942)" fill="#fff"/>
        </g>
      </g>
      <g id="Group_112" data-name="Group 112" transform="translate(13.199 8.801)">
        <g id="Group_111" data-name="Group 111">
          <path id="Path_217" data-name="Path 217" d="M146.933,96a2.933,2.933,0,1,0,2.933,2.933A2.933,2.933,0,0,0,146.933,96Zm0,4.4a1.467,1.467,0,1,1,1.467-1.467A1.467,1.467,0,0,1,146.933,100.4Z" transform="translate(-144 -95.998)" fill="#fff"/>
        </g>
      </g>
    </g>
  </g>
</svg>
