<svg xmlns="http://www.w3.org/2000/svg" width="37.569" height="13.732" viewBox="0 0 37.569 13.732"><g transform="translate(1376.069 299.421)"><path d="M99.137,59.5C97.881,62.459,93.079,66.25,83,64c-10.242-2.288-16.593-.695-20.4,3.2A20.452,20.452,0,0,1,76.625,65.53c6.92,1.474,16.9,4.55,21.863,0,1.969-1.811,2.258-5,.649-6.029" transform="translate(-1438.677 -353.609)" fill="#fff"/><path d="M63.065,64.832s1.238-2.295,5.064-3.642c4.33-1.517,8.724-1.405,11.926-4.009a13.658,13.658,0,0,0,10.127,6.638c-2.26,1.827-7.537-.277-11.881-.954-6.9-1.08-11.725-.1-15.236,1.967" transform="translate(-1438.087 -356.602)" fill="#fff"/></g></svg>