<svg xmlns="http://www.w3.org/2000/svg" width="137" height="281" viewBox="0 0 137 281"><g transform="translate(283.604 -1197.306) rotate(-90)" opacity="0.2"><g transform="translate(-1462.147 -212.627)"><path d="M112.471,59.5c-1.715,4.043-8.27,9.218-22.022,6.145-13.98-3.123-22.651-.948-27.842,4.365a27.918,27.918,0,0,1,19.134-2.275c9.446,2.012,23.067,6.211,29.844-.006,2.688-2.472,3.082-6.821.885-8.229" transform="translate(-62.608 -52.25)" fill="#6d5145"/><path d="M63.065,67.626s1.69-3.132,6.912-4.972c5.911-2.071,11.909-1.918,16.28-5.473a18.644,18.644,0,0,0,13.824,9.062c-3.085,2.494-10.288-.379-16.218-1.3-9.418-1.474-16-.138-20.8,2.685" transform="translate(-61.635 -57.181)" fill="#6d5145"/></g><g transform="translate(-1197.306 -283.604) rotate(90)" fill="none" stroke="#6d5145" stroke-width="6" opacity="0.2"><rect width="137" height="281" stroke="none"/><rect x="3" y="3" width="131" height="275" fill="none"/></g><text transform="translate(-1436.306 -208.604)" fill="#6d5145" font-size="49" font-family="Roboto-Black, Roboto" font-weight="800" letter-spacing="0.2em"><tspan x="0" y="0">TERRA </tspan></text><text transform="translate(-1396.306 -180.604)" fill="#6d5145" font-size="21" font-family="Roboto-Black, Roboto" font-weight="800" letter-spacing="0.2em"><tspan x="0" y="0">INDOCHINA</tspan></text></g></svg>