<svg xmlns="http://www.w3.org/2000/svg" width="143.969" height="60" viewBox="0 0 143.969 60"><g transform="translate(-139 -80.26)"><g transform="translate(139 80.26)"><path d="M71.384,31.352c3.522-2.477,12.257-1.121,18.662-1.019a19.275,19.275,0,0,0-33.638,1.281c5.275-.7,8.871-1.855,14.976-.263" transform="translate(-50.641 -21.085)" fill="#ef8d21"/><path d="M96.945,29c-2.824,3.572-15.275.843-21.53,3.485-2.6,1.186-4.067,3.762-3.78,7.779-.509-1.476-.868-4.551.272-6.676-10.162.8-12.613,6.506-20.464,8.741,3.657,4.275,12.746-2.939,17.636.4a6.98,6.98,0,0,1,3.029,4.027c2.375-7.939,9.515-10.028,17.19-10.029,4.146-.322,8.142-.245,7.646-7.732" transform="translate(-51.443 -19.686)" fill="#6d5145"/><path d="M103.815,50.9,88.35,52.679a5.935,5.935,0,0,0,2.036,4.4,7.515,7.515,0,0,0,4.785,1.517,17.168,17.168,0,0,0,3.488-.318,12.083,12.083,0,0,0,2.948-.9l1.257,3.286a14.1,14.1,0,0,1-3.543,1.051,23.747,23.747,0,0,1-4.586.36,13.927,13.927,0,0,1-4.86-.843,8.959,8.959,0,0,1-3.45-2.3,9.7,9.7,0,0,1-2.041-3.561,13.119,13.119,0,0,1-.562-4.651,13.9,13.9,0,0,1,.921-4.513,10.555,10.555,0,0,1,2.207-3.494,9.507,9.507,0,0,1,3.386-2.244,11.486,11.486,0,0,1,4.4-.761q4.558.061,6.952,2.641a9.159,9.159,0,0,1,2.2,6.921Zm-4.356-2.373a5.683,5.683,0,0,0-1.249-4.22,4.966,4.966,0,0,0-3.7-1.431,5.688,5.688,0,0,0-4.4,1.764,8.11,8.11,0,0,0-1.941,5.182Z" transform="translate(-45.814 -17.76)" fill="#6d5145"/><path d="M124.368,42.882c-3.6.128-8.119.775-8.119,3.62V62.069H111.7V46.792c0-5.315,5.1-7.082,13.874-7.082Z" transform="translate(-41 -17.759)" fill="#6d5145"/><path d="M142.1,42.882c-3.6.128-8.117.775-8.117,3.62V62.069h-4.552V46.792c0-5.315,5.1-7.082,13.876-7.082Z" transform="translate(-37.926 -17.759)" fill="#6d5145"/><path d="M164.636,60.557a13.221,13.221,0,0,1-3.42,1.072,24.946,24.946,0,0,1-4.78.45q-5.053,0-7.568-1.787A5.765,5.765,0,0,1,146.35,55.3a5.427,5.427,0,0,1,1.2-3.629,8.059,8.059,0,0,1,3.154-2.206,18.121,18.121,0,0,1,4.449-1.13q2.5-.331,5.153-.468l0-1.35a3.1,3.1,0,0,0-1.331-2.868,6.764,6.764,0,0,0-3.573-.819,15.942,15.942,0,0,0-3.471.4,15.239,15.239,0,0,0-2.963.926l-1.23-3.007a24.867,24.867,0,0,1,3.59-1.022,21.174,21.174,0,0,1,4.558-.479,16.1,16.1,0,0,1,3.737.4,6.685,6.685,0,0,1,2.637,1.258,5.555,5.555,0,0,1,1.761,2.255,8.418,8.418,0,0,1,.616,3.386ZM160.3,50.8q-1.76.078-3.471.266a15.307,15.307,0,0,0-3.064.624,5.032,5.032,0,0,0-2.156,1.28,3.428,3.428,0,0,0,.6,4.966,7.071,7.071,0,0,0,4.1.986,16.142,16.142,0,0,0,2.308-.167,7.347,7.347,0,0,0,1.691-.4Z" transform="translate(-34.806 -17.768)" fill="#6d5145"/><path d="M70.078,49.759v.006a34.129,34.129,0,0,0,3.269,8.257c1.591,3.058,3.266,4.94,4.382,4.6.835-.254.443-1.908-.021-3.66-2.089-7.942-2.567-17.5,3.039-21.783a6.694,6.694,0,0,1,2.174-1.068C72.454,37.263,69.463,46.157,70.078,49.759" transform="translate(-48.228 -18.368)" fill="#6d5145"/><path d="M81.119,59.5c-.637,1.5-3.07,3.422-8.175,2.281-5.19-1.159-8.409-.352-10.336,1.62a10.364,10.364,0,0,1,7.1-.844c3.507.747,8.563,2.306,11.079,0,1-.918,1.144-2.532.329-3.055" transform="translate(-49.639 -14.439)" fill="#6d5145"/><path d="M63.065,61.058a4.67,4.67,0,0,1,2.566-1.846c2.194-.769,4.421-.712,6.044-2.032a6.921,6.921,0,0,0,5.132,3.364c-1.145.926-3.819-.141-6.021-.483-3.5-.547-5.942-.051-7.721,1" transform="translate(-49.565 -14.843)" fill="#6d5145"/><path d="M85.015,63.916v9.157a.748.748,0,0,0,.231.438H83.512a.748.748,0,0,0,.231-.438V63.916a.78.78,0,0,0-.231-.457h1.734a.78.78,0,0,0-.231.457" transform="translate(-45.917 -13.695)" fill="#ef8d21"/><path d="M98.232,73.695l-8.74-9.074v8.453a.451.451,0,0,0,.328.439H88.685a.506.506,0,0,0,.383-.489V64.2a1.722,1.722,0,0,0-.529-.735h2.032a.6.6,0,0,0-.064.273.479.479,0,0,0,.033.184L97.792,71.4V63.9a.453.453,0,0,0-.344-.439h1.143a.5.5,0,0,0-.359.488Z" transform="translate(-45.026 -13.695)" fill="#ef8d21"/><path d="M100.743,73.511a.754.754,0,0,0,.231-.439V63.916a.784.784,0,0,0-.231-.457h4.517a5.377,5.377,0,0,1,3.718,1.393,4.8,4.8,0,0,1,1.654,3.55,4.64,4.64,0,0,1-1.538,3.6,5.3,5.3,0,0,1-3.771,1.507Zm4.517-.439a3.964,3.964,0,0,0,2.687-1.182,4.478,4.478,0,0,0,1.526-3.439,4.282,4.282,0,0,0-1.415-3.327,4.042,4.042,0,0,0-2.815-1.207h-2.982l-.016,9.156Z" transform="translate(-42.915 -13.695)" fill="#ef8d21"/><path d="M123.748,68.508a4.916,4.916,0,0,1-1.6,3.681,5.355,5.355,0,0,1-3.856,1.531,5.431,5.431,0,0,1-3.889-1.531,5.011,5.011,0,0,1,0-7.364,5.452,5.452,0,0,1,3.889-1.522,5.376,5.376,0,0,1,3.856,1.522,4.9,4.9,0,0,1,1.6,3.683m-1.191.1a5.221,5.221,0,0,0-1.073-3.463,3.985,3.985,0,0,0-3.221-1.408A3.814,3.814,0,0,0,115.12,65.1a5.1,5.1,0,0,0-1.127,3.39,4.941,4.941,0,0,0,1.25,3.383,3.848,3.848,0,0,0,3.02,1.4,4.04,4.04,0,0,0,3.014-1.39,4.644,4.644,0,0,0,1.28-3.271" transform="translate(-40.825 -13.72)" fill="#ef8d21"/><path d="M131.228,73.7a5.351,5.351,0,0,1-3.822-1.5,5.088,5.088,0,0,1-1.647-3.669,4.821,4.821,0,0,1,1.439-3.664,5.3,5.3,0,0,1,3.934-1.559,8.721,8.721,0,0,1,2.862.393l.7.112.016.983a3.955,3.955,0,0,0-2.943-1.03,4.759,4.759,0,0,0-3.437,1.381,4.471,4.471,0,0,0-1.424,3.321,4.388,4.388,0,0,0,1.424,3.294,4.8,4.8,0,0,0,3.437,1.358,5.072,5.072,0,0,0,3.327-.95l-.28,1.047a14.7,14.7,0,0,1-3.59.488" transform="translate(-38.592 -13.72)" fill="#ef8d21"/><path d="M146.658,63.916v9.157a.779.779,0,0,0,.214.438h-1.718a.767.767,0,0,0,.215-.438V68.2h-6.525v4.871a.751.751,0,0,0,.232.438h-1.735a.738.738,0,0,0,.232-.438V63.916a.769.769,0,0,0-.232-.457h1.735a.783.783,0,0,0-.232.457v3.847h6.525V63.916a.8.8,0,0,0-.215-.457h1.718a.814.814,0,0,0-.214.457" transform="translate(-36.587 -13.695)" fill="#ef8d21"/><path d="M150.6,63.916v9.157a.751.751,0,0,0,.232.438H149.1a.748.748,0,0,0,.231-.438V63.916a.779.779,0,0,0-.231-.457h1.735a.783.783,0,0,0-.232.457" transform="translate(-34.616 -13.695)" fill="#ef8d21"/><path d="M163.817,73.695l-8.74-9.074v8.453a.45.45,0,0,0,.328.439h-1.136a.505.505,0,0,0,.384-.489V64.2a1.722,1.722,0,0,0-.529-.735h2.032a.613.613,0,0,0-.064.273.479.479,0,0,0,.033.184l7.252,7.484V63.9a.453.453,0,0,0-.344-.439h1.143a.5.5,0,0,0-.359.488Z" transform="translate(-33.549 -13.695)" fill="#ef8d21"/><path d="M168.75,69.844l-1.423,3.247a.391.391,0,0,0-.049.177.3.3,0,0,0,.192.28h-1.143a1.351,1.351,0,0,0,.232-.114.868.868,0,0,0,.344-.375l3.455-7.883-.329-.736.736-1.192,4.357,9.861a1.444,1.444,0,0,0,.424.439h-1.735a.537.537,0,0,0,.033-.439L172.4,69.844Zm3.47-.44-1.655-3.748L168.934,69.4Z" transform="translate(-31.578 -13.729)" fill="#ef8d21"/></g></g></svg>