<svg id="Layer_1" data-name="Layer 1" xmlns="http://www.w3.org/2000/svg" viewBox="0 0 70 70"><defs><style>.cls-1{fill:#ccc;}</style></defs><title>logo-foot</title><path class="cls-1" d="M60.11,6.5H9.89A3.39,3.39,0,0,0,6.5,9.89V60.11A3.39,3.39,0,0,0,9.89,63.5H60.11a3.39,3.39,0,0,0,3.39-3.39V9.89A3.39,3.39,0,0,0,60.11,6.5Zm8.76,16.84a74.07,74.07,0,0,1-15.6,12.51c.16.62.24,1,.24,1A20.09,20.09,0,0,1,54,41c0,1.12-1.23,10-1.23,10a2.06,2.06,0,0,0,1.56,2.36L58.5,55a.49.49,0,0,1,.29.44.5.5,0,0,1-.5.49H51.45c-1.27,0-1.93-1.11-2.09-2.45L48.8,41.36a11.49,11.49,0,0,0-.75-2.61A75.09,75.09,0,0,1,25.62,46S22.8,51.42,22,53.24s0,2.89,1.13,4l1.05,1.08a.56.56,0,0,1,0,.78.55.55,0,0,1-.65.1s-4.5-2.49-5.93-3.49c-1.61-1.11-1-3-.32-4.69s1.89-4.56,1.89-4.56C9.17,46.68,3,43.16,1.06,37.79L1,37.65c0-.06,0-.11,0-.16a.76.76,0,0,1,.77-.77.79.79,0,0,1,.55.23l.06.07c2.37,2.55,7.4,5.15,18.67,4.49,3.44-9.62,7.48-22.49,7.76-27.39.05-.94-1.06-1.63-1.46-1.87a.84.84,0,0,1,.43-1.56h13A1.39,1.39,0,0,1,42,12.05a3.94,3.94,0,0,1-.16,1.12c-1.43,5.18-8,17.25-13.43,27.53,1.13-.16,2.31-.36,3.54-.58A66.75,66.75,0,0,0,46.5,35.5c-2-3.61-4.66-7.36-5.77-9.56a5.15,5.15,0,0,1-.11-4.69L43.23,16a2,2,0,0,1,.43-.57,1,1,0,0,1,.56-.31h.17a1,1,0,0,1,.72.3,2.91,2.91,0,0,1,.6.79c3.06,5.25,5.38,12.17,6.68,16.51,3.53-1.84,6.72-3.78,9.42-5.54s4.88-3.36,6.42-4.51a.48.48,0,0,1,.28-.1A.48.48,0,0,1,69,23,.59.59,0,0,1,68.87,23.34Z"/></svg>