<svg xmlns="http://www.w3.org/2000/svg" width="65.224" height="46.593" viewBox="0 0 65.224 46.593"><path d="M2576.4,432.858l-8.078-7.076-23.07,19.767a4.612,4.612,0,0,0,3.209,1.276h55.854a4.609,4.609,0,0,0,3.2-1.276l-23.07-19.767Zm0,0" transform="translate(-2543.775 -400.231)" fill="#fff"/><path d="M2607.521,422.669a4.568,4.568,0,0,0-3.2-1.275h-55.854a4.655,4.655,0,0,0-3.209,1.275l31.148,26.686Zm0,0" transform="translate(-2543.775 -421.394)" fill="#fff"/><path d="M2545,422.1v38.7l22.522-19.138Zm0,0" transform="translate(-2545 -418.002)" fill="#fff"/><path d="M2552.332,441.68l22.521,19.138V422.093Zm0,0" transform="translate(-2509.629 -418.022)" fill="#fff"/></svg>