<svg xmlns="http://www.w3.org/2000/svg" width="23" height="22" viewBox="0 0 23 22"><g transform="translate(0.23 0.419)"><rect width="23" height="22" rx="4" transform="translate(-0.23 -0.419)" fill="#b7b7b7"/><path d="M-156.736,176.49a7.445,7.445,0,0,0-8.6-8.869,4.353,4.353,0,0,0-6.66,3.629,4.226,4.226,0,0,0,.6,2.168,7.446,7.446,0,0,0,8.716,8.753,4.324,4.324,0,0,0,5.95-5.681Zm-5,3.084a6.791,6.791,0,0,1-5.026-.149c-1.96-1.045-2.308-3.4-.618-3.4,1.274,0,.871,1.486,2.158,2.091a3.121,3.121,0,0,0,2.6-.2,1.021,1.021,0,0,0,.266-1.622c-1.05-.969-4.053-.584-5.427-2.281a2.467,2.467,0,0,1,.024-2.976c1.278-1.645,5.029-1.745,6.642-.5,1.489,1.153,1.087,2.682-.115,2.682-1.445,0-.686-1.891-3.019-1.891-1.691,0-2.357,1.2-1.166,1.788,1.615.8,5.73.534,5.73,3.669a2.981,2.981,0,0,1-2.048,2.785Zm0,0" transform="translate(175.244 -163.844)" fill="#fff"/></g></svg>