<?xml version="1.0" encoding="utf-8"?>
<!-- Generator: Adobe Illustrator 24.0.0, SVG Export Plug-In . SVG Version: 6.00 Build 0)  -->
<svg version="1.1" id="Layer_1" xmlns="http://www.w3.org/2000/svg" xmlns:xlink="http://www.w3.org/1999/xlink" x="0px" y="0px"
	 viewBox="0 0 24 24" style="enable-background:new 0 0 24 24;" xml:space="preserve">
<style type="text/css">
	.st0{fill:#FFFFFF;}
</style>
<path class="st0" d="M23,14C24.3,6.2,17.6-0.4,9.9,1C4.1-2.6-2.6,4.2,1,10c-1.4,7.7,5.4,14.5,13.1,13C19.9,26.6,26.6,19.8,23,14z
	 M12.4,19.9c-3.2,0-6.4-1.4-6.4-3.9c0-0.8,0.6-1.4,1.3-1.4c1.9,0,1.9,2.8,4.8,2.8c2.1,0,2.8-1.1,2.8-1.9c0-2.9-9-1.1-9-6.5
	c0-2.9,2.4-5,6.2-4.7c3.6,0.2,5.7,1.8,5.9,3.3c0.1,1-0.5,1.7-1.7,1.7c-1.6,0-1.8-2.2-4.6-2.2c-1.3,0-2.3,0.5-2.3,1.7
	c0,2.4,9,1,9,6.3C18.4,17.9,16,19.9,12.4,19.9z"/>
</svg>
