<svg xmlns="http://www.w3.org/2000/svg" width="60.561" height="57.318" viewBox="0 0 60.561 57.318"><g transform="translate(0.5 0.5)"><path d="M1042.663,373.937q.6-.126,1.2-.283Q1043.263,373.81,1042.663,373.937Z" transform="translate(-1024.661 -324.775)" fill="#f5f5f5"/><path d="M984.127,375.192s0,0,0,0S984.127,375.191,984.127,375.192Z" transform="translate(-973.702 -326.111)" fill="#f5f5f5"/><path d="M984.643,376.011a17.782,17.782,0,0,0,6.709-.029,17.782,17.782,0,0,1-6.709.029.631.631,0,0,1-.231-.144A.631.631,0,0,0,984.643,376.011Z" transform="translate(-973.951 -326.702)" fill="#f5f5f5"/><path d="M1235.211,137.856c0,1.52,0,3.041,0,4.561,0,1.5.005,3.008,0,4.512,0-1.5,0-3.008,0-4.512C1235.209,140.9,1235.214,139.376,1235.211,137.856Z" transform="translate(-1192.281 -119.503)" fill="#f5f5f5"/><path d="M920.587,51.53c-1.463-1.346-2.872-2.752-4.359-4.074a1.265,1.265,0,0,1-.193-.323.631.631,0,0,1-.231-.144.145.145,0,0,1-.036-.084s0,0,0,0a.135.135,0,0,1,0-.031.357.357,0,0,1,.14-.185,5.838,5.838,0,0,1,.535-.362,12.856,12.856,0,0,0,4.331-4.077c.877-1.48.736-2.343-.356-3.436-6.131-6.139-8.835-13.483-7.486-22.15a24.909,24.909,0,0,1,6.26-12.8,27.956,27.956,0,0,1,6.873-5.526c.128-.075.312-.1.382-.252H913.887A8.294,8.294,0,0,0,905.6,6.367V45.6a8.294,8.294,0,0,0,8.285,8.285h9.288c-.171-.146-.4-.239-.553-.4Q921.628,52.485,920.587,51.53Z" transform="translate(-905.343 2.177)" fill="#fff"/><path d="M910.984-1.835a7.8,7.8,0,0,0-6.266,6.719A8.57,8.57,0,0,1,910.984-1.835Z" transform="translate(-904.574 2.105)" fill="#f5f5f5"/><path d="M912.707,381.605a8.556,8.556,0,0,1-8.461-7.363,7.752,7.752,0,0,0,7.37,7.49c3.532.137,7.074.021,10.611.018a.638.638,0,0,0-.039-.144Z" transform="translate(-904.163 -325.287)" fill="#f5f5f5"/><path d="M1075.836,391.237h-32.991a.638.638,0,0,1,.039.145c.258.008.516.024.775.024q9.352,0,18.705,0c4.66,0,9.32.019,13.98-.007a7.806,7.806,0,0,0,7.625-6.094A8.558,8.558,0,0,1,1075.836,391.237Z" transform="translate(-1024.819 -334.919)" fill="#f5f5f5"/><path d="M1034.353,308.975a28.533,28.533,0,0,1-8.72,5.981,32.236,32.236,0,0,1-24.281.932,3.769,3.769,0,0,0-2.222-.1c-1.085.278-2.161.6-3.232.925q-.6.182-1.194.339t-1.2.283q-.3.063-.6.118a17.781,17.781,0,0,1-6.709.029,1.27,1.27,0,0,0,.193.323c1.487,1.323,2.9,2.728,4.359,4.074q1.04.957,2.035,1.956c.157.158.382.251.553.4h33.184a8.294,8.294,0,0,0,8.285-8.285v-7.3l-.006-.011C1034.572,308.657,1034.48,308.848,1034.353,308.975Z" transform="translate(-975.503 -268.176)" fill="#fff"/><path d="M1034.7,133.217c-1.828-.016-3.656,0-5.615,0,.215-.282.341-.453.473-.62q2.543-3.227,5.086-6.453a8.792,8.792,0,0,0,1.3-2,1.408,1.408,0,0,0-.9-1.963,3.7,3.7,0,0,0-1.214-.148q-3.463-.011-6.925,0a3.618,3.618,0,0,0-.958.118,1.361,1.361,0,0,0,.024,2.645,3.941,3.941,0,0,0,.959.109c1.4.011,2.8,0,4.207.01.151,0,.345-.1.467.123-.115.151-.23.305-.349.456q-3,3.813-6,7.626a1.92,1.92,0,0,0-.387,2.1,1.9,1.9,0,0,0,1.844.967c.6.035,1.207.014,1.811.014,2.093,0,4.185.014,6.278-.009a1.443,1.443,0,0,0,1.587-1.716C1036.282,133.663,1035.727,133.226,1034.7,133.217Z" transform="translate(-1009.011 -105.715)" fill="#fff"/><path d="M1123.1,147.177a2.025,2.025,0,0,0-1.161.879,4.113,4.113,0,0,0-5.157-.464,5.391,5.391,0,0,0-2.634,5.636c.25,2.2,1.2,4,3.505,4.745a3.962,3.962,0,0,0,3.946-.657c.3-.247.4-.2.616.076a1.586,1.586,0,0,0,1.809.5,1.527,1.527,0,0,0,1.076-1.465c.016-2.588.028-5.176-.006-7.763A1.593,1.593,0,0,0,1123.1,147.177Zm-1.8,7.173a2.124,2.124,0,0,1-3.394,0,2.83,2.83,0,0,1-.545-1.564c-.015-1.829.979-2.927,2.4-2.844a1.967,1.967,0,0,1,1.536.825A3.214,3.214,0,0,1,1121.3,154.351Z" transform="translate(-1086.847 -127.373)" fill="#fff"/><path d="M1249.13,147.348c-3.1.1-5.283,2.579-5.184,5.9a5.282,5.282,0,0,0,5.994,5.345,5.644,5.644,0,0,0-.81-11.249Zm1.979,7.432a2.127,2.127,0,0,1-3.355-.024,2.928,2.928,0,0,1-.552-1.817c.006-1.609.981-2.678,2.379-2.6a1.966,1.966,0,0,1,1.54.815A3.216,3.216,0,0,1,1251.109,154.779Z" transform="translate(-1199.884 -127.762)" fill="#fff"/><path d="M1213.277,120.969c0-1.52.005-3.041,0-4.561q0-.76-.006-1.52a1.627,1.627,0,1,0-3.252-.019c-.01.6,0,1.208,0,1.811q0,5.143,0,10.286a1.629,1.629,0,1,0,3.252.019q.005-.752.007-1.5C1213.283,123.977,1213.277,122.473,1213.277,120.969Z" transform="translate(-1170.349 -98.054)" fill="#fff"/><path d="M954.619-3.918H912.146A8.554,8.554,0,0,0,903.6,4.626v39.23a8.554,8.554,0,0,0,8.544,8.544h42.473a8.547,8.547,0,0,0,8.544-8.544V4.626A8.554,8.554,0,0,0,954.619-3.918ZM962.9,36.556v7.3a8.3,8.3,0,0,1-8.285,8.285H912.146a8.294,8.294,0,0,1-8.285-8.285V4.626a8.294,8.294,0,0,1,8.285-8.285h42.473A8.3,8.3,0,0,1,962.9,4.626Z" transform="translate(-903.602 3.918)" fill="#fff" stroke="#fff" stroke-width="1"/></g></svg>