<svg xmlns="http://www.w3.org/2000/svg" width="24.128" height="22.869" viewBox="0 0 24.128 22.869"><g transform="translate(0.5 0.5)"><path d="M976.613-1.918H965c-.027.057-.1.069-.148.1A10.853,10.853,0,0,0,962.181.326,9.673,9.673,0,0,0,959.75,5.3a9.536,9.536,0,0,0,2.907,8.6.918.918,0,0,1,.138,1.334,4.993,4.993,0,0,1-1.682,1.583,2.254,2.254,0,0,0-.208.141.138.138,0,0,0-.054.072.048.048,0,0,0,0,.012v0a.057.057,0,0,0,.014.033.245.245,0,0,0,.09.056,6.9,6.9,0,0,0,2.605-.011q.117-.021.233-.046.233-.049.465-.11t.464-.132c.416-.127.834-.251,1.255-.359a1.464,1.464,0,0,1,.863.038,12.518,12.518,0,0,0,9.428-.362,11.08,11.08,0,0,0,3.386-2.322c.049-.049.085-.124.173-.131l0,0V1.3A3.221,3.221,0,0,0,976.613-1.918Zm-9.8,11.732c-.812.009-1.625,0-2.438,0-.235,0-.47.008-.7-.005a.737.737,0,0,1-.716-.375.746.746,0,0,1,.15-.817l2.331-2.961c.046-.059.091-.118.135-.177-.047-.086-.123-.047-.181-.048-.545,0-1.089,0-1.634,0a1.53,1.53,0,0,1-.372-.042.529.529,0,0,1-.009-1.027,1.406,1.406,0,0,1,.372-.046q1.344-.005,2.689,0a1.438,1.438,0,0,1,.472.058.547.547,0,0,1,.351.762,3.414,3.414,0,0,1-.5.778q-.986,1.254-1.975,2.506c-.051.065-.1.131-.184.241.761,0,1.471,0,2.18,0,.4,0,.614.173.651.487A.561.561,0,0,1,966.813,9.814Zm4.844-.55a.593.593,0,0,1-.418.569.616.616,0,0,1-.7-.195c-.085-.107-.121-.125-.239-.03a1.538,1.538,0,0,1-1.532.255A1.973,1.973,0,0,1,967.4,8.021a2.093,2.093,0,0,1,1.023-2.188,1.6,1.6,0,0,1,2,.18.786.786,0,0,1,.451-.341.619.619,0,0,1,.775.578C971.668,7.254,971.663,8.259,971.657,9.264Zm1.817-.632q0,.292,0,.584a.633.633,0,1,1-1.263-.007q0-2,0-3.994c0-.234,0-.469,0-.7a.632.632,0,1,1,1.263.007q0,.3,0,.59c0,.59,0,1.181,0,1.771S973.475,8.048,973.473,8.632Zm2.767,1.323a2.051,2.051,0,0,1-2.328-2.076,2.138,2.138,0,1,1,4.27-.216A2.1,2.1,0,0,1,976.24,9.955Z" transform="translate(-956.803 2.019)" fill="#fff"/><path d="M1042.663,373.764q.233-.049.465-.11Q1042.9,373.715,1042.663,373.764Z" transform="translate(-1035.673 -354.674)" fill="#fdfefe"/><path d="M984.126,375.19h0Z" transform="translate(-980.078 -356.131)" fill="#fdfefe"/><path d="M984.5,375.923a6.9,6.9,0,0,0,2.605-.011,6.9,6.9,0,0,1-2.605.011.244.244,0,0,1-.09-.056A.244.244,0,0,0,984.5,375.923Z" transform="translate(-980.35 -356.775)" fill="#fdfefe"/><path d="M1235.21,137.856c0,.59,0,1.181,0,1.771s0,1.168,0,1.752c0-.584,0-1.168,0-1.752S1235.211,138.446,1235.21,137.856Z" transform="translate(-1218.539 -130.729)" fill="#fdfefe"/><path d="M911.421,18.837c-.568-.523-1.115-1.069-1.693-1.582a.492.492,0,0,1-.075-.125.244.244,0,0,1-.09-.056.057.057,0,0,1-.014-.033v0a.051.051,0,0,1,0-.012.138.138,0,0,1,.054-.072,2.262,2.262,0,0,1,.208-.141,4.993,4.993,0,0,0,1.682-1.583.918.918,0,0,0-.138-1.334,9.536,9.536,0,0,1-2.907-8.6A9.672,9.672,0,0,1,910.88.326a10.855,10.855,0,0,1,2.669-2.146c.05-.029.121-.041.148-.1h-4.878A3.221,3.221,0,0,0,905.6,1.3V16.533a3.221,3.221,0,0,0,3.217,3.217h3.607c-.066-.057-.154-.093-.215-.154Q911.825,19.208,911.421,18.837Z" transform="translate(-905.502 2.019)" fill="#b7b7b7"/><path d="M907.151-1.835A3.028,3.028,0,0,0,904.718.774,3.328,3.328,0,0,1,907.151-1.835Z" transform="translate(-904.662 1.94)" fill="#0180c7"/><path d="M907.531,377.1a3.322,3.322,0,0,1-3.286-2.859,3.01,3.01,0,0,0,2.862,2.909c1.372.053,2.747.008,4.121.007a.239.239,0,0,0-.015-.056Z" transform="translate(-904.214 -355.232)" fill="#0180c7"/><path d="M1055.656,387.609h-12.811a.245.245,0,0,1,.015.056c.1,0,.2.009.3.009h7.264c1.81,0,3.619.007,5.429,0a3.031,3.031,0,0,0,2.961-2.366A3.323,3.323,0,0,1,1055.656,387.609Z" transform="translate(-1035.845 -365.74)" fill="#0172b1"/><path d="M1004.9,308.769a11.079,11.079,0,0,1-3.386,2.322,12.518,12.518,0,0,1-9.429.362,1.464,1.464,0,0,0-.863-.038c-.421.108-.839.232-1.255.359q-.231.071-.464.132t-.465.11q-.117.025-.233.046a6.9,6.9,0,0,1-2.605.011.49.49,0,0,0,.075.125c.577.514,1.124,1.06,1.692,1.582q.4.372.79.76c.061.061.148.1.215.154h12.886a3.221,3.221,0,0,0,3.217-3.217v-2.835l0,0C1004.98,308.645,1004.945,308.719,1004.9,308.769Z" transform="translate(-982.043 -292.926)" fill="#b7b7b7"/><path d="M1028.575,126.367c-.71-.006-1.42,0-2.18,0,.083-.109.132-.176.184-.241q.987-1.253,1.975-2.506a3.412,3.412,0,0,0,.5-.778.547.547,0,0,0-.351-.762,1.438,1.438,0,0,0-.472-.058q-1.344,0-2.689,0a1.4,1.4,0,0,0-.372.046.529.529,0,0,0,.009,1.027,1.531,1.531,0,0,0,.372.042c.544,0,1.089,0,1.634,0,.059,0,.134-.038.181.048-.045.059-.089.118-.135.177l-2.331,2.961a.746.746,0,0,0-.15.817.737.737,0,0,0,.716.375c.234.013.469.005.7.005.813,0,1.625.006,2.438,0a.56.56,0,0,0,.616-.666C1029.189,126.54,1028.974,126.37,1028.575,126.367Z" transform="translate(-1018.599 -115.688)" fill="#b7b7b7"/><path d="M1117.592,147.006a.786.786,0,0,0-.451.341,1.6,1.6,0,0,0-2-.18,2.093,2.093,0,0,0-1.023,2.188,1.974,1.974,0,0,0,1.361,1.843,1.539,1.539,0,0,0,1.532-.255c.118-.1.154-.077.239.03a.616.616,0,0,0,.7.195.593.593,0,0,0,.418-.569c.006-1,.011-2.01,0-3.015A.619.619,0,0,0,1117.592,147.006Zm-.7,2.786a.825.825,0,0,1-1.318,0,1.1,1.1,0,0,1-.211-.607c-.006-.71.38-1.137.931-1.1a.764.764,0,0,1,.6.32A1.249,1.249,0,0,1,1116.894,149.791Z" transform="translate(-1103.515 -139.316)" fill="#b7b7b7"/><path d="M1245.958,147.346a2.091,2.091,0,0,0-2.013,2.292,2.051,2.051,0,0,0,2.328,2.076,2.191,2.191,0,0,0-.315-4.368Zm.768,2.886a.826.826,0,0,1-1.3-.009,1.137,1.137,0,0,1-.214-.706.9.9,0,0,1,.924-1.011.764.764,0,0,1,.6.317A1.249,1.249,0,0,1,1246.726,150.231Z" transform="translate(-1226.834 -139.74)" fill="#b7b7b7"/><path d="M1211.282,116.228c0-.59,0-1.181,0-1.771q0-.3,0-.59a.632.632,0,1,0-1.263-.007c0,.234,0,.469,0,.7q0,2,0,3.994a.633.633,0,1,0,1.263.007q0-.292,0-.584C1211.285,117.4,1211.282,116.812,1211.282,116.228Z" transform="translate(-1194.613 -107.33)" fill="#b7b7b7"/><path d="M1140.246,170.415c-.551-.032-.937.394-.931,1.1a1.1,1.1,0,0,0,.211.607.825.825,0,0,0,1.318,0,1.248,1.248,0,0,0,0-1.39A.764.764,0,0,0,1140.246,170.415Z" transform="translate(-1127.466 -161.65)" fill="#fdfefe"/><path d="M1270.039,170.411a.9.9,0,0,0-.924,1.011,1.137,1.137,0,0,0,.214.706.826.826,0,0,0,1.3.009,1.249,1.249,0,0,0,0-1.41A.764.764,0,0,0,1270.039,170.411Z" transform="translate(-1250.74 -161.647)" fill="#fdfefe"/><path d="M923.413-3.918H906.92a3.312,3.312,0,0,0-.829.1A3.328,3.328,0,0,0,903.658-1.2a3.318,3.318,0,0,0-.056.6V14.634a3.322,3.322,0,0,0,3.318,3.318h16.493a3.319,3.319,0,0,0,3.318-3.318V-.6A3.322,3.322,0,0,0,923.413-3.918ZM926.63,11.8v2.835a3.221,3.221,0,0,1-3.217,3.217H906.92a3.221,3.221,0,0,1-3.217-3.217V-.6a3.221,3.221,0,0,1,3.217-3.217h16.493A3.221,3.221,0,0,1,926.63-.6Z" transform="translate(-903.602 3.918)" fill="#b7b7b7" stroke="#b7b7b7" stroke-width="1"/></g></svg>